<?xml version="1.0" encoding="UTF-8" standalone="no"?>
<!-- Created with Inkscape (http://www.inkscape.org/) -->

<svg
   width="256"
   height="256"
   viewBox="0 0 256 256"
   version="1.1"
   id="svg5"
   inkscape:version="1.2.1 (9c6d41e410, 2022-07-14)"
   sodipodi:docname="consume.svg"
   xmlns:inkscape="http://www.inkscape.org/namespaces/inkscape"
   xmlns:sodipodi="http://sodipodi.sourceforge.net/DTD/sodipodi-0.dtd"
   xmlns="http://www.w3.org/2000/svg"
   xmlns:svg="http://www.w3.org/2000/svg">
  <sodipodi:namedview
     id="namedview7"
     pagecolor="#505050"
     bordercolor="#ffffff"
     borderopacity="1"
     inkscape:showpageshadow="0"
     inkscape:pageopacity="0"
     inkscape:pagecheckerboard="1"
     inkscape:deskcolor="#505050"
     inkscape:document-units="px"
     showgrid="true"
     inkscape:lockguides="true"
     inkscape:zoom="1.6191406"
     inkscape:cx="28.410133"
     inkscape:cy="209.98794"
     inkscape:window-width="1920"
     inkscape:window-height="1009"
     inkscape:window-x="-8"
     inkscape:window-y="-8"
     inkscape:window-maximized="1"
     inkscape:current-layer="layer1">
    <inkscape:grid
       type="xygrid"
       id="grid234"
       empspacing="4"
       originx="0"
       originy="0" />
  </sodipodi:namedview>
  <defs
     id="defs2" />
  <g
     inkscape:label="Layer 1"
     inkscape:groupmode="layer"
     id="layer1">
    <g
       id="Layer_2"
       data-name="Layer 2"
       transform="matrix(17.922106,0,0,17.921903,2.0441421,1.9406642)">
      <g
         id="Layer_1-2"
         data-name="Layer 1">
        <path
           class="cls-1"
           d="M 13.75,7 A 6.73,6.73 0 1 1 7,0.3 6.72,6.72 0 0 1 13.75,7"
           id="path468"
           style="fill:#e26969" />
        <circle
           class="cls-2"
           cx="7.0300002"
           cy="7.0300002"
           r="6.73"
           transform="rotate(-5.65,7.0668177,7.0525338)"
           id="circle470"
           style="fill:none;stroke:#ffffff;stroke-width:0.6px;stroke-miterlimit:10" />
        <path
           class="cls-3"
           d="M 10.82,3.75 C 10.64,3.48 10.1,2.88 9.54,3.36 9.35,3.52 8.42,4.54 7.33,5.74 6.59,4.86 6,4.14 6,4.13 5.62,3.71 4.26,4.47 3.86,4.87 L 5.9,7.33 c -1.33,1.49 -2.54,2.85 -2.66,3 0.17,0.27 0.71,0.87 1.27,0.39 C 4.7,10.56 5.63,9.54 6.72,8.34 L 8.08,9.93 C 8.46,10.34 9.82,9.59 10.22,9.19 10.12,9.06 9.14,7.9 8.15,6.72 c 1.33,-1.49 2.54,-2.84 2.67,-3"
           id="path472"
           style="fill:#ffffff" />
      </g>
    </g>
  </g>
</svg>
