<?xml version="1.0" encoding="UTF-8" standalone="no"?>
<svg
   viewBox="0 0 560 560"
   version="1.1"
   id="svg468"
   sodipodi:docname="EarthEmpty.svg"
   inkscape:version="1.2.1 (9c6d41e410, 2022-07-14)"
   xmlns:inkscape="http://www.inkscape.org/namespaces/inkscape"
   xmlns:sodipodi="http://sodipodi.sourceforge.net/DTD/sodipodi-0.dtd"
   xmlns="http://www.w3.org/2000/svg"
   xmlns:svg="http://www.w3.org/2000/svg">
  <sodipodi:namedview
     id="namedview470"
     pagecolor="#505050"
     bordercolor="#ffffff"
     borderopacity="1"
     inkscape:showpageshadow="0"
     inkscape:pageopacity="0"
     inkscape:pagecheckerboard="1"
     inkscape:deskcolor="#505050"
     showgrid="false"
     inkscape:zoom="1.4803571"
     inkscape:cx="242.17129"
     inkscape:cy="279.66224"
     inkscape:window-width="1920"
     inkscape:window-height="1009"
     inkscape:window-x="-8"
     inkscape:window-y="-8"
     inkscape:window-maximized="1"
     inkscape:current-layer="svg468" />
  <defs
     id="defs458">
    <style
       id="style456">.cls-1{fill:#89a53d;}.cls-2{fill:#fff;}</style>
  </defs>
  <g
     id="Layer_2"
     data-name="Layer 2">
    <g
       id="Layer_1-2"
       data-name="Layer 1">
      <path
         class="cls-1"
         d="M 280,552 A 272,272 0 0 1 87.67,87.67 272,272 0 1 1 472.33,472.33 270.19,270.19 0 0 1 280,552"
         id="path460"
         style="display:none" />
      <path
         class="cls-2"
         d="M280,16c145.8,0,264,118.2,264,264S425.8,544,280,544,16,425.8,16,280,134.2,16,280,16m0-16A280.07,280.07,0,0,0,171,538,280.07,280.07,0,0,0,389,22,278.34,278.34,0,0,0,280,0"
         id="path462" />
      <path
         class="cls-2"
         d="M171.85,374.85a5.38,5.38,0,0,1-8.27,4C139.3,363.06,78,298.16,152,216c73.49-81.56,169.57-37.86,265.71-95.87a4.94,4.94,0,0,1,7.4,3.15c13.13,59.17,21,188-39.11,247.22-73.5,72.5-133.5,40.5-166,29-1.5,18,4.5,41.92,9.5,58.42s-27,21.08-31,18.08S179.9,392.28,217,343c47.5-63,163-118,166.5-162.5-22.5,20-51.81,46.52-129,89.5-68.44,38.11-80.63,85.6-82.66,104.82"
         id="path464" />
    </g>
  </g>
</svg>
