<?xml version="1.0" encoding="UTF-8" standalone="no"?>
<svg
   viewBox="0 0 560 560"
   version="1.1"
   id="svg610"
   sodipodi:docname="FireEmpty.svg"
   inkscape:version="1.2.1 (9c6d41e410, 2022-07-14)"
   xmlns:inkscape="http://www.inkscape.org/namespaces/inkscape"
   xmlns:sodipodi="http://sodipodi.sourceforge.net/DTD/sodipodi-0.dtd"
   xmlns="http://www.w3.org/2000/svg"
   xmlns:svg="http://www.w3.org/2000/svg">
  <sodipodi:namedview
     id="namedview612"
     pagecolor="#505050"
     bordercolor="#ffffff"
     borderopacity="1"
     inkscape:showpageshadow="0"
     inkscape:pageopacity="0"
     inkscape:pagecheckerboard="1"
     inkscape:deskcolor="#505050"
     showgrid="false"
     inkscape:zoom="1.4803571"
     inkscape:cx="242.17129"
     inkscape:cy="279.66224"
     inkscape:window-width="1920"
     inkscape:window-height="1009"
     inkscape:window-x="-8"
     inkscape:window-y="-8"
     inkscape:window-maximized="1"
     inkscape:current-layer="svg610" />
  <defs
     id="defs600">
    <style
       id="style598">.cls-1{fill:#e15426;}.cls-2{fill:#fff;}</style>
  </defs>
  <g
     id="Layer_2"
     data-name="Layer 2">
    <g
       id="Layer_1-2"
       data-name="Layer 1">
      <path
         class="cls-1"
         d="M 280,552 A 272,272 0 0 1 87.67,87.67 272,272 0 1 1 472.33,472.33 270.19,270.19 0 0 1 280,552"
         id="path602"
         style="display:none" />
      <path
         class="cls-2"
         d="M280,16c145.8,0,264,118.2,264,264S425.8,544,280,544,16,425.8,16,280,134.2,16,280,16m0-16A280.07,280.07,0,0,0,171,538,280.07,280.07,0,0,0,389,22,278.34,278.34,0,0,0,280,0"
         id="path604" />
      <path
         class="cls-2"
         d="M366.06,210.05c-42.5-34.5-58.5-99.5-47-143.5-25.5,2.5-66.27,25.29-83.5,89.5-22,82,44,140.5,0,170.5-51.44,35.08-86.5-26-82-82.5-30,23.5-48.45,119.58-9.5,178,28,42,63.81,66.14,109.52,71.4-14.75-10.45-15.74-29.92-10.52-44.9,7.5-21.5,32.24-31.1,55.5-49,26-20,37-40,38.5-49.5,13,19.5,28.58,48.32,15.5,91-6,19.62-17,38.34-34.34,49.45,55-14.2,119.67-61.89,119.84-145.95.16-75-37.86-106.79-72-134.5"
         id="path606" />
    </g>
  </g>
</svg>
