<?xml version="1.0" encoding="UTF-8" standalone="no"?>
<!-- Created with Inkscape (http://www.inkscape.org/) -->

<svg
   width="512"
   height="512"
   viewBox="0 0 128 128"
   version="1.1"
   id="svg1"
   inkscape:version="1.4 (86a8ad7, 2024-10-11)"
   sodipodi:docname="Bane.svg"
   xmlns:inkscape="http://www.inkscape.org/namespaces/inkscape"
   xmlns:sodipodi="http://sodipodi.sourceforge.net/DTD/sodipodi-0.dtd"
   xmlns="http://www.w3.org/2000/svg"
   xmlns:svg="http://www.w3.org/2000/svg">
  <sodipodi:namedview
     id="namedview1"
     pagecolor="#505050"
     bordercolor="#eeeeee"
     borderopacity="1"
     inkscape:showpageshadow="0"
     inkscape:pageopacity="0"
     inkscape:pagecheckerboard="0"
     inkscape:deskcolor="#505050"
     inkscape:document-units="px"
     showgrid="true"
     inkscape:zoom="1.1255704"
     inkscape:cx="292.29625"
     inkscape:cy="261.64513"
     inkscape:window-width="1920"
     inkscape:window-height="1017"
     inkscape:window-x="-8"
     inkscape:window-y="-8"
     inkscape:window-maximized="1"
     inkscape:current-layer="layer1">
    <inkscape:grid
       id="grid1"
       units="px"
       originx="0"
       originy="0"
       spacingx="2"
       spacingy="2"
       empcolor="#0099e5"
       empopacity="0.30196078"
       color="#0099e5"
       opacity="0.14901961"
       empspacing="4"
       enabled="true"
       visible="true"
       dotted="false" />
  </sodipodi:namedview>
  <defs
     id="defs1" />
  <g
     inkscape:label="Layer 1"
     inkscape:groupmode="layer"
     id="layer1">
    <g
       id="Layer_2"
       data-name="Layer 2"
       transform="matrix(0.22032213,0,0,0.22033653,0.25071087,0.25)">
      <g
         id="Bane">
        <path
           class="cls-1"
           d="m 289.35,573.68 a 14.61,14.61 0 0 1 -10.39,-4.3 L 9.32,299.73 a 14.68,14.68 0 0 1 0,-20.77 L 279,9.28 a 14.71,14.71 0 0 1 20.77,0 L 569.38,279 a 14.69,14.69 0 0 1 0,20.77 L 299.73,569.38 a 14.57,14.57 0 0 1 -10.38,4.3"
           id="path1"
           style="fill:#252528" />
        <path
           class="cls-2"
           d="m 289.35,10 a 9.58,9.58 0 0 1 6.84,2.82 l 269.65,269.69 a 9.67,9.67 0 0 1 0,13.68 L 296.19,565.84 a 9.63,9.63 0 0 1 -13.68,0 L 12.86,296.19 a 9.67,9.67 0 0 1 0,-13.68 L 282.51,12.83 A 9.58,9.58 0 0 1 289.35,10 m 0,-10 A 19.68,19.68 0 0 0 275.42,5.78 L 5.78,275.42 a 19.62,19.62 0 0 0 0,27.82 l 269.64,269.68 a 19.76,19.76 0 0 0 27.85,0 L 572.92,303.24 a 19.64,19.64 0 0 0 0,-27.82 L 303.27,5.78 A 19.65,19.65 0 0 0 289.35,0"
           id="path2"
           style="fill:#ffffff" />
        <path
           class="cls-2"
           d="m 336.21,243.85 a 67.09,67.09 0 0 0 -47.14,19.26 67.35,67.35 0 0 0 -114.5,48.1 c 0,12 3.13,29.51 17.5,48.14 24,31 58.18,57.22 94.91,80.74 a 3.88,3.88 0 0 0 4.19,0 c 36.72,-23.52 70.94,-49.69 94.9,-80.74 14.38,-18.63 17.5,-36.14 17.5,-48.14 a 67.36,67.36 0 0 0 -67.36,-67.36"
           id="path3"
           style="fill:#ffffff" />
        <path
           class="cls-2"
           d="m 321.1,63.59 a 190.81,190.81 0 0 0 -64.06,-0.1 l 3.17,17.67 c 3.37,0.35 6.7,0.62 10,0.83 v 65.74 H 307.9 V 82.06 c 3.3,-0.21 6.64,-0.45 10,-0.79 z"
           id="path4"
           style="fill:#ffffff" />
        <path
           class="cls-2"
           d="m 368.48,164.85 -4.33,17.29 H 323.2 v 41.54 a 76.8,76.8 0 0 0 -34.11,12.93 77.07,77.07 0 0 0 -34.18,-12.93 V 182.14 H 214 l -4.33,-17.29 z"
           id="path5"
           style="fill:#ffffff" />
        <path
           class="cls-2"
           d="m 254.94,323 v 158.24 l 31.05,40 a 3.9,3.9 0 0 0 6.18,0 l 31.05,-40 V 323 Z"
           id="path6"
           style="fill:#ffffff" />
        <path
           class="cls-3"
           d="m 242.63,343.63 c 0,0 4.09,34.28 12.31,51 v -47.49 z"
           id="path7"
           style="fill:#282828" />
        <path
           class="cls-3"
           d="m 335.52,343.63 c 0,0 -4.1,34.28 -12.31,51 v -47.49 z"
           id="path8"
           style="fill:#282828" />
        <path
           class="cls-3"
           d="m 289.07,348.49 c -26.3,0 -54.32,-9.36 -54.32,-9.36 20.18,20.91 54.32,34.15 54.32,34.15 0,0 34.15,-13.28 54.33,-34.15 0,0 -28,9.36 -54.33,9.36"
           id="path9"
           style="fill:#282828" />
        <path
           class="cls-3"
           d="m 248.78,350 c 5.43,2.68 4.37,8.28 18.84,14.61 10,4.37 24.18,13.86 21.36,44.08 -0.66,6.64 -8.53,18.09 -7.29,30.54 1.1,11.62 8,15.74 14.47,14.75 6.78,-1.07 12.86,-7.91 13,-15.34 0.34,-16.26 -7.74,-19.91 -9,-30.36 -0.82,-7.05 0.66,-33.18 5.5,-39.4 4.23,-5.44 12.55,-8.39 18.09,-13.83 7.19,-7 -5.85,-3.09 -5.85,-3.09 0,0 -37.47,3.64 -69.11,-2"
           id="path10"
           style="fill:#282828" />
      </g>
    </g>
  </g>
</svg>
