<?xml version="1.0" encoding="UTF-8" standalone="no"?>
<!-- Created with Inkscape (http://www.inkscape.org/) -->

<svg
   width="512"
   height="512"
   viewBox="0 0 128 128"
   version="1.1"
   id="svg1"
   inkscape:version="1.4 (86a8ad7, 2024-10-11)"
   sodipodi:docname="Curse.svg"
   xmlns:inkscape="http://www.inkscape.org/namespaces/inkscape"
   xmlns:sodipodi="http://sodipodi.sourceforge.net/DTD/sodipodi-0.dtd"
   xmlns="http://www.w3.org/2000/svg"
   xmlns:svg="http://www.w3.org/2000/svg">
  <sodipodi:namedview
     id="namedview1"
     pagecolor="#505050"
     bordercolor="#eeeeee"
     borderopacity="1"
     inkscape:showpageshadow="0"
     inkscape:pageopacity="0"
     inkscape:pagecheckerboard="0"
     inkscape:deskcolor="#505050"
     inkscape:document-units="px"
     showgrid="true"
     inkscape:zoom="1.5917969"
     inkscape:cx="255.68589"
     inkscape:cy="256"
     inkscape:window-width="1920"
     inkscape:window-height="1017"
     inkscape:window-x="-8"
     inkscape:window-y="-8"
     inkscape:window-maximized="1"
     inkscape:current-layer="layer1">
    <inkscape:grid
       id="grid1"
       units="px"
       originx="0"
       originy="0"
       spacingx="2"
       spacingy="2"
       empcolor="#0099e5"
       empopacity="0.30196078"
       color="#0099e5"
       opacity="0.14901961"
       empspacing="4"
       enabled="true"
       visible="true"
       dotted="false" />
  </sodipodi:namedview>
  <defs
     id="defs1">
    <clipPath
       id="clip-path">
      <path
         class="cls-1"
         d="M 289.32,0 A 19.68,19.68 0 0 0 275.43,5.78 L 5.77,275.44 a 19.68,19.68 0 0 0 0,27.82 l 269.66,269.65 a 19.59,19.59 0 0 0 13.34,5.79 h 1.14 a 19.8,19.8 0 0 0 13.38,-5.79 L 573,303.26 a 19.64,19.64 0 0 0 5.74,-13.09 v -1.69 a 19.62,19.62 0 0 0 -5.74,-13 L 303.29,5.78 A 19.73,19.73 0 0 0 289.32,0 Z"
         id="path1" />
    </clipPath>
  </defs>
  <g
     inkscape:label="Layer 1"
     inkscape:groupmode="layer"
     id="layer1">
    <g
       id="Layer_2"
       data-name="Layer 2"
       transform="matrix(0.22032337,0,0,0.2203211,0.24962095,0.25000172)">
      <g
         id="Curse">
        <path
           class="cls-2"
           d="m 289.35,573.69 a 14.59,14.59 0 0 1 -10.39,-4.3 L 9.31,299.73 a 14.68,14.68 0 0 1 0,-20.77 L 279,9.3 a 14.69,14.69 0 0 1 20.77,0 L 569.39,279 a 14.69,14.69 0 0 1 0,20.77 L 299.73,569.39 a 14.57,14.57 0 0 1 -10.38,4.3"
           id="path2"
           style="fill:#7d58a4" />
        <path
           class="cls-3"
           d="m 289.35,10 a 9.68,9.68 0 0 1 6.84,2.82 l 269.65,269.67 a 9.68,9.68 0 0 1 0,13.72 L 296.19,565.86 a 9.68,9.68 0 0 1 -13.68,0 L 12.85,296.21 a 9.68,9.68 0 0 1 0,-13.72 L 282.51,12.83 A 9.65,9.65 0 0 1 289.35,10 m 0,-10 A 19.69,19.69 0 0 0 275.42,5.78 L 5.76,275.44 a 19.68,19.68 0 0 0 0,27.82 l 269.66,269.65 a 19.65,19.65 0 0 0 27.86,0 L 572.93,303.26 a 19.66,19.66 0 0 0 0,-27.82 L 303.28,5.78 A 19.7,19.7 0 0 0 289.35,0"
           id="path3"
           style="fill:#ffffff" />
        <g
           class="cls-4"
           clip-path="url(#clip-path)"
           id="g4">
          <path
             class="cls-3"
             d="m 161.81,83.34 46.44,213.38 a 5.74,5.74 0 0 0 7.51,4.44 l 53.32,-18.37 a 5.75,5.75 0 0 1 7.59,5.11 l 11,200.26 c 0.34,6.37 9.24,7.47 11.14,1.43 l 94.39,-297 a 5.74,5.74 0 0 0 -6.75,-7.35 l -71,16.68 a 5.75,5.75 0 0 1 -6.72,-7.48 L 355.53,62 C 356.16,60.12 313,2.25 313,2.25 A 5.72,5.72 0 0 0 308.42,0 h -95.49 a 5.7,5.7 0 0 0 -5.11,3.12 c 0,0 -46.22,79 -46,80.21"
             id="path4"
             style="fill:#ffffff" />
        </g>
      </g>
    </g>
  </g>
</svg>
