<?xml version="1.0" encoding="UTF-8" standalone="no"?>
<!-- Created with Inkscape (http://www.inkscape.org/) -->

<svg
   width="512"
   height="512"
   viewBox="0 0 128 128"
   version="1.1"
   id="svg1"
   inkscape:version="1.4 (86a8ad7, 2024-10-11)"
   sodipodi:docname="Disarm.svg"
   xmlns:inkscape="http://www.inkscape.org/namespaces/inkscape"
   xmlns:sodipodi="http://sodipodi.sourceforge.net/DTD/sodipodi-0.dtd"
   xmlns="http://www.w3.org/2000/svg"
   xmlns:svg="http://www.w3.org/2000/svg">
  <sodipodi:namedview
     id="namedview1"
     pagecolor="#505050"
     bordercolor="#eeeeee"
     borderopacity="1"
     inkscape:showpageshadow="0"
     inkscape:pageopacity="0"
     inkscape:pagecheckerboard="0"
     inkscape:deskcolor="#505050"
     inkscape:document-units="px"
     showgrid="true"
     inkscape:zoom="1.1255704"
     inkscape:cx="113.72012"
     inkscape:cy="171.91284"
     inkscape:window-width="1920"
     inkscape:window-height="1017"
     inkscape:window-x="-8"
     inkscape:window-y="-8"
     inkscape:window-maximized="1"
     inkscape:current-layer="layer1">
    <inkscape:grid
       id="grid1"
       units="px"
       originx="0"
       originy="0"
       spacingx="2"
       spacingy="2"
       empcolor="#0099e5"
       empopacity="0.30196078"
       color="#0099e5"
       opacity="0.14901961"
       empspacing="4"
       enabled="true"
       visible="true"
       dotted="false" />
  </sodipodi:namedview>
  <defs
     id="defs1">
    <clipPath
       id="clip-path"
       transform="translate(6.82)">
      <path
         class="cls-1"
         d="m 289.35,0 a 19.66,19.66 0 0 0 -14,5.77 L 5.77,275.42 a 19.75,19.75 0 0 0 0,27.88 l 269.62,269.62 a 19.71,19.71 0 0 0 13.11,5.77 h 1.7 a 19.44,19.44 0 0 0 13,-5.77 L 572.94,303.3 a 19.75,19.75 0 0 0 0,-27.88 L 303.23,5.8 A 19.34,19.34 0 0 0 289.35,0 Z"
         id="path1" />
    </clipPath>
    <clipPath
       id="clip-path-2"
       transform="translate(6.82)">
      <path
         class="cls-1"
         d="m 289.35,0 a 19.66,19.66 0 0 0 -14,5.77 L 5.77,275.42 a 19.75,19.75 0 0 0 0,27.88 l 269.62,269.62 a 19.66,19.66 0 0 0 14,5.77 19.34,19.34 0 0 0 13.88,-5.77 L 572.94,303.3 a 19.75,19.75 0 0 0 0,-27.88 L 303.23,5.8 A 19.34,19.34 0 0 0 289.35,0 Z"
         id="path2" />
    </clipPath>
  </defs>
  <g
     inkscape:label="Layer 1"
     inkscape:groupmode="layer"
     id="layer1">
    <g
       id="Layer_2"
       data-name="Layer 2"
       transform="matrix(0.22032587,0,0,0.22031698,-1.252812,0.25001085)">
      <g
         id="Disarm">
        <path
           class="cls-2"
           d="M 289.34,573.72 A 14.73,14.73 0 0 1 279,569.43 L 9.28,299.72 a 14.71,14.71 0 0 1 0,-20.75 L 279,9.3 a 14.76,14.76 0 0 1 20.79,0 L 569.41,279 a 14.71,14.71 0 0 1 0,20.75 L 299.74,569.43 a 14.74,14.74 0 0 1 -10.4,4.29"
           transform="translate(6.82)"
           id="path3"
           style="fill:#69797d" />
        <path
           class="cls-3"
           d="m 289.34,10 a 9.41,9.41 0 0 1 6.83,2.85 l 269.72,269.67 a 9.67,9.67 0 0 1 0,13.67 L 296.17,565.9 a 9.73,9.73 0 0 1 -13.66,0 L 12.8,296.19 a 9.67,9.67 0 0 1 0,-13.67 L 282.51,12.86 A 9.44,9.44 0 0 1 289.34,10 m 0,-10 A 19.56,19.56 0 0 0 275.43,5.77 L 5.76,275.44 a 19.69,19.69 0 0 0 0,27.83 l 269.67,269.67 a 19.66,19.66 0 0 0 27.83,0 L 572.93,303.27 a 19.69,19.69 0 0 0 0,-27.83 L 303.26,5.77 A 19.57,19.57 0 0 0 289.34,0"
           transform="translate(6.82)"
           id="path4"
           style="fill:#ffffff" />
        <g
           class="cls-4"
           clip-path="url(#clip-path)"
           id="g5">
          <path
             class="cls-3"
             d="m 433.57,395.79 c -0.47,-2 2.33,-22.91 1.52,-38.61 -0.81,-15.7 -12.13,-43.87 -10.9,-49.89 1.23,-6.02 10.9,-58.47 10.4,-61.57 -0.5,-3.1 -12.31,-11.75 -24.15,-5 -11.84,6.75 -15.78,30.67 -17.09,36.66 -1.53,6.91 -4.37,14.42 -11,18.11 -10.27,5.86 -16.25,-3.48 -22.66,-14.55 -3.05,-5.22 -29.78,-66.19 -34.83,-75.18 -5.05,-8.99 -11.53,-32.29 -28.08,-25.76 -17.52,6.83 6.83,52.91 9.21,58.63 2.38,5.72 14.68,35.13 15.82,39.34 1.14,4.21 1,7.72 -1.69,8.95 -2.69,1.23 -5.82,2.76 -15.62,-9.42 -9.8,-12.18 -33.09,-39.2 -36.5,-43.15 -3.41,-3.95 -22.91,-26.3 -29,-28.3 -6.09,-2 -21.39,5.39 -16.68,18.33 4.71,12.94 28.55,33.22 39.42,46.62 10.87,13.4 34.79,34.58 31.77,41.75 -2.75,6.61 -17.86,-5.39 -31.86,-14.22 -14,-8.83 -40.77,-28.93 -46.54,-30.8 -5,-1.61 -15.57,1.87 -14.81,14.55 0.76,12.68 26.9,26.94 33.94,31.7 7.04,4.76 43.49,28.38 41.12,36.44 -1.49,5 -20.79,-2.84 -32.25,-8 -11.46,-5.16 -39.5,-16.16 -44.51,-6.32 -5.85,11.59 0.09,21 30.93,33.52 30.84,12.52 37.13,17.44 43.66,22.49 6.53,5.05 26.73,33 50.87,43.57 15.11,6.66 35.3,13.11 45.61,11.8 8.95,4 27.37,35.93 27.37,35.93 0,0 20.24,-4.79 36.19,-17.82 15.95,-13.03 28.08,-33.52 28.08,-33.52 0,0 -27.23,-34.32 -27.74,-36.27 m -50,11 a 5.8,5.8 0 0 1 -3.74,1.4 5.65,5.65 0 0 1 -4.45,-2.16 c -20.67,-26 -17.82,-51.77 -13.16,-65.68 7.13,-21.22 16.93,-27.75 17.31,-28.22 1.49,-1.69 3.65,-1.78 4.59,-0.84 3.22,3.22 -8.57,7.21 -14.13,28.85 -4.33,16.71 -3.65,33.39 14.3,58.21 a 6.26,6.26 0 0 1 -0.72,8.44"
             transform="translate(6.82)"
             id="path5"
             style="fill:#ffffff" />
        </g>
        <g
           class="cls-5"
           clip-path="url(#clip-path-2)"
           id="g10">
          <path
             class="cls-3"
             d="m 392.85,69.84 -29.79,117.7 c -1.74,6.91 -5.64,6.4 -5.6,-0.68 l 0.68,-121.43 c 0,-4.88 2.08,-9.54 4,-9.29 l 29.11,3.69 c 2,0.26 2.75,5.31 1.57,10"
             transform="translate(6.82)"
             id="path6"
             style="fill:#ffffff" />
          <path
             class="cls-3"
             d="M 9.44,272.25 151,307.34 c 8.28,2 7.72,6.23 -0.8,6 L 13.031671,303.47153 C 7.1816708,303.34153 6.7107961,298.16 6.9607961,296 L 6.657549,280 c 0.29,-2.12 1.8079635,-7.98359 7.487964,-6.58359"
             transform="translate(6.82)"
             id="path7"
             style="fill:#ffffff"
             sodipodi:nodetypes="ccccccc" />
          <path
             class="cls-3"
             d="m 143.18,431 72.09,-28.81 c 4.24,-1.69 6.06,1.28 2.63,4.29 l -55.17185,46.68246 c -2.33,2 -6.73938,-3.63246 -7.66938,-5.16246 L 144.14,434.575 c -0.94,-1.49 -3.84,-2.425 -0.96,-3.575"
             transform="translate(6.82)"
             id="path8"
             style="fill:#ffffff"
             sodipodi:nodetypes="ccccccc" />
          <path
             class="cls-3"
             d="M 243.91,49.08 266,156 c 1.28,6.23 -2.5,7.59 -5.43,1.91 L 211.87781,76.409743 c -2,-3.9 4.44783,-5.686645 6.35783,-6.356645 l 20.14541,-23.588796 c 1.9,-0.68 4.63895,-1.664302 5.52895,2.585698"
             transform="translate(6.82)"
             id="path9"
             style="fill:#ffffff"
             sodipodi:nodetypes="ccccccc" />
          <path
             class="cls-3"
             d="m 112.11,164.31 72.21,64.45 c 4.2,3.77 2.16,6.83 -2.93,4.37 L 94,191.46 c -3.48,-1.65 6.07036,-2.73334 7.07036,-4.26334 l 9.52082,-13.19485 c 1,-1.57 4.06613,-7.42881 6.95613,-4.83881"
             transform="translate(6.82)"
             id="path10"
             style="fill:#ffffff"
             sodipodi:nodetypes="ccccccc" />
        </g>
      </g>
    </g>
  </g>
</svg>
