<?xml version="1.0" encoding="UTF-8" standalone="no"?>
<!-- Created with Inkscape (http://www.inkscape.org/) -->

<svg
   width="512"
   height="512"
   viewBox="0 0 128 128"
   version="1.1"
   id="svg1"
   inkscape:version="1.4 (86a8ad7, 2024-10-11)"
   sodipodi:docname="Dodge.svg"
   xmlns:inkscape="http://www.inkscape.org/namespaces/inkscape"
   xmlns:sodipodi="http://sodipodi.sourceforge.net/DTD/sodipodi-0.dtd"
   xmlns="http://www.w3.org/2000/svg"
   xmlns:svg="http://www.w3.org/2000/svg">
  <sodipodi:namedview
     id="namedview1"
     pagecolor="#505050"
     bordercolor="#eeeeee"
     borderopacity="1"
     inkscape:showpageshadow="0"
     inkscape:pageopacity="0"
     inkscape:pagecheckerboard="0"
     inkscape:deskcolor="#505050"
     inkscape:document-units="px"
     showgrid="true"
     inkscape:zoom="1.5917969"
     inkscape:cx="255.68589"
     inkscape:cy="256"
     inkscape:window-width="1920"
     inkscape:window-height="1017"
     inkscape:window-x="-8"
     inkscape:window-y="-8"
     inkscape:window-maximized="1"
     inkscape:current-layer="layer1">
    <inkscape:grid
       id="grid1"
       units="px"
       originx="0"
       originy="0"
       spacingx="2"
       spacingy="2"
       empcolor="#0099e5"
       empopacity="0.30196078"
       color="#0099e5"
       opacity="0.14901961"
       empspacing="4"
       enabled="true"
       visible="true"
       dotted="false" />
  </sodipodi:namedview>
  <defs
     id="defs1">
    <clipPath
       id="b">
      <rect
         class="f"
         width="600"
         height="600"
         id="rect1"
         x="0"
         y="0" />
    </clipPath>
  </defs>
  <g
     inkscape:label="Layer 1"
     inkscape:groupmode="layer"
     id="layer1">
    <g
       class="e"
       clip-path="url(#b)"
       id="g6"
       transform="matrix(0.22032522,0,0,0.2203176,-2.0975652,-2.0941793)">
      <path
         class="d"
         d="m 300,585.35 c -3.92,0 -7.6,-1.52 -10.37,-4.29 L 19.94,311.37 c -5.71,-5.71 -5.71,-15.03 0,-20.74 L 289.63,20.94 c 2.77,-2.77 6.45,-4.29 10.37,-4.29 3.92,0 7.6,1.52 10.37,4.29 l 269.69,269.69 c 5.71,5.71 5.71,15.03 0,20.74 L 310.37,581.06 c -2.77,2.77 -6.45,4.29 -10.37,4.29"
         id="path1"
         style="fill:#d6802b" />
      <path
         class="c"
         d="m 300,20.65 c 2.6,0 5.03,1.01 6.86,2.84 l 269.66,269.66 c 1.82,1.82 2.84,4.29 2.84,6.86 0,2.57 -1.01,5.03 -2.84,6.86 L 306.86,576.53 c -1.82,1.82 -4.26,2.84 -6.86,2.84 -2.6,0 -5.03,-1.01 -6.86,-2.84 L 23.48,306.86 c -1.82,-1.82 -2.84,-4.26 -2.84,-6.86 0,-2.6 1.01,-5.03 2.84,-6.86 L 293.14,23.48 c 1.82,-1.82 4.26,-2.84 6.86,-2.84 m 0,-10 c -5.03,0 -10.06,1.93 -13.91,5.77 L 16.43,286.09 c -7.7,7.7 -7.7,20.16 0,27.83 l 269.66,269.66 c 3.85,3.85 8.88,5.77 13.91,5.77 5.03,0 10.06,-1.92 13.91,-5.77 L 583.57,313.92 c 7.7,-7.67 7.7,-20.13 0,-27.83 L 313.91,16.43 C 310.06,12.58 305.03,10.66 300,10.66"
         id="path2"
         style="fill:#ffffff" />
      <g
         id="g5">
        <path
           class="c"
           d="m 349.23,179.83 c 0,19.33 -11.71,35.92 -28.43,43.07 5.65,2.42 11.87,3.76 18.4,3.76 25.86,0 46.83,-20.97 46.83,-46.83 0,-25.86 -20.97,-46.83 -46.83,-46.83 -6.53,0 -12.75,1.34 -18.4,3.76 16.71,7.15 28.43,23.74 28.43,43.07 z"
           id="path3"
           style="fill:#ffffff" />
        <path
           class="c"
           d="m 360.37,246.94 c 0,0 -12.7,3.47 -23.15,3.47 -4.31,0 -9.01,-0.59 -13.04,-1.28 l 46.15,164.94 c 0,0 -7.14,33.92 -51.48,41.46 5.54,0.94 11.65,1.47 18.4,1.47 60.86,0 69.88,-42.93 69.88,-42.93 z"
           id="path4"
           style="fill:#ffffff" />
        <path
           class="c"
           d="m 267.52,133.12 c -1.12,-0.08 -2.25,-0.13 -3.39,-0.13 -0.67,0 -1.33,0.01 -1.99,0.04 -3.29,0.14 -6.5,0.61 -9.58,1.4 h 23.16 c -2.65,-0.68 -5.38,-1.12 -8.19,-1.32 z m -47.01,63.79 c 0.7,1.76 1.49,3.47 2.37,5.11 h 82.49 c 0.89,-1.64 1.68,-3.35 2.37,-5.11 H 220.5 Z m 16.8,21.31 c 3.91,2.73 8.24,4.88 12.9,6.32 h 27.84 c 4.65,-1.45 8.99,-3.59 12.9,-6.32 z m 73.46,-42.61 h -93.28 c -0.12,1.28 -0.18,2.58 -0.19,3.88 h 93.66 c -0.01,-1.31 -0.07,-2.61 -0.19,-3.88 z m -7.37,-21.3 h -78.55 c -0.57,0.87 -1.11,1.74 -1.6,2.65 H 305 c -0.5,-0.91 -1.03,-1.78 -1.6,-2.65 z m -11.77,115.29 -0.46,-1.65 h -58.05 l -0.46,1.65 -1.99,7.12 h 62.97 l -1.99,-7.12 z m 12.6,45.05 -1.14,-4.08 h -81.9 l -1.14,4.08 -1.99,7.12 h 88.17 l -1.99,-7.12 z m 12.6,45.05 -1.83,-6.53 H 209.28 l -1.83,6.53 -2.01,7.13 h 113.39 l -2.01,-7.13 z m -123.69,57.38 c 0.84,2.42 2.36,6.06 4.95,10.2 0.8,1.29 1.71,2.62 2.73,3.98 0.78,1.03 1.63,2.09 2.55,3.15 h 117.56 c 0.93,-1.06 1.77,-2.11 2.55,-3.15 1.02,-1.36 1.93,-2.69 2.73,-3.98 2.59,-4.14 4.09,-7.78 4.93,-10.2 H 193.15 Z M 262.16,457 c 27.75,0 44.72,-8.92 54.97,-18.62 H 207.2 c 10.26,9.7 27.23,18.62 54.97,18.62 z m 68.74,-47.05 -1.46,-5.19 -2.51,-8.98 H 197.38 l -2.51,8.98 -1.46,5.19 -0.54,1.93 h 138.58 l -0.54,-1.93 z m -5.96,-21.3 -1.79,-6.43 -2.17,-7.76 H 203.33 l -2.16,7.76 -1.8,6.43 -0.19,0.7 h 125.97 l -0.19,-0.7 z m -14.41,-51.47 -1.48,-5.31 h -93.82 l -1.48,5.31 -1.99,7.13 h 100.76 z m -12.6,-45.05 -0.8,-2.87 h -69.98 l -0.8,2.87 -1.99,7.12 h 75.57 l -1.99,-7.12 z m -12.6,-45.05 -0.04,-0.15 c 0,0 -0.2,0.05 -0.57,0.15 -2.56,0.66 -13.44,3.32 -22.58,3.32 -9.14,0 -20.35,-2.71 -22.7,-3.32 -0.3,-0.07 -0.45,-0.12 -0.45,-0.12 l -0.03,0.12 -1.99,7.12 h 50.37 l -1.99,-7.12 z"
           id="path5"
           style="fill:#ffffff" />
      </g>
    </g>
  </g>
</svg>
