<?xml version="1.0" encoding="UTF-8" standalone="no"?>
<!-- Created with Inkscape (http://www.inkscape.org/) -->

<svg
   width="512"
   height="512"
   viewBox="0 0 128 128"
   version="1.1"
   id="svg1"
   inkscape:version="1.4 (86a8ad7, 2024-10-11)"
   sodipodi:docname="Immobilize.svg"
   xmlns:inkscape="http://www.inkscape.org/namespaces/inkscape"
   xmlns:sodipodi="http://sodipodi.sourceforge.net/DTD/sodipodi-0.dtd"
   xmlns="http://www.w3.org/2000/svg"
   xmlns:svg="http://www.w3.org/2000/svg">
  <sodipodi:namedview
     id="namedview1"
     pagecolor="#505050"
     bordercolor="#eeeeee"
     borderopacity="1"
     inkscape:showpageshadow="0"
     inkscape:pageopacity="0"
     inkscape:pagecheckerboard="0"
     inkscape:deskcolor="#505050"
     inkscape:document-units="px"
     showgrid="true"
     inkscape:zoom="1.5917969"
     inkscape:cx="255.68589"
     inkscape:cy="256"
     inkscape:window-width="1920"
     inkscape:window-height="1017"
     inkscape:window-x="-8"
     inkscape:window-y="-8"
     inkscape:window-maximized="1"
     inkscape:current-layer="layer1">
    <inkscape:grid
       id="grid1"
       units="px"
       originx="0"
       originy="0"
       spacingx="2"
       spacingy="2"
       empcolor="#0099e5"
       empopacity="0.30196078"
       color="#0099e5"
       opacity="0.14901961"
       empspacing="4"
       enabled="true"
       visible="true"
       dotted="false" />
  </sodipodi:namedview>
  <defs
     id="defs1" />
  <g
     inkscape:label="Layer 1"
     inkscape:groupmode="layer"
     id="layer1">
    <g
       id="Layer_2"
       data-name="Layer 2"
       transform="matrix(0.22032402,0,0,0.22032145,0.249432,0.25000004)">
      <g
         id="Immobilize">
        <path
           class="cls-1"
           d="M 289.35,573.7 A 14.56,14.56 0 0 1 279,569.41 L 9.29,299.72 a 14.68,14.68 0 0 1 0,-20.74 L 279,9.29 a 14.68,14.68 0 0 1 20.74,0 L 569.41,279 a 14.68,14.68 0 0 1 0,20.74 L 299.72,569.41 a 14.56,14.56 0 0 1 -10.37,4.29"
           id="path1"
           style="fill:#9b342f" />
        <path
           class="cls-2"
           d="m 289.35,10 a 9.62,9.62 0 0 1 6.85,2.83 l 269.66,269.66 a 9.69,9.69 0 0 1 0,13.71 L 296.2,565.86 a 9.69,9.69 0 0 1 -13.71,0 L 12.83,296.2 a 9.71,9.71 0 0 1 0,-13.71 L 282.49,12.83 A 9.66,9.66 0 0 1 289.35,10 m 0,-10 A 19.67,19.67 0 0 0 275.43,5.77 L 5.77,275.43 a 19.67,19.67 0 0 0 0,27.83 l 269.66,269.66 a 19.64,19.64 0 0 0 27.83,0 L 572.92,303.26 a 19.65,19.65 0 0 0 0,-27.83 L 303.26,5.77 A 19.65,19.65 0 0 0 289.35,0"
           id="path2"
           style="fill:#ffffff" />
        <path
           class="cls-2"
           d="m 249.29,377 a 8,8 0 0 1 -5.94,-4.26 L 154.7,199.59 c -2,-3.92 0.81,-6.38 4.76,-8.41 3.95,-2.03 7.47,-2.8 9.49,1.12 l 88.62,173.11 A 8,8 0 0 1 249.29,377"
           id="path3"
           style="fill:#ffffff" />
        <path
           class="cls-2"
           d="m 224,249.85 c -1.49,11.18 -1.79,23.57 -1.79,23.57 0,0 -32.56,-64.5 -36.64,-72.71 8.34,-5.91 10.16,-19 12.42,-29.71 7.81,4.39 9.36,25.46 14.76,34.31 1.52,2.46 4.16,2.83 6.28,-2 7.43,10.51 6.83,32.53 5,46.54"
           id="path4"
           style="fill:#ffffff" />
        <path
           class="cls-2"
           d="m 169.46,278.39 c 10,5.27 20.26,12.23 20.26,12.23 0,0 -33.7,-63.93 -38.06,-72 -9.62,3.34 -21.37,-2.74 -31.4,-7.13 -1,8.95 15.33,22.39 19.38,31.95 1.15,2.67 -0.07,5 -5.23,3.95 4.25,12.16 22.56,24.38 35.05,31"
           id="path5"
           style="fill:#ffffff" />
        <path
           class="cls-2"
           d="m 294.6,426.86 c 17.12,-9.76 31.17,-12 42.89,-11.31 5.14,0.3 13.61,3.51 19.62,8.71 13.51,-3.75 40.05,-6.14 46.71,-10.13 a 3.56,3.56 0 0 0 1.72,-2.6 c 0.47,-3.71 2.9,-26.91 2,-36.17 -1.25,-12 -17.06,-70 -17.33,-73.48 -1,-13.51 9.66,-76.22 10.44,-79.06 0.64,-2.36 13.07,-24.21 17.19,-31.44 a 2.7,2.7 0 0 0 -1,-3.68 C 402.35,179.42 382.43,175 382.43,175 c 0,0 2.5,-6.21 3.88,-10.77 a 2.39,2.39 0 0 0 -2,-3 c -40.22,-7 -76.59,-3.11 -104.28,10.09 a 3.37,3.37 0 0 0 -1.66,4.26 c 2.77,6.92 5.88,19.11 8.55,32.69 l 33.84,-2.94 a 9.6529581,9.6529581 0 0 1 1,19.28 l -31.58,2.84 a 260,260 0 0 1 3,32.35 l 27.93,-2.63 a 9.62,9.62 0 0 1 10.1,9.15 9.68,9.68 0 0 1 -9.12,10.13 L 292,279.22 c 0,26.24 -14.32,41.13 -21.21,58.59 -6.92,4.25 -36.4,9.76 -58.55,18.74 l -29.59,-3.17 c -11.31,8.61 -17.36,31.24 -9.79,45.35 13.1,8.51 62.54,29.15 121.74,28.13"
           id="path6"
           style="fill:#ffffff" />
      </g>
    </g>
  </g>
</svg>
