<?xml version="1.0" encoding="UTF-8" standalone="no"?>
<!-- Created with Inkscape (http://www.inkscape.org/) -->

<svg
   width="512"
   height="512"
   viewBox="0 0 128 128"
   version="1.1"
   id="svg1"
   inkscape:version="1.4 (86a8ad7, 2024-10-11)"
   sodipodi:docname="Impair.svg"
   xmlns:inkscape="http://www.inkscape.org/namespaces/inkscape"
   xmlns:sodipodi="http://sodipodi.sourceforge.net/DTD/sodipodi-0.dtd"
   xmlns="http://www.w3.org/2000/svg"
   xmlns:svg="http://www.w3.org/2000/svg">
  <sodipodi:namedview
     id="namedview1"
     pagecolor="#505050"
     bordercolor="#eeeeee"
     borderopacity="1"
     inkscape:showpageshadow="0"
     inkscape:pageopacity="0"
     inkscape:pagecheckerboard="0"
     inkscape:deskcolor="#505050"
     inkscape:document-units="px"
     showgrid="true"
     inkscape:zoom="1.5917969"
     inkscape:cx="255.68589"
     inkscape:cy="256"
     inkscape:window-width="1920"
     inkscape:window-height="1017"
     inkscape:window-x="-8"
     inkscape:window-y="-8"
     inkscape:window-maximized="1"
     inkscape:current-layer="layer1">
    <inkscape:grid
       id="grid1"
       units="px"
       originx="0"
       originy="0"
       spacingx="2"
       spacingy="2"
       empcolor="#0099e5"
       empopacity="0.30196078"
       color="#0099e5"
       opacity="0.14901961"
       empspacing="4"
       enabled="true"
       visible="true"
       dotted="false" />
  </sodipodi:namedview>
  <defs
     id="defs1">
    <clipPath
       id="clip-path"
       transform="translate(-10.65 -10.67)">
      <rect
         id="_Clipping_Path_"
         data-name="&lt;Clipping Path&gt;"
         class="cls-1"
         width="600"
         height="600"
         x="0"
         y="0" />
    </clipPath>
  </defs>
  <g
     inkscape:label="Layer 1"
     inkscape:groupmode="layer"
     id="layer1">
    <g
       id="Layer_2"
       data-name="Layer 2"
       transform="matrix(0.22032531,0,0,0.22033619,0.24887235,0.25)">
      <g
         id="Injure">
        <g
           class="cls-2"
           clip-path="url(#clip-path)"
           id="g4">
          <path
             class="cls-3"
             d="m 300,584.34 a 14.56,14.56 0 0 1 -10.38,-4.29 L 20,310.4 a 14.69,14.69 0 0 1 0,-20.77 L 289.62,20 a 14.7,14.7 0 0 1 20.76,0 L 580,289.63 a 14.69,14.69 0 0 1 0,20.77 L 310.38,580.05 A 14.56,14.56 0 0 1 300,584.34"
             transform="translate(-10.65,-10.67)"
             id="path1"
             style="fill:#80394b" />
          <path
             class="cls-4"
             d="m 300,20.68 a 9.61,9.61 0 0 1 6.84,2.81 l 269.65,269.68 a 9.68,9.68 0 0 1 0,13.69 L 306.84,576.51 a 9.63,9.63 0 0 1 -13.68,0 L 23.51,306.86 a 9.68,9.68 0 0 1 0,-13.69 L 293.16,23.49 A 9.61,9.61 0 0 1 300,20.68 m 0,-10 a 19.65,19.65 0 0 0 -13.93,5.78 L 16.43,286.09 a 19.64,19.64 0 0 0 0,27.82 l 269.64,269.68 a 19.77,19.77 0 0 0 27.86,0 L 583.57,313.91 a 19.64,19.64 0 0 0 0,-27.82 L 313.93,16.45 A 19.65,19.65 0 0 0 300,10.67"
             transform="translate(-10.65,-10.67)"
             id="path2"
             style="fill:#ffffff" />
          <path
             class="cls-4"
             d="m 389.32,249.67 a 13.89,13.89 0 0 1 0,-16.44 c 9.05,-12.34 29.13,-39.06 25.38,-58.83 a 11.34,11.34 0 0 0 -9.15,-9.11 c -11.65,-2 -26.92,7.49 -38.44,0.13 8,-20.45 -1.79,-51.26 -21.35,-41.46 -19.56,9.8 -44.46,41.77 -52.47,42.67 -4,0.45 -20.81,-2 -37.38,-10.66 -16.57,-8.66 -32.91,-23.59 -43.6,-11.55 -14,15.68 -10.22,43.91 18.25,76.85 -21.35,-1.79 -56,-1.14 -64.12,14 -5.4,10 -0.24,33.8 11.17,42.57 19.12,-19 35.76,-29.37 54.43,-24.9 -3.88,18 -12.89,29 -21.45,42.23 -19.71,30.57 -25.86,83.9 14.92,131.28 13.34,15.54 28.92,39.89 28.71,51.47 13.89,-20 -5.36,-61.44 -9,-68 -2.75,-4.92 -3.54,-10.31 -0.1,-14.92 5.91,-8 35.38,-35.32 46.62,-28.58 13.24,7.91 10,33.39 31,45.46 6.16,-9.7 22.9,-30.46 39.2,-27.34 16.75,3.2 13.62,37.42 25.76,45.32 -2.51,-18.87 17.64,-34.66 30.05,-69.49 12.41,-34.83 3.68,-67.39 -28.47,-110.68 m -20.05,-6.19 c -26.3,2.34 -38,13.13 -65.36,13 -18,-0.07 -58.91,-5 -58.91,-5 0,0 -3.78,-13 1.31,-25 6.64,-0.31 26.58,2.58 39.82,5.16 32.46,6.26 53.05,-6.46 81,-1.31 2.86,6.4 2.86,10.18 2.1,13.21"
             transform="translate(-10.65,-10.67)"
             id="path3"
             style="fill:#ffffff" />
          <path
             class="cls-3"
             d="m 335.63,357 a 9.66,9.66 0 0 1 -6.33,-2.38 l -1.07,-0.93 a 9.56,9.56 0 0 1 -1.06,-13.34 l 0.1,-0.13 18.16,-19.74 -19.91,-19.74 -0.14,-0.17 a 9.44,9.44 0 0 1 -1.31,-10.73 l 0.52,-1 a 9.5,9.5 0 0 1 8.53,-5.19 9.69,9.69 0 0 1 7,3 l 18.09,20.19 14.23,-18.71 0.28,-0.27 a 9.62,9.62 0 0 1 6.84,-2.82 9.51,9.51 0 0 1 7.39,3.51 l 1.55,1.85 a 9.56,9.56 0 0 1 -0.62,12.86 l -17.05,17.26 15.74,17.68 a 9.56,9.56 0 0 1 0.86,11.62 l -0.55,0.86 A 9.59,9.59 0 0 1 371.94,352 l -0.21,-0.2 -13.48,-17.13 -15.33,18.92 -0.07,0.06 a 9.56,9.56 0 0 1 -7.22,3.31"
             transform="translate(-10.65,-10.67)"
             id="path4"
             style="fill:#80394b" />
        </g>
      </g>
    </g>
  </g>
</svg>
