<?xml version="1.0" encoding="UTF-8" standalone="no"?>
<!-- Created with Inkscape (http://www.inkscape.org/) -->

<svg
   width="512"
   height="512"
   viewBox="0 0 128 128"
   version="1.1"
   id="svg1"
   inkscape:version="1.4 (86a8ad7, 2024-10-11)"
   sodipodi:docname="Infect.svg"
   xmlns:inkscape="http://www.inkscape.org/namespaces/inkscape"
   xmlns:sodipodi="http://sodipodi.sourceforge.net/DTD/sodipodi-0.dtd"
   xmlns="http://www.w3.org/2000/svg"
   xmlns:svg="http://www.w3.org/2000/svg">
  <sodipodi:namedview
     id="namedview1"
     pagecolor="#505050"
     bordercolor="#eeeeee"
     borderopacity="1"
     inkscape:showpageshadow="0"
     inkscape:pageopacity="0"
     inkscape:pagecheckerboard="0"
     inkscape:deskcolor="#505050"
     inkscape:document-units="px"
     showgrid="true"
     inkscape:zoom="1.5917969"
     inkscape:cx="255.68589"
     inkscape:cy="256"
     inkscape:window-width="1920"
     inkscape:window-height="1017"
     inkscape:window-x="-8"
     inkscape:window-y="-8"
     inkscape:window-maximized="1"
     inkscape:current-layer="layer1">
    <inkscape:grid
       id="grid1"
       units="px"
       originx="0"
       originy="0"
       spacingx="2"
       spacingy="2"
       empcolor="#0099e5"
       empopacity="0.30196078"
       color="#0099e5"
       opacity="0.14901961"
       empspacing="4"
       enabled="true"
       visible="true"
       dotted="false" />
  </sodipodi:namedview>
  <defs
     id="defs1" />
  <g
     inkscape:label="Layer 1"
     inkscape:groupmode="layer"
     id="layer1">
    <g
       id="Layer_2"
       data-name="Layer 2"
       transform="matrix(3.5417626,0,0,3.5417626,0.24827283,0.24827283)">
      <g
         id="Layer_1-2"
         data-name="Layer 1">
        <g
           id="Слой_1">
          <g
             id="_1865599803008"
             data-name=" 1865599803008">
            <rect
               class="cls-1"
               x="5.02"
               y="5.02"
               width="25.950001"
               height="25.950001"
               rx="1.4400001"
               transform="rotate(-45,17.985851,18.000017)"
               id="rect1"
               style="fill:#77066b" />
            <path
               class="cls-2"
               d="M 18,24 A 5.53,5.53 0 1 1 23.53,18.48 5.55,5.55 0 0 1 18,24 Z m 0,-12.27 a 6.76,6.76 0 1 0 6.75,6.75 6.73,6.73 0 0 0 -6.75,-6.8 z m 6.38,15.25 a 4.66,4.66 0 0 1 -4.65,-4.68 4.61,4.61 0 0 1 1.39,-3.31 v 0 c 0,-0.06 0.08,-0.09 0.11,-0.12 a 0.27,0.27 0 0 0 0.14,-0.14 v 0 c 0.06,0 0.08,-0.08 0.14,-0.11 0.06,-0.03 0.06,0 0.06,-0.06 0,-0.06 0.06,0 0.08,-0.05 a 4.78,4.78 0 0 1 2.36,-0.83 h 0.31 a 4.63,4.63 0 0 1 4.25,2.78 c 0,0 0,0 0.06,0.06 0,-0.2 0,-0.4 -0.06,-0.6 A 6.63,6.63 0 0 0 25.31,15 0.93,0.93 0 0 1 24.75,14 6.35,6.35 0 0 0 23.24,9.69 6.24,6.24 0 0 0 21.71,8.36 a 4.57,4.57 0 0 1 0.34,5.13 1,1 0 0 0 -0.11,0.23 c 0,0 0,0 0,0 a 4.49,4.49 0 0 1 -1.5,1.47 4.15,4.15 0 0 1 -2.15,0.65 h -0.4 a 4.63,4.63 0 0 1 -4.51,-4.64 4.46,4.46 0 0 1 0.94,-2.78 0.1,0.1 0 0 0 -0.06,0 6.68,6.68 0 0 0 -3,5.95 c 0,0.17 0,0.28 -0.14,0.37 A 6.48,6.48 0 0 0 7.63,19 c -0.15,0.49 -0.2,1 -0.32,1.45 0,0 0,0 0.06,0 a 4.64,4.64 0 0 1 4.28,-2.84 H 12 a 4.89,4.89 0 0 1 1.9,0.57 4.59,4.59 0 0 1 2.41,4 v 0 a 4.83,4.83 0 0 1 -0.4,1.93 v 0 l -0.08,0.14 a 4.64,4.64 0 0 1 -4.17,2.61 3.31,3.31 0 0 1 -0.54,-0.06 6.73,6.73 0 0 0 6.88,-0.44 6.67,6.67 0 0 0 6.89,0.51 v 0 a 3.31,3.31 0 0 1 -0.51,0.06 z"
               id="path1"
               style="fill:#ffffff" />
            <path
               class="cls-3"
               d="M 0.34,17.18 17.18,0.34 a 1.16,1.16 0 0 1 1.64,0 l 16.84,16.84 a 1.16,1.16 0 0 1 0,1.64 L 18.82,35.66 a 1.16,1.16 0 0 1 -1.64,0 L 0.34,18.82 a 1.16,1.16 0 0 1 0,-1.64 z M 17.77,0.94 0.94,17.77 v 0 a 0.34,0.34 0 0 0 0,0.46 v 0 l 16.83,16.83 v 0 a 0.34,0.34 0 0 0 0.46,0 v 0 L 35.06,18.23 v 0 a 0.34,0.34 0 0 0 0,-0.46 v 0 L 18.23,0.94 v 0 a 0.34,0.34 0 0 0 -0.46,0 z"
               id="path2"
               style="fill:#ffffff;fill-rule:evenodd" />
          </g>
        </g>
      </g>
    </g>
  </g>
</svg>
