<?xml version="1.0" encoding="UTF-8" standalone="no"?>
<!-- Created with Inkscape (http://www.inkscape.org/) -->

<svg
   width="512"
   height="512"
   viewBox="0 0 128 128"
   version="1.1"
   id="svg1"
   inkscape:version="1.4 (86a8ad7, 2024-10-11)"
   sodipodi:docname="Invisible.svg"
   xmlns:inkscape="http://www.inkscape.org/namespaces/inkscape"
   xmlns:sodipodi="http://sodipodi.sourceforge.net/DTD/sodipodi-0.dtd"
   xmlns="http://www.w3.org/2000/svg"
   xmlns:svg="http://www.w3.org/2000/svg">
  <sodipodi:namedview
     id="namedview1"
     pagecolor="#505050"
     bordercolor="#eeeeee"
     borderopacity="1"
     inkscape:showpageshadow="0"
     inkscape:pageopacity="0"
     inkscape:pagecheckerboard="0"
     inkscape:deskcolor="#505050"
     inkscape:document-units="px"
     showgrid="true"
     inkscape:zoom="1.5917969"
     inkscape:cx="255.68589"
     inkscape:cy="256"
     inkscape:window-width="1920"
     inkscape:window-height="1017"
     inkscape:window-x="-8"
     inkscape:window-y="-8"
     inkscape:window-maximized="1"
     inkscape:current-layer="layer1">
    <inkscape:grid
       id="grid1"
       units="px"
       originx="0"
       originy="0"
       spacingx="2"
       spacingy="2"
       empcolor="#0099e5"
       empopacity="0.30196078"
       color="#0099e5"
       opacity="0.14901961"
       empspacing="4"
       enabled="true"
       visible="true"
       dotted="false" />
  </sodipodi:namedview>
  <defs
     id="defs1">
    <clipPath
       id="clip-path"
       transform="translate(-10.65 -10.65)">
      <rect
         class="cls-1"
         width="600"
         height="600"
         id="rect1"
         x="0"
         y="0" />
    </clipPath>
  </defs>
  <g
     inkscape:label="Layer 1"
     inkscape:groupmode="layer"
     id="layer1">
    <g
       id="Layer_2"
       data-name="Layer 2"
       transform="matrix(0.22032531,0,0,0.22032177,0.24887235,0.25)">
      <g
         id="Invisible">
        <g
           class="cls-2"
           clip-path="url(#clip-path)"
           id="g7">
          <path
             class="cls-3"
             d="m 300,584.35 a 14.56,14.56 0 0 1 -10.37,-4.29 L 19.94,310.37 a 14.68,14.68 0 0 1 0,-20.73 L 289.63,19.94 a 14.68,14.68 0 0 1 20.74,0 l 269.69,269.7 a 14.68,14.68 0 0 1 0,20.73 L 310.37,580.06 A 14.56,14.56 0 0 1 300,584.35"
             transform="translate(-10.65,-10.65)"
             id="path1"
             style="fill:#151514" />
          <path
             class="cls-4"
             d="m 300,20.65 a 9.66,9.66 0 0 1 6.86,2.83 l 269.66,269.66 a 9.73,9.73 0 0 1 0,13.72 L 306.86,576.52 a 9.73,9.73 0 0 1 -13.72,0 L 23.48,306.86 a 9.73,9.73 0 0 1 0,-13.72 L 293.14,23.48 A 9.66,9.66 0 0 1 300,20.65 m 0,-10 a 19.61,19.61 0 0 0 -13.91,5.78 L 16.43,286.09 a 19.64,19.64 0 0 0 0,27.82 l 269.66,269.66 a 19.63,19.63 0 0 0 27.82,0 L 583.57,313.91 a 19.64,19.64 0 0 0 0,-27.82 L 313.91,16.43 A 19.61,19.61 0 0 0 300,10.65"
             transform="translate(-10.65,-10.65)"
             id="path2"
             style="fill:#ffffff" />
          <path
             class="cls-4"
             d="m 304.89,217.67 a 9.22,9.22 0 0 1 -0.58,-18.43 34,34 0 0 0 28.2,-18.68 l 0.07,-0.14 a 9.2349675,9.2349675 0 0 1 16.51,8.28 l -8.27,-4.16 8.24,4.16 v 0.1 a 52.54,52.54 0 0 1 -43.57,28.87 h -0.57 m -38.54,-19.18 a 9.28,9.28 0 0 1 -7.7,-4.12 52.25,52.25 0 0 1 -8.71,-28.94 51.49,51.49 0 0 1 5.47,-23.2 9.241722,9.241722 0 1 1 16.56,8.21 33.22,33.22 0 0 0 -3.55,15 33.91,33.91 0 0 0 5.64,18.74 9.2,9.2 0 0 1 -2.6,12.8 9.05,9.05 0 0 1 -5.1,1.52 m 71.73,-47.65 a 9.28,9.28 0 0 1 -7.7,-4.12 33.49,33.49 0 0 0 -13.07,-11.51 32.9,32.9 0 0 0 -17.22,-3.48 9.24,9.24 0 0 1 -1.18,-18.44 c 1.11,-0.07 2.26,-0.1 3.34,-0.1 a 51.38,51.38 0 0 1 23.3,5.5 52.13,52.13 0 0 1 20.23,17.8 9.26,9.26 0 0 1 -7.7,14.35"
             transform="translate(-10.65,-10.65)"
             id="path3"
             style="fill:#ffffff" />
          <path
             class="cls-4"
             d="m 300.53,476.76 h -10.3 v -0.41 a 108.78,108.78 0 0 1 -15.77,-2.43 9.2394859,9.2394859 0 0 1 4.18,-18 97.61,97.61 0 0 0 20.91,2.33 h 0.91 a 96.94,96.94 0 0 0 20.87,-2.25 9.2406182,9.2406182 0 1 1 4.19,18 108.57,108.57 0 0 1 -15.77,2.43 v 0.37 z"
             transform="translate(-10.65,-10.65)"
             id="path4"
             style="fill:#ffffff" />
          <path
             class="cls-4"
             d="m 239.22,451.87 a 9.21,9.21 0 0 1 -7.19,-3.44 c -7.16,-8.92 -9.56,-16.62 -9.79,-17.46 l -0.75,-2.53 8.21,-29.32 a 9.2252046,9.2252046 0 1 1 17.76,5 l -6.65,23.81 a 43.1,43.1 0 0 0 5.61,9 9.21,9.21 0 0 1 -7.2,15 m 11.28,-83.71 a 9.17,9.17 0 0 1 -2.5,-0.34 9.29,9.29 0 0 1 -6.41,-11.38 l 11.92,-42.69 a 9.24,9.24 0 0 1 17.79,5 l -11.92,42.59 a 9.22,9.22 0 0 1 -8.88,6.76"
             transform="translate(-10.65,-10.65)"
             id="path5"
             style="fill:#ffffff" />
          <path
             class="cls-4"
             d="m 274.32,282.82 a 9.55,9.55 0 0 1 -2.5,-0.33 9.27,9.27 0 0 1 -6.41,-11.38 l 8.57,-30.7 8.58,1.92 a 78.83,78.83 0 0 0 34.85,0 l 8.58,-2 8.58,30.74 a 9.2444578,9.2444578 0 0 1 -17.8,5 l -3.95,-14.15 a 99.36,99.36 0 0 1 -25.67,0 l -3.95,14.15 a 9.21,9.21 0 0 1 -8.88,6.75"
             transform="translate(-10.65,-10.65)"
             id="path6"
             style="fill:#ffffff" />
          <path
             class="cls-4"
             d="m 360.78,451.89 a 9.13,9.13 0 0 1 -5.81,-2 9.23,9.23 0 0 1 -1.38,-13 44,44 0 0 0 5.6,-9 l -6.65,-23.81 a 9.2252046,9.2252046 0 1 1 17.76,-5 l 8.21,29.31 -0.74,2.5 c -0.24,0.88 -2.64,8.58 -9.8,17.49 a 9.09,9.09 0 0 1 -7.19,3.45 M 349.5,368.17 a 9.23,9.23 0 0 1 -8.88,-6.75 L 328.7,318.73 a 9.2444578,9.2444578 0 0 1 17.8,-5 l 11.92,42.69 a 9.28,9.28 0 0 1 -6.42,11.41 9.12,9.12 0 0 1 -2.5,0.34"
             transform="translate(-10.65,-10.65)"
             id="path7"
             style="fill:#ffffff" />
        </g>
      </g>
    </g>
  </g>
</svg>
