<?xml version="1.0" encoding="UTF-8" standalone="no"?>
<!-- Created with Inkscape (http://www.inkscape.org/) -->

<svg
   width="512"
   height="512"
   viewBox="0 0 512 512"
   version="1.1"
   id="svg5"
   inkscape:version="1.4 (86a8ad7, 2024-10-11)"
   xml:space="preserve"
   sodipodi:docname="Muddle.svg"
   xmlns:inkscape="http://www.inkscape.org/namespaces/inkscape"
   xmlns:sodipodi="http://sodipodi.sourceforge.net/DTD/sodipodi-0.dtd"
   xmlns="http://www.w3.org/2000/svg"
   xmlns:svg="http://www.w3.org/2000/svg"><sodipodi:namedview
     id="namedview7"
     pagecolor="#505050"
     bordercolor="#ffffff"
     borderopacity="1"
     inkscape:showpageshadow="0"
     inkscape:pageopacity="0"
     inkscape:pagecheckerboard="1"
     inkscape:deskcolor="#505050"
     inkscape:document-units="px"
     showgrid="true"
     inkscape:lockguides="true"
     inkscape:zoom="1.6191406"
     inkscape:cx="204.12063"
     inkscape:cy="298.6152"
     inkscape:window-width="3840"
     inkscape:window-height="2054"
     inkscape:window-x="2869"
     inkscape:window-y="-11"
     inkscape:window-maximized="1"
     inkscape:current-layer="layer1"><inkscape:grid
       type="xygrid"
       id="grid234"
       empspacing="4"
       originx="0"
       originy="0"
       spacingy="1"
       spacingx="1"
       units="px" /></sodipodi:namedview><defs
     id="defs2"><clipPath
       id="clip-path"
       transform="translate(-10.65 -10.65)"><rect
         class="cls-1"
         width="600"
         height="600"
         id="rect1"
         x="0"
         y="0" /></clipPath></defs><g
     inkscape:label="Layer 1"
     inkscape:groupmode="layer"
     id="layer1"><g
       id="Layer_2"
       data-name="Layer 2"
       transform="matrix(0.88129088,0,0,0.88128824,0.99848379,1)"><g
         id="Muddle"><g
           class="cls-2"
           clip-path="url(#clip-path)"
           id="g3"><path
             class="cls-3"
             d="M 300,584.35 A 14.52,14.52 0 0 1 289.62,580 L 20,310.38 a 14.67,14.67 0 0 1 0,-20.76 L 289.62,20 a 14.65,14.65 0 0 1 20.76,0 L 580,289.62 a 14.67,14.67 0 0 1 0,20.76 L 310.38,580 A 14.52,14.52 0 0 1 300,584.35"
             transform="translate(-10.65,-10.65)"
             id="path1"
             style="fill:#705844" /><path
             class="cls-4"
             d="m 300,20.66 a 9.66,9.66 0 0 1 6.84,2.82 l 269.65,269.66 a 9.63,9.63 0 0 1 0,13.72 L 306.84,576.52 a 9.71,9.71 0 0 1 -13.68,0 L 23.51,306.86 a 9.63,9.63 0 0 1 0,-13.72 L 293.16,23.48 A 9.66,9.66 0 0 1 300,20.66 m 0,-10 a 19.67,19.67 0 0 0 -13.93,5.79 L 16.41,286.09 a 19.68,19.68 0 0 0 0,27.82 l 269.66,269.66 a 19.68,19.68 0 0 0 27.86,0 L 583.59,313.91 a 19.68,19.68 0 0 0 0,-27.82 L 313.93,16.44 A 19.67,19.67 0 0 0 300,10.65"
             transform="translate(-10.65,-10.65)"
             id="path2"
             style="fill:#ffffff" /><path
             class="cls-4"
             d="m 284.11,175.35 3.38,32 c 0.59,6 0,10.3 -1.86,12.83 A 24.37,24.37 0 0 1 278,227 l -38.62,23.76 -6,-4.9 q 9.38,-12.84 8,-26.12 l -4.64,-44.58 q -0.26,-2.34 39.21,-23.43 39.47,-21.09 46.73,-21.87 c 4.81,-0.5 12,4.65 21.57,15.37 9.57,10.72 14.65,19.21 15.28,25.45 l 7.05,67.63 c 0.72,6.8 -4.68,16.55 -16.12,29.34 a 297.79,297.79 0 0 1 -34.66,33.26 l -17.55,14.09 1.14,10.93 c 0.85,8.11 2.87,14.27 6.08,18.53 3.21,4.26 6.29,6.55 9.2,6.76 l 4,0.38 0.89,8.61 q -35.58,26.2 -38.33,26.51 c -1.81,0.17 -6.25,-2.24 -13.21,-7.35 -6.96,-5.11 -10.77,-10.3 -11.32,-15.79 l -5.48,-52.76 c -0.3,-2.87 7.51,-10.34 23.51,-22.42 16,-12.08 27.56,-21.82 34.7,-29.29 7.14,-7.47 10.47,-13.55 10,-18.24 l -4.73,-45.33 q -1.77,-17.24 -5.82,-23.69 a 11.36,11.36 0 0 0 -11.65,-5.7 c -5.07,0.51 -9.46,3.59 -13.09,9.25 M 265,446.44 262.51,422.59 c -0.09,-0.76 5.06,-3.76 15.49,-8.91 10.43,-5.15 16.42,-7.85 18.11,-8 1.69,-0.15 4.39,1.78 8.1,5.87 a 22.87,22.87 0 0 1 6.33,13.17 l 3,28.54 c 0.08,0.8 -4.86,3.71 -14.86,8.86 -10,5.15 -16.17,7.81 -18.53,8.06 -2.36,0.25 -5.28,-1.77 -8.74,-6 -3.46,-4.23 -5.66,-10.18 -6.41,-17.74"
             transform="translate(-10.65,-10.65)"
             id="path3"
             style="fill:#ffffff" /></g></g></g></g></svg>
