<?xml version="1.0" encoding="UTF-8" standalone="no"?>
<!-- Created with Inkscape (http://www.inkscape.org/) -->

<svg
   width="512"
   height="512"
   viewBox="0 0 512 512"
   version="1.1"
   id="svg5"
   inkscape:version="1.4 (86a8ad7, 2024-10-11)"
   xml:space="preserve"
   sodipodi:docname="Pierce.svg"
   xmlns:inkscape="http://www.inkscape.org/namespaces/inkscape"
   xmlns:sodipodi="http://sodipodi.sourceforge.net/DTD/sodipodi-0.dtd"
   xmlns="http://www.w3.org/2000/svg"
   xmlns:svg="http://www.w3.org/2000/svg"><sodipodi:namedview
     id="namedview7"
     pagecolor="#505050"
     bordercolor="#ffffff"
     borderopacity="1"
     inkscape:showpageshadow="0"
     inkscape:pageopacity="0"
     inkscape:pagecheckerboard="1"
     inkscape:deskcolor="#505050"
     inkscape:document-units="px"
     showgrid="true"
     inkscape:lockguides="true"
     inkscape:zoom="4.5796212"
     inkscape:cx="80.46517"
     inkscape:cy="222.39831"
     inkscape:window-width="3840"
     inkscape:window-height="2054"
     inkscape:window-x="2869"
     inkscape:window-y="-11"
     inkscape:window-maximized="1"
     inkscape:current-layer="layer1"><inkscape:grid
       type="xygrid"
       id="grid234"
       empspacing="4"
       originx="0"
       originy="0"
       spacingy="1"
       spacingx="1"
       units="px" /></sodipodi:namedview><defs
     id="defs2"><clipPath
       id="clip-path"
       transform="translate(-10.65 -10.65)"><rect
         class="cls-1"
         width="600"
         height="600"
         id="rect1"
         x="0"
         y="0" /></clipPath></defs><g
     inkscape:label="Layer 1"
     inkscape:groupmode="layer"
     id="layer1"><g
       id="Layer_2"
       data-name="Layer 2"
       transform="matrix(0.88129088,0,0,0.88128824,0.99848379,1)"><g
         id="Pierce"><g
           class="cls-2"
           clip-path="url(#clip-path)"
           id="g5"><path
             class="cls-3"
             d="m 300,586.22 a 14.66,14.66 0 0 1 -10.45,-4.33 L 18.11,310.45 a 14.78,14.78 0 0 1 0,-20.9 L 289.55,18.11 a 14.77,14.77 0 0 1 20.9,0 l 271.44,271.44 a 14.78,14.78 0 0 1 0,20.9 L 310.45,581.89 A 14.66,14.66 0 0 1 300,586.22"
             transform="translate(-10.65,-10.65)"
             id="path1"
             style="fill:#c88c4e" /><path
             class="cls-4"
             d="m 300,20.66 a 9.66,9.66 0 0 1 6.84,2.82 l 269.65,269.66 a 9.63,9.63 0 0 1 0,13.72 L 306.84,576.52 a 9.71,9.71 0 0 1 -13.68,0 L 23.51,306.86 a 9.68,9.68 0 0 1 0,-13.72 L 293.16,23.48 A 9.66,9.66 0 0 1 300,20.66 m 0,-10 a 19.67,19.67 0 0 0 -13.93,5.79 L 16.41,286.09 a 19.68,19.68 0 0 0 0,27.82 l 269.66,269.66 a 19.68,19.68 0 0 0 27.86,0 L 583.59,313.91 a 19.68,19.68 0 0 0 0,-27.82 L 313.93,16.44 A 19.67,19.67 0 0 0 300,10.65"
             transform="translate(-10.65,-10.65)"
             id="path2"
             style="fill:#ffffff" /><path
             class="cls-4"
             d="m 443.65,273 -15.12,15.24 H 81.21 L 74,300 l 7.22,11.82 h 347.31 l 15.12,15.24 a 6.4,6.4 0 0 0 6.79,1.48 l 72.61,-27.44 a 1.2,1.2 0 0 0 0,-2.23 l -72.61,-27.4 a 6.4,6.4 0 0 0 -6.79,1.48"
             transform="translate(-10.65,-10.65)"
             id="path3"
             style="fill:#ffffff" /><path
             class="cls-4"
             d="m 265.27,252.12 -19.5,-37.61 27.52,5 5,-55.09 22.59,35.12 51.37,-89.15 -7.09,91.18 41.66,-22.12 -22.5,48.84 30.23,2.49 -43.1,30 a 3.37,3.37 0 0 1 -4.77,-0.92 45,45 0 0 0 -37.28,-21.28 c -16.54,-0.42 -32.54,9.88 -39.13,14.69 a 3.36,3.36 0 0 1 -5,-1.18"
             transform="translate(-10.65,-10.65)"
             id="path4"
             style="fill:#ffffff" /><path
             class="cls-4"
             d="m 335.57,349 20,38.53 -28.19,-5.14 -5.1,56.43 -23.14,-36 -52.64,91.38 7.26,-93.4 -42.68,22.66 23,-50 -31,-2.55 44.15,-30.74 a 3.46,3.46 0 0 1 4.89,0.95 46.07,46.07 0 0 0 38.18,21.79 c 16.95,0.43 33.34,-10.12 40.08,-15.05 a 3.44,3.44 0 0 1 5.1,1.21"
             transform="translate(-10.65,-10.65)"
             id="path5"
             style="fill:#ffffff" /></g></g></g></g></svg>
