<?xml version="1.0" encoding="UTF-8" standalone="no"?>
<!-- Created with Inkscape (http://www.inkscape.org/) -->

<svg
   width="512"
   height="512"
   viewBox="0 0 512 512"
   version="1.1"
   id="svg5"
   inkscape:version="1.4 (86a8ad7, 2024-10-11)"
   xml:space="preserve"
   sodipodi:docname="Poison.svg"
   xmlns:inkscape="http://www.inkscape.org/namespaces/inkscape"
   xmlns:sodipodi="http://sodipodi.sourceforge.net/DTD/sodipodi-0.dtd"
   xmlns="http://www.w3.org/2000/svg"
   xmlns:svg="http://www.w3.org/2000/svg"><sodipodi:namedview
     id="namedview7"
     pagecolor="#505050"
     bordercolor="#ffffff"
     borderopacity="1"
     inkscape:showpageshadow="0"
     inkscape:pageopacity="0"
     inkscape:pagecheckerboard="1"
     inkscape:deskcolor="#505050"
     inkscape:document-units="px"
     showgrid="true"
     inkscape:lockguides="true"
     inkscape:zoom="4.5796212"
     inkscape:cx="80.46517"
     inkscape:cy="222.39831"
     inkscape:window-width="3840"
     inkscape:window-height="2054"
     inkscape:window-x="2869"
     inkscape:window-y="-11"
     inkscape:window-maximized="1"
     inkscape:current-layer="layer1"><inkscape:grid
       type="xygrid"
       id="grid234"
       empspacing="4"
       originx="0"
       originy="0"
       spacingy="1"
       spacingx="1"
       units="px" /></sodipodi:namedview><defs
     id="defs2"><clipPath
       id="clip-path"
       transform="translate(-10.65 -10.65)"><rect
         class="cls-1"
         width="600"
         height="600"
         id="rect1"
         x="0"
         y="0" /></clipPath></defs><g
     inkscape:label="Layer 1"
     inkscape:groupmode="layer"
     id="layer1"><g
       id="Layer_2"
       data-name="Layer 2"
       transform="matrix(0.88129088,0,0,0.88128824,0.99848379,1)"><g
         id="Poison"><g
           class="cls-2"
           clip-path="url(#clip-path)"
           id="g3"><path
             class="cls-3"
             d="M 300,584.35 A 14.52,14.52 0 0 1 289.62,580 L 20,310.38 a 14.67,14.67 0 0 1 0,-20.76 L 289.62,20 a 14.65,14.65 0 0 1 20.76,0 L 580,289.62 a 14.67,14.67 0 0 1 0,20.76 L 310.38,580 A 14.52,14.52 0 0 1 300,584.35"
             transform="translate(-10.65,-10.65)"
             id="path1"
             style="fill:#7c7f67" /><path
             class="cls-4"
             d="m 300,20.66 a 9.68,9.68 0 0 1 6.84,2.82 l 269.65,269.66 a 9.68,9.68 0 0 1 0,13.72 L 306.84,576.52 a 9.71,9.71 0 0 1 -13.68,0 L 23.51,306.86 a 9.68,9.68 0 0 1 0,-13.72 L 293.16,23.48 A 9.68,9.68 0 0 1 300,20.66 m 0,-10 a 19.67,19.67 0 0 0 -13.93,5.79 L 16.41,286.09 a 19.68,19.68 0 0 0 0,27.82 l 269.66,269.66 a 19.68,19.68 0 0 0 27.86,0 L 583.59,313.91 a 19.68,19.68 0 0 0 0,-27.82 L 313.93,16.44 A 19.67,19.67 0 0 0 300,10.65"
             transform="translate(-10.65,-10.65)"
             id="path2"
             style="fill:#ffffff" /><path
             class="cls-4"
             d="M 469.2,272.1 C 461.73,239.21 444.25,177 300,177 c -144.25,0 -161.71,62.21 -169.22,95.1 -13.34,58.5 12.7,86.41 27.65,96.88 18.4,12.87 62.22,15.07 62.22,15.07 0,0 -5.91,40.77 0,47.57 13,14.94 141.45,16 158.72,0 6.63,-6.08 0,-47.57 0,-47.57 0,0 43.82,-2.2 62.18,-15.07 14.94,-10.47 41,-38.38 27.65,-96.88 m -205.66,43 a 10,10 0 0 1 0,13.89 9.59,9.59 0 0 1 -13.76,0 L 249.69,328.9 225.12,301.34 201,329.13 a 10.56,10.56 0 0 1 -7.35,2.91 10.4,10.4 0 0 1 -7.34,-2.91 9.74,9.74 0 0 1 0,-14.31 l 0.08,-0.09 27.86,-24.27 L 186.67,266 a 10.38,10.38 0 0 1 0,-14.1 9.29,9.29 0 0 1 13.67,0 l 24.74,27.73 24.27,-27.82 a 10.41,10.41 0 0 1 14.44,0 9.94,9.94 0 0 1 0,14.31 l -0.08,0.09 -27.78,24.27 z m 55.68,62 c -5.28,2.91 -8.83,-4.05 -17.61,-5.78 -13.21,-2.54 -18.87,6.62 -22.24,0 -3.8,-7.39 10.72,-42.51 19.58,-44.2 8.86,-1.69 14.44,2.57 17.27,16 3.76,17.81 8.31,31 3,34 m 94.3,-62 a 10,10 0 0 1 0,13.89 9.59,9.59 0 0 1 -13.76,0 l -0.09,-0.09 -24.56,-27.56 -24.11,27.77 a 10.72,10.72 0 0 1 -14.69,0 9.85,9.85 0 0 1 0,-14.31 l 0.08,-0.09 27.86,-24.27 -27.6,-24.46 a 10.4,10.4 0 0 1 0,-14.1 9.24,9.24 0 0 1 6.84,-3 9.34,9.34 0 0 1 6.84,3 l 24.73,27.73 24.28,-27.82 a 10.4,10.4 0 0 1 14.43,0 9.94,9.94 0 0 1 0,14.31 l -0.08,0.09 -27.78,24.27 z"
             transform="translate(-10.65,-10.65)"
             id="path3"
             style="fill:#ffffff" /></g></g></g></g></svg>
