<?xml version="1.0" encoding="UTF-8" standalone="no"?>
<!-- Created with Inkscape (http://www.inkscape.org/) -->

<svg
   width="512"
   height="512"
   viewBox="0 0 512 512"
   version="1.1"
   id="svg5"
   inkscape:version="1.4 (86a8ad7, 2024-10-11)"
   xml:space="preserve"
   sodipodi:docname="Provoke.svg"
   xmlns:inkscape="http://www.inkscape.org/namespaces/inkscape"
   xmlns:sodipodi="http://sodipodi.sourceforge.net/DTD/sodipodi-0.dtd"
   xmlns="http://www.w3.org/2000/svg"
   xmlns:svg="http://www.w3.org/2000/svg"><sodipodi:namedview
     id="namedview7"
     pagecolor="#505050"
     bordercolor="#ffffff"
     borderopacity="1"
     inkscape:showpageshadow="0"
     inkscape:pageopacity="0"
     inkscape:pagecheckerboard="1"
     inkscape:deskcolor="#505050"
     inkscape:document-units="px"
     showgrid="true"
     inkscape:lockguides="true"
     inkscape:zoom="4.5796212"
     inkscape:cx="80.355991"
     inkscape:cy="222.39831"
     inkscape:window-width="3840"
     inkscape:window-height="2054"
     inkscape:window-x="2869"
     inkscape:window-y="-11"
     inkscape:window-maximized="1"
     inkscape:current-layer="layer1"><inkscape:grid
       type="xygrid"
       id="grid234"
       empspacing="4"
       originx="0"
       originy="0"
       spacingy="1"
       spacingx="1"
       units="px" /></sodipodi:namedview><defs
     id="defs2"><clipPath
       id="clip-path"
       transform="translate(-10.65 -10.65)"><rect
         class="cls-1"
         width="600"
         height="600"
         id="rect1"
         x="0"
         y="0" /></clipPath></defs><g
     inkscape:label="Layer 1"
     inkscape:groupmode="layer"
     id="layer1"><g
       id="Layer_2"
       data-name="Layer 2"
       transform="matrix(0.88129088,0,0,0.88128826,0.9984827,1)"><g
         id="Provoke"><g
           class="cls-2"
           clip-path="url(#clip-path)"
           id="g6"><path
             class="cls-3"
             d="m 300,584.35 a 14.59,14.59 0 0 1 -10.38,-4.3 L 20,310.38 a 14.68,14.68 0 0 1 0,-20.76 L 289.62,20 a 14.68,14.68 0 0 1 20.76,0 l 269.67,269.62 a 14.68,14.68 0 0 1 0,20.76 L 310.38,580.05 a 14.59,14.59 0 0 1 -10.38,4.3"
             transform="translate(-10.65,-10.65)"
             id="path1"
             style="fill:#b62025" /><path
             class="cls-4"
             d="m 300,20.65 a 9.62,9.62 0 0 1 6.85,2.84 l 269.66,269.66 a 9.69,9.69 0 0 1 0,13.7 L 306.85,576.51 a 9.68,9.68 0 0 1 -13.7,0 L 23.49,306.85 a 9.69,9.69 0 0 1 0,-13.7 L 293.15,23.49 A 9.62,9.62 0 0 1 300,20.65 m 0,-10 a 19.61,19.61 0 0 0 -13.92,5.77 L 16.42,286.08 a 19.68,19.68 0 0 0 0,27.84 l 269.66,269.66 a 19.68,19.68 0 0 0 27.84,0 L 583.58,313.92 a 19.68,19.68 0 0 0 0,-27.84 L 313.92,16.42 A 19.61,19.61 0 0 0 300,10.65"
             transform="translate(-10.65,-10.65)"
             id="path2"
             style="fill:#ffffff" /><path
             class="cls-4"
             d="m 244.64,152.78 27.92,-14.57 c 7.36,12.77 13.87,25.35 21.56,37.17 21.54,33.09 43.37,37.64 76.59,15.93 10.67,-7 20.45,-15.3 32,-24 6.75,7.8 13.64,15.76 20.48,23.68 C 349.55,263.76 286,252 244.64,152.78 Z"
             transform="translate(-10.65,-10.65)"
             id="path3"
             style="fill:#ffffff" /><path
             class="cls-4"
             d="m 447.11,244.64 14.66,27.63 c -13.67,8 -27,15 -39.48,23.3 -30.23,20.31 -34.65,41.31 -15.16,72.31 7.49,11.92 16.6,22.82 25.62,35.06 l -23.59,19.85 C 334.79,348.78 349.64,284.48 447.11,244.64 Z"
             transform="translate(-10.65,-10.65)"
             id="path4"
             style="fill:#ffffff" /><path
             class="cls-4"
             d="m 197.6,433.13 -20.09,-23.7 C 254.37,330 316,353.32 355.9,446.73 l -28.33,15.06 c -4.75,-8.55 -9.24,-16.63 -13.75,-24.7 -27.55,-49.3 -52.81,-54.31 -97.51,-19.29 -5.95,4.66 -11.69,9.57 -18.71,15.33 z"
             transform="translate(-10.65,-10.65)"
             id="path5"
             style="fill:#ffffff" /><path
             class="cls-4"
             d="m 153.18,355.69 c -4.93,-9.41 -9.51,-18.16 -15,-28.52 5.59,-3.07 10.82,-5.9 16,-8.81 6.19,-3.48 12.5,-6.79 18.5,-10.58 36.67,-23.14 41.4,-45.56 16.84,-81.5 -6.64,-9.72 -14.33,-18.73 -22.26,-29 l 23.58,-20.15 c 68.62,67.67 67.09,133.79 -37.66,178.56 z"
             transform="translate(-10.65,-10.65)"
             id="path6"
             style="fill:#ffffff" /></g></g></g></g></svg>
