<?xml version="1.0" encoding="UTF-8" standalone="no"?>
<!-- Created with Inkscape (http://www.inkscape.org/) -->

<svg
   width="512"
   height="512"
   viewBox="0 0 512 512"
   version="1.1"
   id="svg5"
   inkscape:version="1.4 (86a8ad7, 2024-10-11)"
   xml:space="preserve"
   sodipodi:docname="Pull.svg"
   xmlns:inkscape="http://www.inkscape.org/namespaces/inkscape"
   xmlns:sodipodi="http://sodipodi.sourceforge.net/DTD/sodipodi-0.dtd"
   xmlns="http://www.w3.org/2000/svg"
   xmlns:svg="http://www.w3.org/2000/svg"><sodipodi:namedview
     id="namedview7"
     pagecolor="#505050"
     bordercolor="#ffffff"
     borderopacity="1"
     inkscape:showpageshadow="0"
     inkscape:pageopacity="0"
     inkscape:pagecheckerboard="1"
     inkscape:deskcolor="#505050"
     inkscape:document-units="px"
     showgrid="true"
     inkscape:lockguides="true"
     inkscape:zoom="4.5796212"
     inkscape:cx="80.46517"
     inkscape:cy="222.39831"
     inkscape:window-width="3840"
     inkscape:window-height="2054"
     inkscape:window-x="2869"
     inkscape:window-y="-11"
     inkscape:window-maximized="1"
     inkscape:current-layer="layer1"><inkscape:grid
       type="xygrid"
       id="grid234"
       empspacing="4"
       originx="0"
       originy="0"
       spacingy="1"
       spacingx="1"
       units="px" /></sodipodi:namedview><defs
     id="defs2" /><g
     inkscape:label="Layer 1"
     inkscape:groupmode="layer"
     id="layer1"><g
       id="Layer_2"
       data-name="Layer 2"
       transform="matrix(18.895971,0,0,18.895883,0.97966732,1.0000984)"><g
         id="Layer_1-2"
         data-name="Layer 1"><path
           class="cls-1"
           d="m 13.5,26.76 a 0.68,0.68 0 0 1 -0.49,-0.2 L 0.43,14 a 0.7,0.7 0 0 1 0,-1 L 13,0.43 a 0.69,0.69 0 0 1 1,0 L 26.56,13 a 0.68,0.68 0 0 1 0,1 L 14,26.56 a 0.67,0.67 0 0 1 -0.48,0.2"
           id="path1"
           style="fill:#4f504f" /><path
           class="cls-2"
           d="M 13.5,0 A 0.91,0.91 0 0 0 12.85,0.27 L 0.27,12.85 a 0.92,0.92 0 0 0 0,1.3 l 12.58,12.58 a 0.94,0.94 0 0 0 0.65,0.26 1,1 0 0 0 0.65,-0.26 L 26.73,14.15 a 0.94,0.94 0 0 0 0,-1.3 L 14.15,0.27 A 0.92,0.92 0 0 0 13.5,0 m 0,0.47 A 0.44,0.44 0 0 1 13.82,0.6 L 26.4,13.18 a 0.46,0.46 0 0 1 0.13,0.32 0.48,0.48 0 0 1 -0.13,0.32 L 13.82,26.4 A 0.48,0.48 0 0 1 13.5,26.53 0.46,0.46 0 0 1 13.18,26.4 L 0.6,13.82 A 0.44,0.44 0 0 1 0.47,13.5 0.42,0.42 0 0 1 0.6,13.18 L 13.18,0.6 A 0.42,0.42 0 0 1 13.5,0.47"
           id="path2"
           style="fill:#ffffff" /><path
           class="cls-2"
           d="M 11.42,8.05 11,12.63 H 8.07 c -0.19,0 -0.33,0.18 -0.25,0.31 l 5.39,6 a 0.38,0.38 0 0 0 0.57,0 l 5.39,-6 c 0.09,-0.13 -0.06,-0.31 -0.25,-0.31 H 16 L 15.57,8.05 c 0,-0.12 -0.2,-0.19 -0.34,-0.12 A 3.82,3.82 0 0 1 13.5,8.34 3.91,3.91 0 0 1 11.76,7.93 c -0.13,-0.07 -0.33,0 -0.34,0.12"
           id="path3"
           style="fill:#ffffff" /><path
           class="cls-2"
           d="m 11.69,5.21 -0.13,1.35 a 0.33,0.33 0 0 0 0.17,0.3 3.14,3.14 0 0 0 1.77,0.44 3.16,3.16 0 0 0 1.77,-0.44 0.32,0.32 0 0 0 0.16,-0.3 L 15.31,5.21 c 0,-0.09 -0.18,-0.14 -0.29,-0.09 a 3.88,3.88 0 0 1 -3,0 c -0.12,0 -0.29,0 -0.29,0.09"
           id="path4"
           style="fill:#ffffff" /><path
           class="cls-2"
           d="M 13.5,3.88 A 3.72,3.72 0 0 1 12.1,3.61 c -0.11,0 -0.27,0 -0.27,0.08 V 3.92 A 0.29,0.29 0 0 0 11.99,4.15 3,3 0 0 0 13.53,4.48 3.09,3.09 0 0 0 15,4.15 C 15.1,4.08 15.16,4 15.15,3.92 V 3.69 c 0,-0.08 -0.17,-0.12 -0.27,-0.08 a 3.81,3.81 0 0 1 -1.4,0.27"
           id="path5"
           style="fill:#ffffff" /><path
           class="cls-2"
           d="m 7.77,14.2 0.47,3.92 a 1,1 0 0 0 0.22,0.41 L 13,23.41 a 0.74,0.74 0 0 0 1.09,0 l 4.49,-4.88 a 0.87,0.87 0 0 0 0.22,-0.41 l 0.48,-3.92 -5.46,6.13 a 0.38,0.38 0 0 1 -0.54,0 z"
           id="path6"
           style="fill:#ffffff" /></g></g></g></svg>
