<?xml version="1.0" encoding="UTF-8" standalone="no"?>
<!-- Created with Inkscape (http://www.inkscape.org/) -->

<svg
   width="512"
   height="512"
   viewBox="0 0 512 512"
   version="1.1"
   id="svg5"
   inkscape:version="1.4 (86a8ad7, 2024-10-11)"
   xml:space="preserve"
   sodipodi:docname="Push.svg"
   xmlns:inkscape="http://www.inkscape.org/namespaces/inkscape"
   xmlns:sodipodi="http://sodipodi.sourceforge.net/DTD/sodipodi-0.dtd"
   xmlns="http://www.w3.org/2000/svg"
   xmlns:svg="http://www.w3.org/2000/svg"><sodipodi:namedview
     id="namedview7"
     pagecolor="#505050"
     bordercolor="#ffffff"
     borderopacity="1"
     inkscape:showpageshadow="0"
     inkscape:pageopacity="0"
     inkscape:pagecheckerboard="1"
     inkscape:deskcolor="#505050"
     inkscape:document-units="px"
     showgrid="true"
     inkscape:lockguides="true"
     inkscape:zoom="2.2898106"
     inkscape:cx="214.64657"
     inkscape:cy="201.10834"
     inkscape:window-width="3840"
     inkscape:window-height="2054"
     inkscape:window-x="2869"
     inkscape:window-y="-11"
     inkscape:window-maximized="1"
     inkscape:current-layer="layer1"><inkscape:grid
       type="xygrid"
       id="grid234"
       empspacing="4"
       originx="0"
       originy="0"
       spacingy="1"
       spacingx="1"
       units="px" /></sodipodi:namedview><defs
     id="defs2" /><g
     inkscape:label="Layer 1"
     inkscape:groupmode="layer"
     id="layer1"><g
       id="Layer_2"
       data-name="Layer 2"
       transform="matrix(18.895971,0,0,18.895883,0.97966732,1.0000984)"><g
         id="Layer_1-2"
         data-name="Layer 1"><path
           class="cls-1"
           d="m 13.5,26.76 a 0.68,0.68 0 0 1 -0.49,-0.2 L 0.43,14 a 0.7,0.7 0 0 1 0,-1 L 13,0.43 a 0.69,0.69 0 0 1 1,0 L 26.56,13 a 0.68,0.68 0 0 1 0,1 L 14,26.56 a 0.67,0.67 0 0 1 -0.48,0.2"
           id="path1"
           style="fill:#4f504f" /><path
           class="cls-2"
           d="M 13.5,0 A 0.91,0.91 0 0 0 12.85,0.27 L 0.27,12.85 a 0.92,0.92 0 0 0 0,1.3 l 12.58,12.58 a 0.94,0.94 0 0 0 0.65,0.26 1,1 0 0 0 0.65,-0.26 L 26.73,14.15 a 0.94,0.94 0 0 0 0,-1.3 L 14.15,0.27 A 0.92,0.92 0 0 0 13.5,0 m 0,0.47 A 0.44,0.44 0 0 1 13.82,0.6 L 26.4,13.18 a 0.46,0.46 0 0 1 0.13,0.32 0.48,0.48 0 0 1 -0.13,0.32 L 13.82,26.4 A 0.48,0.48 0 0 1 13.5,26.53 0.46,0.46 0 0 1 13.18,26.4 L 0.6,13.82 A 0.44,0.44 0 0 1 0.47,13.5 0.42,0.42 0 0 1 0.6,13.18 L 13.18,0.6 A 0.42,0.42 0 0 1 13.5,0.47"
           id="path2"
           style="fill:#ffffff" /><path
           class="cls-2"
           d="m 10,15.72 c 0,0.23 0.27,0.37 0.53,0.23 0.918554,-0.510411 1.949266,-0.785267 3,-0.8 1.050335,0.0176 2.080362,0.292279 3,0.8 0.25,0.14 0.56,0 0.53,-0.23 l -0.44,-2.91 c -0.04603,-0.217375 -0.184871,-0.403722 -0.38,-0.51 -0.825751,-0.47435 -1.768403,-0.706548 -2.72,-0.67 -0.951986,-0.0404 -1.895695,0.192056 -2.72,0.67 -0.197957,0.102987 -0.337938,0.290857 -0.38,0.51"
           id="path3"
           style="fill:#ffffff"
           sodipodi:nodetypes="cccccccccc" /><path
           class="cls-2"
           d="m 9.4,19.43 -0.15,1 a 0.39,0.39 0 0 0 0.63,0.34 6.74,6.74 0 0 1 3.62,-1.16 6.73,6.73 0 0 1 3.61,1.16 0.39,0.39 0 0 0 0.63,-0.34 l -0.15,-1 A 1.41,1.41 0 0 0 17.06,18.54 5.59,5.59 0 0 0 13.5,17.4 5.65,5.65 0 0 0 9.93,18.54 1.41,1.41 0 0 0 9.4,19.43"
           id="path4"
           style="fill:#ffffff" /><path
           class="cls-2"
           d="M 13.33,4.06 8.59,6.74 C 8.47,6.81 8.53,6.91 8.7,6.91 h 2.58 l -0.56,3.73 c 0,0.15 0.23,0.23 0.42,0.15 a 5.8,5.8 0 0 1 4.71,0 c 0.2,0.08 0.44,0 0.42,-0.15 L 15.71,6.91 h 2.59 c 0.16,0 0.23,-0.1 0.11,-0.17 L 13.66,4.06 a 0.38,0.38 0 0 0 -0.33,0"
           id="path5"
           style="fill:#ffffff" /><path
           class="cls-2"
           d="M 10.63,7.47 10.38,9.14 H 9.46 C 9.2855725,9.1413589 9.1264991,9.1098651 9,9 L 8.71,7.5 Z"
           id="path6"
           style="fill:#ffffff"
           sodipodi:nodetypes="cccccc" /><path
           class="cls-2"
           d="m 18,9 c -0.119039,0.1180194 -0.282661,0.179832 -0.45,0.17 h -1 L 16.3,7.5 h 2"
           id="path7"
           style="fill:#ffffff"
           sodipodi:nodetypes="ccccc" /></g></g></g></svg>
