<?xml version="1.0" encoding="UTF-8" standalone="no"?>
<!-- Created with Inkscape (http://www.inkscape.org/) -->

<svg
   width="512"
   height="512"
   viewBox="0 0 512 512"
   version="1.1"
   id="svg5"
   inkscape:version="1.4 (86a8ad7, 2024-10-11)"
   xml:space="preserve"
   sodipodi:docname="Regenerate.svg"
   xmlns:inkscape="http://www.inkscape.org/namespaces/inkscape"
   xmlns:sodipodi="http://sodipodi.sourceforge.net/DTD/sodipodi-0.dtd"
   xmlns="http://www.w3.org/2000/svg"
   xmlns:svg="http://www.w3.org/2000/svg"><sodipodi:namedview
     id="namedview7"
     pagecolor="#505050"
     bordercolor="#ffffff"
     borderopacity="1"
     inkscape:showpageshadow="0"
     inkscape:pageopacity="0"
     inkscape:pagecheckerboard="1"
     inkscape:deskcolor="#505050"
     inkscape:document-units="px"
     showgrid="true"
     inkscape:lockguides="true"
     inkscape:zoom="4.5796212"
     inkscape:cx="80.46517"
     inkscape:cy="222.39831"
     inkscape:window-width="3840"
     inkscape:window-height="2054"
     inkscape:window-x="2869"
     inkscape:window-y="-11"
     inkscape:window-maximized="1"
     inkscape:current-layer="layer1"><inkscape:grid
       type="xygrid"
       id="grid234"
       empspacing="4"
       originx="0"
       originy="0"
       spacingy="1"
       spacingx="1"
       units="px" /></sodipodi:namedview><defs
     id="defs2" /><g
     inkscape:label="Layer 1"
     inkscape:groupmode="layer"
     id="layer1"><g
       id="Layer_2"
       data-name="Layer 2"
       transform="matrix(0.88129088,0,0,0.8812832,0.99924162,1.0000246)"><g
         id="Regenerate"><path
           class="cls-1"
           d="M 289.35,573.7 A 14.59,14.59 0 0 1 279,569.4 L 9.3,299.73 A 14.7,14.7 0 0 1 9.3,279 L 279,9.3 a 14.68,14.68 0 0 1 20.76,0 L 569.4,279 a 14.7,14.7 0 0 1 0,20.76 L 299.73,569.4 a 14.59,14.59 0 0 1 -10.38,4.3 z"
           id="path1"
           style="fill:#c73c96" /><path
           class="cls-2"
           d="m 289.35,10 a 9.62,9.62 0 0 1 6.84,2.84 L 565.86,282.5 a 9.7,9.7 0 0 1 0,13.69 L 296.19,565.86 a 9.67,9.67 0 0 1 -13.69,0 L 12.84,296.19 a 9.67,9.67 0 0 1 0,-13.69 L 282.5,12.84 A 9.62,9.62 0 0 1 289.35,10 m 0,-10 A 19.62,19.62 0 0 0 275.43,5.76 L 5.76,275.43 a 19.69,19.69 0 0 0 0,27.83 l 269.67,269.67 a 19.66,19.66 0 0 0 27.83,0 L 572.93,303.26 a 19.67,19.67 0 0 0 0,-27.83 L 303.26,5.76 A 19.62,19.62 0 0 0 289.35,0 Z"
           id="path2"
           style="fill:#ffffff" /><g
           id="_Hand_"
           data-name="&lt;Hand&gt;"><path
             class="cls-2"
             d="m 171.65,211.08 h -26.5 a 19.34,19.34 0 0 1 6.49,-7.14 h 12.27 a 48.3,48.3 0 0 1 7.74,7.14 z"
             id="path3"
             style="fill:#ffffff" /><path
             class="cls-2"
             d="M 190.08,236.54 H 148.43 A 64.69,64.69 0 0 1 145,228 h 39.53 c 2.14,3.14 4.02,6.09 5.55,8.54 z"
             id="path4"
             style="fill:#ffffff" /><path
             class="cls-2"
             d="m 208,262 h -44.14 q -2.61,-4 -5.73,-8.75 c -0.26,-0.39 -0.52,-0.78 -0.76,-1.16 h 42.8 A 99.8,99.8 0 0 0 208,262 Z"
             id="path5"
             style="fill:#ffffff" /><path
             class="cls-2"
             d="m 221,160.18 h -31.08 a 13.84,13.84 0 0 1 1.61,-4.39 h 27.62 c 0.56,1.21 1.2,2.72 1.85,4.39 z"
             id="path6"
             style="fill:#ffffff" /><path
             class="cls-2"
             d="m 230.79,185.63 h -36.66 c -0.68,-1.89 -1.32,-3.84 -1.89,-5.77 h 36.4 z"
             id="path7"
             style="fill:#ffffff" /><path
             class="cls-2"
             d="m 240.63,211.07 h -36.18 c -0.77,-2 -1.4,-3.56 -1.82,-4.62 -0.28,-0.71 -0.63,-1.56 -1,-2.52 h 36.14 c 1,2.63 1.97,5.07 2.86,7.14 z"
             id="path8"
             style="fill:#ffffff" /><path
             class="cls-2"
             d="m 251.31,236.54 h -37.63 c -0.92,-2.87 -1.9,-5.74 -2.88,-8.53 h 36.7 c 1.28,3.1 2.5,5.99 3.81,8.53 z"
             id="path9"
             style="fill:#ffffff" /><path
             class="cls-2"
             d="m 279.32,109.27 h -16.74 c 5.29,-2.46 11.96,-1.89 16.74,0 z"
             id="path10"
             style="fill:#ffffff" /><path
             class="cls-2"
             d="m 290.13,134.72 h -36.22 c -0.06,-1 -0.11,-2 -0.13,-3 h 35.88 c 0.17,0.99 0.34,2 0.47,3 z"
             id="path11"
             style="fill:#ffffff" /><path
             class="cls-2"
             d="m 293,160.18 h -36 c -0.22,-1.46 -0.45,-2.92 -0.67,-4.39 h 36.28 c 0.08,0.83 0.14,1.5 0.18,2 0.04,0.5 0.15,1.33 0.21,2.39 z"
             id="path12"
             style="fill:#ffffff" /><path
             class="cls-2"
             d="m 295.23,185.63 h -34.86 c -0.12,-1.81 -0.3,-3.74 -0.54,-5.77 h 34.91 c 0.16,1.88 0.32,3.81 0.49,5.77 z"
             id="path13"
             style="fill:#ffffff" /><path
             class="cls-2"
             d="m 297.18,211.08 h -33.9 c -0.32,-2.39 -0.64,-4.78 -1,-7.14 h 34.36 c 0.22,2.47 0.36,4.87 0.54,7.14 z"
             id="path14"
             style="fill:#ffffff" /><path
             class="cls-2"
             d="m 265.16,236.54 a 66.48,66.48 0 0 0 -0.08,-8.53 h 33.31 c 0.79,6 2.09,7.88 3.65,8.53 z"
             id="path15"
             style="fill:#ffffff" /><path
             class="cls-2"
             d="m 350.93,252.08 c -0.95,4.85 -1.49,8.28 -1.38,9.51 v 0.4 H 218.88 a 40.52,40.52 0 0 0 -1,-9.91 z"
             id="path16"
             style="fill:#ffffff" /><path
             class="cls-2"
             d="m 316.14,228 h 40.08 c -0.67,2.93 -1.33,5.8 -2,8.53 H 311.9 a 6.7,6.7 0 0 0 2.56,-3.28 c 0.35,-0.84 0.94,-2.71 1.68,-5.25 z"
             id="path17"
             style="fill:#ffffff" /><path
             class="cls-2"
             d="m 322.77,203.94 h 39.09 c -0.55,2.35 -1.11,4.74 -1.68,7.14 h -39.32 c 0.64,-2.39 1.28,-4.8 1.91,-7.14 z"
             id="path18"
             style="fill:#ffffff" /><path
             class="cls-2"
             d="m 328.69,179.86 h 38.68 c -0.37,1.76 -0.8,3.7 -1.27,5.77 h -38.61 c 0.31,-1.39 0.7,-3.37 1.2,-5.77 z"
             id="path19"
             style="fill:#ffffff" /><path
             class="cls-2"
             d="m 369.92,134.72 h -24.49 a 25.47,25.47 0 0 1 2.83,-3 h 18.86 a 13.88,13.88 0 0 1 2.8,3 z"
             id="path20"
             style="fill:#ffffff" /><path
             class="cls-2"
             d="m 372.07,155.79 c -0.26,1.5 -0.55,3 -0.84,4.39 h -37.6 c 0.45,-1.46 0.91,-2.93 1.41,-4.39 z"
             id="path21"
             style="fill:#ffffff" /><path
             class="cls-2"
             d="M 359.63,287.45 H 178.79 c -1.55,-3.14 -3.55,-6.82 -6.19,-11.3 h 178.25 c 0.98,5.44 3.15,9.48 8.78,11.3 z"
             id="path22"
             style="fill:#ffffff" /><path
             class="cls-2"
             d="m 240.72,440.17 c -0.14,-7.43 -0.69,-14.73 -2,-19.58 h 100.9 c 0,4.94 0.23,12.26 0.48,19.58 z"
             id="path23"
             style="fill:#ffffff" /><path
             class="cls-2"
             d="m 340.93,461.82 a 5.51,5.51 0 0 1 -3.73,5.46 c -8.3,2.82 -28.46,9 -47.69,9.72 -19,0.68 -37.67,-4.83 -45.61,-7.54 a 5.5,5.5 0 0 1 -3.72,-5.53 c 0.25,-4.34 0.59,-11.62 0.59,-19.27 h 99.49 c 0.24,6.82 0.51,13.22 0.67,17.16 z"
             id="path24"
             style="fill:#ffffff" /><path
             class="cls-2"
             d="m 339.8,414.72 h -106 c -5.51,-4 -11.23,-10.62 -16.75,-18.2 h 139.2 c -8.17,9.14 -15.82,16.7 -16.43,18 a 1.23,1.23 0 0 0 -0.02,0.2 z"
             id="path25"
             style="fill:#ffffff" /><path
             class="cls-2"
             d="m 374,372.44 a 70,70 0 0 1 -5,8.49 c -2,2.73 -4.17,5.54 -6.47,8.33 H 212 c -2.87,-4.28 -5.67,-8.66 -8.3,-12.89 q -1.2,-1.92 -2.28,-3.93 z"
             id="path26"
             style="fill:#ffffff" /><path
             class="cls-2"
             d="m 384.43,348.37 c -2,4.95 -4.11,10.32 -6.35,15.44 H 197.37 a 122.73,122.73 0 0 1 -5,-15.44 z"
             id="path27"
             style="fill:#ffffff" /><path
             class="cls-2"
             d="m 399.26,324.3 c -2.53,2.17 -4.39,3.74 -5.24,4.45 -1.56,1.29 -3.4,4.84 -5.47,9.61 H 190.2 c -0.94,-4.93 -1.66,-9.68 -2.23,-14.06 z"
             id="path28"
             style="fill:#ffffff" /><path
             class="cls-2"
             d="m 427,300.23 c -4.79,4.21 -9.83,8.61 -14.5,12.67 H 186.56 a 69.19,69.19 0 0 0 -1.66,-10 c -0.28,-0.89 -0.55,-1.78 -0.84,-2.69 z"
             id="path29"
             style="fill:#ffffff" /><path
             class="cls-2"
             d="m 436.09,262 h -21.41 c 4.54,-1.78 9.15,-2.76 13.48,-2.25 a 24.87,24.87 0 0 1 7.93,2.25 z"
             id="path30"
             style="fill:#ffffff" /><path
             class="cls-2"
             d="m 448.36,280.51 c -0.4,0.69 -3.08,3.29 -7.06,6.94 h -68.37 c 4.54,-1.39 8.39,-4 12.21,-6.34 1.49,-0.91 3.79,-2.74 6.68,-5 h 56.41 c 0.55,2.02 0.56,3.61 0.13,4.4 z"
             id="path31"
             style="fill:#ffffff" /></g></g></g></g></svg>
