<?xml version="1.0" encoding="UTF-8" standalone="no"?>
<!-- Created with Inkscape (http://www.inkscape.org/) -->

<svg
   width="512"
   height="512"
   viewBox="0 0 512 512"
   version="1.1"
   id="svg5"
   inkscape:version="1.4 (86a8ad7, 2024-10-11)"
   xml:space="preserve"
   sodipodi:docname="Rupture.svg"
   xmlns:inkscape="http://www.inkscape.org/namespaces/inkscape"
   xmlns:sodipodi="http://sodipodi.sourceforge.net/DTD/sodipodi-0.dtd"
   xmlns="http://www.w3.org/2000/svg"
   xmlns:svg="http://www.w3.org/2000/svg"><sodipodi:namedview
     id="namedview7"
     pagecolor="#505050"
     bordercolor="#ffffff"
     borderopacity="1"
     inkscape:showpageshadow="0"
     inkscape:pageopacity="0"
     inkscape:pagecheckerboard="1"
     inkscape:deskcolor="#505050"
     inkscape:document-units="px"
     showgrid="true"
     inkscape:lockguides="true"
     inkscape:zoom="4.5796212"
     inkscape:cx="80.46517"
     inkscape:cy="222.39831"
     inkscape:window-width="3840"
     inkscape:window-height="2054"
     inkscape:window-x="2869"
     inkscape:window-y="-11"
     inkscape:window-maximized="1"
     inkscape:current-layer="layer1"><inkscape:grid
       type="xygrid"
       id="grid234"
       empspacing="4"
       originx="0"
       originy="0"
       spacingy="1"
       spacingx="1"
       units="px" /></sodipodi:namedview><defs
     id="defs2"><clipPath
       id="clip-path"
       transform="translate(-7.45 -10.65)"><rect
         class="cls-1"
         width="600"
         height="600"
         id="rect1"
         x="0"
         y="0" /></clipPath><clipPath
       id="clip-path-2"
       transform="translate(-7.45 -10.65)"><path
         class="cls-1"
         d="m 300,584.35 a 14.59,14.59 0 0 1 -10.38,-4.3 L 20,310.38 a 14.68,14.68 0 0 1 0,-20.76 L 289.62,20 a 14.68,14.68 0 0 1 20.76,0 l 269.67,269.62 a 14.68,14.68 0 0 1 0,20.76 L 310.38,580.05 a 14.59,14.59 0 0 1 -10.38,4.3"
         id="path1" /></clipPath></defs><g
     inkscape:label="Layer 1"
     inkscape:groupmode="layer"
     id="layer1"><g
       id="Layer_2"
       data-name="Layer 2"
       transform="matrix(0.87757392,0,0,0.88128826,-1.8097475,1)"><g
         id="Rupture"><g
           class="cls-2"
           clip-path="url(#clip-path)"
           id="g11"><path
             class="cls-3"
             d="m 300,584.35 a 14.59,14.59 0 0 1 -10.38,-4.3 L 20,310.38 a 14.68,14.68 0 0 1 0,-20.76 L 289.62,20 a 14.68,14.68 0 0 1 20.76,0 l 269.67,269.62 a 14.68,14.68 0 0 1 0,20.76 L 310.38,580.05 a 14.59,14.59 0 0 1 -10.38,4.3"
             transform="translate(-7.45,-10.65)"
             id="path2"
             style="fill:#7f3b2a" /><path
             class="cls-4"
             d="m 300,20.65 a 9.62,9.62 0 0 1 6.85,2.84 l 269.66,269.66 a 9.69,9.69 0 0 1 0,13.7 L 306.85,576.51 a 9.68,9.68 0 0 1 -13.7,0 L 23.49,306.85 a 9.69,9.69 0 0 1 0,-13.7 L 293.15,23.49 A 9.62,9.62 0 0 1 300,20.65 m 0,-10 a 19.61,19.61 0 0 0 -13.92,5.77 L 16.42,286.08 a 19.68,19.68 0 0 0 0,27.84 l 269.66,269.66 a 19.68,19.68 0 0 0 27.84,0 L 583.58,313.92 a 19.68,19.68 0 0 0 0,-27.84 L 313.92,16.42 A 19.61,19.61 0 0 0 300,10.65"
             transform="translate(-7.45,-10.65)"
             id="path3"
             style="fill:#ffffff" /><path
             class="cls-4"
             d="m 333.49,282.52 c -2,20.45 6.27,54.7 7.06,57.59 0.64,2.47 0.48,15.48 0.15,27.61 -0.11,3.77 -0.24,7.45 -0.36,10.7 15,6.44 33.65,4.6 48.63,15.86 12.07,9.08 19.86,28.19 22.42,35.23 a 2.31,2.31 0 0 1 0.09,1.22 c -0.19,0.31 -0.4,0.62 -0.61,0.92 -0.74,0.36 -1.6,0.73 -2.55,1.12 -1.23,0.52 -2.62,1 -4.18,1.6 -17.4,6.19 -54.62,14.84 -97.92,11.95 0,0 -44.61,-32 -48,-34.69 -9.91,-14.61 -7.7,-31 -23.12,-39.43 -4,-2.22 -10,-2.12 -16.88,-0.29 -6.8,-6.05 -17.11,-20.46 -23.72,-30.16 -2.52,-3.7 -4.5,-6.71 -5.55,-8.33 a 3.35,3.35 0 0 1 -0.37,-2.75 90.63,90.63 0 0 1 8.34,-18 c 1.81,-2.92 6.67,-9 12.49,-16.07 12.46,-15.08 29.34,-34.49 30.43,-36.33 6.16,-10.53 22.3,-65.27 22.81,-67.87 0.33,-1.83 -0.64,-18.51 -1.24,-28 -0.1,-1.64 -0.19,-3 -0.27,-4.14 a 2.44,2.44 0 0 1 2.3,-2.57 c 14.94,-0.94 32.71,3.31 32.71,3.31 0,0 0.42,-6 1.13,-10.2 a 2.13,2.13 0 0 1 2.72,-1.63 c 35.17,10.22 67.29,28.86 84.41,50.4 a 3,3 0 0 1 -0.37,4.07 c -4.92,4.51 -12.25,13.08 -19.76,23 l -26.09,-14.46 -4.34,-2.41 a 8.6614447,8.6614447 0 1 0 -8.4,15.15 l 5.31,2.94 23.32,12.95 a 245.11,245.11 0 0 0 -15.21,24.88"
             transform="translate(-7.45,-10.65)"
             id="path4"
             style="fill:#ffffff" /><g
             class="cls-5"
             clip-path="url(#clip-path-2)"
             id="g10"><path
               class="cls-4"
               d="M 15.56,460.93 155.63,384.1 c 8.2,-4.5 11.76,1.85 5.12,9.11 L 47.28,517.35 c -4.54,5 -11,6.76 -12.78,3.55 L 7.9,473.59 c -1.81,-3.21 2,-9.58 7.66,-12.66"
               transform="translate(-7.45,-10.65)"
               id="path5"
               style="fill:#ffffff" /><path
               class="cls-4"
               d="m 11,293.56 135.54,9.66 c 9.57,0.68 9.82,5.91 0.36,7.5 L 11.85,333.53"
               transform="translate(-7.45,-10.65)"
               id="path6"
               style="fill:#ffffff" /><path
               class="cls-4"
               d="m 80.43,155.92 111,87.58 c 6.5,5.12 3.75,9.15 -4,5.79 L 56,191.77 c -5.27,-2.31 -9.2,-6.71 -7.81,-8.75 L 68.68,153 c 1.39,-2 7.31,-0.55 11.75,3"
               transform="translate(-7.45,-10.65)"
               id="path7"
               style="fill:#ffffff" /><path
               class="cls-4"
               d="m 594.55,299.92 -198.41,-2.81 c -11.95,-0.16 -12.54,-6.43 -0.85,-9 l 196,-25.65"
               transform="translate(-7.45,-10.65)"
               id="path8"
               style="fill:#ffffff" /><path
               class="cls-4"
               d="m 516.73,167.66 -98.16,54.91 c -5.75,3.22 -8.72,-0.54 -4.27,-5.39 l 76,-82.91 c 3.05,-3.32 7.65,-4.76 9.16,-2.86 l 22.15,28 c 1.51,1.9 -1,6.05 -4.88,8.25"
               transform="translate(-7.45,-10.65)"
               id="path9"
               style="fill:#ffffff" /><path
               class="cls-4"
               d="M 536.58,426.21 417.91,366.82 c -7,-3.47 -5.2,-7.24 2.51,-5.41 l 131.69,31.32 c 5.28,1.25 9.73,4.45 8.85,6.36 l -13,28.08 c -0.88,1.9 -6.6,1.42 -11.35,-1"
               transform="translate(-7.45,-10.65)"
               id="path10"
               style="fill:#ffffff" /></g><polygon
             class="cls-3"
             points="345.37,234.09 350.57,286.94 311.49,311.97 279.61,280.11 234.84,335.58 213.05,300.68 179.42,320.24 177.25,290.59 213.42,269.41 234.89,302.67 277.55,245.44 310.43,270.68 "
             id="polygon10"
             style="fill:#7f3b2a" /></g></g></g></g></svg>
