<?xml version="1.0" encoding="UTF-8" standalone="no"?>
<!-- Created with Inkscape (http://www.inkscape.org/) -->

<svg
   width="512"
   height="512"
   viewBox="0 0 512 512"
   version="1.1"
   id="svg5"
   inkscape:version="1.4 (86a8ad7, 2024-10-11)"
   xml:space="preserve"
   sodipodi:docname="Safeguard.svg"
   xmlns:inkscape="http://www.inkscape.org/namespaces/inkscape"
   xmlns:sodipodi="http://sodipodi.sourceforge.net/DTD/sodipodi-0.dtd"
   xmlns="http://www.w3.org/2000/svg"
   xmlns:svg="http://www.w3.org/2000/svg"><sodipodi:namedview
     id="namedview7"
     pagecolor="#505050"
     bordercolor="#ffffff"
     borderopacity="1"
     inkscape:showpageshadow="0"
     inkscape:pageopacity="0"
     inkscape:pagecheckerboard="1"
     inkscape:deskcolor="#505050"
     inkscape:document-units="px"
     showgrid="true"
     inkscape:lockguides="true"
     inkscape:zoom="4.5796212"
     inkscape:cx="80.46517"
     inkscape:cy="222.39831"
     inkscape:window-width="3840"
     inkscape:window-height="2054"
     inkscape:window-x="2869"
     inkscape:window-y="-11"
     inkscape:window-maximized="1"
     inkscape:current-layer="layer1"><inkscape:grid
       type="xygrid"
       id="grid234"
       empspacing="4"
       originx="0"
       originy="0"
       spacingy="1"
       spacingx="1"
       units="px" /></sodipodi:namedview><defs
     id="defs2"><clipPath
       id="clip-path"
       transform="translate(-10.65 -10.65)"><rect
         class="cls-1"
         width="600"
         height="600"
         id="rect1"
         x="0"
         y="0" /></clipPath></defs><g
     inkscape:label="Layer 1"
     inkscape:groupmode="layer"
     id="layer1"><g
       id="Layer_2"
       data-name="Layer 2"
       transform="matrix(0.88129088,0,0,0.88128826,0.9984827,1)"><g
         id="Safeguard"><g
           class="cls-2"
           clip-path="url(#clip-path)"
           id="g4"><path
             class="cls-3"
             d="m 300,584.35 a 14.59,14.59 0 0 1 -10.38,-4.3 L 20,310.38 a 14.7,14.7 0 0 1 0,-20.76 L 289.62,20 a 14.68,14.68 0 0 1 20.76,0 l 269.67,269.62 a 14.68,14.68 0 0 1 0,20.76 L 310.38,580.05 a 14.59,14.59 0 0 1 -10.38,4.3"
             transform="translate(-10.65,-10.65)"
             id="path1"
             style="fill:#5b9977" /><path
             class="cls-4"
             d="m 300,20.65 a 9.62,9.62 0 0 1 6.85,2.84 l 269.66,269.66 a 9.69,9.69 0 0 1 0,13.7 L 306.85,576.51 a 9.68,9.68 0 0 1 -13.7,0 L 23.49,306.85 a 9.69,9.69 0 0 1 0,-13.7 L 293.15,23.49 A 9.62,9.62 0 0 1 300,20.65 m 0,-10 a 19.61,19.61 0 0 0 -13.92,5.77 L 16.42,286.08 a 19.68,19.68 0 0 0 0,27.84 l 269.66,269.66 a 19.68,19.68 0 0 0 27.84,0 L 583.58,313.92 a 19.68,19.68 0 0 0 0,-27.84 L 313.92,16.42 A 19.61,19.61 0 0 0 300,10.65"
             transform="translate(-10.65,-10.65)"
             id="path2"
             style="fill:#ffffff" /><path
             class="cls-5"
             d="m 300,455.11 a 40.56,40.56 0 0 1 -21.94,-6.43 c -47.12,-30.17 -79.88,-58.23 -103.08,-88.3 -20.65,-26.76 -25,-52.88 -25,-70.08 a 103.49,103.49 0 0 1 150,-92.37 A 103.49,103.49 0 0 1 450,290.3 c 0,17.2 -4.33,43.32 -25,70.07 -23.21,30.07 -56,58.12 -103.06,88.29 A 40.61,40.61 0 0 1 300,455.11 Z"
             transform="translate(-10.65,-10.65)"
             id="path3"
             style="fill:none;stroke:#ffffff;stroke-width:21.05px;stroke-linecap:round;stroke-miterlimit:10;stroke-dasharray:66.32, 52.63" /><path
             class="cls-4"
             d="M 344.26,228.59 A 63,63 0 0 0 300,246.67 63.23,63.23 0 0 0 192.5,291.83 c 0,11.27 2.94,27.7 16.44,45.2 22.5,29.15 54.62,53.72 89.09,75.8 a 3.65,3.65 0 0 0 3.94,0 c 34.48,-22.08 66.6,-46.65 89.1,-75.8 13.5,-17.5 16.43,-33.93 16.43,-45.2 a 63.24,63.24 0 0 0 -63.24,-63.24"
             transform="translate(-10.65,-10.65)"
             id="path4"
             style="fill:#ffffff" /></g></g></g></g></svg>
