<?xml version="1.0" encoding="UTF-8" standalone="no"?>
<!-- Created with Inkscape (http://www.inkscape.org/) -->

<svg
   width="512"
   height="512"
   viewBox="0 0 512 512"
   version="1.1"
   id="svg5"
   inkscape:version="1.4 (86a8ad7, 2024-10-11)"
   xml:space="preserve"
   sodipodi:docname="Strengthen.svg"
   xmlns:inkscape="http://www.inkscape.org/namespaces/inkscape"
   xmlns:sodipodi="http://sodipodi.sourceforge.net/DTD/sodipodi-0.dtd"
   xmlns="http://www.w3.org/2000/svg"
   xmlns:svg="http://www.w3.org/2000/svg"><sodipodi:namedview
     id="namedview7"
     pagecolor="#505050"
     bordercolor="#ffffff"
     borderopacity="1"
     inkscape:showpageshadow="0"
     inkscape:pageopacity="0"
     inkscape:pagecheckerboard="1"
     inkscape:deskcolor="#505050"
     inkscape:document-units="px"
     showgrid="true"
     inkscape:lockguides="true"
     inkscape:zoom="4.5796212"
     inkscape:cx="80.46517"
     inkscape:cy="222.39831"
     inkscape:window-width="3840"
     inkscape:window-height="2054"
     inkscape:window-x="2869"
     inkscape:window-y="-11"
     inkscape:window-maximized="1"
     inkscape:current-layer="layer1"><inkscape:grid
       type="xygrid"
       id="grid234"
       empspacing="4"
       originx="0"
       originy="0"
       spacingy="1"
       spacingx="1"
       units="px" /></sodipodi:namedview><defs
     id="defs2"><clipPath
       id="clip-path"
       transform="translate(-10.65 -10.65)"><rect
         class="cls-1"
         width="600"
         height="600"
         id="rect1"
         x="0"
         y="0" /></clipPath></defs><g
     inkscape:label="Layer 1"
     inkscape:groupmode="layer"
     id="layer1"><g
       id="Layer_2"
       data-name="Layer 2"
       transform="matrix(0.88130123,0,0,0.88128709,0.99548941,1)"><g
         id="Strengthen"><g
           class="cls-2"
           clip-path="url(#clip-path)"
           id="g4"><path
             class="cls-3"
             d="m 300,584.35 a 14.56,14.56 0 0 1 -10.37,-4.29 L 19.94,310.37 a 14.68,14.68 0 0 1 0,-20.73 L 289.63,19.94 a 14.68,14.68 0 0 1 20.74,0 l 269.69,269.7 a 14.68,14.68 0 0 1 0,20.73 L 310.37,580.06 A 14.56,14.56 0 0 1 300,584.35"
             transform="translate(-10.65,-10.65)"
             id="path1"
             style="fill:#4b97d2" /><path
             class="cls-4"
             d="m 300,20.65 a 9.66,9.66 0 0 1 6.86,2.83 l 269.66,269.66 a 9.73,9.73 0 0 1 0,13.72 L 306.86,576.52 a 9.73,9.73 0 0 1 -13.72,0 L 23.48,306.86 a 9.73,9.73 0 0 1 0,-13.72 L 293.14,23.48 A 9.66,9.66 0 0 1 300,20.65 m 0,-10 a 19.61,19.61 0 0 0 -13.91,5.78 L 16.43,286.09 a 19.64,19.64 0 0 0 0,27.82 l 269.66,269.66 a 19.63,19.63 0 0 0 27.82,0 L 583.57,313.91 a 19.64,19.64 0 0 0 0,-27.82 L 313.91,16.43 A 19.61,19.61 0 0 0 300,10.65"
             transform="translate(-10.65,-10.65)"
             id="path2"
             style="fill:#ffffff" /><path
             class="cls-4"
             d="m 431.05,270.09 c -43.12,-1.76 -68.62,16.88 -73.92,21.2 -15.94,-15.94 -24.35,-20.29 -46.34,-20.53 -25.19,-0.23 -44.2,11 -50.92,16.79 -1.05,-19.9 -15.57,-45.46 -12.36,-62.24 1.58,-8.31 2.93,-20.06 5.33,-27.46 -5.87,-0.88 -14.22,-5.67 -11.11,-19.69 4.39,15 17.26,12.16 17.26,12.16 0,0 2.57,7.4 8.44,8.27 5.07,0.78 11,-4.66 11,-4.66 a 11.24,11.24 0 0 0 10.37,6 c 7.63,-0.06 10.74,-5.4 10.74,-5.4 0,0 3.91,7 11,7.67 7.09,0.67 11.38,-7 11.38,-7 0,0 4.42,4.49 10.4,4.26 5.98,-0.23 9.49,-3.38 9.56,-11.42 0.07,-8.04 -7.43,-29.14 -10,-46.23 -1.55,-10.77 -5,-11.38 -14.08,-11.38 -11.45,0 -28.84,4.9 -59.57,12.6 -50.56,12.66 -54.64,33.6 -55.65,38 -6.32,27.42 -19.83,53.22 -32.56,83.78 -21.88,52.51 -9.22,95.47 -3.92,103.61 3.21,4.9 29.32,10.6 57.92,18.47 18.88,5.2 37.38,11.11 56.67,14.42 27.89,4.76 52.68,0 79.9,-12.36 41.17,19.69 66.93,13 66.93,13 0,0 9.73,-3.44 9.73,-51.4 0,-30.93 -6,-52.24 -6.25,-80.37 m -120.21,91.7 c -28.94,-1.76 -45.76,-19.66 -50.11,-29.42 0,0 29.72,23.47 64.3,20.33 a 56.7,56.7 0 0 0 23.87,-7.33 c -1.42,6.15 -13.47,17.9 -38.06,16.42"
             transform="translate(-10.65,-10.65)"
             id="path3"
             style="fill:#ffffff" /><path
             class="cls-4"
             d="m 325.66,216.88 c -8.62,2.7 -17,-3.38 -21.11,-8.75 a 18.34,18.34 0 0 0 5.27,1.29 15.69,15.69 0 0 0 1.65,0.1 17.87,17.87 0 0 0 11.86,-4.76 20.28,20.28 0 0 0 7.7,1.92 1.74,1.74 0 0 1 0.81,0.58 c 0.27,0.37 3,6.75 -6.18,9.62"
             transform="translate(-10.65,-10.65)"
             id="path4"
             style="fill:#ffffff" /></g></g></g></g></svg>
