<?xml version="1.0" encoding="UTF-8" standalone="no"?>
<!-- Created with Inkscape (http://www.inkscape.org/) -->

<svg
   width="512"
   height="512"
   viewBox="0 0 512 512"
   version="1.1"
   id="svg5"
   inkscape:version="1.4 (86a8ad7, 2024-10-11)"
   xml:space="preserve"
   sodipodi:docname="Stun.svg"
   xmlns:inkscape="http://www.inkscape.org/namespaces/inkscape"
   xmlns:sodipodi="http://sodipodi.sourceforge.net/DTD/sodipodi-0.dtd"
   xmlns="http://www.w3.org/2000/svg"
   xmlns:svg="http://www.w3.org/2000/svg"><sodipodi:namedview
     id="namedview7"
     pagecolor="#505050"
     bordercolor="#ffffff"
     borderopacity="1"
     inkscape:showpageshadow="0"
     inkscape:pageopacity="0"
     inkscape:pagecheckerboard="1"
     inkscape:deskcolor="#505050"
     inkscape:document-units="px"
     showgrid="true"
     inkscape:lockguides="true"
     inkscape:zoom="4.5796212"
     inkscape:cx="80.46517"
     inkscape:cy="222.39831"
     inkscape:window-width="3840"
     inkscape:window-height="2054"
     inkscape:window-x="2869"
     inkscape:window-y="-11"
     inkscape:window-maximized="1"
     inkscape:current-layer="layer1"><inkscape:grid
       type="xygrid"
       id="grid234"
       empspacing="4"
       originx="0"
       originy="0"
       spacingy="1"
       spacingx="1"
       units="px" /></sodipodi:namedview><defs
     id="defs2"><clipPath
       id="clip-path"
       transform="translate(-10.65 -10.65)"><rect
         class="cls-1"
         width="600"
         height="600"
         id="rect1"
         x="0"
         y="0" /></clipPath></defs><g
     inkscape:label="Layer 1"
     inkscape:groupmode="layer"
     id="layer1"><g
       id="Layer_2"
       data-name="Layer 2"
       transform="matrix(0.88130123,0,0,0.88128709,0.99548941,1)"><g
         id="Stun"><g
           class="cls-2"
           clip-path="url(#clip-path)"
           id="g4"><path
             class="cls-3"
             d="m 300,584.35 a 14.56,14.56 0 0 1 -10.37,-4.29 L 19.94,310.37 a 14.68,14.68 0 0 1 0,-20.73 L 289.63,19.94 a 14.68,14.68 0 0 1 20.74,0 l 269.69,269.7 a 14.68,14.68 0 0 1 0,20.73 L 310.37,580.06 A 14.56,14.56 0 0 1 300,584.35"
             transform="translate(-10.65,-10.65)"
             id="path1"
             style="fill:#2e4668" /><path
             class="cls-4"
             d="m 300,20.65 a 9.66,9.66 0 0 1 6.86,2.83 l 269.66,269.66 a 9.73,9.73 0 0 1 0,13.72 L 306.86,576.52 a 9.73,9.73 0 0 1 -13.72,0 L 23.48,306.86 a 9.72,9.72 0 0 1 0,-13.72 L 293.14,23.48 A 9.66,9.66 0 0 1 300,20.65 m 0,-10 a 19.61,19.61 0 0 0 -13.91,5.78 L 16.43,286.09 a 19.64,19.64 0 0 0 0,27.82 l 269.66,269.66 a 19.63,19.63 0 0 0 27.82,0 L 583.57,313.91 a 19.64,19.64 0 0 0 0,-27.82 L 313.91,16.43 A 19.61,19.61 0 0 0 300,10.65"
             transform="translate(-10.65,-10.65)"
             id="path2"
             style="fill:#ffffff" /><polygon
             class="cls-4"
             points="210.24,334.48 179.71,403.57 247.49,370.24 293.45,488.95 334.48,368.45 403.58,398.98 370.25,331.2 488.95,285.24 368.46,244.21 398.99,175.12 331.21,208.45 285.25,89.74 244.21,210.24 175.12,179.71 208.45,247.49 89.75,293.45 "
             id="polygon2"
             style="fill:#ffffff" /><polygon
             class="cls-3"
             points="333.75,265.66 401.19,287.04 335.03,311.66 345.36,343.1 312.84,336.07 291.63,401.18 267.08,337.46 235.61,345.36 244.93,313.04 177.52,291.67 243.68,267.05 233.35,235.61 265.87,243.14 287.04,177.52 311.63,241.75 343.1,233.34 "
             id="polygon3"
             style="fill:#2e4668" /><polygon
             class="cls-4"
             points="334.47,289.36 301.37,301.38 289.35,334.47 277.33,301.38 244.23,289.36 277.33,277.33 289.35,244.24 301.37,277.33 "
             id="polygon4"
             style="fill:#ffffff" /></g></g></g></g></svg>
