<?xml version="1.0" encoding="UTF-8" standalone="no"?>
<!-- Created with Inkscape (http://www.inkscape.org/) -->

<svg
   width="512"
   height="512"
   viewBox="0 0 512 512"
   version="1.1"
   id="svg5"
   inkscape:version="1.4 (86a8ad7, 2024-10-11)"
   xml:space="preserve"
   sodipodi:docname="Swing.svg"
   xmlns:inkscape="http://www.inkscape.org/namespaces/inkscape"
   xmlns:sodipodi="http://sodipodi.sourceforge.net/DTD/sodipodi-0.dtd"
   xmlns="http://www.w3.org/2000/svg"
   xmlns:svg="http://www.w3.org/2000/svg"><sodipodi:namedview
     id="namedview7"
     pagecolor="#505050"
     bordercolor="#ffffff"
     borderopacity="1"
     inkscape:showpageshadow="0"
     inkscape:pageopacity="0"
     inkscape:pagecheckerboard="1"
     inkscape:deskcolor="#505050"
     inkscape:document-units="px"
     showgrid="true"
     inkscape:lockguides="true"
     inkscape:zoom="4.5796212"
     inkscape:cx="80.46517"
     inkscape:cy="222.39831"
     inkscape:window-width="3840"
     inkscape:window-height="2054"
     inkscape:window-x="2869"
     inkscape:window-y="-11"
     inkscape:window-maximized="1"
     inkscape:current-layer="layer1"><inkscape:grid
       type="xygrid"
       id="grid234"
       empspacing="4"
       originx="0"
       originy="0"
       spacingy="1"
       spacingx="1"
       units="px" /></sodipodi:namedview><defs
     id="defs2"><clipPath
       id="clip-path"
       transform="translate(-10.65 -10.67)"><rect
         id="_Cllpping_Path_"
         data-name="&lt;Cllpping Path&gt;"
         class="cls-1"
         width="600"
         height="600"
         x="0"
         y="0" /></clipPath></defs><g
     inkscape:label="Layer 1"
     inkscape:groupmode="layer"
     id="layer1"><g
       id="Layer_2"
       data-name="Layer 2"
       transform="matrix(0.88130123,0,0,0.88134477,0.99548941,1)"><g
         id="Swing"><g
           class="cls-2"
           clip-path="url(#clip-path)"
           id="g15"><path
             class="cls-3"
             d="m 300,584.35 a 14.57,14.57 0 0 1 -10.38,-4.3 L 20,310.4 a 14.68,14.68 0 0 1 0,-20.77 L 289.62,20 a 14.68,14.68 0 0 1 20.76,0 L 580,289.63 a 14.68,14.68 0 0 1 0,20.77 L 310.38,580.05 a 14.57,14.57 0 0 1 -10.38,4.3"
             transform="translate(-10.65,-10.67)"
             id="path1"
             style="fill:#4f504f" /><path
             class="cls-4"
             d="m 300,20.67 a 9.62,9.62 0 0 1 6.84,2.82 l 269.65,269.68 a 9.65,9.65 0 0 1 0,13.69 L 306.84,576.51 a 9.63,9.63 0 0 1 -13.68,0 L 23.51,306.86 a 9.65,9.65 0 0 1 0,-13.69 L 293.16,23.49 A 9.62,9.62 0 0 1 300,20.67 m 0,-10 a 19.65,19.65 0 0 0 -13.93,5.78 L 16.43,286.09 a 19.64,19.64 0 0 0 0,27.82 l 269.64,269.68 a 19.77,19.77 0 0 0 27.86,0 L 583.57,313.91 a 19.64,19.64 0 0 0 0,-27.82 L 313.93,16.45 A 19.65,19.65 0 0 0 300,10.67"
             transform="translate(-10.65,-10.67)"
             id="path2"
             style="fill:#ffffff" /><path
             class="cls-4"
             d="m 236,212.27 49.56,-48.42 a 1.63,1.63 0 0 1 2.84,1.3 v 97.73 a 1.63,1.63 0 0 1 -2.84,1.29 L 236,215.76 a 2.61,2.61 0 0 1 0,-3.49 z"
             transform="translate(-10.65,-10.67)"
             id="path3"
             style="fill:#ffffff" /><path
             class="cls-4"
             d="m 307.09,173.68 v 11.44 q -3.54,-0.08 -7.09,-0.07 -3,0 -6,0 V 164 l 10.27,5.12 a 5.14,5.14 0 0 1 2.82,4.56 z"
             transform="translate(-10.65,-10.67)"
             id="path4"
             style="fill:#ffffff" /><path
             class="cls-4"
             d="m 307.09,243.22 v 11.64 a 5.16,5.16 0 0 1 -2.86,4.61 L 294,264.58 v -21.37 q 3,0 6,0 c 2.37,-0.04 4.74,-0.03 7.09,0.01 z"
             transform="translate(-10.65,-10.67)"
             id="path5"
             style="fill:#ffffff" /><path
             class="cls-4"
             d="m 300,189 c 14.08,0 30.92,0.91 44.26,2.21 a 3,3 0 0 1 2.74,3 l -1.66,7.19 a 65.93,65.93 0 0 0 0,29.61 l 1.68,7.36 a 3,3 0 0 1 -3.32,3 c -13.1,-1.22 -29.73,-2.11 -43.68,-2.11 q -5.85,0 -11.6,0.16 h -2 v -50.26 h 2 C 292.25,189 296.11,189 300,189 Z"
             transform="translate(-10.65,-10.67)"
             id="path6"
             style="fill:#ffffff" /><path
             class="cls-4"
             d="m 372.27,195.15 a 297.45,297.45 0 0 1 43.22,11.15 3,3 0 0 1 2,3.52 l -1.71,8.08 a 66,66 0 0 0 -0.16,26.56 l 1.44,7.24 a 3,3 0 0 1 -3.86,3.5 316.65,316.65 0 0 0 -41.74,-10.06 3.06,3.06 0 0 1 -2.51,-2.41 l -2.06,-10.39 A 66.32,66.32 0 0 1 367,206.12 l 1.78,-8.57 a 3,3 0 0 1 3.49,-2.4 z"
             transform="translate(-10.65,-10.67)"
             id="path7"
             style="fill:#ffffff" /><path
             class="cls-4"
             d="m 471.67,246.53 c 0,4.73 -6.14,14 -21.48,23.91 a 111.48,111.48 0 0 0 -15.54,-7.5 3,3 0 0 1 -1.88,-2.25 l -2,-10.17 a 66.12,66.12 0 0 1 0.24,-27 c 0.52,-2.39 1,-4.7 1.4,-6.51 a 3,3 0 0 1 4.23,-2.15 c 28.36,12.8 35.03,25.42 35.03,31.67 z"
             transform="translate(-10.65,-10.67)"
             id="path8"
             style="fill:#ffffff" /><path
             class="cls-4"
             d="m 490.44,246.54 v 73.68 c 0,22.29 -21.2,42.48 -55.5,57.11 v -73.68 q 8.13,-3.47 15.25,-7.34 a 121,121 0 0 0 19.43,-12.93 c 13.32,-11.05 20.82,-23.57 20.82,-36.84 z"
             transform="translate(-10.65,-10.67)"
             id="path9"
             style="fill:#ffffff" /><path
             class="cls-4"
             d="m 290.63,332.65 v -37.1 c 0,-2.42 2.74,-4.21 4.72,-3.09 l 88.13,68.44 a 4.42,4.42 0 0 1 0,7 l -88.13,68.44 c -2,1.12 -4.72,-0.69 -4.72,-3.08 z"
             transform="translate(-10.65,-10.67)"
             id="path10"
             style="fill:#ffffff" /><path
             class="cls-4"
             d="m 307.35,292.12 19.59,3.68 a 14.2,14.2 0 0 1 6.14,2.76 l 80.82,62.34 a 4.45,4.45 0 0 1 0,7 l -80.82,62.34 a 14.2,14.2 0 0 1 -6.14,2.76 l -19.59,3.68 87.42,-68.8 a 4.44,4.44 0 0 0 0,-7 z"
             transform="translate(-10.65,-10.67)"
             id="path11"
             style="fill:#ffffff" /><path
             class="cls-4"
             d="m 293.65,327.43 v 73.68 a 475.07,475.07 0 0 1 -72.53,-7.26 3.06,3.06 0 0 1 -2.49,-3.44 l 1.7,-12 a 152.06,152.06 0 0 0 0.17,-41.7 l -1.73,-12.9 a 3,3 0 0 1 3.55,-3.41 474.69,474.69 0 0 0 71.33,7.03 z"
             transform="translate(-10.65,-10.67)"
             id="path12"
             style="fill:#ffffff" /><path
             class="cls-4"
             d="m 213.39,198.12 v 50 c -24.85,5.4 -46.54,13.07 -63.58,22.35 v 0 c -15.33,-9.87 -21.47,-19.2 -21.47,-23.92 0,-6.51 11.69,-21.8 43.07,-35.14 a 250.37,250.37 0 0 1 41.98,-13.29 z"
             transform="translate(-10.65,-10.67)"
             id="path13"
             style="fill:#ffffff" /><path
             class="cls-4"
             d="m 149.8,296.31 c 2.45,1.33 1.8,1.07 3.13,1.69 a 3.05,3.05 0 0 1 1.73,2.37 l 2.17,16.81 a 152.33,152.33 0 0 1 -0.4,41.79 l -1.38,9.32 a 3.06,3.06 0 0 1 -4.37,2.29 c -28.38,-14 -41.12,-30.16 -41.12,-50.36 v -73.69 c 0,13.28 7.51,25.8 20.82,36.85 a 122.19,122.19 0 0 0 19.42,12.93 z"
             transform="translate(-10.65,-10.67)"
             id="path14"
             style="fill:#ffffff" /><path
             class="cls-4"
             d="m 175.24,307.59 c 7.56,2.74 15.6,5.53 24.06,7.68 a 3.06,3.06 0 0 1 2.28,2.55 l 2,15.3 a 152.16,152.16 0 0 1 -0.21,41.66 l -1.62,11.32 a 3.06,3.06 0 0 1 -3.8,2.52 c -8.86,-2.34 -17.27,-5.34 -25.13,-8.22 a 3,3 0 0 1 -2,-3.3 l 1.68,-11.48 a 152.72,152.72 0 0 0 0.32,-41.79 l -1.7,-13 a 3,3 0 0 1 4.12,-3.24 z"
             transform="translate(-10.65,-10.67)"
             id="path15"
             style="fill:#ffffff" /></g></g></g></g></svg>
