<?xml version="1.0" encoding="UTF-8" standalone="no"?>
<!-- Created with Inkscape (http://www.inkscape.org/) -->

<svg
   width="512"
   height="512"
   viewBox="0 0 512 512"
   version="1.1"
   id="svg5"
   inkscape:version="1.4 (86a8ad7, 2024-10-11)"
   xml:space="preserve"
   sodipodi:docname="Ward.svg"
   xmlns:inkscape="http://www.inkscape.org/namespaces/inkscape"
   xmlns:sodipodi="http://sodipodi.sourceforge.net/DTD/sodipodi-0.dtd"
   xmlns="http://www.w3.org/2000/svg"
   xmlns:svg="http://www.w3.org/2000/svg"><sodipodi:namedview
     id="namedview7"
     pagecolor="#505050"
     bordercolor="#ffffff"
     borderopacity="1"
     inkscape:showpageshadow="0"
     inkscape:pageopacity="0"
     inkscape:pagecheckerboard="1"
     inkscape:deskcolor="#505050"
     inkscape:document-units="px"
     showgrid="true"
     inkscape:lockguides="true"
     inkscape:zoom="4.5796212"
     inkscape:cx="80.46517"
     inkscape:cy="222.39831"
     inkscape:window-width="3840"
     inkscape:window-height="2054"
     inkscape:window-x="2869"
     inkscape:window-y="-11"
     inkscape:window-maximized="1"
     inkscape:current-layer="layer1"><inkscape:grid
       type="xygrid"
       id="grid234"
       empspacing="4"
       originx="0"
       originy="0"
       spacingy="1"
       spacingx="1"
       units="px" /></sodipodi:namedview><defs
     id="defs2"><clipPath
       id="clip-path"
       transform="translate(-10.65 -10.67)"><rect
         class="cls-1"
         width="600"
         height="600"
         id="rect1"
         x="0"
         y="0" /></clipPath></defs><g
     inkscape:label="Layer 1"
     inkscape:groupmode="layer"
     id="layer1"><g
       id="Layer_2"
       data-name="Layer 2"
       transform="matrix(0.88130123,0,0,0.88134477,0.99548941,1)"><g
         id="Ward"><g
           class="cls-2"
           clip-path="url(#clip-path)"
           id="g4"><path
             class="cls-3"
             d="m 300,584.34 a 14.56,14.56 0 0 1 -10.38,-4.29 L 20,310.4 a 14.69,14.69 0 0 1 0,-20.77 L 289.62,20 a 14.68,14.68 0 0 1 20.76,0 L 580,289.63 a 14.69,14.69 0 0 1 0,20.77 L 310.38,580.05 A 14.56,14.56 0 0 1 300,584.34"
             transform="translate(-10.65,-10.67)"
             id="path1"
             style="fill:#cf8ab5" /><path
             class="cls-4"
             d="m 300,20.67 a 9.62,9.62 0 0 1 6.84,2.82 l 269.65,269.68 a 9.68,9.68 0 0 1 0,13.69 L 306.84,576.51 a 9.63,9.63 0 0 1 -13.68,0 L 23.51,306.86 a 9.68,9.68 0 0 1 0,-13.69 L 293.16,23.49 A 9.62,9.62 0 0 1 300,20.67 m 0,-10 a 19.65,19.65 0 0 0 -13.93,5.78 L 16.43,286.09 a 19.64,19.64 0 0 0 0,27.82 l 269.64,269.68 a 19.77,19.77 0 0 0 27.86,0 L 583.57,313.91 a 19.64,19.64 0 0 0 0,-27.82 L 313.93,16.45 A 19.65,19.65 0 0 0 300,10.67"
             transform="translate(-10.65,-10.67)"
             id="path2"
             style="fill:#ffffff" /><path
             class="cls-4"
             d="m 302.66,519.87 c 0,0 -13.54,-33.49 -57.45,-61.72 C 201.3,429.92 114.13,327.8 146.83,228 c 23.35,29.4 53.88,-4.57 60.69,-32.59 6.81,-28.02 12.48,-59.93 40.48,-71.55 -2.07,20.49 25.13,22.8 36.07,16 13.54,-8.49 26.2,-31.22 15.2,-65.19 59.52,34.55 31.7,86.75 58.07,96.38 22,8 22.56,-21.22 21.87,-27.37 46.56,27.74 68.32,82 64.33,150.09 -4.26,72.48 -35.62,116 -87.26,158.2 -41.23,33.73 -53.65,67.91 -53.65,67.91"
             transform="translate(-10.65,-10.67)"
             id="path3"
             style="fill:#ffffff" /><path
             class="cls-3"
             d="m 376.22,247.18 c -11.83,-11.83 -12.79,-25 -12.79,-25 0,0 -20.8,0.65 -36.83,-5.4 A 113.45,113.45 0 0 1 300,202.65 113.6,113.6 0 0 1 273.42,216.82 c -16,6.05 -36.83,5.4 -36.83,5.4 0,0 -1,13.13 -12.79,25 a 149.47,149.47 0 0 1 -22.42,18.57 c 0,0 4.51,88.61 33.29,122.55 28.78,33.94 65.33,49 65.33,49 0,0 36.55,-15.06 65.37,-49 28.82,-33.94 33.25,-122.55 33.25,-122.55 a 148.49,148.49 0 0 1 -22.39,-18.57"
             transform="translate(-10.65,-10.67)"
             id="path4"
             style="fill:#cf8ab5" /></g></g></g></g></svg>
