<?xml version="1.0" encoding="UTF-8" standalone="no"?>
<!-- Created with Inkscape (http://www.inkscape.org/) -->

<svg
   width="512"
   height="512"
   viewBox="0 0 512 512"
   version="1.1"
   id="svg5"
   inkscape:version="1.4 (86a8ad7, 2024-10-11)"
   xml:space="preserve"
   sodipodi:docname="Wound.svg"
   xmlns:inkscape="http://www.inkscape.org/namespaces/inkscape"
   xmlns:sodipodi="http://sodipodi.sourceforge.net/DTD/sodipodi-0.dtd"
   xmlns="http://www.w3.org/2000/svg"
   xmlns:svg="http://www.w3.org/2000/svg"><sodipodi:namedview
     id="namedview7"
     pagecolor="#505050"
     bordercolor="#ffffff"
     borderopacity="1"
     inkscape:showpageshadow="0"
     inkscape:pageopacity="0"
     inkscape:pagecheckerboard="1"
     inkscape:deskcolor="#505050"
     inkscape:document-units="px"
     showgrid="true"
     inkscape:lockguides="true"
     inkscape:zoom="1.6191406"
     inkscape:cx="134.94813"
     inkscape:cy="338.14234"
     inkscape:window-width="3840"
     inkscape:window-height="2054"
     inkscape:window-x="2869"
     inkscape:window-y="-11"
     inkscape:window-maximized="1"
     inkscape:current-layer="layer1"><inkscape:grid
       type="xygrid"
       id="grid234"
       empspacing="4"
       originx="0"
       originy="0"
       spacingy="1"
       spacingx="1"
       units="px" /></sodipodi:namedview><defs
     id="defs2"><clipPath
       id="clip-path"
       transform="translate(-10.65 -10.65)"><rect
         class="cls-1"
         width="600"
         height="600"
         id="rect1"
         x="0"
         y="0" /></clipPath></defs><g
     inkscape:label="Layer 1"
     inkscape:groupmode="layer"
     id="layer1"><g
       id="Layer_2"
       data-name="Layer 2"
       transform="matrix(0.88130123,0,0,0.88128709,0.99548941,1)"><g
         id="Wound"><g
           class="cls-2"
           clip-path="url(#clip-path)"
           id="g3"><path
             class="cls-3"
             d="m 300,584.35 a 14.56,14.56 0 0 1 -10.37,-4.29 L 19.94,310.37 a 14.68,14.68 0 0 1 0,-20.74 L 289.63,19.94 a 14.68,14.68 0 0 1 20.74,0 l 269.69,269.69 a 14.68,14.68 0 0 1 0,20.74 L 310.37,580.06 A 14.56,14.56 0 0 1 300,584.35"
             transform="translate(-10.65,-10.65)"
             id="path1"
             style="fill:#e46225" /><path
             class="cls-4"
             d="m 300,20.65 a 9.66,9.66 0 0 1 6.86,2.83 l 269.66,269.66 a 9.72,9.72 0 0 1 0,13.72 L 306.86,576.52 a 9.73,9.73 0 0 1 -13.72,0 L 23.48,306.86 a 9.72,9.72 0 0 1 0,-13.72 L 293.14,23.48 A 9.66,9.66 0 0 1 300,20.65 m 0,-10 a 19.61,19.61 0 0 0 -13.91,5.78 L 16.43,286.09 a 19.64,19.64 0 0 0 0,27.82 l 269.66,269.66 a 19.63,19.63 0 0 0 27.82,0 L 583.57,313.91 a 19.64,19.64 0 0 0 0,-27.82 L 313.91,16.43 A 19.61,19.61 0 0 0 300,10.65"
             transform="translate(-10.65,-10.65)"
             id="path2"
             style="fill:#ffffff" /><path
             class="cls-4"
             d="m 470.05,226.21 c -127.62,-40.32 -230.22,55.31 -353.48,25.36 4.19,8.14 32.45,26.41 58.05,31.34 6.76,1.28 12.26,5 13.14,12.12 2.7,22 -5.74,32.76 -8.88,46.1 -3.89,16.38 2.23,31.1 15.46,28 19.46,-4.56 12.6,-34.13 7.66,-56.13 -2.43,-10.9 -0.43,-25 9.09,-25.22 7.8,-0.17 16.85,0 22.66,0 28.74,0 47.08,14.72 50.11,28.84 5.21,24.14 -5.6,39.14 -8.24,42.75 -16.07,22.22 -24.18,33 -24.18,51.67 A 47.280004,47.280004 0 1 0 346,411 c 0,-18.67 -8.11,-29.45 -24.18,-51.67 -2.8,-3.88 -9.66,-14.05 -10.87,-25.9 -2.54,-24.48 13.27,-74.19 66.42,-75.31 0.75,0 14.19,-0.07 19.42,2 12,4.76 4.59,23.58 3.61,31.88 -2.36,19.62 17.23,22.33 20.37,4.26 2.87,-16.79 -5.74,-22.8 -4.26,-33.47 1.18,-8.54 6.69,-11.45 14.49,-14 21.11,-6.86 33.7,-15 39,-22.56 M 325.21,385.07 c 22.12,37.41 -8.41,58.79 -21.75,51.56 a 1.52,1.52 0 0 1 0,-2.66 c 6.35,-3.38 23.24,-11.39 21,-48.7 a 0.36,0.36 0 0 1 0.68,-0.2"
             transform="translate(-10.65,-10.65)"
             id="path3"
             style="fill:#ffffff" /></g></g></g></g></svg>
