<?xml version="1.0" encoding="UTF-8" standalone="no"?>
<!-- Created with Inkscape (http://www.inkscape.org/) -->

<svg
   width="256"
   height="256"
   viewBox="0 0 64 64"
   version="1.1"
   id="svg1"
   inkscape:version="1.4 (86a8ad7, 2024-10-11)"
   sodipodi:docname="Icon.svg"
   xmlns:inkscape="http://www.inkscape.org/namespaces/inkscape"
   xmlns:sodipodi="http://sodipodi.sourceforge.net/DTD/sodipodi-0.dtd"
   xmlns="http://www.w3.org/2000/svg"
   xmlns:svg="http://www.w3.org/2000/svg">
  <sodipodi:namedview
     id="namedview1"
     pagecolor="#505050"
     bordercolor="#eeeeee"
     borderopacity="1"
     inkscape:showpageshadow="0"
     inkscape:pageopacity="0"
     inkscape:pagecheckerboard="0"
     inkscape:deskcolor="#505050"
     inkscape:document-units="px"
     showgrid="true"
     inkscape:zoom="2.1627524"
     inkscape:cx="103.10935"
     inkscape:cy="162.06201"
     inkscape:window-width="1920"
     inkscape:window-height="1001"
     inkscape:window-x="-9"
     inkscape:window-y="-9"
     inkscape:window-maximized="1"
     inkscape:current-layer="layer1">
    <inkscape:grid
       id="grid1"
       units="px"
       originx="0"
       originy="0"
       spacingx="2"
       spacingy="2"
       empcolor="#0099e5"
       empopacity="0.30196078"
       color="#0099e5"
       opacity="0.14901961"
       empspacing="4"
       enabled="true"
       visible="true"
       dotted="false" />
  </sodipodi:namedview>
  <defs
     id="defs1" />
  <g
     inkscape:label="Layer 1"
     inkscape:groupmode="layer"
     id="layer1">
    <g
       id="g2"
       transform="matrix(0.11250013,0,0,0.11249999,3.1974394,3.2002551)"
       style="fill:#ffffff">
	<path
   class="st0"
   d="m 109.2,182.6 1.8,31.8 14.6,-28.3 11.7,5.9 c 2.4,-2 4.9,-4 7.5,-6 l -7.9,-12.3 26.6,-17.5 -31.8,1.5 -1.8,-31.8 -14.6,28.3 -28.5,-14.3 17.2,26.8 -26.7,17.5 z"
   id="path1"
   style="fill:#ffffff" />

	<path
   class="st0"
   d="m 328.6,300.7 c -10,-7 -4.2,-22.7 7.9,-21.7 l 27.8,2.3 c 0.9,0.1 1.8,0 2.8,-0.1 0.9,-0.1 1.7,-0.5 2.3,-1.1 2.2,-2 4.3,-4 6.4,-6.1 0.7,-0.7 1.1,-1.5 1.3,-2.4 0.1,-0.4 0.1,-0.8 0.2,-1.1 l 2.6,-27.8 c 1.1,-12.1 17.5,-15 22.7,-4 v 0 c 0.1,0.1 0.2,0.2 0.4,0.1 0,0 0.1,-0.1 0.1,-0.1 3.6,-6.6 6.5,-13.6 8.6,-20.8 5.7,-22.2 -3.9,-44.8 -38.1,-56.1 -29.4,-10.2 -63.1,-4.1 -95.3,-3.4 42.9,-20.7 111,-24.4 148.9,-3.3 40,23.1 32.5,57.7 20.9,87.8 31.9,-37.2 37,-88.6 -27.5,-109 C 314,100.1 187,158.3 130.6,214 c -2.2,2.2 -4.4,4.4 -6.4,6.6 -30.7,32.8 -50.3,81.1 10.5,102.9 29.4,10.2 63.1,4.1 95.3,3.4 -42.9,20.7 -111,24.5 -148.9,3.3 -40,-23.1 -32.5,-57.6 -20.9,-87.8 -24.9,30.3 -31.2,66.4 -2.3,93.6 20.6,18.9 59.4,27.8 99.1,25.4 67.4,-4.7 130.8,-25.7 178,-55.4 0.2,-0.2 0.3,-0.5 0.1,-0.7 0,-0.1 -0.1,-0.1 -0.1,-0.1 z m 0,-83.1 c -1,-0.5 -3.9,0.9 -3.8,1.4 -1.3,30.4 -40,61.2 -91.8,71.8 -6.3,1.3 -12.7,2.2 -19.2,2.6 -34,3.5 -58,-13.1 -55.7,-31.4 2.3,-18.9 16.5,-37.2 40.9,-51.4 -15.2,17.3 -39,39.1 -17.8,56 1,0.5 2.9,-0.3 3.8,-1.4 2,-10.6 4.2,-20.1 12.2,-29.6 21.5,-24.9 67.8,-47.6 116.3,-44.7 26.8,2.1 38.9,17 38.2,31.3 -2.4,18.4 -16.5,37.2 -40.9,51.4 15.3,-17.3 39,-39.1 17.8,-56 z"
   id="path2"
   style="fill:#ffffff" />

	<polygon
   class="st0"
   points="460.5,269 431.2,311.3 473.3,341.1 421.9,336.8 417.2,388.1 395.2,341.5 348.4,363.1 377.8,320.7 335.7,291 387,295.3 391.8,243.9 413.8,290.6 "
   id="polygon2"
   style="fill:#ffffff" />

</g>
  </g>
</svg>
