<?xml version="1.0" encoding="UTF-8" standalone="no"?>
<!-- Created with Inkscape (http://www.inkscape.org/) -->

<svg
   width="256"
   height="256"
   viewBox="0 0 256 256"
   version="1.1"
   id="svg1"
   inkscape:version="1.3.2 (091e20e, 2023-11-25, custom)"
   xmlns:inkscape="http://www.inkscape.org/namespaces/inkscape"
   xmlns:sodipodi="http://sodipodi.sourceforge.net/DTD/sodipodi-0.dtd"
   xmlns="http://www.w3.org/2000/svg"
   xmlns:svg="http://www.w3.org/2000/svg">
  <sodipodi:namedview
     id="namedview1"
     pagecolor="#505050"
     bordercolor="#ffffff"
     borderopacity="1"
     inkscape:showpageshadow="0"
     inkscape:pageopacity="0"
     inkscape:pagecheckerboard="1"
     inkscape:deskcolor="#d1d1d1"
     inkscape:document-units="px"
     showgrid="true">
    <inkscape:grid
       id="grid1"
       units="px"
       originx="0"
       originy="0"
       spacingx="4"
       spacingy="4"
       empcolor="#0099e5"
       empopacity="0.30196078"
       color="#0099e5"
       opacity="0.14901961"
       empspacing="4"
       dotted="false"
       gridanglex="30"
       gridanglez="30"
       visible="true" />
  </sodipodi:namedview>
  <defs
     id="defs1">
    <clipPath
       clipPathUnits="userSpaceOnUse"
       id="clipPath638">
      <path
         d="m 92.144,677.548 h 19.4 v 7.212 h -19.4 z"
         transform="translate(-101.60451,-679.88852)"
         id="path638" />
    </clipPath>
    <clipPath
       clipPathUnits="userSpaceOnUse"
       id="clipPath636">
      <path
         d="M 0,0 H 612 V 792 H 0 Z"
         transform="translate(-95.587,-686.00392)"
         id="path636" />
    </clipPath>
  </defs>
  <g
     inkscape:label="Layer 1"
     inkscape:groupmode="layer"
     id="layer1">
    <g
       id="g634"
       transform="matrix(7.9999102,0,0,7.999794,-958.31844,-1054.3279)">
      <path
         id="path635"
         d="m 0,0 c -2.679,0 -4.85,-2.171 -4.85,-4.85 0,-2.679 2.171,-4.85 4.85,-4.85 h 12.513 c 2.679,0 4.85,2.171 4.85,4.85 0,2.679 -2.171,4.85 -4.85,4.85 z"
         style="fill:#231f20;fill-opacity:1;fill-rule:nonzero;stroke:none"
         transform="matrix(1.3333333,0,0,-1.3333333,127.44933,141.32813)"
         clip-path="url(#clipPath636)" />
    </g>
    <path
       id="path637"
       d="m 0,0 h -2.523 c -0.17,-0.111 -0.373,-0.177 -0.592,-0.177 h -3.101 c -0.597,0 -1.081,0.484 -1.081,1.081 v 0.722 c 0,0.597 0.484,1.081 1.081,1.081 h 3.101 c 0.196,0 0.377,-0.055 0.535,-0.146 h 2.572 c -0.403,1.335 -1.642,2.31 -3.107,2.31 h -3.101 c -1.789,0 -3.245,-1.456 -3.245,-3.245 V 0.904 c 0,-1.789 1.456,-3.245 3.245,-3.245 h 3.101 C -1.639,-2.341 -0.393,-1.35 0,0 m -3.414,0.216 h 7.365 c 0.588,0 1.064,0.477 1.064,1.065 0,0.587 -0.476,1.064 -1.064,1.064 h -7.365 c -0.587,0 -1.064,-0.477 -1.064,-1.064 0,-0.588 0.477,-1.065 1.064,-1.065 M 6.694,-2.341 H 3.593 C 2.117,-2.341 0.871,-1.35 0.478,0 h 2.523 c 0.17,-0.111 0.373,-0.177 0.592,-0.177 h 3.101 c 0.597,0 1.081,0.484 1.081,1.081 v 0.722 c 0,0.597 -0.484,1.081 -1.081,1.081 H 3.593 C 3.397,2.707 3.216,2.652 3.058,2.561 H 0.486 c 0.403,1.335 1.642,2.31 3.107,2.31 h 3.101 c 1.789,0 3.245,-1.456 3.245,-3.245 V 0.904 c 0,-1.789 -1.456,-3.245 -3.245,-3.245"
       style="fill:#ffffff;fill-opacity:1;fill-rule:nonzero;stroke:none"
       transform="matrix(10.666547,0,0,-10.666392,125.45075,141.49722)"
       clip-path="url(#clipPath638)" />
  </g>
</svg>
