<svg version="1.2" xmlns="http://www.w3.org/2000/svg" viewBox="0 0 777 777" width="777" height="777">
	<style>
		.s0 { fill: #ffffff } 
		.s1 { fill: #231f20 } 
	</style>
	<g id="Folder 1">
		<path fill-rule="evenodd" class="s0" d="m275 664c-152.1 0-275-122.9-275-275 0-152.1 122.9-275 275-275 152.1 0 275 122.9 275 275 0 152.1-122.9 275-275 275z"/>
		<path class="s1" d="m275 151.5l-205.7 118.7v237.5l205.7 118.8 205.7-118.8v-237.5zm97.8 166.9l-85.5-49.4v-82l156.5 90.4zm-97.8 169.4l-85.6-49.4v-98.7l85.6-49.4 85.5 49.4v98.7zm-12.3-218.8l-85.5 49.4-71-41 156.5-90.4zm-97.8 70.7v98.7l-71 41v-180.7zm12.3 120.1l85.5 49.3v82l-156.5-90.4zm110.1 49.3l85.6-49.3 70.9 40.9-156.5 90.4zm97.9-70.6v-98.8l70.9-41v180.7z"/>
		<path fill-rule="evenodd" class="s0" d="m777 385.5l-150 188.5v-377z"/>
	</g>
</svg>