<svg version="1.2" xmlns="http://www.w3.org/2000/svg" viewBox="0 0 261 186" width="261" height="186"><defs><clipPath clipPathUnits="userSpaceOnUse" id="cp1"><path d="m260.14 0v185.72h-260.14v-185.72z"/></clipPath></defs><style>.a{fill:#fff}</style><g clip-path="url(#cp1)"><path fill-rule="evenodd" class="a" d="m12.8 0h234.5c7.1 0 12.8 5.7 12.8 12.8v160.4c0 7.1-5.7 12.8-12.8 12.8h-234.5c-7.1 0-12.8-5.7-12.8-12.8v-160.4c0-7.1 5.7-12.8 12.8-12.8z"/><path  d="m207.9 93c0 31.4-19 59.7-48 71.7-29 12-62.4 5.4-84.6-16.8-22.2-22.2-28.8-55.6-16.8-84.6 12-29 40.3-47.9 71.7-47.9 10.2 0 20.3 2.1 29.7 6 9.4 3.9 17.9 9.6 25.1 16.8 7.2 7.2 12.9 15.8 16.9 25.2 3.9 9.4 5.9 19.4 6 29.6z"/><path fill-rule="evenodd" class="a" d="m124.1 92.7v3.8l-8.9 8.4h-39.8v-3.5l9.3-8.7z"/><path class="a" d="m155.9 45.9v82.4q-0.2 0.7-0.3 1.4-0.2 0.8-0.2 1.5 0 0.7 0.2 1.5 0.1 0.7 0.3 1.4 0.4 0.5 0.9 0.9 0.5 0.4 1.1 0.6 0.6 0.3 1.2 0.4 0.6 0.1 1.3 0v4.2l-32.1 13.4v-6.1q0.4 0.2 0.8 0.2 0.4 0.1 0.8 0.1 0.4 0 0.8-0.1 0.4 0 0.8-0.2l2.9-2.2q0.9-1.2 1.5-2.6 0.6-1.3 1-2.7 0.4-1.5 0.6-3 0.2-1.4 0.1-2.9v-76q0-0.8-0.2-1.5-0.1-0.8-0.4-1.5-0.3-0.7-0.7-1.3-0.4-0.6-0.9-1.2-0.5-0.4-0.9-0.8-0.5-0.3-1-0.6-0.4-0.4-0.9-0.6-0.6-0.3-1.1-0.6l-3.2-0.9v-3.6l19.9-9.9q0.9 0.4 1.7 0.8 0.8 0.5 1.6 1.1 0.8 0.5 1.5 1.2 0.7 0.7 1.3 1.4 0.6 0.5 1.1 1.2 0.5 0.6 0.9 1.4 0.4 0.7 0.6 1.5 0.2 0.8 0.3 1.7"/></g></svg>