<?xml version="1.0" encoding="UTF-8" standalone="no"?>
<!-- Created with Inkscape (http://www.inkscape.org/) -->

<svg
   width="512"
   height="512"
   viewBox="0 0 512 512"
   version="1.1"
   id="svg5"
   inkscape:version="1.4 (86a8ad7, 2024-10-11)"
   xml:space="preserve"
   sodipodi:docname="Active.svg"
   xmlns:inkscape="http://www.inkscape.org/namespaces/inkscape"
   xmlns:sodipodi="http://sodipodi.sourceforge.net/DTD/sodipodi-0.dtd"
   xmlns="http://www.w3.org/2000/svg"
   xmlns:svg="http://www.w3.org/2000/svg"><sodipodi:namedview
     id="namedview7"
     pagecolor="#505050"
     bordercolor="#ffffff"
     borderopacity="1"
     inkscape:showpageshadow="0"
     inkscape:pageopacity="0"
     inkscape:pagecheckerboard="1"
     inkscape:deskcolor="#505050"
     inkscape:document-units="px"
     showgrid="true"
     inkscape:lockguides="true"
     inkscape:zoom="1.1449053"
     inkscape:cx="-23.146019"
     inkscape:cy="407.45728"
     inkscape:window-width="3840"
     inkscape:window-height="2054"
     inkscape:window-x="2869"
     inkscape:window-y="-11"
     inkscape:window-maximized="1"
     inkscape:current-layer="layer1"><inkscape:grid
       type="xygrid"
       id="grid234"
       empspacing="4"
       originx="0"
       originy="0"
       spacingy="1"
       spacingx="1"
       units="px" /></sodipodi:namedview><defs
     id="defs2"><clipPath
       clipPathUnits="userSpaceOnUse"
       id="clipPath144"><path
         d="M 0,300 H 300 V 0 H 0 Z"
         transform="translate(-125.40375,-170.8)"
         id="path144" /></clipPath><clipPath
       clipPathUnits="userSpaceOnUse"
       id="clipPath154"><path
         d="M 0,300 H 300 V 0 H 0 Z"
         transform="translate(-118.65975,-78.637899)"
         id="path154" /></clipPath><clipPath
       clipPathUnits="userSpaceOnUse"
       id="clipPath148"><path
         d="M 0,300 H 300 V 0 H 0 Z"
         transform="translate(-134.5005,-84.183805)"
         id="path148" /></clipPath></defs><g
     inkscape:label="Layer 1"
     inkscape:groupmode="layer"
     id="layer1"><path
       id="path147"
       d="M 0,0 18.534,32.104 H 7.354 c -5.174,18.339 -22.047,31.824 -42.021,31.824 -24.077,0 -43.666,-19.589 -43.666,-43.666 0,-24.078 19.589,-43.667 43.666,-43.667 8.055,0 15.928,2.213 22.769,6.399 3.297,2.019 4.335,6.327 2.316,9.625 -2.018,3.297 -6.325,4.333 -9.624,2.317 -4.641,-2.84 -9.986,-4.341 -15.461,-4.341 -16.357,0 -29.666,13.308 -29.666,29.667 0,16.357 13.309,29.666 29.666,29.666 12.15,0 22.614,-7.344 27.196,-17.824 h -11.064 z"
       style="fill:#ffffff;fill-opacity:1;fill-rule:nonzero;stroke:none"
       transform="matrix(2.1333375,0,0,-2.1333333,413.55343,414.71587)"
       clip-path="url(#clipPath148)" /><path
       id="path153"
       d="m 0,0 c -13.894,-1.684 -22.83,7.298 -22.83,7.298 0,0 4.305,6.597 7.72,11.884 8.749,-8.983 23.672,-5.428 26.994,6.127 3.32,11.556 -4.726,20.35 -15.157,20.865 C -12.387,46.625 -20.135,32.065 -23.078,27.111 -34.681,6.526 -43.607,1.303 -54.835,0.976 c -11.228,-0.329 -29.146,9.589 -29.66,28.63 -0.515,19.04 13.099,29.987 26.993,31.67 13.895,1.685 22.83,-7.297 22.83,-7.297 0,0 -4.305,-6.596 -7.719,-11.882 -8.75,8.982 -23.672,5.425 -26.994,-6.129 -3.321,-11.555 4.726,-20.35 15.157,-20.865 9.107,-0.448 16.852,14.09 19.799,19.054 11.602,20.583 20.535,25.818 31.763,26.146 C 8.562,60.63 26.479,50.711 26.993,31.672 27.508,12.632 13.895,1.685 0,0"
       style="fill:#ffffff;fill-opacity:1;fill-rule:nonzero;stroke:none"
       transform="matrix(2.6666588,0,0,-2.6666509,268.30943,219.49027)"
       clip-path="url(#clipPath154)" /><rect
       style="fill:#ffffff;stroke-width:10"
       id="rect1"
       width="280"
       height="28"
       x="-39.751247"
       y="346.39844"
       ry="10"
       transform="rotate(-28.755687)" /></g></svg>
