<?xml version="1.0" encoding="UTF-8" standalone="no"?>
<!-- Created with Inkscape (http://www.inkscape.org/) -->

<svg
   width="512"
   height="512"
   viewBox="0 0 128 128"
   version="1.1"
   id="svg1"
   inkscape:version="1.4 (86a8ad7, 2024-10-11)"
   sodipodi:docname="LevelCrown.svg"
   xmlns:inkscape="http://www.inkscape.org/namespaces/inkscape"
   xmlns:sodipodi="http://sodipodi.sourceforge.net/DTD/sodipodi-0.dtd"
   xmlns="http://www.w3.org/2000/svg"
   xmlns:svg="http://www.w3.org/2000/svg">
  <sodipodi:namedview
     id="namedview1"
     pagecolor="#505050"
     bordercolor="#eeeeee"
     borderopacity="1"
     inkscape:showpageshadow="0"
     inkscape:pageopacity="0"
     inkscape:pagecheckerboard="0"
     inkscape:deskcolor="#505050"
     inkscape:document-units="px"
     showgrid="true"
     inkscape:zoom="1.1255704"
     inkscape:cx="394.46668"
     inkscape:cy="293.62891"
     inkscape:window-width="1920"
     inkscape:window-height="1017"
     inkscape:window-x="-8"
     inkscape:window-y="-8"
     inkscape:window-maximized="1"
     inkscape:current-layer="layer1">
    <inkscape:grid
       id="grid1"
       units="px"
       originx="0"
       originy="0"
       spacingx="2"
       spacingy="2"
       empcolor="#0099e5"
       empopacity="0.30196078"
       color="#0099e5"
       opacity="0.14901961"
       empspacing="4"
       enabled="true"
       visible="true"
       dotted="false" />
  </sodipodi:namedview>
  <defs
     id="defs1" />
  <g
     inkscape:label="Layer 1"
     inkscape:groupmode="layer"
     id="layer1">
    <g
       id="Layer_2"
       data-name="Layer 2"
       transform="matrix(12.5,0,0,12.5,3.125,20.875)"
       style="fill:#ffffff;stroke:none">
      <g
         id="Layer_1-2"
         data-name="Layer 1"
         style="fill:#ffffff;stroke:none">
        <path
           d="M 8,3 C 8,3 6.81,2.59 4.87,0 2.93,2.59 1.78,3 1.78,3 1.78,3 1.2,3 0,1.79 A 24,24 0 0 1 0.51,6 11.29,11.29 0 0 0 4.87,6.9 11.23,11.23 0 0 0 9.23,6 24,24 0 0 1 9.74,1.83 C 8.55,3 8,3 8,3 M 0.61,3.5 0.48,2.68 l 1,0.73 A 1.56,1.56 0 0 0 0.59,3.5 M 8.26,3.35 9.26,2.61 9.14,3.43 A 1.63,1.63 0 0 0 8.25,3.35 M 4.84,1.35 3.3,2.4 4.87,0.66 6.45,2.4 Z"
           id="path1"
           style="fill:#ffffff;stroke:none" />
      </g>
    </g>
  </g>
</svg>
