<?xml version="1.0" encoding="UTF-8" standalone="no"?>
<!-- Created with Inkscape (http://www.inkscape.org/) -->

<svg
   width="256"
   height="256"
   viewBox="0 0 256 256"
   version="1.1"
   id="svg5"
   inkscape:version="1.2.1 (9c6d41e410, 2022-07-14)"
   sodipodi:docname="Lock.svg"
   xmlns:inkscape="http://www.inkscape.org/namespaces/inkscape"
   xmlns:sodipodi="http://sodipodi.sourceforge.net/DTD/sodipodi-0.dtd"
   xmlns="http://www.w3.org/2000/svg"
   xmlns:svg="http://www.w3.org/2000/svg">
  <sodipodi:namedview
     id="namedview7"
     pagecolor="#505050"
     bordercolor="#ffffff"
     borderopacity="1"
     inkscape:showpageshadow="0"
     inkscape:pageopacity="0"
     inkscape:pagecheckerboard="1"
     inkscape:deskcolor="#505050"
     inkscape:document-units="px"
     showgrid="true"
     inkscape:lockguides="true"
     inkscape:zoom="1.6191406"
     inkscape:cx="100.97949"
     inkscape:cy="192.69481"
     inkscape:window-width="1920"
     inkscape:window-height="1009"
     inkscape:window-x="-8"
     inkscape:window-y="-8"
     inkscape:window-maximized="1"
     inkscape:current-layer="layer1">
    <inkscape:grid
       type="xygrid"
       id="grid234"
       empspacing="4"
       originx="0"
       originy="0" />
  </sodipodi:namedview>
  <defs
     id="defs2" />
  <g
     inkscape:label="Layer 1"
     inkscape:groupmode="layer"
     id="layer1">
    <g
       class=""
       id="g4"
       transform="matrix(0.5,0,0,0.49999895,0.859,0.43001818)">
      <path
         d="m 254.28,17.313 c -81.048,0 -146.624,65.484 -146.624,146.406 V 236 h 49.594 v -69.094 c 0,-53.658 43.47,-97.187 97.03,-97.187 53.563,0 97.032,44.744 97.032,97.186 V 236 h 49.594 V 163.72 C 400.906,84.864 335.189,17.313 254.281,17.313 Z M 85.157,254.688 c -14.61,22.827 -22.844,49.148 -22.844,76.78 0,88.358 84.97,161.5 191.97,161.5 106.998,0 191.968,-73.142 191.968,-161.5 0,-27.635 -8.26,-53.95 -22.875,-76.78 H 85.155 Z M 254,278.625 c 22.34,0 40.875,17.94 40.875,40.28 0,16.756 -10.6,31.23 -25.125,37.376 l 32.72,98.126 h -96.376 l 32.125,-98.125 c -14.526,-6.145 -24.532,-20.62 -24.532,-37.374 0,-22.338 17.972,-40.28 40.312,-40.28 z"
         fill="#ffffff"
         fill-opacity="1"
         id="path2" />
    </g>
  </g>
</svg>
