<?xml version="1.0" encoding="UTF-8" standalone="no"?>
<!-- Created with Inkscape (http://www.inkscape.org/) -->

<svg
   width="256"
   height="256"
   viewBox="0 0 256 256"
   version="1.1"
   id="svg5"
   inkscape:version="1.2.1 (9c6d41e410, 2022-07-14)"
   sodipodi:docname="Pin.svg"
   xmlns:inkscape="http://www.inkscape.org/namespaces/inkscape"
   xmlns:sodipodi="http://sodipodi.sourceforge.net/DTD/sodipodi-0.dtd"
   xmlns="http://www.w3.org/2000/svg"
   xmlns:svg="http://www.w3.org/2000/svg">
  <sodipodi:namedview
     id="namedview7"
     pagecolor="#505050"
     bordercolor="#ffffff"
     borderopacity="1"
     inkscape:showpageshadow="0"
     inkscape:pageopacity="0"
     inkscape:pagecheckerboard="1"
     inkscape:deskcolor="#505050"
     inkscape:document-units="px"
     showgrid="true"
     inkscape:lockguides="true"
     inkscape:zoom="1.1449053"
     inkscape:cx="136.69253"
     inkscape:cy="116.16681"
     inkscape:window-width="1920"
     inkscape:window-height="1009"
     inkscape:window-x="-8"
     inkscape:window-y="-8"
     inkscape:window-maximized="1"
     inkscape:current-layer="layer1">
    <inkscape:grid
       type="xygrid"
       id="grid234"
       empspacing="4"
       originx="0"
       originy="0" />
  </sodipodi:namedview>
  <defs
     id="defs2" />
  <g
     inkscape:label="Layer 1"
     inkscape:groupmode="layer"
     id="layer1">
    <g
       class=""
       id="g4"
       transform="matrix(0.5,0,0,0.5,-0.001,-0.001)">
      <path
         d="m 326.953,22.87 -20.273,60.815 20.273,20.273 -115.428,115.427 c -16.39,-8 -34.277,-14.452 -51.84,-18.502 -14.247,-3.285 -28.136,-4.902 -40.802,-4.772 -16.84,0.173 -31.505,3.44 -41.975,9.973 L 305.914,435.09 c 11.447,-18.345 12.853,-49.592 5.2,-82.776 -4.05,-17.564 -10.502,-35.45 -18.5,-51.84 l 115.427,-115.43 20.274,20.274 60.817,-20.273 L 326.954,22.87 Z M 159.207,313.84 22.87,489.13 198.16,352.793 Z"
         fill="#ffffff"
         fill-opacity="1"
         id="path2" />
    </g>
  </g>
</svg>
