<?xml version="1.0" encoding="UTF-8" standalone="no"?>
<!-- Created with Inkscape (http://www.inkscape.org/) -->

<svg
   width="512"
   height="512"
   viewBox="0 0 128 128"
   version="1.1"
   id="svg1"
   inkscape:version="1.4 (86a8ad7, 2024-10-11)"
   sodipodi:docname="Sell.svg"
   xmlns:inkscape="http://www.inkscape.org/namespaces/inkscape"
   xmlns:sodipodi="http://sodipodi.sourceforge.net/DTD/sodipodi-0.dtd"
   xmlns="http://www.w3.org/2000/svg"
   xmlns:svg="http://www.w3.org/2000/svg">
  <sodipodi:namedview
     id="namedview1"
     pagecolor="#505050"
     bordercolor="#eeeeee"
     borderopacity="1"
     inkscape:showpageshadow="0"
     inkscape:pageopacity="0"
     inkscape:pagecheckerboard="0"
     inkscape:deskcolor="#505050"
     inkscape:document-units="px"
     showgrid="true"
     inkscape:zoom="1.1255704"
     inkscape:cx="253.20496"
     inkscape:cy="256.3145"
     inkscape:window-width="1920"
     inkscape:window-height="1017"
     inkscape:window-x="-8"
     inkscape:window-y="-8"
     inkscape:window-maximized="1"
     inkscape:current-layer="layer1">
    <inkscape:grid
       id="grid1"
       units="px"
       originx="0"
       originy="0"
       spacingx="2"
       spacingy="2"
       empcolor="#0099e5"
       empopacity="0.30196078"
       color="#0099e5"
       opacity="0.14901961"
       empspacing="4"
       enabled="true"
       visible="true"
       dotted="false" />
  </sodipodi:namedview>
  <defs
     id="defs1" />
  <g
     inkscape:label="Layer 1"
     inkscape:groupmode="layer"
     id="layer1">
    <g
       class=""
       id="g2"
       transform="matrix(0.25,0,0,0.25,-0.225,0.25)">
      <path
         d="m 258,21.89 c -0.5,0 -1.2,0 -1.8,0.12 -4.6,0.85 -10.1,5.1 -13.7,14.81 -3.8,9.7 -4.6,23.53 -1.3,38.34 3.4,14.63 10.4,27.24 18.2,34.94 7.6,7.7 14.5,9.8 19.1,9 4.8,-0.7 10.1,-5.1 13.7,-14.7 3.8,-9.64 4.8,-23.66 1.4,-38.35 -3.5,-14.8 -10.4,-27.29 -18.2,-34.94 -6.6,-6.8 -12.7,-9.22 -17.4,-9.22 z M 373.4,151.4 c -11,0.3 -24.9,3.2 -38.4,8.9 -15.6,6.8 -27.6,15.9 -34.2,24.5 -6.6,8.3 -7.2,14.6 -5.1,18.3 2.2,3.7 8.3,7.2 20,7.7 11.7,0.7 27.5,-2.2 43,-8.8 15.5,-6.7 27.7,-15.9 34.3,-24.3 6.6,-8.3 7.1,-14.8 5,-18.5 -2.1,-3.8 -8.3,-7.1 -20,-7.5 -1.6,-0.3 -3,-0.3 -4.6,-0.3 z m -136.3,92.9 c -6.6,0.1 -12.6,0.9 -18,2.3 -11.8,3 -18.6,8.4 -20.8,14.9 -2.5,6.5 0,14.3 7.8,22.7 8.2,8.2 21.7,16.1 38.5,20.5 16.7,4.4 32.8,4.3 44.8,1.1 12.1,-3.1 18.9,-8.6 21.1,-15 2.3,-6.5 0,-14.2 -8.1,-22.7 -7.9,-8.2 -21.4,-16.1 -38.2,-20.4 -9.5,-2.5 -18.8,-3.5 -27.1,-3.4 z m 160.7,58.1 -61.8,29.3 c 4.2,0.2 14.7,0.5 14.7,0.5 l 6.6,8.7 54.7,-28.5 z m -54.5,0.1 -57.4,27.2 c 5.5,0.3 18.5,0.5 23.7,0.8 l 49.8,-23.6 z m 92.6,10.8 -70.5,37.4 14.5,18.7 74.5,-44.6 z m -278.8,9.1 a 40.33,40.33 0 0 0 -9,1 C 76.6,339.9 34.4,341.3 21.9,341.3 H 18 v 107.5 c 0,0 11.6,-1.7 30.9,-1.8 37.3,0 103,6.4 167,43.8 3.4,2.1 10.7,2.9 19.8,2.9 24.3,0 61.2,-5.8 69.7,-9 C 391,452.6 494,364.5 494,364.5 l -32.5,-28.4 c 0,0 -79.8,50.9 -89.9,55.8 -91.1,44.7 -164.9,16.8 -164.9,16.8 0,0 119.9,3 158.4,-27.3 l -22.6,-34 c 0,0 -82.8,-2.3 -112.3,-6.2 -15.4,-2 -48.7,-18.8 -73.1,-18.8 z"
         fill="#ffffff"
         fill-opacity="1"
         id="path2" />
    </g>
  </g>
</svg>
