<?xml version="1.0" encoding="UTF-8" standalone="no"?>
<!-- Created with Inkscape (http://www.inkscape.org/) -->

<svg
   width="256"
   height="256"
   viewBox="0 0 256 256"
   version="1.1"
   id="svg5"
   inkscape:version="1.2.1 (9c6d41e410, 2022-07-14)"
   sodipodi:docname="Undo.svg"
   xmlns:inkscape="http://www.inkscape.org/namespaces/inkscape"
   xmlns:sodipodi="http://sodipodi.sourceforge.net/DTD/sodipodi-0.dtd"
   xmlns="http://www.w3.org/2000/svg"
   xmlns:svg="http://www.w3.org/2000/svg">
  <sodipodi:namedview
     id="namedview7"
     pagecolor="#505050"
     bordercolor="#ffffff"
     borderopacity="1"
     inkscape:showpageshadow="0"
     inkscape:pageopacity="0"
     inkscape:pagecheckerboard="1"
     inkscape:deskcolor="#505050"
     inkscape:document-units="px"
     showgrid="true"
     inkscape:lockguides="true"
     inkscape:zoom="2.2898106"
     inkscape:cx="123.80936"
     inkscape:cy="115.29338"
     inkscape:window-width="1920"
     inkscape:window-height="1009"
     inkscape:window-x="-8"
     inkscape:window-y="-8"
     inkscape:window-maximized="1"
     inkscape:current-layer="layer1">
    <inkscape:grid
       type="xygrid"
       id="grid234"
       empspacing="4"
       originx="0"
       originy="0" />
  </sodipodi:namedview>
  <defs
     id="defs2" />
  <g
     inkscape:label="Layer 1"
     inkscape:groupmode="layer"
     id="layer1">
    <g
       class=""
       id="g4"
       transform="matrix(0.49999974,0,0,0.4999994,1.482e-5,0.00554311)">
      <path
         d="m 248.91,50 c 11.882,-0.006 23.875,1.018 35.857,3.13 85.207,15.025 152.077,81.895 167.102,167.102 15.023,85.208 -24.944,170.917 -99.874,214.178 -32.782,18.927 -69.254,27.996 -105.463,27.553 -46.555,-0.57 -92.675,-16.865 -129.957,-48.15 l 30.855,-36.768 c 50.95,42.75 122.968,49.05 180.566,15.797 57.597,-33.254 88.152,-98.777 76.603,-164.274 -11.55,-65.497 -62.672,-116.62 -128.17,-128.168 -51.656,-9.108 -103.323,7.98 -139.17,43.862 L 185,192 H 57 V 64 l 46.34,46.342 C 141.758,71.962 194.17,50.03 248.91,50 Z"
         fill="#ffffff"
         fill-opacity="1"
         id="path2" />
    </g>
  </g>
</svg>
