<?xml version="1.0" encoding="UTF-8" standalone="no"?>
<!-- Created with Inkscape (http://www.inkscape.org/) -->

<svg
   width="256"
   height="256"
   viewBox="0 0 64 64"
   version="1.1"
   id="svg1"
   inkscape:version="1.4 (86a8ad7, 2024-10-11)"
   sodipodi:docname="Icon.svg"
   xmlns:inkscape="http://www.inkscape.org/namespaces/inkscape"
   xmlns:sodipodi="http://sodipodi.sourceforge.net/DTD/sodipodi-0.dtd"
   xmlns="http://www.w3.org/2000/svg"
   xmlns:svg="http://www.w3.org/2000/svg">
  <sodipodi:namedview
     id="namedview1"
     pagecolor="#505050"
     bordercolor="#eeeeee"
     borderopacity="1"
     inkscape:showpageshadow="0"
     inkscape:pageopacity="0"
     inkscape:pagecheckerboard="0"
     inkscape:deskcolor="#505050"
     inkscape:document-units="px"
     showgrid="true"
     inkscape:zoom="2.1627524"
     inkscape:cx="135.93789"
     inkscape:cy="130.15822"
     inkscape:window-width="1920"
     inkscape:window-height="1001"
     inkscape:window-x="-9"
     inkscape:window-y="-9"
     inkscape:window-maximized="1"
     inkscape:current-layer="layer1">
    <inkscape:grid
       id="grid1"
       units="px"
       originx="0"
       originy="0"
       spacingx="2"
       spacingy="2"
       empcolor="#0099e5"
       empopacity="0.30196078"
       color="#0099e5"
       opacity="0.14901961"
       empspacing="4"
       enabled="true"
       visible="true"
       dotted="false" />
  </sodipodi:namedview>
  <defs
     id="defs1" />
  <g
     inkscape:label="Layer 1"
     inkscape:groupmode="layer"
     id="layer1">
    <path
       d="m 29.1145,21.239375 c 0.2025,-0.68625 0.39375,-1.305 0.63,-1.99125 -0.585,-0.34875 -0.97875,-1.0125 -0.97875,-1.74375 0,-1.13625 0.9225,-2.05875 2.05875,-2.05875 0.1575,0 0.30375,0.01125 0.45,0.045 0.01125,0 0.03375,0.01125 0.05625,0.01125 -0.045,0.25875 -0.09,0.5175 -0.12375,0.7875 -0.05625,0.4275 0.07875,0.765 0.16875,0.97875 v 0 c 0,0 0.01125,0.01125 0.01125,0.03375 0.01125,0.03375 0.03375,0.045 0.03375,0.07875 0.09,0.28125 0.18,0.5625 0.2925,0.84375 0.1125,0.32625 0.21375,0.63 0.32625,0.93375 -0.3375,0.2475 -0.75375,0.3825 -1.1925,0.3825 -0.07875,0 -0.16875,0 -0.2475,-0.01125 -0.28125,0.79875 -0.495,1.5075 -0.72,2.3175 -0.27,-0.2025 -0.50625,-0.405 -0.765,-0.6075 z m 4.2075,-8.35875 c 0.045,0.03375 0.16875,0.12375 0.2925,0.2475 0.03375,0.03375 0.05625,0.05625 0.1125,0.09 0.12375,-0.18 0.2475,-0.34875 0.37125,-0.5175 0.25875,0.12375 0.55125,0.18 0.8775,0.18 0.50625,0 0.9675,-0.18 1.33875,-0.495 v 0 c 0.135,-0.12375 0.25875,-0.25875 0.37125,-0.39375 0,-0.045 0.01125,-0.09 0.01125,-0.1575 0.03375,-0.2475 0.07875,-0.4725 0.12375,-0.70875 -1.18125,-0.30375 -2.14875,-1.1475 -2.64375,-2.23875 -0.75375,0.30375 -1.29375,1.0575 -1.29375,1.92375 0,0.5175 0.18,1.00125 0.50625,1.36125 -0.12375,0.1575 -0.225,0.32625 -0.34875,0.50625 z m -6.75,20.14875 c 0.225,0.07875 0.4725,0.135 0.70875,0.2025 0.2925,0.07875 0.585,0.1575 0.8775,0.21375 0.18,0.03375 0.37125,0.07875 0.55125,0.09 0.045,0 0.07875,0.01125 0.12375,0.01125 0.09,0 0.135,-0.01125 0.135,-0.03375 0.01125,-0.01125 0.045,-0.12375 -0.01125,-0.32625 -0.12375,-0.45 -0.34875,-0.84375 -0.59625,-1.06875 -0.07875,-0.05625 -0.135,-0.12375 -0.21375,-0.18 -0.25875,-0.225 -0.54,-0.4725 -0.81,-0.70875 -0.30375,-0.25875 -0.61875,-0.5175 -0.93375,-0.7875 -0.46125,0.3825 -0.75375,0.95625 -0.75375,1.575 0,0.25875 0.045,0.5175 0.135,0.75375 l 0.045,0.01125 c 0.2475,0.09 0.495,0.16875 0.7425,0.2475 z m -1.1025,12.5775 c 0,-0.2925 -0.05625,-0.55125 -0.18,-0.79875 0.2475,-0.225 0.50625,-0.4725 0.75375,-0.765 -0.1575,-0.28125 -0.30375,-0.54 -0.46125,-0.81 -0.28125,0.3375 -0.5625,0.63 -0.84375,0.88875 -0.32625,-0.2475 -0.72,-0.39375 -1.1475,-0.39375 -1.04625,0 -1.89,0.84375 -1.89,1.8675 0,0.225 0.045,0.45 0.1125,0.64125 -0.64125,0.34875 -1.44,0.70875 -2.32875,0.9225 -0.25875,-0.7875 -1.00125,-1.35 -1.85625,-1.35 -0.765,0 -1.44,0.45 -1.76625,1.1025 -0.63,-0.25875 -1.13625,-0.61875 -1.53,-0.95625 0.18,-0.25875 0.2925,-0.585 0.2925,-0.93375 0,-0.9 -0.73125,-1.63125 -1.63125,-1.63125 -0.1125,0 -0.2025,0.01125 -0.2925,0.03375 -0.18,-0.46125 -0.37125,-1.02375 -0.55125,-1.69875 0.495,-0.28125 0.81,-0.79875 0.81,-1.395 0,-0.81 -0.59625,-1.47375 -1.38375,-1.575 -0.07875,-0.68625 -0.1125,-1.35 -0.12375,-1.90125 0.61875,-0.18 1.0575,-0.75375 1.0575,-1.42875 0,-0.63 -0.39375,-1.18125 -0.95625,-1.38375 0.05625,-0.64125 0.16875,-1.5075 0.3375,-2.5425 0.765,-0.07875 1.35,-0.72 1.35,-1.5075 0,-0.5625 -0.30375,-1.06875 -0.7875,-1.33875 0.30375,-1.22625 0.63,-2.28375 0.9,-3.07125 0.03375,0 0.05625,0 0.09,0 0.84375,0 1.51875,-0.675 1.51875,-1.51875 0,-0.495 -0.2475,-0.93375 -0.61875,-1.215 0.2925,-0.72 0.75375,-1.6875 1.38375,-2.8575 0.135,0.03375 0.28125,0.05625 0.41625,0.05625 0.9,0 1.63125,-0.73125 1.63125,-1.63125 0,-0.4275 -0.16875,-0.81 -0.4275,-1.1025 0.54,-0.84375 0.9675,-1.5075 1.305,-2.01375 0.16875,0.05625 0.34875,0.09 0.55125,0.09 0.9,0 1.63125,-0.73125 1.63125,-1.63125 0,-0.3825 -0.135,-0.73125 -0.34875,-1.0125 0.4725,-0.585 1.125,-1.33875 1.935,-2.1375 0.2475,0.1575 0.55125,0.2475 0.8775,0.2475 0.9,0 1.63125,-0.73125 1.63125,-1.63125 0,-0.21375 -0.045,-0.41625 -0.12375,-0.59625 0.765,-0.5175 1.4625,-0.8775 2.03625,-1.125 0.30375,0.4725 0.855,0.79875 1.47375,0.79875 0.9675,0 1.74375,-0.7875 1.74375,-1.74375 0,-0.03375 0,-0.05625 0,-0.07875 0.66375,-0.18 1.4625,-0.37125 2.3175,-0.50625 0.21375,0.61875 0.75375,1.06875 1.395,1.1925 0,-0.495 0.09,-0.9675 0.25875,-1.395 0.03375,-0.09 0.07875,-0.16875 0.1125,-0.25875 0.2925,-0.61875 0.73125,-1.1475 1.27125,-1.5525 -0.3375,-0.32625 -0.7875,-0.50625 -1.29375,-0.50625 -0.95625,0 -1.74375,0.72 -1.85625,1.6425 -0.9225,0.1575 -1.7775,0.34875 -2.475,0.55125 -0.30375,-0.50625 -0.855,-0.8325 -1.485,-0.8325 -0.9675,0 -1.74375,0.7875 -1.74375,1.74375 0,0.03375 0,0.07875 0,0.12375 -0.64125,0.28125 -1.42875,0.675 -2.28375,1.26 -0.28125,-0.21375 -0.61875,-0.3375 -0.97875,-0.3375 -0.9,0 -1.63125,0.73125 -1.63125,1.63125 0,0.25875 0.05625,0.5175 0.18,0.73125 -0.8775,0.84375 -1.56375,1.6425 -2.05875,2.26125 -0.18,-0.05625 -0.37125,-0.1125 -0.5625,-0.1125 -0.9,0 -1.63125,0.73125 -1.63125,1.63125 0,0.3825 0.135,0.75375 0.37125,1.02375 -0.34875,0.50625 -0.79875,1.18125 -1.35,2.05875 -0.135,-0.045 -0.30375,-0.05625 -0.46125,-0.05625 -0.9,0 -1.63125,0.73125 -1.63125,1.63125 0,0.45 0.16875,0.84375 0.46125,1.13625 -0.675,1.22625 -1.1475,2.23875 -1.4625,2.9925 -0.03375,0 -0.05625,0 -0.09,0 -0.84375,0 -1.51875,0.675 -1.51875,1.51875 0,0.495 0.225,0.93375 0.59625,1.215 -0.28125,0.79875 -0.61875,1.90125 -0.93375,3.1725 -0.7875,0.05625 -1.40625,0.70875 -1.40625,1.51875 0,0.59625 0.3375,1.1025 0.8325,1.35 -0.18,1.09125 -0.2925,1.98 -0.34875,2.64375 -0.66375,0.1575 -1.1475,0.73125 -1.1475,1.44 0,0.66375 0.45,1.22625 1.04625,1.40625 v 0 c 0.01125,0.585 0.045,1.305 0.12375,2.03625 -0.55125,0.2475 -0.93375,0.79875 -0.93375,1.4625 0,0.855 0.675,1.5525 1.51875,1.5975 0.2025,0.75375 0.41625,1.38375 0.61875,1.89 -0.3375,0.2925 -0.54,0.73125 -0.54,1.215 0,0.9 0.73125,1.63125 1.63125,1.63125 0.225,0 0.45,-0.045 0.64125,-0.135 0.495,0.45 1.17,0.9225 2.025,1.26 0,1.06875 0.8775,1.935 1.94625,1.935 0.97875,0 1.81125,-0.73125 1.935,-1.6875 v 0 c 1.0575,-0.225 1.99125,-0.66375 2.73375,-1.06875 0.3375,0.32625 0.7875,0.50625 1.29375,0.50625 1.08,0.045 1.92375,-0.79875 1.92375,-1.83375 z m 29.025,-20.53125 c -3.36375,1.36125 -3.36375,1.305 -3.63375,0.2475 -0.66375,0.5175 -1.305,1.09125 -1.98,1.5075 -1.18125,0.72 -2.37375,1.42875 -3.6225,1.90125 -0.54,0.21375 -1.395,0.2025 -1.6875,-0.1575 -0.46125,-0.5625 0.05625,-1.44 0.55125,-2.03625 0.95625,-1.13625 1.94625,-2.2275 2.9475,-3.33 0.66375,-0.73125 1.38375,-1.395 2.115,-2.16 -0.675,-0.55125 -0.2925,-1.1475 0,-1.7325 0.25875,-0.50625 0.66375,-0.88875 0.5625,-1.5975 -0.05625,-0.50625 0.34875,-1.17 0.5625,-1.8 -0.8325,0.225 -1.53,1.6425 -2.52,0.7875 -0.7875,0.9225 -1.8,1.36125 -2.9025,1.36125 -1.38375,0 -2.23875,-0.81 -2.16,-2.30625 0.045,-1.1475 0.41625,-2.3175 0.64125,-3.4875 0.05625,-0.30375 0.2025,-0.59625 0.32625,-0.9675 -0.61875,0.03375 -1.395,0.97875 -1.69875,-0.03375 v -0.01125 c 1.31625,-0.30375 2.3175,-1.5075 2.3175,-2.91375 0,-1.65375 -1.35,-3.00375 -3.00375,-3.00375 -1.65375,0 -3.00375,1.35 -3.00375,3.00375 0,0.97875 0.4725,1.85625 1.215,2.4075 -0.28125,0.8325 -0.93375,0.765 -1.85625,-0.1575 -0.09,0.495 -0.18,0.9 -0.225,1.31625 -0.135,1.125 -0.32625,2.23875 -1.51875,2.745 -1.22625,0.50625 -2.1825,0 -3.0375,-0.7875 -0.07875,-0.07875 -0.1575,-0.12375 -0.16875,-0.135 -0.135,0.84375 -0.30375,1.76625 -0.45,2.7 -0.03375,0.18 0.12375,0.3825 0.18,0.585 0.4275,1.29375 0.9225,2.57625 1.18125,3.94875 0.18,0.95625 0.1575,2.115 -0.84375,2.79 -0.9675,0.64125 -1.8675,0.135 -2.64375,-0.37125 -0.9675,-0.66375 -1.845,-1.47375 -2.7675,-2.205 -0.16875,-0.135 -0.3375,-0.2925 -0.54,-0.45 -0.2475,1.09125 -0.585,1.29375 -1.6425,0.9675 -0.4725,-0.1575 -0.93375,-0.3825 -1.51875,-0.63 0.32625,0.64125 0.59625,1.1475 0.8325,1.69875 0.21375,0.50625 0.225,0.95625 -0.54,0.855 0.41625,0.66375 0.9225,1.22625 1.1475,1.92375 0.2925,0.8325 -0.2025,1.47375 -0.855,1.7775 1.5975,1.31625 3.25125,2.61 4.80375,4.005 0.45,0.3825 0.75375,1.00125 0.9225,1.5975 0.2925,1.0575 -0.34875,1.845 -1.42875,1.6875 -1.09125,-0.1575 -2.115,-0.5175 -3.00375,-0.765 -1.215,0.765 -2.03625,-0.2925 -2.9925,-0.25875 -0.03375,1.06875 0.59625,1.76625 1.22625,2.48625 0.25875,0.2925 0.3375,0.765 0.495,1.1475 -0.05625,0.045 -0.135,0.09 -0.2025,0.135 0.2475,0.07875 0.495,0.1575 0.73125,0.225 0.64125,0.18 1.2375,0.34875 1.8,0.59625 0.25875,0.12375 0.50625,0.25875 0.7875,0.45 0.46125,0.28125 0.88875,0.63 1.29375,0.97875 0.2025,0.16875 0.12375,0.64125 0.16875,0.9675 -0.32625,0.07875 -0.66375,0.25875 -0.93375,0.21375 -0.93375,-0.1575 -1.845,-0.39375 -2.88,-0.66375 1.35,2.2725 2.59875,4.4775 3.825,6.71625 0.12375,0.225 0.28125,0.46125 0.4725,0.64125 0,0 0.01125,0.01125 0.03375,0.01125 0.05625,0.03375 0.1125,0.07875 0.135,0.1125 0.01125,0.01125 0.03375,0.03375 0.045,0.045 v 0 c 0.1575,0.16875 0.21375,0.41625 -0.1125,1.04625 -0.09,0.18 -0.18,0.34875 -0.28125,0.54 -0.25875,0.5175 -0.5175,1.0125 -0.79875,1.485 -1.1475,1.935 -2.37375,3.8475 -3.6675,5.76 -0.59625,0.8775 -1.1925,1.74375 -1.8225,2.61 -0.09,0.12375 -0.16875,0.25875 -0.225,0.34875 -0.1125,0.18 -0.21375,0.37125 -0.32625,0.55125 0.09,0.1125 0.18,0.225 0.2925,0.3375 0.05625,0.07875 0.12375,0.135 0.16875,0.21375 0.18,0 0.3825,0 0.5625,0 0.135,-0.045 0.2925,-0.07875 0.4275,-0.12375 0.18,-0.07875 0.54,-0.25875 0.68625,-0.34875 0.45,-0.2925 0.72,-0.45 1.06875,-0.93375 1.04625,-1.47375 1.99125,-3.02625 2.88,-4.5225 0.21375,-0.34875 0.41625,-0.68625 0.61875,-1.04625 0.765,-1.305 1.47375,-2.64375 2.14875,-3.915 0.1575,-0.30375 0.30375,-0.61875 0.46125,-0.9225 l 0.01125,-0.01125 H 31.657 l 0.045,-0.09 c 6.60375,-13.10625 8.31375,-28.89 8.31375,-28.89 l 0.79875,-1.845 c 0,0 -0.05625,5.445 -0.68625,9.68625 -0.63,4.1625 -2.655,13.26375 -5.52375,20.01375 0.39375,-0.1575 0.81,-0.28125 1.215,-0.3825 0,0 0,0 0.01125,0 0.765,-0.21375 1.5975,-0.37125 2.53125,-0.46125 0.37125,-0.045 0.73125,-0.12375 1.13625,-0.2025 0.09,-0.01125 0.18,-0.045 0.28125,-0.05625 -0.28125,-0.28125 -0.55125,-0.46125 -0.68625,-0.72 -0.2025,-0.37125 -0.495,-0.8325 -0.3825,-1.22625 0.09,-0.2925 0.7875,-0.73125 1.17,-0.7875 v 0 c 0.05625,-0.03375 0.12375,-0.05625 0.1575,-0.05625 1.42875,-0.18 2.86875,-0.2925 4.3425,-0.4275 0.18,-0.01125 0.41625,0.03375 0.64125,0.07875 0.135,0.03375 0.28125,0.045 0.41625,0.07875 0.01125,0 0.045,0 0.05625,0 0.25875,-1.1475 1.67625,-2.32875 3.49875,-3.04875 0.12375,-0.045 0.2475,-0.1125 0.37125,-0.1575 0.03375,-0.045 0.05625,-0.1125 0.1125,-0.1575 -0.54,-0.045 -1.09125,-0.07875 -1.63125,-0.135 -0.46125,-0.05625 -0.765,-0.25875 -0.32625,-0.9 -0.9675,0.03375 -1.90125,0.1575 -2.77875,0.045 -0.79875,-0.09 -1.5525,-0.3375 -2.23875,-0.64125 -0.2925,-0.135 -0.585,-0.585 -0.55125,-0.93375 0.03375,-0.25875 0.54,-0.73125 0.8775,-0.8775 0.61875,-0.2475 1.22625,-0.50625 1.85625,-0.75375 0.12375,-0.045 0.2475,-0.09 0.37125,-0.1575 0.73125,-0.2925 1.485,-0.585 2.23875,-0.81 0.79875,-0.25875 1.5975,-0.39375 2.44125,-0.5625 0.39375,-0.07875 0.79875,-0.1575 1.1925,-0.2475 0.2025,-0.045 0.3825,-0.1125 0.61875,-0.16875 0.03375,-0.01125 0.07875,-0.03375 0.12375,-0.03375 -0.07875,-0.135 -0.1125,-0.2025 -0.1575,-0.2475 -1.27125,-1.17 -1.1925,-1.81125 0.34875,-3.42 0.495,-0.5175 1.04625,-0.97875 1.575,-1.5075 -0.2025,-0.07875 -0.39375,-0.1575 -0.75375,-0.2925 0.6075,-1.09125 1.215,-2.21625 1.81125,-3.3525 z m -17.56125,-14.715 0.225,-1.33875 0.59625,0.585 c -0.135,-0.39375 -0.21375,-0.8325 -0.21375,-1.27125 0,-1.60875 1.0125,-2.98125 2.43,-3.5325 -0.5625,-0.50625 -1.31625,-0.81 -2.14875,-0.81 -1.8,0 -3.24,1.44 -3.24,3.24 -0.0225,1.5075 0.97875,2.745 2.35125,3.1275 z"
       id="path1"
       style="fill:#ffffff;stroke-width:0.1125" />
  </g>
</svg>
