<?xml version="1.0" encoding="UTF-8" standalone="no"?>
<!-- Created with Inkscape (http://www.inkscape.org/) -->

<svg
   width="512"
   height="512"
   viewBox="0 0 512 512"
   version="1.1"
   id="svg5"
   inkscape:version="1.4 (86a8ad7, 2024-10-11)"
   xml:space="preserve"
   sodipodi:docname="Body.svg"
   xmlns:inkscape="http://www.inkscape.org/namespaces/inkscape"
   xmlns:sodipodi="http://sodipodi.sourceforge.net/DTD/sodipodi-0.dtd"
   xmlns="http://www.w3.org/2000/svg"
   xmlns:svg="http://www.w3.org/2000/svg"><sodipodi:namedview
     id="namedview7"
     pagecolor="#505050"
     bordercolor="#ffffff"
     borderopacity="1"
     inkscape:showpageshadow="0"
     inkscape:pageopacity="0"
     inkscape:pagecheckerboard="1"
     inkscape:deskcolor="#505050"
     inkscape:document-units="px"
     showgrid="true"
     inkscape:lockguides="true"
     inkscape:zoom="1.1449053"
     inkscape:cx="-56.336537"
     inkscape:cy="276.44208"
     inkscape:window-width="3840"
     inkscape:window-height="2054"
     inkscape:window-x="2869"
     inkscape:window-y="-11"
     inkscape:window-maximized="1"
     inkscape:current-layer="layer1"><inkscape:grid
       type="xygrid"
       id="grid234"
       empspacing="4"
       originx="0"
       originy="0"
       spacingy="1"
       spacingx="1"
       units="px" /></sodipodi:namedview><defs
     id="defs2" /><g
     inkscape:label="Layer 1"
     inkscape:groupmode="layer"
     id="layer1"><path
       d="m 337.94442,63.527556 q 7.22222,0.55555 36.1111,20.27779 28.88888,19.722254 54.44444,39.166714 l 25.55554,19.44447 q -5,17.22224 -13.33333,33.0556 -8.33333,15.83335 -16.94444,26.11114 -8.61111,10.27779 -16.38889,18.33335 -7.77777,8.05557 -12.22221,11.94446 l -5,3.88889 -13.33333,183.88911 q -1.11111,1.11111 -2.77778,3.05555 -1.66666,1.94445 -9.99999,6.94446 -8.33334,5 -20.27778,8.8889 -11.94444,3.88888 -35.27776,6.94445 -23.33333,3.05556 -52.77777,3.05556 -29.44443,0 -52.49998,-3.05556 -23.05555,-3.05557 -35.27777,-7.22223 -12.22222,-4.16668 -20.27777,-8.61112 -8.05555,-4.44446 -10.27778,-7.22224 l -2.22222,-2.77777 -13.33333,-183.88911 q -2.22222,-1.66667 -5.27778,-4.16667 -3.05555,-2.5 -11.94443,-11.3889 -8.88889,-8.8889 -16.66667,-18.88891 -7.77778,-10.00001 -16.38888,-25.83336 -8.61111,-15.83336 -13.61111,-33.0556 99.44441,-77.777864 115.55553,-78.888974 5,-0.55556 11.66665,4.44444 6.66667,5.00001 13.61111,11.3889 6.94445,6.3889 22.22222,11.38891 15.27777,5 34.99999,5 19.72222,0 34.99999,-5 15.27777,-5.00001 21.94444,-11.38891 6.66666,-6.38889 13.33333,-11.3889 6.66666,-5 11.66666,-4.44444 z M 159.05558,251.30555 q 3.88889,0.55555 10,0.55555 14.99999,0 34.44444,-3.88889 19.44443,-3.88889 27.77776,-10.55557 10.55556,-8.8889 13.88889,-38.88893 2.22222,-25.55559 -0.55556,-35.00004 -1.66666,-3.8889 -5.55555,-3.8889 -3.88889,0 -7.77778,7.77779 -2.22222,4.44445 -5.55555,12.77779 -4.44444,10.00001 -12.22222,30.00004 0,1.11111 -0.83333,2.77778 -0.83333,1.66667 -0.83333,2.77778 -3.33334,1.11111 -15.55556,6.11112 -19.44443,7.22223 -27.22221,10.55557 -6.66667,2.77778 -10.55555,5 -6.11112,3.33334 -6.11112,6.66668 0,5.55556 6.66667,7.22223 z M 309.6111,400.1946 q 6.11111,-1.11111 6.11111,-6.11111 0,-3.33334 -6.11111,-6.66668 l -8.88889,-4.44445 q -15.55555,-6.66667 -21.1111,-10.55557 -2.77778,-1.66666 -9.44445,-6.11111 -13.88888,-7.77778 -27.22221,0 -3.88889,2.77778 -9.44444,6.11111 -5,3.33335 -20.55555,10.55557 l -8.88889,4.44445 q -6.11111,3.33334 -6.11111,6.66668 0,5 6.11111,6.11111 2.77778,0.55556 6.66667,0.55556 9.44444,0 36.1111,-7.77778 9.44444,-2.77779 19.44444,0 28.88888,7.77778 36.1111,7.77778 4.44444,0 7.22222,-0.55556 z m 0,-61.66673 q 6.11111,-1.66667 6.11111,-6.11112 0,-3.88889 -6.11111,-7.22223 -2.22222,-1.11111 -8.88889,-3.8889 -15.55555,-7.22222 -21.1111,-11.11112 -2.77778,-1.66666 -9.44445,-5.55556 -13.88888,-8.33334 -27.22221,0 -3.88889,2.22223 -9.44444,5.55556 -5,3.8889 -20.55555,11.11112 -6.66667,2.77779 -8.88889,3.8889 -6.11111,3.33334 -6.11111,7.22223 0,4.44445 6.11111,6.11112 2.22222,0.55555 6.66667,0.55555 9.44444,0 36.1111,-8.33334 9.44444,-2.77778 19.44444,0 28.88888,8.33334 36.1111,8.33334 4.44444,0 7.22222,-0.55555 z m 44.44443,-87.22232 q 7.22222,-1.66667 7.22222,-7.22223 0,-3.33334 -6.66667,-6.66668 -3.33333,-2.22222 -9.99999,-5 -7.77778,-3.33334 -27.22222,-10.55557 -12.22222,-5.00001 -15.55555,-6.11112 -0.55555,-1.11111 -1.11111,-2.77778 -0.55556,-1.66667 -1.11111,-2.77778 l -11.66666,-30.00004 q -3.33334,-8.33334 -6.11111,-12.77779 -3.88889,-7.77779 -7.77778,-7.77779 -3.33333,0 -5,3.8889 -3.33333,9.44445 -0.55555,35.00004 2.77777,30.55559 13.88888,38.88893 8.33333,6.66668 27.49999,10.55557 19.16667,3.88889 34.72222,3.88889 6.11111,0 9.44444,-0.55555 z"
       id="path1"
       style="fill:#ffffff;stroke-width:0.555556" /></g></svg>
