<?xml version="1.0" encoding="UTF-8" standalone="no"?>
<!-- Created with Inkscape (http://www.inkscape.org/) -->

<svg
   width="256"
   height="256"
   viewBox="0 0 64 64"
   version="1.1"
   id="svg1"
   inkscape:version="1.4 (86a8ad7, 2024-10-11)"
   sodipodi:docname="Body.svg"
   xmlns:inkscape="http://www.inkscape.org/namespaces/inkscape"
   xmlns:sodipodi="http://sodipodi.sourceforge.net/DTD/sodipodi-0.dtd"
   xmlns="http://www.w3.org/2000/svg"
   xmlns:svg="http://www.w3.org/2000/svg">
  <sodipodi:namedview
     id="namedview1"
     pagecolor="#505050"
     bordercolor="#eeeeee"
     borderopacity="1"
     inkscape:showpageshadow="0"
     inkscape:pageopacity="0"
     inkscape:pagecheckerboard="0"
     inkscape:deskcolor="#505050"
     inkscape:document-units="px"
     showgrid="true"
     inkscape:zoom="1.1255704"
     inkscape:cx="72.407734"
     inkscape:cy="123.93716"
     inkscape:window-width="1920"
     inkscape:window-height="1017"
     inkscape:window-x="-8"
     inkscape:window-y="-8"
     inkscape:window-maximized="1"
     inkscape:current-layer="layer1">
    <inkscape:grid
       id="grid1"
       units="px"
       originx="0"
       originy="0"
       spacingx="2"
       spacingy="2"
       empcolor="#0099e5"
       empopacity="0.30196078"
       color="#0099e5"
       opacity="0.14901961"
       empspacing="4"
       enabled="true"
       visible="true"
       dotted="false" />
  </sodipodi:namedview>
  <defs
     id="defs1">
    <clipPath
       clipPathUnits="userSpaceOnUse"
       id="clipPath2">
      <path
         d="M 0,600 H 600 V 0 H 0 Z"
         transform="translate(-549.58301,-443.18751)"
         id="path2" />
    </clipPath>
    <clipPath
       clipPathUnits="userSpaceOnUse"
       id="clipPath2-2">
      <path
         d="M 0,600 H 600 V 0 H 0 Z"
         transform="translate(-549.58301,-443.18751)"
         id="path2-4" />
    </clipPath>
    <clipPath
       clipPathUnits="userSpaceOnUse"
       id="clipPath4">
      <path
         d="M 0,600 H 600 V 0 H 0 Z"
         transform="translate(-185.4424,-305.55811)"
         id="path4" />
    </clipPath>
    <clipPath
       clipPathUnits="userSpaceOnUse"
       id="clipPath6">
      <path
         d="M 0,600 H 600 V 0 H 0 Z"
         transform="translate(-273.86131,-419.18261)"
         id="path6" />
    </clipPath>
    <clipPath
       clipPathUnits="userSpaceOnUse"
       id="clipPath8">
      <path
         d="M 0,600 H 600 V 0 H 0 Z"
         transform="translate(-358.76371,-216.26461)"
         id="path8" />
    </clipPath>
    <clipPath
       clipPathUnits="userSpaceOnUse"
       id="clipPath10">
      <path
         d="M 0,600 H 600 V 0 H 0 Z"
         transform="translate(-302.01861,-294.38961)"
         id="path10" />
    </clipPath>
    <clipPath
       clipPathUnits="userSpaceOnUse"
       id="clipPath12">
      <path
         d="M 0,600 H 600 V 0 H 0 Z"
         transform="translate(-358.82911,-120.56151)"
         id="path12" />
    </clipPath>
    <clipPath
       clipPathUnits="userSpaceOnUse"
       id="clipPath14">
      <path
         d="M 0,600 H 600 V 0 H 0 Z"
         transform="translate(-302.01861,-198.6768)"
         id="path14" />
    </clipPath>
    <clipPath
       clipPathUnits="userSpaceOnUse"
       id="clipPath16">
      <path
         d="M 0,600 H 600 V 0 H 0 Z"
         transform="translate(-416.57621,-305.55811)"
         id="path16" />
    </clipPath>
    <clipPath
       clipPathUnits="userSpaceOnUse"
       id="clipPath18">
      <path
         d="M 0,600 H 600 V 0 H 0 Z"
         transform="translate(-328.15621,-419.18261)"
         id="path18" />
    </clipPath>
  </defs>
  <g
     inkscape:label="Layer 1"
     inkscape:groupmode="layer"
     id="layer1">
    <path
       id="path1"
       clip-path="url(#clipPath2-2)"
       style="fill:#ffffff;fill-opacity:1;fill-rule:nonzero;stroke:none"
       d="M -353.23291 99.56215 C -373.69091 98.19815 -499.1665 -0.00035128125 -499.1665 -0.00035128125 C -477.3445 -76.375351 -418.69824 -117.29039 -418.69824 -117.29039 L -418.69824 -349.14586 C -418.69824 -349.14586 -381.87649 -385.96764 -249.58349 -385.96764 C -117.29049 -385.96764 -80.468746 -349.14586 -80.468746 -349.14586 L -80.468746 -117.29039 C -80.468746 -117.29039 -21.821483 -76.375351 -0.0004831875 -0.00035128125 C -0.0004831875 -0.00035128125 -125.47268 98.19815 -145.92968 99.56215 C -166.38768 100.92515 -175.93649 58.644669 -249.58349 58.644669 C -323.23049 58.644669 -332.77491 100.92515 -353.23291 99.56215 z M -275.72217 -24.003281 C -274.29817 -24.003281 -270.81131 -24.513957 -269.17431 -29.245957 C -266.93931 -35.706957 -266.55817 -55.44261 -268.32617 -73.23961 C -270.05417 -90.63461 -274.46481 -113.21812 -285.65381 -122.01012 C -300.91381 -134.00012 -341.74714 -140.62975 -364.14014 -140.62975 C -369.29314 -140.62975 -373.45574 -140.27545 -376.51074 -139.57945 C -384.22274 -137.82245 -385.37451 -133.40802 -385.37451 -130.93102 C -385.37451 -126.27302 -380.83929 -123.9153 -377.19629 -122.0233 C -374.15629 -120.4433 -369.91881 -118.50129 -364.23681 -116.08629 C -354.01481 -111.74029 -341.16842 -106.73622 -329.83642 -102.31822 C -321.84042 -99.201241 -314.75768 -96.438243 -310.34668 -94.588243 C -309.67268 -92.844243 -308.85053 -90.698989 -307.89453 -88.202989 C -304.03553 -78.126989 -298.20515 -62.9 -292.93115 -50.265 C -289.95815 -43.143 -287.55807 -37.787977 -285.60107 -33.890977 C -282.69307 -28.103977 -280.28417 -24.003281 -275.72217 -24.003281 z M -221.42773 -24.003281 C -216.86573 -24.003281 -214.45243 -28.103977 -211.54443 -33.890977 C -209.58743 -37.787977 -207.19175 -43.143 -204.21875 -50.265 C -198.94475 -62.9 -193.11437 -78.126989 -189.25537 -88.202989 C -188.29937 -90.698989 -187.47282 -92.844243 -186.79882 -94.588243 C -182.38882 -96.438243 -175.30847 -99.201235 -167.31347 -102.31822 C -155.98047 -106.73622 -143.13608 -111.74029 -132.91308 -116.08629 C -127.23108 -118.50129 -122.99021 -120.4433 -119.94921 -122.0233 C -116.30721 -123.9153 -111.77539 -126.27302 -111.77539 -130.93102 C -111.77539 -133.40802 -112.92716 -137.82245 -120.63916 -139.57945 C -123.69416 -140.27545 -127.85776 -140.62975 -133.00976 -140.62975 C -155.40276 -140.62975 -196.23709 -134.00012 -211.49609 -122.01012 C -222.68609 -113.21812 -227.09473 -90.63461 -228.82373 -73.23961 C -230.59073 -55.44261 -230.21058 -35.706957 -227.97558 -29.245957 C -226.33858 -24.513957 -222.85173 -24.003281 -221.42773 -24.003281 z M -249.58349 -148.79918 L -247.5664 -148.79918 C -241.7834 -148.79918 -238.93451 -154.67626 -237.99951 -156.60826 C -236.52151 -159.65926 -235.18953 -163.50534 -233.64453 -167.95934 C -230.43053 -177.22434 -226.02826 -189.91477 -219.71826 -194.12877 C -212.80626 -198.72877 -202.02625 -203.70208 -193.36425 -207.69908 C -188.89825 -209.76008 -185.04344 -211.53941 -182.12744 -213.06041 C -178.68844 -214.85441 -174.41064 -217.08535 -174.41064 -221.62535 C -174.41064 -223.43735 -175.1561 -227.80568 -182.0791 -229.23668 C -184.2771 -229.69268 -187.21782 -229.92223 -190.81982 -229.92223 C -199.35682 -229.92223 -210.49983 -228.65794 -219.90283 -226.62194 C -238.79983 -222.52894 -242.49124 -217.24672 -243.67724 -215.54772 C -245.51024 -212.96272 -247.14575 -210.43103 -248.57275 -207.74303 C -249.99675 -210.42403 -251.62429 -212.94795 -253.44629 -215.51695 C -254.65729 -217.25095 -258.34567 -222.52794 -277.24267 -226.62194 C -286.64667 -228.65794 -297.79308 -229.92223 -306.33008 -229.92223 C -309.93208 -229.92223 -312.8738 -229.69268 -315.0708 -229.23668 C -321.9928 -227.80568 -322.73926 -223.43735 -322.73926 -221.62535 C -322.73926 -217.08835 -318.46664 -214.8602 -315.03564 -213.0692 C -312.12864 -211.5522 -308.28598 -209.77706 -303.83398 -207.72106 C -295.16798 -203.71906 -284.38637 -198.73877 -277.48437 -194.12877 C -271.13237 -189.90277 -266.71758 -177.19818 -263.49658 -167.92418 C -261.95158 -163.47818 -260.6186 -159.64108 -259.1416 -156.59508 C -258.2066 -154.66708 -255.36149 -148.79918 -249.58349 -148.79918 z M -249.58349 -244.51207 L -247.5664 -244.51207 C -241.7834 -244.51207 -238.93451 -250.38915 -237.99951 -252.32115 C -236.52151 -255.37215 -235.18953 -259.21823 -233.64453 -263.67223 C -230.43053 -272.93823 -226.02826 -285.62666 -219.71826 -289.84166 C -212.80626 -294.44166 -202.02625 -299.41498 -193.36425 -303.41198 C -188.89825 -305.47298 -185.04344 -307.2523 -182.12744 -308.7733 C -178.68844 -310.5663 -174.41064 -312.79825 -174.41064 -317.33825 C -174.41064 -319.14825 -175.15513 -323.51418 -182.05713 -324.94518 C -184.24413 -325.39818 -187.1699 -325.62633 -190.7539 -325.62633 C -199.2789 -325.62633 -210.43228 -324.36164 -219.86328 -322.32164 C -238.78728 -318.22764 -242.48024 -312.969 -243.67724 -311.265 C -245.51024 -308.679 -247.14575 -306.14392 -248.57275 -303.45592 C -249.99875 -306.13992 -251.63008 -308.66464 -253.45508 -311.23864 C -254.66808 -312.96664 -258.35722 -318.22325 -277.28222 -322.31725 C -286.71222 -324.35725 -297.8676 -325.62633 -306.3916 -325.62633 C -309.9776 -325.62633 -312.90677 -325.39818 -315.09277 -324.94518 C -321.99477 -323.51418 -322.73926 -319.14925 -322.73926 -317.33825 C -322.73926 -312.80125 -318.46664 -310.57409 -315.03564 -308.78209 C -312.12864 -307.26509 -308.28598 -305.48995 -303.83398 -303.43395 C -295.16798 -299.43295 -284.38637 -294.45166 -277.48437 -289.84166 C -271.13237 -285.61466 -266.71758 -272.91207 -263.49658 -263.63707 C -261.95158 -259.19107 -260.6186 -255.35497 -259.1416 -252.30797 C -258.2066 -250.37997 -255.36149 -244.51207 -249.58349 -244.51207 z "
       transform="matrix(0.11111111,0,0,-0.11111111,59.731499,16.090293)" />
  </g>
</svg>
