<?xml version="1.0" encoding="UTF-8" standalone="no"?>
<!-- Created with Inkscape (http://www.inkscape.org/) -->

<svg
   width="512"
   height="512"
   viewBox="0 0 512 512"
   version="1.1"
   id="svg5"
   inkscape:version="1.4 (86a8ad7, 2024-10-11)"
   xml:space="preserve"
   sodipodi:docname="Feet.svg"
   xmlns:inkscape="http://www.inkscape.org/namespaces/inkscape"
   xmlns:sodipodi="http://sodipodi.sourceforge.net/DTD/sodipodi-0.dtd"
   xmlns="http://www.w3.org/2000/svg"
   xmlns:svg="http://www.w3.org/2000/svg"><sodipodi:namedview
     id="namedview7"
     pagecolor="#505050"
     bordercolor="#ffffff"
     borderopacity="1"
     inkscape:showpageshadow="0"
     inkscape:pageopacity="0"
     inkscape:pagecheckerboard="1"
     inkscape:deskcolor="#505050"
     inkscape:document-units="px"
     showgrid="true"
     inkscape:lockguides="true"
     inkscape:zoom="0.57245265"
     inkscape:cx="37.557691"
     inkscape:cy="282.1194"
     inkscape:window-width="3840"
     inkscape:window-height="2054"
     inkscape:window-x="2869"
     inkscape:window-y="-11"
     inkscape:window-maximized="1"
     inkscape:current-layer="layer1"><inkscape:grid
       type="xygrid"
       id="grid234"
       empspacing="4"
       originx="0"
       originy="0"
       spacingy="1"
       spacingx="1"
       units="px" /></sodipodi:namedview><defs
     id="defs2" /><g
     inkscape:label="Layer 1"
     inkscape:groupmode="layer"
     id="layer1"><path
       d="m 415.04059,345.77676 q 12.7778,9.44444 17.22225,29.72221 4.44444,20.27776 -3.33334,35.83331 -20.55558,12.77776 -70.00009,26.38887 -49.4445,13.6111 -105.55568,12.49999 -31.6667,-18.33333 -61.66674,-17.22221 -15.00001,1.11111 -28.33336,12.22222 -7.22223,-1.66667 -34.44449,-6.66667 -27.22226,-5 -32.777821,-8.33332 -2.22222,-1.11111 -2.22222,-3.88889 -4.44445,-34.44443 -2.77778,-51.66664 1.11111,-9.99999 13.611131,-57.22218 12.50001,-47.2222 12.50001,-48.33331 1.11111,-12.77777 -5.55556,-59.99996 -6.66667,-47.2222 -8.33334,-54.44441 -1.11112,-3.33334 -24.444481,-44.99998 -2.22222,-3.88888 1.66667,-5.55555 8.8889,-4.999998 21.388911,-9.444438 12.50002,-4.44444 20.27781,-6.66666 l 7.77778,-1.66667 q -3.33333,-8.88888 -5.55556,-15.55554 -1.11111,-3.88889 2.77778,-4.44445 87.77788,-14.44443 150.00018,16.11111 4.44445,1.66666 2.77778,6.11111 -6.66667,14.999988 -12.77779,46.666628 l -48.88895,-4.44444 q -4.44445,0 -8.33334,2.22222 -6.11112,3.88889 -6.11112,10.55555 -0.55556,6.11111 3.33334,10.27777 3.88889,4.16667 9.44445,4.72222 l 45.55561,4.44444 q -4.44445,27.77776 -5,46.66664 l -40.00005,-4.44444 q -4.44445,0 -8.33334,2.22222 -6.11112,3.88889 -6.66668,11.11111 0,5.55555 3.61112,9.99999 3.61111,4.44444 9.72223,4.44444 l 43.33339,4.44444 q 0,17.22221 4.72222,31.66665 4.72223,14.44444 13.33335,29.99999 8.61112,15.55554 11.38891,22.77776 5,3.33333 36.38893,12.22221 31.38892,8.88889 48.05561,15.55555 34.44448,-3.33334 42.22227,-3.88889 z"
       id="path1"
       style="stroke-width:0.555556;fill:#ffffff" /></g></svg>
