<?xml version="1.0" encoding="UTF-8" standalone="no"?>
<!-- Created with Inkscape (http://www.inkscape.org/) -->

<svg
   width="256"
   height="256"
   viewBox="0 0 64 64"
   version="1.1"
   id="svg1"
   inkscape:version="1.4 (86a8ad7, 2024-10-11)"
   sodipodi:docname="Head.svg"
   xmlns:inkscape="http://www.inkscape.org/namespaces/inkscape"
   xmlns:sodipodi="http://sodipodi.sourceforge.net/DTD/sodipodi-0.dtd"
   xmlns="http://www.w3.org/2000/svg"
   xmlns:svg="http://www.w3.org/2000/svg">
  <sodipodi:namedview
     id="namedview1"
     pagecolor="#505050"
     bordercolor="#eeeeee"
     borderopacity="1"
     inkscape:showpageshadow="0"
     inkscape:pageopacity="0"
     inkscape:pagecheckerboard="0"
     inkscape:deskcolor="#505050"
     inkscape:document-units="px"
     showgrid="true"
     inkscape:zoom="1.5917969"
     inkscape:cx="67.847853"
     inkscape:cy="128.47117"
     inkscape:window-width="1920"
     inkscape:window-height="1017"
     inkscape:window-x="-8"
     inkscape:window-y="-8"
     inkscape:window-maximized="1"
     inkscape:current-layer="layer1">
    <inkscape:grid
       id="grid1"
       units="px"
       originx="0"
       originy="0"
       spacingx="2"
       spacingy="2"
       empcolor="#0099e5"
       empopacity="0.30196078"
       color="#0099e5"
       opacity="0.14901961"
       empspacing="4"
       enabled="true"
       visible="true"
       dotted="false" />
  </sodipodi:namedview>
  <defs
     id="defs1">
    <clipPath
       clipPathUnits="userSpaceOnUse"
       id="clipPath20">
      <path
         d="M 0,600 H 600 V 0 H 0 Z"
         transform="translate(-408.46554,-457.81741)"
         id="path20" />
    </clipPath>
  </defs>
  <g
     inkscape:label="Layer 1"
     inkscape:groupmode="layer"
     id="layer1">
    <path
       id="path19"
       d="m 0,0 c -22.434,22.434 -56.479,34.854 -85.371,39.28 -6.493,25.291 -19.694,45.683 -23.781,45.683 -4.088,0 -16.54,-20.438 -22.641,-45.718 -28.842,-4.457 -62.765,-16.872 -85.138,-39.245 -50.231,-50.231 -49.426,-84.813 -49.426,-294.878 42.561,-70.022 72.404,-105.72 72.404,-105.72 0,0 34.637,102.145 22.279,184.524 -10.779,7.186 -27.416,7.33 -37.63,14.124 -5.396,3.59 -9,16.91 -9,16.91 0,0 46.45,20.988 93.131,19.615 v -137.637 c 0,0 2.978,-9.612 16.707,-9.612 13.73,0 16.707,9.612 16.707,9.612 v 137.637 c 46.682,1.373 93.132,-19.615 93.132,-19.615 0,0 -4.228,-12.816 -10.383,-16.91 -10.282,-6.84 -25.941,-7.254 -36.248,-14.124 -12.356,-82.379 22.279,-184.524 22.279,-184.524 0,0 29.843,35.698 72.406,105.72 C 49.427,-84.813 50.23,-50.231 0,0"
       style="fill:#ffffff;fill-opacity:1;fill-rule:nonzero;stroke:none"
       transform="matrix(0.11111101,0,0,-0.11111117,44.051656,14.464713)"
       clip-path="url(#clipPath20)" />
  </g>
</svg>
