<?xml version="1.0" encoding="UTF-8" standalone="no"?>
<!-- Created with Inkscape (http://www.inkscape.org/) -->

<svg
   width="512"
   height="512"
   viewBox="0 0 512 512"
   version="1.1"
   id="svg5"
   inkscape:version="1.4 (86a8ad7, 2024-10-11)"
   xml:space="preserve"
   sodipodi:docname="OneHand.svg"
   xmlns:inkscape="http://www.inkscape.org/namespaces/inkscape"
   xmlns:sodipodi="http://sodipodi.sourceforge.net/DTD/sodipodi-0.dtd"
   xmlns="http://www.w3.org/2000/svg"
   xmlns:svg="http://www.w3.org/2000/svg"><sodipodi:namedview
     id="namedview7"
     pagecolor="#505050"
     bordercolor="#ffffff"
     borderopacity="1"
     inkscape:showpageshadow="0"
     inkscape:pageopacity="0"
     inkscape:pagecheckerboard="1"
     inkscape:deskcolor="#505050"
     inkscape:document-units="px"
     showgrid="true"
     inkscape:lockguides="true"
     inkscape:zoom="1.6191406"
     inkscape:cx="179.41617"
     inkscape:cy="239.9421"
     inkscape:window-width="3840"
     inkscape:window-height="2054"
     inkscape:window-x="2869"
     inkscape:window-y="-11"
     inkscape:window-maximized="1"
     inkscape:current-layer="layer1"><inkscape:grid
       type="xygrid"
       id="grid234"
       empspacing="4"
       originx="0"
       originy="0"
       spacingy="1"
       spacingx="1"
       units="px" /></sodipodi:namedview><defs
     id="defs2" /><g
     inkscape:label="Layer 1"
     inkscape:groupmode="layer"
     id="layer1"><path
       d="m 438.34864,241.83334 q 3.33333,3.88889 3.61111,8.88889 0.27778,4.99999 -2.5,7.77777 0,0.55556 -4.44443,8.88889 -4.44444,8.33333 -9.7222,15.83333 -5.27778,7.49999 -10.55554,10.27777 -5.27777,2.77777 -43.88881,29.44444 -38.61104,26.66666 -44.72214,29.44443 -4.99999,2.22223 -28.88883,5.55556 -23.88885,3.33333 -26.11106,6.1111 -2.22222,2.77778 -24.99996,23.88889 -22.77773,21.1111 -44.44436,41.1111 l -21.11107,19.99999 q -26.11106,-14.44444 -53.33324,-42.77777 l 17.77775,-23.33332 19.99997,-26.1111 q 1.11111,-1.11111 0.27777,-1.94445 -0.83333,-0.83333 -1.94444,-0.83333 l -2.22222,1.11111 -59.44433,20.55555 Q 81.12709,347.38886 70.016,316.27776 q 99.44426,-59.44443 103.33314,-71.11109 1.11111,-3.33333 1.94444,-8.88889 0.83333,-5.55555 1.38888,-11.1111 0.55556,-5.55556 1.11111,-10.83333 0.55556,-5.27778 0.55556,-8.05556 v -3.33333 q -6.66665,-34.44443 3.88888,-52.22221 4.99999,-7.77777 15.27775,-16.94444 10.27776,-9.16666 18.05552,-14.16666 l 8.33332,-5.55555 13.33331,4.44444 28.33328,11.11111 q -33.33327,19.99999 -34.72216,21.38888 -1.38888,1.38889 1.94444,8.33333 3.33333,6.94445 7.77777,6.94445 3.88888,0.55555 38.33326,-20.55555 15.55552,20.55555 24.72217,40.55554 9.16665,19.99999 10.83332,28.33333 1.66666,8.33333 1.66666,13.88888 0,10.55555 -39.99992,18.88888 -8.88888,2.22222 -21.11108,-10.55555 -12.2222,-12.77777 -19.99996,-26.66666 l -7.77776,-13.33333 q -2.22222,0.55556 -4.99999,1.66667 -2.77777,1.11111 -6.94443,5 -4.16666,3.88888 -2.5,7.22222 23.88885,47.22221 50.55546,59.44442 8.88887,3.88889 41.66659,-8.33333 32.77772,-12.22222 32.77772,-26.1111 0.55555,-27.77777 -21.11107,-67.77776 -21.66663,-39.99999 -31.66661,-47.77776 -8.33332,-6.66667 -31.66661,-15 6.1111,-6.111108 12.77775,-12.222218 6.1111,-6.1111 11.66665,-11.1111 17.22219,-16.11111 21.66663,-17.77778 6.66665,-2.77778 23.33329,1.38889 16.66663,4.16667 22.77773,8.61111 3.33333,2.22222 5.55555,12.77778 2.22221,10.55555 2.77777,19.999988 l 0.55555,9.44444 q 2.22222,-1.11111 5.27777,-1.94444 3.05555,-0.83334 10.27776,-2.5 7.22221,-1.66667 8.33332,0.55555 5.55555,3.33333 16.94441,13.05555 11.38887,9.72222 12.49998,13.61111 0,2.77778 -0.83333,11.38889 -0.83334,8.61111 -1.94445,15.83333 l -1.11111,7.22222 q 9.99999,1.11111 13.88887,3.88888 3.33332,2.77778 8.33332,12.77778 4.99999,9.99999 6.1111,14.44444 0.55555,2.22222 -1.94445,9.16666 -2.5,6.94444 -5.27776,13.05555 l -2.22222,5.55556 q 13.3333,7.22222 15.55552,9.44444 z"
       id="path1"
       style="stroke-width:0.555556;fill:#ffffff" /></g></svg>
