<?xml version="1.0" encoding="UTF-8" standalone="no"?>
<!-- Created with Inkscape (http://www.inkscape.org/) -->

<svg
   width="512"
   height="512"
   viewBox="0 0 512 512"
   version="1.1"
   id="svg5"
   inkscape:version="1.4 (86a8ad7, 2024-10-11)"
   xml:space="preserve"
   sodipodi:docname="Small.svg"
   xmlns:inkscape="http://www.inkscape.org/namespaces/inkscape"
   xmlns:sodipodi="http://sodipodi.sourceforge.net/DTD/sodipodi-0.dtd"
   xmlns="http://www.w3.org/2000/svg"
   xmlns:svg="http://www.w3.org/2000/svg"><sodipodi:namedview
     id="namedview7"
     pagecolor="#505050"
     bordercolor="#ffffff"
     borderopacity="1"
     inkscape:showpageshadow="0"
     inkscape:pageopacity="0"
     inkscape:pagecheckerboard="1"
     inkscape:deskcolor="#505050"
     inkscape:document-units="px"
     showgrid="true"
     inkscape:lockguides="true"
     inkscape:zoom="0.57245265"
     inkscape:cx="472.52816"
     inkscape:cy="876.05499"
     inkscape:window-width="3840"
     inkscape:window-height="2054"
     inkscape:window-x="2869"
     inkscape:window-y="-11"
     inkscape:window-maximized="1"
     inkscape:current-layer="layer1"><inkscape:grid
       type="xygrid"
       id="grid234"
       empspacing="4"
       originx="0"
       originy="0"
       spacingy="1"
       spacingx="1"
       units="px" /></sodipodi:namedview><defs
     id="defs2" /><g
     inkscape:label="Layer 1"
     inkscape:groupmode="layer"
     id="layer1"><path
       d="m 385.45126,219.65085 q 36.66664,49.44449 46.11108,110.27788 9.44444,60.8334 -17.77777,95.27788 -12.22221,14.44446 -28.05553,20.00003 -15.83333,5.55555 -27.77776,4.44444 -11.94444,-1.11111 -30.55554,-4.16667 -18.6111,-3.05556 -29.16665,-3.05556 -11.1111,0 -36.94442,4.16667 -25.83332,4.16667 -46.94442,3.05556 -21.11109,-1.11111 -40.55552,-11.66668 -22.22222,-11.66667 -34.72221,-28.33336 -12.49999,-16.66668 -15.27777,-32.77781 -2.77778,-16.11113 -0.55555,-33.88892 2.22222,-17.7778 6.38888,-29.44447 4.16667,-11.66669 9.72222,-22.22225 3.33333,-6.11112 10.27777,-16.38891 6.94444,-10.27779 11.38888,-19.72224 4.44445,-9.44445 6.66667,-20.00002 -17.22222,-3.88889 -34.44443,4.44445 -17.2222,8.33334 -37.222203,28.88892 -11.11111,-8.8889 -15.83332,-27.77781 -4.72222,-18.88891 0.83334,-28.88892 7.22221,-13.33335 32.222203,-16.94446 24.99998,-3.61111 52.77774,-1.38889 -18.33332,-21.11113 -26.94443,-41.11115 -8.6111,-20.00002 -7.77777,-35.00004 0.83333,-15.00001 10.27777,-25.555578 4.44445,-5.00001 9.44444,-6.11112 4.99999,-1.11111 11.1111,1.11111 6.11111,2.22223 11.38889,5.00001 5.27777,2.77778 13.33332,7.77779 8.05555,4.999998 12.49999,7.222218 14.44443,7.77779 29.16665,11.38891 14.72221,3.61111 20.27776,3.05555 5,-0.55555 30.55554,-25.277798 25.55554,-24.72225 38.88887,-31.38892 12.22221,-6.11112 21.38887,2.5 9.16667,8.61112 10.27777,23.33336 1.11112,14.722238 -3.33333,29.166698 10,4.44444 16.94444,3.61111 6.94444,-0.83333 17.49999,-2.77778 10.55555,-1.94445 16.66665,-1.38889 10,1.66667 12.22222,12.22223 2.22222,12.22224 -1.94445,25.83336 -4.16666,13.61113 -9.16666,21.66669 -4.99999,8.05557 -13.33332,19.16669 -7.77777,11.11112 0,21.66669 z m -23.88887,1.66667 q 1.66666,-7.22223 -2.77778,-17.22224 -17.77777,-3.33334 -57.22219,1.94444 -39.44442,5.27779 -62.22218,0.83334 -38.88886,-7.22223 -52.77775,-6.66668 -2.77778,7.22223 -3.05555,15.55557 -0.27778,8.33335 0.27777,12.7778 l 1.11111,5 q 54.44442,6.11112 78.33329,6.66667 19.44443,0 51.38886,-8.61112 31.94442,-8.61112 46.94442,-10.27778 z"
       id="path1"
       style="fill:#ffffff;stroke-width:0.555556" /></g></svg>
