<?xml version="1.0" encoding="UTF-8" standalone="no"?>
<!-- Created with Inkscape (http://www.inkscape.org/) -->

<svg
   width="512"
   height="512"
   viewBox="0 0 512 512"
   version="1.1"
   id="svg5"
   inkscape:version="1.4 (86a8ad7, 2024-10-11)"
   xml:space="preserve"
   sodipodi:docname="TwoHands.svg"
   xmlns:inkscape="http://www.inkscape.org/namespaces/inkscape"
   xmlns:sodipodi="http://sodipodi.sourceforge.net/DTD/sodipodi-0.dtd"
   xmlns="http://www.w3.org/2000/svg"
   xmlns:svg="http://www.w3.org/2000/svg"><sodipodi:namedview
     id="namedview7"
     pagecolor="#505050"
     bordercolor="#ffffff"
     borderopacity="1"
     inkscape:showpageshadow="0"
     inkscape:pageopacity="0"
     inkscape:pagecheckerboard="1"
     inkscape:deskcolor="#505050"
     inkscape:document-units="px"
     showgrid="true"
     inkscape:lockguides="true"
     inkscape:zoom="0.8095703"
     inkscape:cx="363.77323"
     inkscape:cy="-88.318457"
     inkscape:window-width="3840"
     inkscape:window-height="2054"
     inkscape:window-x="2869"
     inkscape:window-y="-11"
     inkscape:window-maximized="1"
     inkscape:current-layer="layer1"><inkscape:grid
       type="xygrid"
       id="grid234"
       empspacing="4"
       originx="0"
       originy="0"
       spacingy="1"
       spacingx="1"
       units="px" /></sodipodi:namedview><defs
     id="defs2"><rect
       x="79"
       y="81"
       width="136"
       height="107"
       id="rect2" /><rect
       x="88"
       y="88"
       width="312"
       height="312"
       id="rect1" /></defs><g
     inkscape:label="Layer 1"
     inkscape:groupmode="layer"
     id="layer1"><text
       xml:space="preserve"
       id="text1"
       style="fill:#ffffff;text-orientation:auto;stroke-width:10;text-align:start;writing-mode:lr-tb;direction:ltr;white-space:pre;shape-inside:url(#rect1);-inkscape-font-specification:'FH Basic';font-family:'FH Basic';font-weight:normal;font-style:normal;font-stretch:normal;font-variant:normal" /><path
       d="m 476.72185,252.65637 c -2.78648,-2.78636 -15.04698,-9.47362 -15.04698,-9.47362 0,0 10.03132,-21.73359 8.91673,-26.19177 -1.11459,-4.45817 -8.91673,-21.73359 -13.93239,-26.19177 -3.90107,-2.78636 -12.8178,-3.9009 -12.8178,-3.9009 0,0 4.45837,-26.74904 3.34378,-32.32176 -1.11459,-5.57271 -23.40642,-22.84814 -27.86479,-25.63449 -5.01566,-2.78636 -22.84911,3.34363 -22.84911,3.34363 0,0 -1.67189,-35.108121 -8.35943,-40.123566 -6.13026,-4.458174 -34.55233,-12.817249 -44.02635,-9.473619 -1.67189,0.557272 -4.45837,2.786358 -7.80214,5.572717 0.55729,0.557272 1.11459,0.557272 1.11459,0.557272 4.45836,2.786358 12.2605,8.916347 18.94805,14.489066 13.3751,11.14543 18.94804,18.94723 20.06264,27.86358 0.55729,1.67182 1.11459,6.12999 -0.5573,20.61905 0.5573,0.55728 1.11459,0.55728 1.67189,1.11455 3.34377,2.78636 8.35943,7.8018 15.04698,20.61905 1.67189,3.9009 6.13025,12.81725 7.24485,19.50451 1.11459,5.57272 0.55729,11.7027 -2.78648,21.17632 1.11459,0.55728 1.67188,1.11455 2.22918,1.67182 0,0.55727 0.5573,1.11454 1.11459,1.11454 11.14591,12.81725 12.2605,31.76449 3.34378,45.13901 -0.5573,1.11454 -1.67189,2.22909 -2.22919,3.34363 -7.80214,15.04633 -16.71887,30.64994 -30.65125,37.89447 -4.45837,2.22909 -21.73453,14.48907 -34.55233,23.40541 -30.09396,20.61906 -44.02635,30.09268 -51.82848,33.43631 -7.80214,3.34363 -18.39076,4.45817 -30.65126,6.12998 -5.01566,1.11455 -12.2605,1.67182 -16.71887,2.78636 -1.67188,1.67182 -4.45836,4.45818 -8.35943,8.35908 -10.58862,9.47362 -26.75018,24.51995 -41.23987,38.45174 23.40642,22.29087 43.46905,33.43631 43.46905,33.43631 0,0 81.36515,-74.67441 85.82352,-80.24713 5.01566,-5.57271 41.23987,-6.68726 52.94308,-11.7027 11.1459,-4.45818 73.00571,-50.15445 84.15162,-56.28444 11.14591,-5.57272 21.17723,-28.97813 23.96371,-32.87903 2.78648,-3.9009 3.34378,-11.14544 -1.11459,-15.60361 z m -253.56948,96.96527 c 4.45837,-5.57271 41.23987,-6.68726 52.38579,-11.14543 11.14591,-5.01545 73.00571,-50.71172 84.70892,-56.28444 11.14591,-5.57272 20.61993,-29.5354 23.40641,-33.4363 2.78648,-3.34363 3.34377,-10.58816 -1.11459,-15.60361 -2.22918,-2.78636 -15.04697,-9.47362 -15.04697,-9.47362 0,0 10.03131,-21.17632 8.91672,-26.19177 -0.5573,-4.45817 -8.35943,-21.73359 -13.37509,-25.63449 -3.90107,-3.34364 -13.3751,-4.45818 -13.3751,-4.45818 0,0 4.45837,-26.74904 3.34378,-32.32176 -0.5573,-5.57271 -22.84912,-22.84814 -27.86478,-25.63449 -0.55729,-0.55728 -1.67188,-0.55728 -3.34377,-0.55728 -2.78648,0 -6.13025,0.55728 -9.47403,1.11455 -5.01566,1.67181 -9.47402,3.34363 -9.47402,3.34363 0,0 0,-3.9009 -0.5573,-8.91635 -0.5573,-3.34363 -1.11459,-7.244531 -1.67189,-11.145433 0,-0.557272 0,-1.114543 0,-1.114543 0,-0.557272 0,-1.114544 0,-1.671815 -0.55729,-0.557272 -0.55729,-1.114544 -0.55729,-2.229087 0,-0.557272 0,-1.114543 -0.5573,-1.671815 0,0 0,-0.557272 0,-0.557272 0,-0.557272 0,-1.114543 0,-1.671815 -0.55729,-0.557272 -0.55729,-1.114543 -0.55729,-1.671815 -1.1146,-5.015445 -2.78648,-8.359075 -4.45837,-10.03089 -5.57295,-3.900902 -25.63559,-10.030891 -37.8961,-10.030891 -2.22918,0 -4.45835,0 -6.13024,1.114544 -9.47403,3.34363 -57.40145,52.383542 -57.40145,52.383542 l -15.04698,-5.01545 c 0,0 -28.97937,17.8327 -39.56798,35.10812 -10.03132,16.71815 -3.34377,49.59718 -3.34377,49.59718 0,0 -1.11459,28.97813 -5.01566,40.12356 -3.90107,11.14543 -98.084019,67.42987 -98.084019,67.42987 7.244842,21.7336 17.833458,40.68084 29.536663,56.84172 l 24.521004,28.97812 c 26.192892,27.30632 50.713892,41.23811 50.713892,41.23811 0,0 16.16157,-15.04634 34.55233,-32.32176 14.48968,-13.37452 30.65126,-28.42086 40.68258,-37.89447 6.13024,-5.57272 10.03131,-9.47362 11.1459,-10.58817 z M 226.49615,108.323 c 2.22918,-3.9009 7.80214,-5.01544 11.70321,-2.22908 0.55729,0 20.61993,13.37452 45.14094,37.3372 22.84911,22.84814 53.50036,59.62807 73.00571,108.11071 1.67189,4.45817 -0.55729,9.47362 -5.01566,11.14543 -1.11459,0 -2.22918,0.55727 -3.34377,0.55727 -3.34378,0 -6.13026,-2.22908 -7.80214,-5.57271 -17.83346,-45.69628 -46.81283,-80.24713 -68.54735,-101.42345 -23.40641,-23.40541 -42.35447,-36.22266 -42.91176,-36.22266 -3.90107,-2.22909 -5.01566,-7.80181 -2.22918,-11.70271 z"
       id="text2"
       style="font-family:'FH Basic';-inkscape-font-specification:'FH Basic';white-space:pre;fill:#ffffff;stroke-width:464.403"
       aria-label="h" /></g></svg>
