<?xml version="1.0" encoding="UTF-8" standalone="no"?>
<!-- Created with Inkscape (http://www.inkscape.org/) -->

<svg
   width="256"
   height="256"
   viewBox="0 0 64 64"
   version="1.1"
   id="svg1"
   inkscape:version="1.4 (86a8ad7, 2024-10-11)"
   sodipodi:docname="TwoHands.svg"
   xmlns:inkscape="http://www.inkscape.org/namespaces/inkscape"
   xmlns:sodipodi="http://sodipodi.sourceforge.net/DTD/sodipodi-0.dtd"
   xmlns="http://www.w3.org/2000/svg"
   xmlns:svg="http://www.w3.org/2000/svg">
  <sodipodi:namedview
     id="namedview1"
     pagecolor="#505050"
     bordercolor="#eeeeee"
     borderopacity="1"
     inkscape:showpageshadow="0"
     inkscape:pageopacity="0"
     inkscape:pagecheckerboard="0"
     inkscape:deskcolor="#505050"
     inkscape:document-units="px"
     showgrid="true"
     inkscape:zoom="2.2511407"
     inkscape:cx="144.59336"
     inkscape:cy="134.37632"
     inkscape:window-width="1920"
     inkscape:window-height="1017"
     inkscape:window-x="-8"
     inkscape:window-y="-8"
     inkscape:window-maximized="1"
     inkscape:current-layer="layer1">
    <inkscape:grid
       id="grid1"
       units="px"
       originx="0"
       originy="0"
       spacingx="2"
       spacingy="2"
       empcolor="#0099e5"
       empopacity="0.30196078"
       color="#0099e5"
       opacity="0.14901961"
       empspacing="4"
       enabled="true"
       visible="true"
       dotted="false" />
  </sodipodi:namedview>
  <defs
     id="defs1">
    <clipPath
       clipPathUnits="userSpaceOnUse"
       id="clipPath34">
      <path
         d="M 0,600 H 600 V 0 H 0 Z"
         transform="translate(-561.68919,-285.53961)"
         id="path34" />
    </clipPath>
    <clipPath
       clipPathUnits="userSpaceOnUse"
       id="clipPath36">
      <path
         d="M 0,600 H 600 V 0 H 0 Z"
         transform="translate(-354.67943,-478.48011)"
         id="path36" />
    </clipPath>
    <clipPath
       clipPathUnits="userSpaceOnUse"
       id="clipPath38">
      <path
         d="M 0,600 H 600 V 0 H 0 Z"
         transform="translate(-450.97921,-308.38051)"
         id="path38" />
    </clipPath>
    <clipPath
       clipPathUnits="userSpaceOnUse"
       id="clipPath40">
      <path
         d="M 0,600 H 600 V 0 H 0 Z"
         transform="translate(-273.63743,-468.70961)"
         id="path40" />
    </clipPath>
  </defs>
  <g
     inkscape:label="Layer 1"
     inkscape:groupmode="layer"
     id="layer1">
    <path
       id="path33"
       d="m 0,0 c -3.311,-4.43 -14.811,-32.35 -28.08,-38.98 -13.28,-6.639 -86.26,-60.83 -99.53,-66.35 -13.27,-5.529 -56.4,-6.65 -61.92,-13.279 -5.531,-6.63 -101.741,-95.09 -101.741,-95.09 0,0 -23.569,13.38 -51.159,39.699 17.39,16.091 36.47,33.83 48.71,45.44 4.74,4.5 7.89,7.54 10.03,9.651 4.99,1.069 13.93,2.279 19.72,3.059 14.56,1.96 27.14,3.651 36.409,7.52 9.061,3.761 25.441,14.95 60.671,39.591 15.1,10.559 35.78,25.019 40.66,27.58 16.72,8.389 27.24,26.489 36.58,44.319 0.68,1.3 1.57,3.01 2.04,3.851 11.13,15.8 9.56,38.54 -3.85,53.38 -0.351,0.389 -0.77,0.849 -1.33,1.41 -0.57,0.559 -1.28,1.22 -2.2,1.979 3.84,11.05 4.679,18.151 3.27,25.14 -1.56,7.79 -6.62,18.4 -8.73,22.601 -7.84,15.66 -13.97,21.509 -17.89,24.549 -0.54,0.42 -1.09,0.821 -1.65,1.201 2.02,17.219 1.179,22.269 0.8,24.54 -1.78,10.549 -8.35,19.49 -24.27,33.03 -7.7,6.559 -17.04,13.619 -21.78,16.47 -0.5,0.299 -1.01,0.589 -1.531,0.87 4.111,3.37 7.381,5.729 9.301,6.5 11.06,4.429 44.24,-5.531 51.98,-11.061 7.74,-5.529 9.96,-47.55 9.96,-47.55 0,0 21,7.75 26.54,4.43 5.52,-3.319 31.78,-23.51 32.9,-30.14 1.1,-6.639 -4.15,-38.44 -4.15,-38.44 0,0 10.99,-1.369 15.469,-4.84 C -18.74,86.42 -9.561,66.07 -8.45,60.54 -7.34,55 -19.22,29.57 -19.22,29.57 c 0,0 15.01,-7.82 17.68,-10.78 C 3.72,12.99 3.32,4.431 0,0"
       style="fill:#ffffff;fill-opacity:1;fill-rule:nonzero;stroke:none"
       transform="matrix(0.11111121,0,0,-0.11111089,61.076592,33.606713)"
       clip-path="url(#clipPath34)" />
    <path
       id="path35"
       d="M 0,0 C 0.54,-5.87 0.76,-10.03 0.76,-10.03 H 0.77 C 0.77,-10.03 0.55,-5.87 0,0"
       style="fill:#ffffff;fill-opacity:1;fill-rule:nonzero;stroke:none"
       transform="matrix(0.11111121,0,0,-0.11111089,38.075487,12.16892)"
       clip-path="url(#clipPath36)" />
    <path
       id="path37"
       clip-path="url(#clipPath38)"
       style="fill:#ffffff;fill-opacity:1;fill-rule:nonzero;stroke:none"
       d="M -149.95079 219.77967 C -152.97079 219.77967 -155.54983 219.45003 -157.46983 218.68103 C -168.52083 214.26103 -224.92143 156.74878 -224.92143 156.74878 L -242.61819 162.27711 C -242.61819 162.27711 -276.90835 141.28052 -289.06835 121.38152 C -301.22835 101.47152 -293.49803 62.749568 -293.49803 62.749568 C -293.49803 62.749568 -294.58877 28.478434 -299.00877 15.209434 C -303.44877 1.938434 -415.12976 -64.410842 -415.12976 -64.410842 C -406.23976 -89.910842 -393.65125 -112.22058 -379.88125 -131.26058 L -351.03997 -165.45889 C -319.93997 -197.41989 -291.27 -213.70215 -291.27 -213.70215 C -291.27 -213.70215 -272.22108 -196.18202 -250.58108 -176.14202 C -233.34108 -160.18202 -214.47083 -142.63141 -202.28083 -131.08041 C -195.39083 -124.55141 -190.64109 -119.92991 -189.54109 -118.59991 C -184.01109 -111.96991 -140.87781 -110.8494 -127.61781 -105.3284 C -114.34881 -99.809404 -41.360551 -45.609639 -28.090551 -38.979639 C -14.820551 -32.340639 -3.3207324 -4.4310689 -0.00073237435 -6.8906387e-05 C 3.3192676 4.4299311 3.7111831 12.999773 -1.5388169 18.799773 C -4.2088169 21.759773 -19.231184 29.57958 -19.231184 29.57958 C -19.231184 29.57958 -7.3401975 55.009114 -8.4601975 60.539114 C -9.5611975 66.068114 -18.751683 86.419956 -24.772683 91.089956 C -29.261683 94.559956 -40.250208 95.928345 -40.250208 95.928345 C -40.250208 95.928345 -34.990774 127.7286 -36.101774 134.3586 C -37.220774 140.9996 -63.469206 161.18975 -68.999206 164.50075 C -69.969206 165.09075 -71.429613 165.32692 -73.169613 165.32692 C -76.339613 165.32692 -80.449189 164.53053 -84.270189 163.55153 C -90.249189 162.03053 -95.528968 160.07105 -95.528968 160.07105 C -95.528968 160.07105 -95.74801 164.22839 -96.29801 170.09939 C -96.66801 174.11839 -97.192012 178.93959 -97.902012 183.77959 C -97.952012 184.15959 -98.009004 184.55096 -98.069004 184.93096 C -98.169004 185.63096 -98.278594 186.32716 -98.398594 187.02716 C -98.508594 187.72716 -98.628945 188.42996 -98.758945 189.11896 C -98.878945 189.80996 -99.001269 190.49021 -99.141269 191.17121 C -99.201269 191.50121 -99.270023 191.83877 -99.339023 192.16877 C -99.469023 192.83877 -99.610897 193.50192 -99.760897 194.14192 C -99.900897 194.79192 -100.05035 195.42036 -100.20035 196.04036 C -101.58035 201.63036 -103.31236 206.06776 -105.49136 207.62876 C -111.89136 212.19776 -135.65079 219.77967 -149.95079 219.77967 z M -175.57528 170.1697 A 10 10 0 0 0 -171.94101 168.74587 C -171.94101 168.74587 -76.267928 107.72758 -32.717988 -2.9619889 A 10 10 0 0 0 -38.360562 -15.930276 A 10 10 0 0 0 -51.328812 -10.283292 C -92.132869 93.427144 -182.74276 151.91478 -182.74276 151.91478 A 10 10 0 0 0 -185.7574 165.73122 A 10 10 0 0 0 -175.57528 170.1697 z "
       transform="matrix(0.11111121,0,0,-0.11111089,48.775472,31.06884)" />
  </g>
</svg>
