<?xml version="1.0" encoding="UTF-8" standalone="no"?>
<!-- Created with Inkscape (http://www.inkscape.org/) -->

<svg
   width="256"
   height="256"
   viewBox="0 0 64 64"
   version="1.1"
   id="svg1"
   inkscape:version="1.4 (86a8ad7, 2024-10-11)"
   sodipodi:docname="Icon.svg"
   xmlns:inkscape="http://www.inkscape.org/namespaces/inkscape"
   xmlns:sodipodi="http://sodipodi.sourceforge.net/DTD/sodipodi-0.dtd"
   xmlns="http://www.w3.org/2000/svg"
   xmlns:svg="http://www.w3.org/2000/svg">
  <sodipodi:namedview
     id="namedview1"
     pagecolor="#505050"
     bordercolor="#eeeeee"
     borderopacity="1"
     inkscape:showpageshadow="0"
     inkscape:pageopacity="0"
     inkscape:pagecheckerboard="0"
     inkscape:deskcolor="#505050"
     inkscape:document-units="px"
     showgrid="true"
     inkscape:zoom="1.5292969"
     inkscape:cx="58.196679"
     inkscape:cy="104.2963"
     inkscape:window-width="1920"
     inkscape:window-height="1001"
     inkscape:window-x="-9"
     inkscape:window-y="-9"
     inkscape:window-maximized="1"
     inkscape:current-layer="layer1">
    <inkscape:grid
       id="grid1"
       units="px"
       originx="0"
       originy="0"
       spacingx="2"
       spacingy="2"
       empcolor="#0099e5"
       empopacity="0.30196078"
       color="#0099e5"
       opacity="0.14901961"
       empspacing="4"
       enabled="true"
       visible="true"
       dotted="false" />
  </sodipodi:namedview>
  <defs
     id="defs1" />
  <g
     inkscape:label="Layer 1"
     inkscape:groupmode="layer"
     id="layer1">
    <g
       id="g2"
       transform="matrix(0.11249983,0,0,0.1125,-1.7527387,-1.757074)"
       style="fill:#ffffff">
	<path
   d="m 539.9,306.3 c 5.3,1.7 10.2,4.7 13.9,9.3 5.6,7 7.7,15.1 6.2,23.9 -2.8,16.2 -7.4,32 -13.8,47.2 -5.3,12.9 -19.4,22.5 -35.9,19.5 -0.7,1.3 -1.5,2.7 -2.3,4 -4,6.2 -8,12.5 -12,18.7 -0.6,0.9 -1.5,1.7 -0.4,3 8.4,10.3 8,26 -1.6,37.1 -11.8,13.6 -25.3,25.4 -40.2,35.4 -11.5,7.8 -26.5,6.6 -37.2,-2.3 -1.1,-0.9 -1.8,-0.9 -3,-0.3 -7.7,3.8 -15.4,7.4 -23.1,11.2 -0.7,0.4 -1.6,1.5 -1.6,2.2 1,13.4 -8.5,27.7 -24.7,31.9 -15.3,4 -30.8,7 -46.6,8.1 -13.1,1 -23.8,-3.6 -30.6,-15.3 -1.3,-2.3 -2.1,-5 -3.1,-7.5 -7.9,-0.9 -16,-1.7 -24,-2.6 -1.1,-0.1 -2.1,-0.5 -3.1,-0.4 -0.8,0.1 -1.9,0.5 -2.2,1.1 -6.9,12.4 -22.6,18.8 -37.6,14.4 -15.2,-4.5 -29.8,-10.5 -43.8,-17.9 -13.6,-7.2 -19.9,-22.5 -14.6,-36.4 0.1,-0.2 0.1,-0.5 0.2,-0.9 -3.7,-2.9 -7.6,-5.7 -11.3,-8.7 -3.6,-2.9 -7.2,-6 -10.9,-9.1 -5.8,3.4 -12.1,5 -19,4.4 -8.4,-0.8 -15.5,-4.3 -20.9,-10.7 -10.4,-12.1 -19.3,-25.3 -26.9,-39.3 -7,-12.9 -3.8,-28.4 7.6,-37.8 1.1,-0.9 1.5,-1.6 1,-3 -2.7,-8.3 -5.3,-16.6 -8.1,-25.2 -5.4,-0.1 -10.9,-1.5 -15.7,-4.6 -8.1,-5.3 -12.7,-12.9 -13.7,-22.5 -1.6,-15.6 -1.8,-31.2 -0.3,-46.8 1.5,-15.1 12.3,-26.4 27.3,-28.9 0.8,-0.1 2,-0.9 2.2,-1.6 2.5,-8.6 4.9,-17.3 7.3,-25.7 -2.6,-2.9 -5.8,-5.6 -7.9,-8.9 -6,-9.4 -6.2,-19.5 -1.4,-29.3 7.3,-15.1 16.3,-29.1 26.9,-42.1 9.4,-11.6 24.4,-15.1 38,-9.5 0.7,0.3 1.8,0.3 2.3,-0.1 7,-6.2 13.9,-12.5 21,-19 -3.1,-7.7 -2.8,-15.7 0.8,-23.6 3.6,-7.6 9.7,-12.6 16.9,-16.6 12.1,-6.8 24.6,-12.8 37.5,-17.9 10,-3.9 19.9,-4.5 29.6,0.9 4.2,2.4 7.8,5.5 10.2,9.8 0.8,1.3 1.5,1.5 3,1.2 8.3,-1.6 16.7,-3 25,-4.5 0.9,-0.2 2,-1.1 2.2,-1.9 4.5,-15 17.2,-24.2 33.2,-23.9 14.7,0.3 29.2,2 43.7,4.3 15.6,2.5 28.7,13.9 27.7,32.4 4.4,1.6 8.9,3.1 13.3,4.9 4.3,1.7 8.6,3.7 12.9,5.6 2.4,-1.8 4.7,-3.9 7.3,-5.3 11.5,-6.6 23,-6 34.1,0.9 13,8.2 24.9,18 35.9,28.7 11.2,10.9 12.8,25.9 4.4,39.1 -0.4,0.7 -0.4,2.2 0.1,2.9 4.5,6.8 9.2,13.6 13.8,20.4 0.8,1.2 1.5,1.3 2.8,1.1 15.4,-2.9 28.9,4.3 35,18.7 5.9,14 10.4,28.3 13.4,43.2 3.1,15.3 -3.9,29 -18,35.4 -1.4,0.6 -1.8,1.3 -1.7,2.8 0.2,8.5 0.3,17.2 0.5,26.4 z M 175.6,472.2 c 10.5,-4.9 20.5,-5.9 31.1,-0.9 9.4,4.5 19,8.6 28.9,11.9 12.4,4.1 19.3,12.5 21.9,24.8 0.3,1.6 0.9,2.4 2.7,2.6 8,0.8 16,1.6 23.9,2.5 2,0.2 2.9,-0.5 3.8,-2.2 5.9,-11.2 14.9,-17.8 27.9,-19.2 10.4,-1.1 20.8,-3.1 31,-5.5 12.4,-2.9 22.9,-0.1 31.9,8.6 1.6,1.5 2.8,1.7 4.6,0.8 6.7,-3.2 13.4,-6.3 20.1,-9.6 3.8,-1.8 3.6,-1.9 3.3,-6.1 -0.7,-10.2 2.3,-19.2 10,-26.2 8.6,-7.8 18,-14.8 26.1,-23.1 9.6,-9.7 20.6,-12.7 33.5,-10.2 1.4,0.3 2.2,0.2 3,-1.1 4.3,-6.9 8.7,-13.7 13.1,-20.5 1.2,-1.8 0.9,-2.9 -0.4,-4.5 -7.7,-9.6 -9.9,-20 -5.5,-31.9 3.4,-9.3 6.4,-18.9 8.4,-28.7 2.8,-13.3 10.7,-21.5 22.9,-26.1 1.6,-0.6 2.3,-1.2 2.2,-2.9 -0.1,-7.7 -0.2,-15.3 -0.1,-23 0,-2.3 -0.7,-3.2 -3,-4 -11.9,-3.8 -19.5,-11.3 -22.5,-24 -2.4,-10.2 -6.3,-20 -9.4,-30 -0.8,-2.4 -1.5,-4.9 -1.8,-7.4 -0.9,-8.9 2.2,-16.7 7.6,-23.6 1.2,-1.5 1.3,-2.5 0.2,-4.1 -4.3,-6.2 -8.6,-12.5 -12.8,-18.8 -1.3,-1.9 -2.5,-2 -4.6,-1.5 -12.1,3.1 -22.8,1.2 -32.4,-7.6 -7.2,-6.7 -14.9,-13 -23.1,-18.5 -11,-7.5 -15.2,-17.6 -14.1,-30.4 0.1,-1.6 -0.2,-2.4 -1.7,-3 -7.2,-2.9 -14.4,-5.8 -21.5,-8.9 -2.3,-1 -3.6,-0.5 -5.4,1.3 -8.2,8.3 -17.8,12.5 -29.8,10.8 -11.2,-1.5 -22.4,-2.4 -33.6,-3.7 -3.2,-0.4 -6.5,-0.6 -9.6,-1.7 -8.1,-2.7 -13.8,-8.4 -17.8,-15.8 -0.8,-1.4 -1.6,-1.8 -3.1,-1.6 -7.8,1.4 -15.6,2.8 -23.4,4.1 -2.3,0.4 -3.2,1.3 -3.7,3.8 -2.4,11.6 -8.9,20 -20,24.9 -9.9,4.3 -19.9,8.8 -29.3,14.1 -11.6,6.5 -22.8,6.5 -34.3,0.5 -1.4,-0.7 -2.3,-0.8 -3.5,0.3 -6,5.4 -12.1,10.8 -18.2,16.1 -1.6,1.4 -1.7,2.5 -0.9,4.5 4.5,11.3 3.7,21.9 -3.7,32 -6,8.3 -11.7,16.8 -16.5,25.8 -6.4,12 -16.3,17.9 -29.4,19.1 -1.7,0.1 -2.5,0.6 -3,2.2 -2.1,7.5 -4.3,14.9 -6.6,22.3 -0.7,2.2 -0.2,3.3 1.8,4.7 9.3,6.3 14.7,14.9 14.5,26.6 -0.2,11.4 -0.1,22.9 0.2,34.4 0.1,4.9 -0.5,9.5 -2.5,13.9 -2.6,5.8 -6.5,10.5 -11.6,14.1 -2,1.4 -2.4,2.6 -1.7,4.8 2.3,7.1 4.5,14.1 6.6,21.2 0.6,2.1 1.8,2.7 4,2.7 12.5,0.4 22.3,5.3 28.6,16.7 3.7,6.7 8.3,12.9 12.6,19.2 2.5,3.7 5.8,7 7.9,10.9 4.7,8.6 4.2,17.7 0.6,26.6 -0.8,1.9 -0.5,3 1,4.2 5.3,4.2 10.5,8.3 15.6,12.7 3.3,2.6 6.2,4 9,0.6 z m 307.1,-328 c 2,-6.4 1.3,-11.9 -3.3,-16.5 C 468.7,117 457,107.5 444.2,99.5 c -5.4,-3.4 -11.2,-3 -16.7,-0.2 2,2 4.2,3.6 5.7,5.8 1.7,2.4 1.3,5.2 0.1,7.8 -1.3,2.7 -3.4,4.8 -6.3,5.3 -2.6,0.5 -5.4,0.1 -8.2,0.1 0.2,0.7 0.3,2 0.9,2.9 1.8,2.5 3.4,5.4 5.8,7 10.1,6.9 19.7,14.6 28.6,23.1 3.2,3.1 7.2,4.4 11.8,4.3 -3.3,-6.3 -2.8,-10.9 1.4,-14.3 4.6,-3.7 8.9,-2.9 15.4,2.9 z M 364.9,502.1 c -3.9,-2.4 -8,-3.1 -12.2,-2 -12.6,3.3 -25.3,5.6 -38.2,6.7 -4.6,0.4 -8.9,3 -10.6,6.1 6,0.8 9.5,3.9 9.6,9 0,2 -0.6,4.2 -1.6,6 -2.3,3.9 -6.5,4.2 -11.1,4.3 4.1,6.3 9.5,8.7 16.2,8.1 15,-1.3 29.7,-3.9 44.2,-7.9 4.3,-1.2 7.6,-3.8 9.8,-7.5 1,-1.6 1.5,-3.4 2.4,-5.5 -8.3,2.3 -13,0.9 -15,-4.1 -2.1,-5.2 0.3,-10 6.5,-13.2 z M 421.1,475 c 6.7,-2.8 11.5,-1.7 14.4,3.1 2.7,4.4 1.2,8.3 -5.4,14 4.2,2.9 11.7,2.8 16.6,-0.8 12.7,-9.2 24.6,-19.5 35.1,-31.2 4.2,-4.6 5.1,-11.6 2.6,-16.2 -6.3,6 -10.2,7.1 -14.6,4.2 -2.4,-1.6 -4.2,-3.9 -4.2,-6.7 0,-2.6 0.9,-5.2 1.4,-7.7 -4.4,0.2 -8.1,1.9 -11.4,5.3 -8.5,9 -17.7,17.1 -27.7,24.5 -3.7,2.8 -6.1,6.5 -6.8,11.5 z m 95.6,-280.9 c 2.8,8.4 2.3,11.7 -2.2,14.6 -2.5,1.6 -5.3,2.5 -8.1,1.4 -2.5,-0.9 -4.6,-2.7 -7,-4.2 -1.6,3.6 -1.8,7.6 -0.2,11.6 1.5,3.9 3.2,7.7 4.4,11.6 2.4,7.8 4.5,15.8 6.6,23.7 1.2,4.3 3.6,7.5 7.6,9.8 -0.3,-6.2 2.9,-10.6 8.4,-11.4 2,-0.3 4.3,0.1 6.1,0.9 4,1.7 4.8,5.5 5.2,9.7 5.4,-4.6 7.8,-9.9 6.6,-16.3 -2.8,-14.3 -7.2,-28.2 -12.9,-41.7 -2.5,-6 -7.5,-9.2 -14.5,-9.7 z M 185.4,483.3 c 4.9,4.9 5.9,9.1 3,13.4 -4.3,6.4 -10,5.8 -16,1.8 -0.2,6.6 2.1,11.7 7.5,14.6 13.7,7.5 28,13.4 43.1,17.5 6,1.6 11.4,-0.3 15.7,-4.5 -2.5,-1.3 -5.1,-2.3 -7.1,-3.9 -2.3,-1.8 -2.8,-4.6 -2.3,-7.5 0.5,-2.9 1.9,-5.5 4.6,-6.7 2.4,-1.1 5.2,-1.5 7.8,-2.2 -1.8,-3.4 -4.6,-6.2 -8.7,-7.5 -12.3,-3.8 -24.1,-8.7 -35.5,-14.5 -3.8,-1.9 -7.9,-1.8 -12.1,-0.5 z m -49,-316 c -5.9,4.4 -11.1,4.7 -14.8,0.9 -1.3,-1.4 -2.3,-3.4 -2.7,-5.3 -0.9,-3.9 1.6,-6.8 4.3,-9.7 -7.4,-1 -13.2,1 -17.2,6.7 -6.4,9 -12.4,18.2 -18.4,27.4 -2.1,3.2 -3.8,6.7 -5.6,10.2 -2.9,5.9 -2,13 2,16.5 4.4,-7.3 7.8,-9.4 13.1,-7.8 2.7,0.8 5,2.4 5.7,5.1 0.7,2.5 0.7,5.2 1,7.8 3.8,-1.3 7.1,-3.8 9.2,-7.7 5.9,-11.3 12.7,-22 20.5,-32.1 2.6,-3.4 3.5,-7.4 2.9,-12 z m 381.7,155.6 c -3.7,2.5 -6.2,5.6 -7.1,9.6 -2.6,12.7 -6.2,25.2 -10.9,37.3 -1.6,4.1 -1,8.6 1,11.5 3.9,-5.3 8.7,-7.2 13.5,-4.8 1.8,0.9 3.4,2.6 4.4,4.3 2.1,3.5 0.5,6.9 -1.4,10.6 7.2,-1 12,-4.4 14.6,-10.6 1.7,-4 3.3,-8 4.5,-12.2 2.8,-9.9 5.5,-19.9 7.9,-29.9 1.6,-6.7 -1.2,-12.9 -6,-15.8 -1.2,2.6 -2.1,5.5 -3.7,7.8 -1.9,2.6 -4.9,3.3 -8.1,2.9 -5.3,-0.4 -8.2,-3.9 -8.7,-10.7 z M 239.3,98.9 c -6.7,0.8 -10.9,-1.1 -12.4,-6 -0.6,-1.8 -0.5,-4.1 0,-5.9 1.1,-4.4 5,-5.9 9.4,-7.2 -4.9,-4.2 -10.1,-5.5 -15.7,-3.9 -4.4,1.3 -8.7,2.9 -12.8,4.9 -10.2,5 -20.3,10.2 -30.3,15.6 -5.8,3.2 -8.7,11.2 -7.2,14.9 8.3,-3.9 12,-3.9 15.1,0.4 1.2,1.6 1.9,3.8 2.1,5.8 0.4,3.5 -1.6,6.1 -4.5,8.4 4.4,1.1 8.4,0.9 11.9,-1.2 11.5,-6.8 23.6,-12.5 36,-17.4 3.8,-1.4 6.5,-4.3 8.4,-8.4 z M 66.7,273.2 c -6.1,2.8 -10,7 -10.7,13.4 -1.7,15.1 -1.5,30.3 0.3,45.4 0.8,6.2 4.7,10.2 10.3,12.2 0.4,-2.9 0.4,-5.9 1.2,-8.5 1,-2.9 3.6,-4.9 6.6,-5 2.5,-0.1 5.4,0.1 7.5,1.4 2,1.2 3.3,3.8 4.9,5.9 2.4,-3.1 3.9,-6.8 3.6,-11.2 -1.1,-12.5 -1.3,-25 -0.3,-37.5 0.4,-4.3 -1,-8 -4.2,-11.2 -2.7,6.7 -7.1,9.6 -12.7,8.4 -5.1,-1.2 -7.1,-4.9 -6.5,-13.3 z m 71.3,172 c 0.9,-3.9 -0.1,-8.2 -2.9,-11.6 -7.9,-9.6 -14.8,-19.8 -20.8,-30.6 -2.2,-3.9 -5.5,-6.2 -10,-7.3 1.5,6.6 0,10.8 -5,13.1 -1.8,0.8 -4.1,1.1 -6.1,0.9 -4.3,-0.5 -6.4,-3.7 -7.9,-7.7 -4.2,5.4 -4.7,12.4 -1.5,17.8 3,5 5.8,10.1 9.1,14.9 4.9,7.1 10.1,14 15.4,20.8 4,5.1 11.5,6.9 16.4,4.8 -4.9,-6.8 -5.3,-10.5 -1.6,-14.4 3.8,-4.2 8.8,-4.4 14.9,-0.7 z M 297.8,68.9 c 8.5,0.1 12.1,2.4 12.8,7.9 0.7,5.6 -2.6,9.4 -9.8,11.4 3,3.3 6.6,5.1 10.9,5.2 12.9,0.3 25.7,1.6 38.4,4 4.2,0.8 8.3,-0.1 12,-2.8 -0.4,-0.3 -0.5,-0.4 -0.6,-0.5 -5.3,-2.3 -7.6,-6.9 -5.9,-11.9 1.6,-5 6.5,-7.5 12.1,-6.2 0.8,0.2 1.6,0.4 2.7,0.6 -1.9,-6.7 -5.9,-10.7 -12.2,-12.1 -14.8,-3.1 -29.8,-4.6 -44.9,-4.7 -6.9,-0.1 -11.9,3 -15.5,9.1 z"
   id="path1"
   style="fill:#ffffff" />

</g>
    <path
       d="m 42.977193,38.214176 c 0.314999,1.78875 0.911249,3.5325 1.406248,5.41125 -2.902496,2.41875 -8.246238,7.61625 -8.246238,7.61625 v -0.45 c 0,-4.815 2.069997,-9.63 2.092497,-14.445 0,-0.2925 0.30375,-0.675 0.551249,-0.86625 0.405,-0.315 0.753749,-0.7425 1.046249,-1.1925 0.641248,-0.97875 1.046248,-2.10375 1.226248,-3.2625 l 0.382499,-2.44125 c 0,0 -4.781242,2.59875 -7.064989,3.8925 -0.2025,0.1125 -0.337499,0.52875 -0.348749,0.79875 l -0.50625,4.80375 -1.518747,2.03625 -1.529998,-2.03625 -0.506249,-4.80375 c -0.01125,-0.28125 -0.135,-0.68625 -0.34875,-0.79875 -2.294996,-1.29375 -7.064989,-3.8925 -7.064989,-3.8925 l 0.382499,2.44125 c 0.18,1.15875 0.585,2.28375 1.226249,3.2625 0.292499,0.43875 0.641249,0.8775 1.046248,1.1925 0.2475,0.2025 0.551249,0.57375 0.551249,0.86625 0.03375,4.815 2.103747,9.63 2.092497,14.445 v 0.45 c 0,0 -5.332492,-5.1975 -8.246236,-7.61625 0.494999,-1.87875 1.091247,-3.6225 1.406248,-5.41125 0.551248,-3.105 0.1125,-6.1875 -1.001249,-9.10125 -0.629999,-1.65375 -0.641249,-3.22875 -0.225,-4.86 1.147499,-4.5225 3.498744,-8.20125 7.739988,-10.36125 1.507497,-0.765 2.992495,-1.13625 4.454993,-1.1475 1.462497,0 2.947495,0.37125 4.454993,1.1475 4.241243,2.16 6.59249,5.83875 7.739987,10.36125 0.416251,1.6425 0.405001,3.20625 -0.224998,4.86 -1.079999,2.91375 -1.529999,5.99625 -0.967499,9.10125 z"
       id="path2"
       style="stroke-width:0.112499;fill:#ffffff" />
  </g>
</svg>
