<svg version="1.2" xmlns="http://www.w3.org/2000/svg" viewBox="0 0 1024 1024" width="512" height="512">
	<title>Shackle 1024</title>
	<style>
		.s0 { fill: #ffffff } 
	</style>
	<path id="Path 0" fill-rule="evenodd" class="s0" d="m509.88 0.12c14.43-0.06 31.38 0.26 37.66 0.71 6.28 0.46 15.43 1.25 20.31 1.76 4.89 0.51 14.8 1.85 22.01 2.99 7.21 1.13 18.07 3.04 24.12 4.22 6.05 1.19 16.71 3.62 23.69 5.4 6.98 1.78 18.6 5.04 25.81 7.25 7.21 2.2 19.21 6.29 26.66 9.08 7.45 2.79 17.55 6.77 22.43 8.85 4.88 2.08 15.36 6.9 23.27 10.73 7.91 3.81 19.72 9.93 26.24 13.59 6.51 3.65 17.56 10.27 24.54 14.71 6.98 4.43 15.36 9.96 18.62 12.28 3.25 2.31 9.73 7.08 14.38 10.57 4.66 3.5 12.47 9.63 17.35 13.6 4.88 3.99 13.08 11.03 18.2 15.65 5.12 4.62 13.02 12.05 17.57 16.52 4.53 4.46 8.25 8.78 8.25 9.59-0.01 0.81-0.39 1.29-0.86 1.06-0.46-0.24-1.18 0.43-1.59 1.48-0.4 1.05-3.49 8-6.86 15.44-3.36 7.45-9.45 20.4-13.52 28.78-6.62 13.63-8.06 15.93-13.66 21.92-3.44 3.68-8.92 8.55-12.18 10.82-3.26 2.27-8.59 5.24-11.85 6.59-3.26 1.36-8.68 3.06-12.06 3.78-3.38 0.72-8.23 1.32-10.79 1.32-2.56 0-4.65-0.2-4.65-0.43 0-0.23 1.48-4.9 3.3-10.36 1.82-5.47 3.77-12.8 4.34-16.29 0.56-3.49 0.82-9.02 0.56-12.28-0.34-4.11-1.25-7.47-2.98-11-1.42-2.87-4.1-6.47-6.19-8.31-2.03-1.77-5.59-4.31-7.92-5.63-2.33-1.33-6.52-3.07-9.31-3.86-2.79-0.81-7.55-1.44-10.58-1.42-3.03 0.03-7.6 0.75-10.17 1.59-2.57 0.86-6.92 2.88-9.67 4.52-2.76 1.63-8.03 6-11.73 9.73-5.3 5.34-6.87 6.5-7.44 5.5-0.4-0.7-1.4-4.12-2.23-7.62-1.03-4.38-1.48-9.62-1.45-16.92 0.03-8.36 0.45-12 1.96-17.35 1.06-3.73 5.19-13.81 9.17-22.43 4-8.61 9.34-20.41 11.88-26.23 2.54-5.82 7.2-17.06 10.35-24.97 3.15-7.91 5.99-15.15 6.29-16.08 0.49-1.48-1.06-2.56-12.37-8.6-7.12-3.81-19.32-9.81-27.11-13.33-7.8-3.53-14.97-6.51-15.95-6.63-1.41-0.17-2.11 0.65-3.44 4.02-0.92 2.33-6.97 17.18-13.42 33-6.45 15.83-14.19 35.25-17.19 43.17-3 7.91-6.25 17.24-7.21 20.73-0.98 3.49-2.36 9.77-3.07 13.96-0.77 4.47-1.3 12.52-1.28 19.47 0.01 6.51 0.4 14.51 0.86 17.77 0.47 3.26 1.64 9.16 2.61 13.12 0.96 3.96 3.62 11.95 5.9 17.77 2.27 5.82 6.49 14.58 9.36 19.46 2.88 4.89 6.3 10.79 7.61 13.12 1.31 2.33 2.4 5.47 2.41 6.98 0 1.52-0.71 4.18-1.58 5.93-0.88 1.74-15.84 22.21-33.26 45.48-17.42 23.28-32.79 43.05-34.16 43.94-1.37 0.89-4.02 1.78-5.88 1.97-2.08 0.21-7.29-0.67-13.54-2.3-5.59-1.44-13.87-3.19-18.41-3.87-4.54-0.67-13.4-1.23-19.68-1.23-6.28 0-14.37 0.4-17.98 0.89-3.6 0.49-10.75 1.99-15.87 3.34-5.12 1.35-12.17 3.63-15.65 5.08-3.5 1.44-9.59 4.37-13.54 6.5-3.96 2.14-9.48 5.42-12.28 7.3-2.79 1.88-6.78 4.78-8.88 6.44-2.1 1.67-9.9 8.18-17.35 14.47-7.45 6.29-20.21 16.79-28.35 23.33-8.15 6.55-22.23 17.44-31.31 24.2-9.08 6.76-22.22 16.23-29.2 21.03-6.98 4.81-14.98 10.47-17.77 12.59-2.79 2.13-7.36 5.94-10.16 8.46-2.79 2.52-8.03 7.86-11.65 11.85-3.61 4.01-8.73 10.51-11.38 14.47-2.66 3.95-6.63 10.8-8.84 15.23-2.21 4.43-5.51 12.61-7.33 18.19-1.83 5.59-3.93 13.59-4.68 17.78-0.73 4.19-1.74 11.62-2.22 16.5-0.48 4.88-0.87 11.55-0.86 14.81 0.01 3.26-0.42 7.26-0.95 8.88-0.54 1.63-1.98 4.02-3.19 5.33-1.37 1.45-5.61 3.68-11.1 5.81-4.88 1.9-27.54 10.86-50.35 19.92-22.81 9.06-42.43 16.67-43.59 16.92-1.16 0.25-3.45-0.15-5.07-0.91-1.69-0.77-6.44-5.25-11-10.38-4.43-4.96-11.29-11.77-15.24-15.12-3.96-3.36-10.24-8.16-13.96-10.67-3.73-2.5-10.01-6.15-13.97-8.1-3.96-1.95-11.19-4.86-16.07-6.47-4.9-1.6-12.7-3.6-17.35-4.44-6.05-1.09-12.57-1.52-22.85-1.5-11.8 0.02-17.51 0.5-31.74 2.68-9.54 1.47-20.01 3.01-23.27 3.41-3.26 0.41-6.59 0.99-7.41 1.29-1.04 0.38-1.72-0.02-2.3-1.36-0.46-1.05-1.58-7.05-2.49-13.33-0.92-6.28-2.36-17.71-3.2-25.39-1.23-11.24-1.53-20.99-1.53-49.93 0-28.87 0.3-38.73 1.53-49.93 0.83-7.68 2.48-20.24 3.65-27.93 1.17-7.67 3.48-20.44 5.13-28.35 1.64-7.91 4.82-21.05 7.04-29.19 2.24-8.15 5.84-20.15 8.02-26.66 2.17-6.52 7.05-19.66 10.84-29.2 3.79-9.54 11.86-27.25 17.93-39.35 7.56-15.09 11.49-22.07 12.51-22.22 0.81-0.11 1.48 0.27 1.49 0.85 0 0.58 5.35 9.06 11.88 18.83 8.58 12.83 12.09 18.83 12.65 21.58 0.66 3.26 0.48 4.36-1.2 7.62-1.08 2.1-3.89 7.42-6.25 11.84-2.36 4.43-5.42 11.47-6.8 15.66-1.38 4.19-3.14 10.85-3.91 14.81-0.77 3.96-1.62 11.96-1.89 17.77-0.29 6.06-0.07 14.19 0.48 19.04 0.54 4.66 1.94 12.47 3.13 17.35 1.18 4.89 3.65 12.7 5.46 17.35 1.83 4.66 5.4 12.08 7.93 16.5 2.53 4.43 6.81 11.09 9.51 14.81 2.69 3.73 13.1 14.96 23.13 24.97 10.03 10.01 24.89 24.35 33.04 31.87 8.15 7.52 20.9 18.91 28.35 25.29 7.44 6.38 17.34 14.65 22 18.39 4.65 3.73 16.55 12.82 44.43 33.62l9.15-3.81 0.56-6.77c0.32-3.72 1.3-10.96 2.17-16.08 0.88-5.12 2.91-13.88 4.52-19.46 1.61-5.59 3.17-10.73 3.48-11.43 0.4-0.91-2.59-3.73-10.72-10.09-6.2-4.85-16.42-13.03-22.7-18.16-6.29-5.13-14.29-11.81-17.77-14.86-3.5-3.04-12.44-11.03-19.89-17.76-7.45-6.72-21.94-20.62-32.22-30.9-10.45-10.44-20.12-20.9-21.97-23.75-1.81-2.79-4.32-7.55-5.58-10.57-1.26-3.03-2.9-8.46-3.63-12.06-0.74-3.61-1.34-9.9-1.33-13.97 0.01-4.07 0.62-11.02 1.37-15.44 0.75-4.43 1.5-8.24 1.66-8.46 0.17-0.23 2.69 1.86 5.61 4.65 2.93 2.8 7.78 6.86 10.81 9.04 3.02 2.17 7.7 4.93 10.37 6.13 2.67 1.2 7.06 2.5 9.73 2.9 2.69 0.4 6.76 0.39 9.1-0.01 2.33-0.4 6.14-1.62 8.46-2.7 2.33-1.09 6.14-3.69 8.47-5.78 2.32-2.09 5.43-5.67 6.9-7.96 1.47-2.29 3.28-6.26 4.03-8.81 0.74-2.56 1.35-6.85 1.34-9.52 0-2.68-0.57-7.44-1.27-10.58-0.7-3.14-3.01-9.14-9.01-20.95l7.04 0.63c3.88 0.35 9.8 1.39 13.18 2.33 3.38 0.93 8.33 2.8 11 4.13 2.68 1.35 6.97 4.07 9.52 6.07 2.56 2 11.51 10.35 19.89 18.57 8.38 8.21 20.95 20.06 27.93 26.32 6.98 6.26 16.31 14.45 20.73 18.2 4.43 3.76 13.56 11.2 20.31 16.55 6.76 5.34 16.17 12.64 20.95 16.21 4.77 3.58 9.05 6.51 9.52 6.51 0.46 0 6.84-4.44 14.17-9.87 7.33-5.42 18-13.51 34.08-26.1l-3.6-3.21c-1.98-1.76-11.03-8.99-20.11-16.07-9.08-7.07-21.45-16.99-27.5-22.03-6.05-5.06-17.28-14.77-24.94-21.6-7.66-6.82-20.23-18.31-27.93-25.52-7.69-7.21-16.66-15.26-19.91-17.89-3.26-2.62-9.17-6.87-13.12-9.45-3.96-2.57-10.81-6.42-15.23-8.55-4.43-2.14-11.85-5.01-16.51-6.39-4.65-1.38-11.89-3.12-16.08-3.86-4.61-0.82-12.61-1.37-20.31-1.4-10.08-0.03-15.48 0.43-26.23 2.26-8.49 1.45-14.96 2.12-17.35 1.82-2.34-0.3-4.58-1.24-5.79-2.42-1.09-1.07-10.75-14.89-21.47-30.71-10.72-15.83-20.21-29.44-21.09-30.26-0.87-0.81-1.58-1.67-1.58-1.9 0-0.24 2.88-3.94 6.41-8.25 3.52-4.31 11.82-13.74 18.44-20.95 6.63-7.22 17.55-18.23 24.28-24.47 6.72-6.25 16.79-15.16 22.38-19.81 5.59-4.63 14.54-11.74 19.89-15.79 5.35-4.04 12.4-9.25 15.65-11.57 3.26-2.32 11.64-7.85 18.62-12.28 6.98-4.44 18.03-11.06 24.54-14.71 6.52-3.66 18.33-9.78 26.24-13.59 7.91-3.83 18.39-8.65 23.27-10.73 4.88-2.08 14.98-6.06 22.43-8.85 7.45-2.79 19.45-6.88 26.66-9.08 7.21-2.21 18.83-5.47 25.81-7.25 6.98-1.78 17.64-4.21 23.69-5.4 6.05-1.18 16.91-3.09 24.12-4.22 7.21-1.15 17.31-2.51 22.43-3.05 5.12-0.53 13.31-1.27 18.19-1.63 4.89-0.36 20.7-0.71 35.12-0.78zm415.82 210.76c0.77 0.14 6.24 7.5 12.16 16.35 5.91 8.84 14.37 22.36 18.78 30.04 4.42 7.68 11.82 21.77 16.45 31.31 4.63 9.54 11.28 24.59 14.77 33.43 3.51 8.84 8.15 21.41 10.32 27.93 2.17 6.51 5.64 17.94 7.71 25.39 2.06 7.44 5.07 19.63 6.67 27.08 1.61 7.44 3.85 19.25 4.99 26.23 1.14 6.98 2.68 18.03 3.4 24.54 0.73 6.52 1.71 17.18 2.19 23.7 0.47 6.52 0.85 22.51 0.85 35.54 0 13.04-0.38 28.84-0.84 35.12-0.47 6.28-1.45 16.76-2.18 23.28-0.74 6.51-2.16 16.8-3.17 22.85-1.81 10.8-1.87 11-3.96 10.78-1.15-0.13-13.35 1.51-27.08 3.64-13.72 2.13-26.58 4.23-28.56 4.67-1.98 0.44-6.73 1.03-10.58 1.33-4.07 0.3-9.01 0.12-11.84-0.43-3.91-0.77-5.61-1.66-8.59-4.55-2.68-2.59-4.12-4.9-5.12-8.25-0.77-2.56-2.8-6.56-4.5-8.89-1.7-2.32-5.25-6.89-7.87-10.15-2.63-3.26-7.6-8.74-11.04-12.18-3.44-3.44-8.92-8.44-12.18-11.09-3.26-2.67-8.4-6.45-11.43-8.43-3.03-1.96-9.3-5.41-13.96-7.65-4.65-2.25-12.27-5.24-16.92-6.66-4.66-1.42-11.32-3.14-14.81-3.83-3.49-0.69-12.83-1.87-20.74-2.61-7.91-0.76-25.05-2.68-38.08-4.28-13.03-1.6-25.8-3.3-28.35-3.78-2.56-0.47-5.51-0.86-6.56-0.86-1.53 0.01-2.08 0.72-2.81 3.61-0.5 1.98-2.06 7.02-3.47 11.21-1.4 4.19-4.93 12.57-7.81 18.62-2.89 6.05-7.04 13.76-9.23 17.14-3.4 5.25-3.76 6.19-2.49 6.52 0.81 0.22 8.33 1.54 16.71 2.94 8.38 1.4 22.28 3.48 30.89 4.64 8.61 1.15 19.47 2.5 24.12 2.99 4.66 0.5 17.04 1.65 27.5 2.57 10.48 0.91 21.14 2.28 23.7 3.04 2.56 0.77 7.13 2.64 10.16 4.17 3.03 1.52 7.78 4.49 10.57 6.61 2.8 2.1 6.61 5.35 11.85 10.58l-7.19 2.29c-3.95 1.26-9.67 3.65-12.7 5.32-3.02 1.67-7.31 4.86-9.52 7.09-2.2 2.25-5.02 6.27-6.26 8.94-1.65 3.56-2.35 6.68-2.62 11.64-0.25 4.39 0.11 9 0.99 13.11 0.75 3.49 2.35 8.45 3.55 11.01 1.2 2.55 4.15 6.56 6.54 8.89 2.86 2.78 6.26 5.02 9.86 6.48 3.03 1.23 7.79 2.65 10.58 3.17 2.79 0.51 8.41 1.02 12.48 1.13 4.07 0.12 7.42 0.41 7.44 0.64 0.01 0.23-1.82 3.27-4.08 6.77-2.26 3.48-6.63 8.82-9.7 11.84-3.07 3.03-7.62 6.74-10.1 8.25-2.48 1.51-6.79 3.68-9.58 4.81-2.79 1.15-7.74 2.52-11 3.05-3.82 0.63-10.59 0.79-19.04 0.44-7.21-0.3-17.87-0.91-23.7-1.35-5.81-0.45-16.67-1.41-24.12-2.13-7.44-0.72-19.25-2.07-26.23-3-6.98-0.94-18.21-2.63-24.97-3.74-6.75-1.13-19.12-3.42-27.5-5.09-8.38-1.68-24.19-5.29-35.12-8.03-16.39-4.11-21.38-5.74-28.35-9.21-6.07-3.03-10.04-5.73-14.04-9.55-3.07-2.93-6.5-6.59-9.66-10.91l-10.15 7.74c-5.59 4.26-16.54 12.27-24.33 17.81-7.8 5.54-14.18 10.26-14.18 10.49 0 0.23 2.38 3.34 5.29 6.9 2.91 3.56 8.72 9.51 12.91 13.21 4.19 3.71 11.04 9.02 15.23 11.82 4.19 2.79 11.42 6.9 16.08 9.12 4.65 2.21 12.08 5.21 16.5 6.65 4.43 1.45 15.28 4.32 24.12 6.4 8.84 2.07 22.75 5.1 30.89 6.73 8.15 1.64 22.99 4.3 33 5.94 10.02 1.64 27.34 4.12 38.51 5.5 11.17 1.4 24.88 2.93 30.47 3.41 5.58 0.48 19.11 1.46 30.04 2.17 15.41 1.01 21.99 1.1 29.2 0.41 5.12-0.49 13.31-1.87 18.19-3.06 4.88-1.19 12.31-3.48 16.5-5.09 4.19-1.61 10.86-4.7 14.81-6.87 3.96-2.16 10.24-6.23 13.94-9.04 3.72-2.81 9.23-7.6 12.27-10.64 3.04-3.05 7.81-8.56 10.58-12.27 2.79-3.72 6.86-10.17 9.07-14.36 2.2-4.19 5.2-10.86 6.66-14.81 1.45-3.95 3.4-10.62 4.31-14.81 0.92-4.19 1.93-7.86 2.25-8.17 0.32-0.3 10.87-1.73 23.44-3.18 12.56-1.46 23.7-2.83 24.75-3.06 1.31-0.28 1.9 0 1.9 0.87 0 0.7-2.7 8.03-6.01 16.29-3.31 8.26-9.91 23.02-14.66 32.79-4.75 9.78-11.81 23.29-15.69 30.04-3.88 6.76-11.43 18.94-16.77 27.09-5.34 8.14-13.15 19.38-17.34 24.96-4.21 5.59-11.73 15.11-16.73 21.16-4.99 6.05-14.36 16.69-20.81 23.66-6.45 6.96-17.63 18.06-24.85 24.66-7.21 6.61-16.93 15.15-21.58 18.98-4.66 3.84-13.61 10.86-19.89 15.61-6.28 4.75-15.99 11.68-21.58 15.42-5.59 3.73-13.2 8.68-16.93 10.99-3.72 2.31-11.52 6.89-17.34 10.17-5.82 3.28-15.34 8.35-21.16 11.26-5.82 2.91-15.91 7.67-22.43 10.58-6.51 2.91-17.56 7.48-24.54 10.15-6.98 2.68-16.7 6.18-21.58 7.78-4.88 1.61-14.79 4.61-22 6.68-7.21 2.08-19.21 5.13-26.66 6.79-7.45 1.66-20.02 4.11-27.93 5.44-7.91 1.33-22 3.3-31.31 4.35-15.06 1.71-20.98 1.92-53.74 1.92-32.76 0-38.68-0.21-53.74-1.92-9.31-1.05-23.4-3.02-31.31-4.35-7.91-1.33-20.48-3.78-27.93-5.44-7.45-1.66-19.45-4.71-26.66-6.79-7.21-2.07-17.12-5.07-22-6.68-4.88-1.6-14.6-5.1-21.58-7.78-6.98-2.67-18.03-7.24-24.54-10.15-6.52-2.91-16.61-7.67-22.43-10.57-5.81-2.91-16.2-8.48-23.06-12.38-6.86-3.91-17.34-10.22-23.27-14.03-5.93-3.81-13.46-8.82-16.72-11.14-3.25-2.31-10.49-7.66-16.08-11.88-5.58-4.22-14.53-11.32-19.88-15.8-5.35-4.46-15.07-13.08-21.58-19.13-6.52-6.05-16.12-15.54-21.34-21.08-5.21-5.55-9.49-10.47-9.5-10.94-0.02-0.46 2.32-1.98 5.18-3.38 2.86-1.4 9.23-5.17 14.16-8.39 6.64-4.34 11.93-8.82 20.42-17.35 7.06-7.09 13.44-14.42 16.61-19.11 2.83-4.19 7.05-11.43 9.38-16.08 2.33-4.66 5.45-11.89 6.92-16.08 1.47-4.19 3.4-11.23 4.29-15.66 0.89-4.42 1.9-11.65 2.25-16.08 0.6-7.72 0.75-8.16 3.63-11.08 1.65-1.68 4.91-3.74 7.24-4.57 2.32-0.84 19.27-7.35 37.66-14.48 18.39-7.13 40.66-15.8 65.58-25.62l2.25 1.85c1.24 1.02 5.61 4.87 9.74 8.54 4.11 3.68 10.52 8.68 14.25 11.11 3.72 2.44 10.19 6.15 14.38 8.25 4.19 2.09 10.86 4.95 14.81 6.35 3.96 1.4 11.2 3.45 16.08 4.54 7.65 1.72 11.08 1.99 24.55 1.95 14.07-0.03 16.68-0.27 25.81-2.4 5.58-1.3 13.77-3.71 18.19-5.36 4.43-1.64 11.47-4.7 15.66-6.8 4.19-2.09 11.62-6.3 16.5-9.33 4.88-3.04 15.17-9.71 22.85-14.82 7.68-5.12 19.11-12.94 25.39-17.38 6.28-4.43 16.94-12.26 23.69-17.39 6.76-5.13 17.61-13.59 24.12-18.8 6.52-5.2 17.37-14.14 24.12-19.85 6.76-5.71 16.64-14.23 21.97-18.92 5.34-4.7 13.86-12.54 18.95-17.43 5.09-4.88 11.43-11.74 14.1-15.23 2.67-3.5 7.05-9.96 9.74-14.39 2.69-4.42 6.11-10.7 7.6-13.96 1.48-3.26 3.75-8.97 5.03-12.7 1.3-3.72 3.29-10.77 4.44-15.65 1.66-7.04 2.18-12.04 2.55-24.12 0.38-12.94 0.18-16.77-1.3-25.39-0.95-5.58-2.86-13.58-4.22-17.77-1.37-4.19-4.63-11.9-7.25-17.14-2.61-5.24-4.75-10.47-4.75-11.63 0-1.17 0.5-3.36 1.11-4.87 0.62-1.52 16.08-22.93 34.36-47.6 18.29-24.67 34.07-45.52 35.07-46.32 0.99-0.8 2.96-1.46 4.35-1.46 1.4 0 5.59 0.55 9.31 1.22 3.73 0.68 11.54 1.48 17.35 1.79 6.43 0.34 14.24 0.16 19.89-0.45 5.12-0.55 12.17-1.59 15.66-2.3 3.49-0.72 9.77-2.46 13.96-3.85 4.19-1.4 11.04-4.24 15.23-6.32 4.19-2.07 9.52-4.96 11.85-6.42 2.33-1.46 7.28-5.01 11-7.89 3.73-2.87 10.02-8.6 14-12.73 3.97-4.13 9.74-11.33 12.83-15.98 3.08-4.66 10.01-16.84 15.4-27.08 5.4-10.24 9.84-19.13 9.89-19.74 0.05-0.62 0.72-1 1.49-0.84zm-357 202.11l-1.75 2.75c-0.97 1.51-3.25 5.79-5.09 9.52-1.83 3.72-3.96 9.81-4.72 13.54-1.11 5.38-1.23 7.99-0.56 12.69 0.46 3.26 1.89 8.21 3.18 11 1.46 3.19 4.27 7.02 7.54 10.28 3.36 3.36 7.16 6.13 10.71 7.8 3.39 1.6 7.61 2.81 11 3.16 4.06 0.41 6.83 0.17 10.58-0.9 2.79-0.8 7.74-2.79 11-4.44 3.26-1.63 8.2-4.73 10.99-6.89 2.79-2.16 6.79-5.42 12.71-10.56l1.08 9.67c0.6 5.3 0.87 12.9 0.62 16.85-0.26 3.95-1.08 9.66-1.81 12.69-0.75 3.03-2.85 8.74-4.68 12.7-1.84 3.95-5.38 9.86-7.87 13.11-2.49 3.26-9.62 10.53-15.83 16.17-6.21 5.63-15.66 14.01-21.02 18.62-5.36 4.62-15.83 13.38-23.27 19.47-7.45 6.09-19.82 15.82-27.51 21.64-7.68 5.81-19.48 14.51-26.23 19.34-6.75 4.82-19.69 13.68-28.77 19.69-9.09 6.01-19.17 12.27-22.43 13.91-3.26 1.65-8.59 3.9-11.85 5-3.26 1.1-8.97 2.41-12.69 2.91-3.84 0.53-9.53 0.66-13.12 0.33-3.5-0.33-9.01-1.35-12.27-2.26-3.26-0.9-9.16-3.18-13.12-5.05-6.3-2.99-7-3.53-5.63-4.38 0.87-0.54 5.44-3.48 10.16-6.53 5.12-3.32 10.41-7.59 13.09-10.58 2.57-2.87 5.29-7.04 6.33-9.68 1.42-3.64 1.81-6.42 1.78-12.7-0.02-5.11-0.58-9.89-1.53-13.12-0.83-2.79-2.46-6.98-3.63-9.31-1.16-2.32-3.57-5.94-5.34-8.03-1.77-2.1-5.25-5.04-7.74-6.53-2.49-1.5-7.01-3.35-10.03-4.13-3.98-1.02-7.26-1.26-11.85-0.89-3.49 0.29-8.25 1.03-10.57 1.67-2.33 0.63-5.09 1.4-6.14 1.71-1.68 0.48-1.9 0.24-1.9-1.99 0-1.4 0.87-5.3 1.93-8.67 1.06-3.38 3.7-9 5.87-12.49 2.16-3.49 6.35-8.7 9.28-11.57 3.1-3.03 13.52-10.69 24.81-18.24 10.7-7.15 26.7-18.33 35.54-24.83 8.84-6.5 21.79-16.38 28.77-21.95 6.99-5.58 17.84-14.5 24.12-19.83 6.28-5.33 15.95-13.71 21.46-18.63 5.52-4.91 12-10.23 14.39-11.82 2.4-1.59 6.82-3.95 9.85-5.22 3.03-1.28 8.17-2.9 11.43-3.6 3.26-0.69 9.26-1.29 20.73-1.4zm-492.96 243.79c3.73-0.04 9.06 0.34 11.85 0.85 2.79 0.51 7.93 2.03 11.42 3.37 3.49 1.34 8.16 3.59 10.37 5 2.21 1.41 3.93 2.88 3.81 3.26-0.12 0.38-4.78 4.68-10.37 9.56-5.58 4.87-11.55 10.76-13.27 13.06-1.71 2.3-3.88 5.9-4.83 7.99-0.95 2.1-1.96 6.1-2.26 8.89-0.34 3.26-0.07 7.2 0.75 11 0.69 3.26 2.05 8.02 3.03 10.58 0.97 2.56 3.2 6.56 4.97 8.89 1.79 2.35 5.26 5.45 7.83 6.97 2.55 1.51 6.53 3.16 8.86 3.66 2.33 0.5 10.99 0.88 34.28 0.79l-0.53 1.91c-0.29 1.04-1.73 4.57-3.22 7.82-1.48 3.26-4.29 8.31-6.25 11.22-1.95 2.91-5.74 7.43-8.41 10.05-2.68 2.62-6.59 5.94-8.68 7.38-2.09 1.44-7.04 4.02-11 5.73-3.96 1.71-8.62 3.34-10.36 3.62-1.75 0.28-2.99 0.89-2.75 1.36 0.22 0.46-0.25 0.84-1.06 0.84q-1.48 0.01-10.02-13.33c-4.7-7.33-11.16-17.9-14.34-23.48-3.19-5.59-9.68-18.15-14.44-27.93-4.74-9.77-11.5-25.01-14.99-33.85-3.51-8.84-7.91-20.65-9.82-26.23-1.89-5.59-3.44-10.83-3.45-11.64-0.01-1.23 0.53-1.41 3.16-1.03 1.86 0.26 11.46-0.94 23.06-2.89 10.95-1.84 22.94-3.37 26.66-3.42z"/>
</svg>