<?xml version="1.0" encoding="UTF-8" standalone="no"?>
<!-- Created with Inkscape (http://www.inkscape.org/) -->

<svg
   width="256"
   height="256"
   viewBox="0 0 64 64"
   version="1.1"
   id="svg1"
   inkscape:version="1.4 (86a8ad7, 2024-10-11)"
   sodipodi:docname="Icon.svg"
   xmlns:inkscape="http://www.inkscape.org/namespaces/inkscape"
   xmlns:sodipodi="http://sodipodi.sourceforge.net/DTD/sodipodi-0.dtd"
   xmlns="http://www.w3.org/2000/svg"
   xmlns:svg="http://www.w3.org/2000/svg">
  <sodipodi:namedview
     id="namedview1"
     pagecolor="#505050"
     bordercolor="#eeeeee"
     borderopacity="1"
     inkscape:showpageshadow="0"
     inkscape:pageopacity="0"
     inkscape:pagecheckerboard="0"
     inkscape:deskcolor="#505050"
     inkscape:document-units="px"
     showgrid="true"
     inkscape:zoom="3.0585937"
     inkscape:cx="127.83653"
     inkscape:cy="128"
     inkscape:window-width="1920"
     inkscape:window-height="1001"
     inkscape:window-x="-9"
     inkscape:window-y="-9"
     inkscape:window-maximized="1"
     inkscape:current-layer="layer1">
    <inkscape:grid
       id="grid1"
       units="px"
       originx="0"
       originy="0"
       spacingx="2"
       spacingy="2"
       empcolor="#0099e5"
       empopacity="0.30196078"
       color="#0099e5"
       opacity="0.14901961"
       empspacing="4"
       enabled="true"
       visible="true"
       dotted="false" />
  </sodipodi:namedview>
  <defs
     id="defs1" />
  <g
     inkscape:label="Layer 1"
     inkscape:groupmode="layer"
     id="layer1">
    <g
       id="g2"
       transform="matrix(0.12500038,0,0,0.12499973,0.00483437,-0.00161889)"
       style="fill:#ffffff">
	<path
   class="st0"
   d="M 58.3,24.8 44.2,90.3 27,50.9 c -3.5,13.5 -3.6,28.8 -2.3,42.4 7.4,74.8 70.8,162.6 154.8,236.2 15.4,-15.9 30.4,-32.2 44.8,-48.7 6.8,-7.8 13.5,-15.7 20,-23.6 C 185.2,184 140.2,108.8 128.7,42.7 124.7,31.6 113.1,27.8 103.1,25.3 L 114.6,45.2 83.4,22.7 C 75,22.5 65.8,23.3 58.3,24.8 Z m 370.1,-2.1 c -2.9,13.8 -5.7,27.7 -15,41.5 -0.2,-13.9 -2.1,-27 -7.9,-38.1 -8.5,2.6 -20.5,7.5 -22.3,16.5 -13.4,76.8 -72,165.9 -145.3,249.9 C 172.8,367.1 96,437.3 27.6,489.4 c 80.9,-12 184.6,-63.9 272.6,-133.1 27.8,-21.9 54.1,-45.5 77.6,-70 -6.7,1.1 -13.6,1.6 -20.3,1.8 l 58.4,-45.3 c 40,-50.4 66.7,-102.5 71.3,-149.4 0.9,-9.2 1.4,-22.7 -0.6,-34.8 -2,-12.1 -6.5,-21.9 -13.3,-26.4 -8.7,-5.7 -24,-9.2 -39.6,-9.5 -1.7,-0.1 -3.5,-0.1 -5.3,0 z m -97.1,331.4 c -6.6,5.5 -13.3,10.9 -20,16.3 -12.8,10 -25.8,19.7 -39.1,29 22.9,14.9 46.3,28.4 69.5,40.2 19.3,2.3 38.6,4.7 57.9,7 -5.5,5.3 -11.9,8.9 -18.9,11.3 36.5,15.7 71.9,26.6 103.7,31.3 -49.2,-37.3 -102.7,-84 -153.1,-135.1 z"
   id="path1"
   style="fill:#ffffff" />

</g>
  </g>
</svg>
