<?xml version="1.0" encoding="UTF-8" standalone="no"?>
<!-- Created with Inkscape (http://www.inkscape.org/) -->

<svg
   width="256"
   height="256"
   viewBox="0 0 64 64"
   version="1.1"
   id="svg1"
   inkscape:version="1.4 (86a8ad7, 2024-10-11)"
   sodipodi:docname="Icon.svg"
   xmlns:inkscape="http://www.inkscape.org/namespaces/inkscape"
   xmlns:sodipodi="http://sodipodi.sourceforge.net/DTD/sodipodi-0.dtd"
   xmlns="http://www.w3.org/2000/svg"
   xmlns:svg="http://www.w3.org/2000/svg">
  <sodipodi:namedview
     id="namedview1"
     pagecolor="#505050"
     bordercolor="#eeeeee"
     borderopacity="1"
     inkscape:showpageshadow="0"
     inkscape:pageopacity="0"
     inkscape:pagecheckerboard="0"
     inkscape:deskcolor="#505050"
     inkscape:document-units="px"
     showgrid="true"
     inkscape:zoom="1.5292969"
     inkscape:cx="54.273308"
     inkscape:cy="125.22095"
     inkscape:window-width="1920"
     inkscape:window-height="1001"
     inkscape:window-x="-9"
     inkscape:window-y="-9"
     inkscape:window-maximized="1"
     inkscape:current-layer="layer1">
    <inkscape:grid
       id="grid1"
       units="px"
       originx="0"
       originy="0"
       spacingx="2"
       spacingy="2"
       empcolor="#0099e5"
       empopacity="0.30196078"
       color="#0099e5"
       opacity="0.14901961"
       empspacing="4"
       enabled="true"
       visible="true"
       dotted="false" />
  </sodipodi:namedview>
  <defs
     id="defs1" />
  <g
     inkscape:label="Layer 1"
     inkscape:groupmode="layer"
     id="layer1">
    <path
       d="m 29.370788,56.773369 c -0.09,-2.002503 -0.18,-4.522508 -0.213749,-5.60251 -0.03375,-1.080001 -0.07875,-1.991253 -0.1125,-2.036253 -0.03375,-0.03375 -0.225,0 -0.4275,0.07875 -0.776248,0.2925 -1.574997,0.0225 -1.721247,-0.585001 -0.0675,-0.28125 -0.135,-0.303751 -0.776248,-0.2475 -0.877499,0.0675 -1.338748,-0.236252 -1.338748,-0.888752 0,-0.517501 0.348749,-0.900002 1.023748,-1.125003 0.618749,-0.21375 0.641249,-0.39375 0.0675,-0.48375 -0.731249,-0.12375 -1.046248,-0.36 -1.046248,-0.765002 0,-0.39375 0.303749,-0.911251 0.697498,-1.192501 0.23625,-0.16875 0.23625,-0.19125 -0.0225,-0.517502 -0.348749,-0.43875 -0.337499,-0.742501 0.03375,-1.170001 0.2025,-0.236251 0.48375,-0.371251 0.866249,-0.427502 0.562499,-0.07875 0.562499,-0.07875 0.483749,-0.52875 -0.10125,-0.540001 0.1575,-0.888752 0.821249,-1.113752 0.39375,-0.12375 0.45,-0.2025 0.45,-0.596251 0,-0.382501 -0.2475,-1.777503 -0.34875,-1.901253 -0.01125,-0.0225 -0.21375,0.05625 -0.43875,0.16875 -0.967498,0.506251 -2.013747,0.0675 -2.013747,-0.843751 0,-0.573751 0.21375,-0.821252 0.989999,-1.147503 0.461249,-0.19125 0.494999,-0.23625 0.303749,-0.4275 -0.191249,-0.191251 -0.292499,-0.168751 -1.192498,0.28125 -0.539998,0.270001 -1.304997,0.585001 -1.698747,0.697502 -0.393749,0.1125 -1.012498,0.3825 -1.383748,0.585 -0.989998,0.551251 -1.631247,0.731252 -1.878747,0.528751 -0.348749,-0.2925 -0.224999,-1.102501 0.3375,-2.205003 0.607499,-1.203753 0.944998,-1.620003 1.687497,-2.081254 1.192498,-0.753751 3.678745,-1.136252 4.814992,-0.742501 0.23625,0.07875 0.46125,0.1125 0.50625,0.0675 0.14625,-0.14625 -0.809999,-1.327503 -2.024997,-2.497505 -1.192498,-1.136252 -1.664997,-1.732503 -2.801246,-3.498756 -0.326249,-0.506251 -0.618749,-0.945001 -0.641249,-0.967501 -0.0225,-0.0225 -0.461249,0.1575 -0.956248,0.41625 -1.046248,0.528751 -2.092497,0.821252 -3.442495,0.945002 -0.506249,0.045 -1.304997,0.16875 -1.766247,0.28125 -0.843748,0.191251 -2.744995,0.258751 -3.138745,0.112501 -0.112499,-0.045 -0.213749,-0.135001 -0.213749,-0.202501 0,-0.30375 1.001248,-1.451252 1.844997,-2.115003 1.923747,-1.496253 3.014995,-2.002504 5.456241,-2.520005 l 1.113748,-0.23625 0.16875,-0.652502 c 0.09,-0.36 0.23625,-1.012501 0.326249,-1.451253 0.1575,-0.75375 0.43875,-1.361251 0.719999,-1.552502 0.641249,-0.450001 3.284995,2.835005 4.331243,5.37751 0.2475,0.607501 0.663749,0.877501 0.663749,0.427501 0,-0.157501 0.1125,-0.180001 0.52875,-0.112501 l 0.528748,0.09 -0.01125,-0.585001 c 0,-0.315 -0.05625,-0.900001 -0.1125,-1.293752 -0.09,-0.607501 -0.179999,-0.787502 -0.686248,-1.248752 -0.877499,-0.810001 -3.172495,-2.148754 -6.41249,-3.735006 -1.597497,-0.776252 -2.936245,-1.417503 -2.981245,-1.417503 -0.045,0 -0.584999,-0.2475 -1.203748,-0.551251 -0.809999,-0.393751 -1.394998,-0.821252 -2.137497,-1.530002 -0.562499,-0.540002 -1.226248,-1.080002 -1.484997,-1.215003 -1.259998,-0.641251 -2.643746,-1.867503 -2.452496,-2.182504 0.168749,-0.27 1.507497,-0.517501 2.857495,-0.517501 1.597497,0 2.351246,0.180001 3.284995,0.776252 0.348749,0.225 1.012498,0.506251 1.496247,0.618751 1.181248,0.30375 1.574998,0.48375 2.339997,1.057502 0.753748,0.573751 2.317496,2.047503 2.317496,2.205004 0,0.1125 1.439998,2.013753 1.597497,2.126253 0.05625,0.03375 0.483749,0.551251 0.944999,1.147502 1.529997,1.946253 2.508745,3.127506 2.508745,3.015005 0,-0.05625 -0.0675,-0.945002 -0.146249,-1.968753 l -0.134999,-1.856253 -0.6075,-0.933752 c -0.337499,-0.5175 -0.888748,-1.260002 -1.237498,-1.665003 -1.034998,-1.215002 -1.552497,-2.025003 -1.799997,-2.790005 -0.135,-0.405 -0.326249,-0.945001 -0.438749,-1.192502 -0.46125,-1.080001 -0.09,-3.633756 0.596249,-4.083757 0.2925,-0.1912499 0.348749,-0.16875 1.304998,0.540001 0.551249,0.416251 1.046248,0.742502 1.113748,0.742502 0.0675,0 0.179999,-0.348752 0.258749,-0.787502 0.19125,-1.1025019 0.63,-1.9012529 1.743748,-3.2400059 0.348749,-0.41625 0.697499,-0.27 1.316247,0.528751 1.642498,2.1150039 2.092497,4.1512579 1.743748,7.7625139 -0.12375,1.260002 -0.225,1.608752 -1.462498,5.208759 -0.30375,0.866251 -0.517499,1.608753 -0.48375,1.642503 0.03375,0.03375 0.18,0.0225 0.32625,-0.0225 0.16875,-0.05625 0.48375,-0.528751 0.866249,-1.305002 1.068748,-2.193755 2.216246,-4.612508 2.216246,-4.691258 0,-0.07875 0.539999,-0.877502 0.674999,-0.990003 0.045,-0.03375 0.36,-0.5175 0.72,-1.068751 1.214997,-1.878754 1.338747,-2.058754 1.732497,-2.508755 0.686248,-0.776251 1.034998,-1.091252 1.822496,-1.608752 0.776249,-0.5175009 3.397495,-1.5187529 4.511243,-1.7325029 0.663749,-0.12375 1.901247,0.01125 2.126247,0.23625 0.179999,0.18 -0.562499,2.1150029 -1.248748,3.2287559 -0.348749,0.585 -0.776249,1.057502 -1.282498,1.428752 -0.41625,0.303751 -1.203748,0.978752 -1.743747,1.496253 -1.046248,0.990002 -2.328747,1.901253 -3.374995,2.407504 -0.652499,0.315001 -0.854998,0.596251 -0.25875,0.371251 0.46125,-0.16875 0.55125,-0.0675 0.72,0.855001 0.146249,0.810002 0.0225,1.800003 -0.34875,2.778755 -0.10125,0.28125 -0.19125,0.528751 -0.19125,0.562501 0,0.03375 0.28125,-0.0675 0.629999,-0.213751 1.271248,-0.5625 3.183745,-1.136251 4.218743,-1.282502 3.611245,-0.506251 5.118742,-0.517501 6.997489,-0.03375 1.079999,0.270001 3.161245,1.170002 3.161245,1.350002 0,0.292501 -1.147498,0.675002 -4.218743,1.395003 -1.979997,0.46125 -2.564996,0.720002 -1.653747,0.720002 1.473747,0 3.959993,1.653752 5.186242,3.453755 0.461248,0.675001 1.203747,2.025004 1.203747,2.193754 0,0.12375 -0.877498,0.07875 -1.619997,-0.07875 -0.3825,-0.07875 -1.417498,-0.495001 -2.294997,-0.922502 -1.237497,-0.607501 -1.788747,-0.798751 -2.463745,-0.866251 -0.4725,-0.045 -1.563748,-0.292501 -2.418747,-0.540001 -0.854998,-0.247501 -1.676247,-0.450001 -1.833747,-0.450001 -0.25875,0 -0.25875,0.03375 0.14625,0.596251 0.23625,0.326251 0.4725,0.596251 0.517499,0.596251 0.2025,0 0.663749,1.080002 0.854999,2.002504 0.112499,0.551251 0.303749,1.395002 0.427499,1.890003 0.225,0.956252 0.16875,1.878753 -0.135,2.306254 -0.1575,0.225 -0.236249,0.225 -0.753748,0.07875 -1.383749,-0.405001 -4.151244,-2.655005 -4.983742,-4.061257 -0.25875,-0.438751 -0.731249,-1.023752 -1.046249,-1.293752 -0.314999,-0.281251 -0.854998,-0.922502 -1.192498,-1.440003 -0.337499,-0.506251 -0.674999,-0.933751 -0.753749,-0.933751 -0.314999,0 -0.674998,0.315 -1.203748,1.035001 -0.303749,0.416251 -1.012498,1.215003 -1.563747,1.766253 -1.383748,1.372503 -2.981245,3.386256 -2.891245,3.645007 0.10125,0.32625 0.708748,0.21375 1.293748,-0.236251 0.922498,-0.708751 1.574997,-0.978751 2.576245,-1.080001 1.158749,-0.112501 2.733746,0.03375 2.823746,0.25875 0.1575,0.416251 -1.788747,2.452504 -2.339997,2.452504 -0.07875,0 -0.146249,0.05625 -0.146249,0.1125 0,0.168751 0.494999,0.281251 1.304997,0.281251 0.854999,0 4.871243,0.472501 5.804991,0.686251 0.36,0.07875 0.956248,0.360001 1.304998,0.618751 0.34875,0.258751 0.956249,0.596251 1.327498,0.753752 0.686249,0.28125 1.608748,0.765001 2.486246,1.293752 0.54,0.32625 2.126247,1.890003 2.126247,2.092503 0,0.191251 -1.372498,0.168751 -2.328747,-0.045 -1.248747,-0.28125 -3.937494,-1.012501 -4.173742,-1.125002 -0.4275,-0.225 -3.104996,-1.080001 -3.172496,-1.023751 -0.03375,0.03375 0.23625,0.472501 0.596249,0.967501 1.304998,1.766253 2.159997,3.757507 2.159997,5.040009 0,0.517501 -0.03375,0.596251 -0.34875,0.663751 -0.742499,0.191251 -3.408744,-0.922501 -5.366241,-2.238753 -2.159997,-1.451253 -3.971243,-3.330006 -5.129992,-5.32126 -0.28125,-0.495 -0.551248,-0.900001 -0.596248,-0.900001 -0.045,0 -0.30375,0.23625 -0.59625,0.528751 -0.404999,0.41625 -0.472499,0.528751 -0.269999,0.528751 0.236249,0 0.236249,0.01125 -0.01125,0.28125 -0.135,0.1575 -0.25875,0.472501 -0.25875,0.720001 0,0.427501 0.01125,0.438751 0.719999,0.506251 1.001248,0.10125 1.664997,0.641251 1.721247,1.395003 0.05625,0.731251 -0.326249,0.990001 -1.361247,0.945001 -0.405,-0.0225 -0.776249,0 -0.821249,0.045 -0.12375,0.123751 0.07875,0.630001 0.258749,0.630001 0.1125,0 0.14625,0.258751 0.1125,0.933752 -0.03375,0.506251 -0.01125,0.933752 0.03375,0.933752 0.045,0 0.25875,-0.123751 0.46125,-0.270001 0.494998,-0.37125 1.259997,-0.528751 1.799996,-0.37125 0.34875,0.09 0.483749,0.23625 0.652499,0.675001 0.2025,0.506251 0.2025,0.573751 -0.01125,0.922501 -0.21375,0.360001 -0.877498,0.776252 -1.248747,0.776252 -0.09,0 0.0225,0.2025 0.247499,0.438751 0.888748,0.911251 0.3375,1.822503 -1.102499,1.822503 -0.719998,0 -0.731248,0.01125 -0.731248,0.36 0,0.562501 0.14625,0.967502 0.3375,0.967502 0.12375,0 0.191249,0.393751 0.236249,1.496253 0.07875,1.968753 0.337499,4.128757 0.517499,4.230007 0.09,0.05625 0.09,0.1125 0.01125,0.16875 -0.07875,0.045 -0.12375,1.743753 -0.12375,4.477508 0,2.418754 -0.0225,4.410008 -0.045,4.443758 -0.03375,0.03375 -0.27,0.09 -0.528748,0.14625 l -0.4725,0.09 z M 28.549539,44.769598 c 0,-0.18 -0.05625,-0.337501 -0.135,-0.337501 -0.146249,0 -0.179999,0.438751 -0.045,0.573751 0.1575,0.1575 0.18,0.1125 0.18,-0.23625 z m 0.663749,-13.173773 c 0.2925,-0.663751 0.3375,-1.068752 0.14625,-1.372502 -0.1125,-0.168751 -0.135,-0.168751 -0.191249,0 -0.23625,0.663751 -0.4275,1.991253 -0.28125,1.991253 0.0225,0 0.16875,-0.28125 0.326249,-0.618751 z m -1.203747,-2.081254 c -0.01125,-0.607501 0.045,-1.417502 0.12375,-1.811253 0.303748,-1.473752 0.134999,-2.070003 -0.675,-2.486254 l -0.404999,-0.21375 0.07875,0.3825 c 0.134999,0.630001 0.596249,3.645007 0.686249,4.466258 0.045,0.416251 0.1125,0.765001 0.14625,0.765001 0.045,0 0.05625,-0.495 0.045,-1.102502 z m 1.192497,-1.608752 c 0.0225,-0.585001 -0.07875,-0.360001 -0.157499,0.3825 -0.05625,0.450001 -0.045,0.551251 0.03375,0.337501 0.05625,-0.19125 0.123749,-0.506251 0.123749,-0.720001 z m 0.46125,-3.656257 c 0.18,-1.147502 0.09,-1.293752 -0.16875,-0.25875 -0.1575,0.641251 -0.2025,1.541252 -0.07875,1.406252 0.045,-0.03375 0.1575,-0.551251 0.2475,-1.147502 z m 0.686248,-2.891255 c 0.4725,-1.012501 0.50625,-1.293753 0.135,-0.990001 -0.326249,0.27 -0.911248,2.002503 -0.674998,2.002503 0.045,0 0.281249,-0.450001 0.539998,-1.012502 z m -0.866248,-1.305003 c 0.01125,-0.37125 -0.2475,0.213752 -0.314999,0.720002 l -0.07875,0.596251 0.202499,-0.596251 c 0.10125,-0.32625 0.19125,-0.652502 0.19125,-0.720002 z m 1.788747,-0.63 c 0.1125,-0.1575 0.2025,-0.348751 0.2025,-0.416251 0,-0.1575 -0.382499,0.16875 -0.539999,0.472501 -0.19125,0.34875 0.07875,0.30375 0.337499,-0.05625 z"
       id="path1"
       style="fill:#ffffff;stroke-width:0.1125" />
  </g>
</svg>
