<?xml version="1.0" encoding="UTF-8" standalone="no"?>
<!-- Created with Inkscape (http://www.inkscape.org/) -->

<svg
   width="256"
   height="256"
   viewBox="0 0 64 64"
   version="1.1"
   id="svg1"
   inkscape:version="1.4 (86a8ad7, 2024-10-11)"
   sodipodi:docname="Icon.svg"
   xmlns:inkscape="http://www.inkscape.org/namespaces/inkscape"
   xmlns:sodipodi="http://sodipodi.sourceforge.net/DTD/sodipodi-0.dtd"
   xmlns="http://www.w3.org/2000/svg"
   xmlns:svg="http://www.w3.org/2000/svg">
  <sodipodi:namedview
     id="namedview1"
     pagecolor="#505050"
     bordercolor="#eeeeee"
     borderopacity="1"
     inkscape:showpageshadow="0"
     inkscape:pageopacity="0"
     inkscape:pagecheckerboard="0"
     inkscape:deskcolor="#505050"
     inkscape:document-units="px"
     showgrid="true"
     inkscape:zoom="2.1627524"
     inkscape:cx="137.32501"
     inkscape:cy="179.16984"
     inkscape:window-width="1920"
     inkscape:window-height="1001"
     inkscape:window-x="-9"
     inkscape:window-y="-9"
     inkscape:window-maximized="1"
     inkscape:current-layer="layer1">
    <inkscape:grid
       id="grid1"
       units="px"
       originx="0"
       originy="0"
       spacingx="2"
       spacingy="2"
       empcolor="#0099e5"
       empopacity="0.30196078"
       color="#0099e5"
       opacity="0.14901961"
       empspacing="4"
       enabled="true"
       visible="true"
       dotted="false" />
  </sodipodi:namedview>
  <defs
     id="defs1" />
  <g
     inkscape:label="Layer 1"
     inkscape:groupmode="layer"
     id="layer1">
    <g
       id="g5"
       style="fill:#ffffff"
       transform="matrix(0.125,0,0,0.12500012,-5.5125,-5.4967056)">
	<path
   d="m 344.6,339.2 c -7.8,8 -15.7,16.1 -23.6,24.3 -17.8,-17.7 -35.7,-35.4 -53.5,-53.1 -27.7,-3.9 -54.1,-11.3 -78,-22 -42.6,43.2 -85.2,86.3 -127.6,129.4 6.4,6.5 12.3,12.5 19.8,20.2 3.3,-4.7 14.9,-17.9 18.3,-22.7 29.8,29.5 58.1,57.5 87.1,86.3 -3.9,3.4 -16.5,15.5 -20,18.6 6.7,6.7 12.7,12.8 19,19.2 58.1,-58.9 116.3,-117.9 174.4,-176.9 -5.3,-7.8 -10.6,-15.5 -15.9,-23.3 z M 205.9,481 c -28.4,-28.4 -56.6,-56.5 -84.5,-84.2 13,-13.7 23,-24.3 37.1,-39.2 28.5,28.5 56.6,56.7 84.4,84.5 -12.9,13.6 -22.9,24.2 -37,38.9 z m 57.4,-58.8 c -28.1,-28.1 -56.2,-56.2 -84.4,-84.4 13.5,-14 23,-24.1 37.1,-38.7 28.5,28.5 56.7,56.6 84.3,84.2 -13,13.6 -22.7,23.9 -37,38.9 z"
   id="path1"
   style="fill:#ffffff" />

	<path
   d="m 518.8,163 c -3.5,4.2 -14.1,15.6 -17.8,20.1 -29.2,-29.1 -57.5,-57.2 -86.8,-86.5 3.7,-3 15.1,-13.5 19.2,-16.9 -7,-6.8 -13,-12.6 -19.5,-18.9 -12.9,13.1 -25.8,26.2 -38.8,39.4 -2.6,2.7 -5.3,5.4 -7.9,8.1 -21.2,21.5 -42.5,43.1 -63.7,64.6 5,7.9 10.3,15.7 15.6,23.4 7.2,-7.3 10.8,-11 18.2,-18.5 l 83.9,83.9 c -12,12.2 -20.9,21.3 -33.8,34.5 5.2,7.6 10.5,15.3 15.8,23.2 45.1,-45.7 90.1,-91.4 135.1,-137 -6.5,-6.5 -12.6,-12.6 -19.5,-19.4 z m -77.4,78.5 c -28,-28 -56.1,-56.2 -84.2,-84.4 13.1,-13.5 23.9,-24.6 38.2,-39.3 28.1,28.2 56.2,56.5 84.2,84.6 -13,13.3 -23.9,24.5 -38.2,39.1 z"
   id="path2"
   style="fill:#ffffff" />

	<g
   id="g4"
   style="fill:#ffffff">
		<path
   d="m 280.6,138.8 c -2.2,1.6 -4,2.9 -5.9,4.2 -14.3,9.7 -28.4,19.6 -42.8,29 -11.4,22.4 -14.3,57.3 70.5,126.4 C 142.7,293 45.6,173.2 100.5,65.4 c 0.7,-1.4 12.7,35.9 32.3,49.6 7.7,5.4 18.1,4.9 25.6,-0.7 20.1,-15 34.1,-52.2 34.7,-52.6 0.6,-0.4 32.6,1.3 54.9,-0.7 25.1,-2.2 61.1,-1.5 92.7,27.8 -19.9,-3.2 -42.2,2.6 -49.2,7.3 -8.3,5.5 -19.4,21.1 -10.9,42.7 z"
   id="path3"
   style="fill:#ffffff" />

		<path
   d="m 251.7,180.2 c 8.6,-5.8 17.8,-12.1 26.5,-18 0.6,-0.4 1.5,-0.2 1.8,0.4 14.4,26.2 32.3,49.5 48.6,73.7 50.6,75 133.4,195.4 184.3,270.3 5.9,8.7 -2.4,19.9 -2.4,19.9 l -10,12.7 c -0.5,0.7 -1.6,0.7 -2.1,-0.1 -4.5,-6.6 -60.3,-89.1 -62.1,-91.7 -53.5,-78.7 -106.8,-157.5 -160.6,-236 -7.1,-10.4 -16,-19.6 -24.4,-29.5 -0.3,-0.4 -0.2,-1.2 0.4,-1.7 z"
   id="path4"
   style="fill:#ffffff" />

	</g>

</g>
  </g>
</svg>
