<?xml version="1.0" encoding="UTF-8" standalone="no"?>
<!-- Created with Inkscape (http://www.inkscape.org/) -->

<svg
   width="256"
   height="256"
   viewBox="0 0 64 64"
   version="1.1"
   id="svg1"
   inkscape:version="1.4 (86a8ad7, 2024-10-11)"
   sodipodi:docname="Icon.svg"
   xmlns:inkscape="http://www.inkscape.org/namespaces/inkscape"
   xmlns:sodipodi="http://sodipodi.sourceforge.net/DTD/sodipodi-0.dtd"
   xmlns="http://www.w3.org/2000/svg"
   xmlns:svg="http://www.w3.org/2000/svg">
  <sodipodi:namedview
     id="namedview1"
     pagecolor="#505050"
     bordercolor="#eeeeee"
     borderopacity="1"
     inkscape:showpageshadow="0"
     inkscape:pageopacity="0"
     inkscape:pagecheckerboard="0"
     inkscape:deskcolor="#505050"
     inkscape:document-units="px"
     showgrid="true"
     inkscape:zoom="2.1627524"
     inkscape:cx="103.10935"
     inkscape:cy="150.96504"
     inkscape:window-width="1920"
     inkscape:window-height="1001"
     inkscape:window-x="-9"
     inkscape:window-y="-9"
     inkscape:window-maximized="1"
     inkscape:current-layer="layer1">
    <inkscape:grid
       id="grid1"
       units="px"
       originx="0"
       originy="0"
       spacingx="2"
       spacingy="2"
       empcolor="#0099e5"
       empopacity="0.30196078"
       color="#0099e5"
       opacity="0.14901961"
       empspacing="4"
       enabled="true"
       visible="true"
       dotted="false" />
  </sodipodi:namedview>
  <defs
     id="defs1" />
  <g
     inkscape:label="Layer 1"
     inkscape:groupmode="layer"
     id="layer1">
    <path
       class="st0"
       d="m 31.118853,28.538229 c 1.649992,2.750002 1.749992,6.200005 0.199999,9.050008 -0.649997,1.300001 -1.499992,2.550002 -2.449988,3.650003 -1.699992,1.850001 -2.649987,4.250003 -2.699987,6.750005 -0.149999,3.050003 1.149995,6.000005 3.549983,7.950007 2.999986,2.150002 6.999966,2.200002 10.049951,0.1 2.299989,-1.700001 3.799982,-4.250004 4.14998,-7.050006 0.749997,-4.200003 -0.249999,-8.500007 -2.849986,-11.90001 -2.199989,-3.150003 -4.999976,-5.800005 -8.29996,-7.700006 -0.549997,-0.350001 -1.099994,-0.600001 -1.649992,-0.850001 z m 1.549993,10.050008 c 0.949995,2.850003 0.349998,6.000005 -1.599992,8.300007 -0.349999,0.300001 -0.749997,0.500001 -1.199995,0.600001 -0.749996,0.2 -1.199994,-0.2 -1.199994,-1.000001 0,-0.2 0,-0.4 0,-0.6 0.249999,-1.350002 0.949996,-2.650003 1.949991,-3.600003 1.049995,-0.950001 1.799991,-2.250002 2.04999,-3.700004 z M 52.068752,30.13823 c -0.05,0.750001 -0.199999,1.550002 -0.449998,2.250002 -0.749997,1.250001 -1.399993,2.600002 -1.799991,4.000004 -0.499998,2.850002 0.699996,4.150003 0.999995,5.700004 0.05,0.05 0.05,0.15 0,0.250001 l -0.1,0.25 c -0.649997,1.300001 -1.499993,2.500002 -2.449988,3.550003 -0.399998,0.5 -0.849996,0.950001 -1.349993,1.350001 -0.249999,0 -0.849996,0.3 -1.649992,0.5 0.549997,-4.200003 -0.599997,-8.500007 -3.149985,-11.90001 -2.299989,-3.250002 -5.249975,-6.000005 -8.699958,-8.050006 l -1.199994,-0.600001 -0.549997,-0.25 -3.599983,-1.750001 2.09999,3.450002 c 1.499993,2.450002 1.599992,5.500005 0.199999,8.000007 -0.1,0.3 -0.249999,0.6 -0.449998,0.850001 l -0.599997,-0.300001 h -0.349998 c -0.499998,-0.15 -1.049995,-0.15 -1.599993,0 -1.349993,0.400001 -3.499983,1.250001 -3.899981,1.350002 -0.649996,0.05 -1.249994,0.05 -1.89999,0 -1.249994,-0.100001 -2.449989,-0.350001 -3.649983,-0.650001 -0.849996,-0.3 -1.649992,-0.700001 -2.399988,-1.250001 -0.599998,-0.4 -1.099996,-0.900001 -1.599993,-1.450001 -0.399998,-0.650001 -0.749997,-1.350001 -1.049995,-2.100002 -0.1,-0.35 -0.199999,-0.700001 -0.249999,-1.100001 0,-0.25 0,-0.5 0,-0.700001 0,-0.2 0.05,-0.15 0.249999,-0.15 l 1.199994,0.750001 c 0.799996,0.55 1.599993,0.950001 2.449989,1.350001 1.149995,0.45 2.349989,0.750001 3.549983,0.850001 0.799996,-0.05 1.649992,-0.25 2.399988,-0.500001 0.05,0 0.1,-0.05 0.1,-0.1 0,-0.05 -0.05,-0.1 -0.1,-0.1 -4.14998,-0.900001 -7.599964,-2.600002 -9.099957,-5.000004 -1.299993,-1.800001 -1.89999,-4.000002 -1.699991,-6.250004 0.05,-0.650001 0.249998,-1.300001 0.499997,-1.850002 0.199999,-0.45 0.399998,-0.900001 0.449998,-1.000001 v 0 c 0,0 0.749996,-1.200001 1.099995,-1.750001 0.05,-0.05 0.1,-0.05 0.149999,-0.05 0,0 0.05,0 0.05,0.05 0.199999,2.400002 0.249999,3.450003 0.399998,4.150003 0.249999,1.250001 0.799996,2.400002 1.599993,3.450003 0.949995,1.05 2.09999,1.950001 3.399984,2.600001 0.649996,0.300001 1.349993,0.500001 2.099989,0.650001 h 2.09999 c 0.699997,-0.1 1.399993,-0.3 2.09999,-0.55 v 0 0 c -0.299999,-0.200001 -2.09999,-0.750001 -2.549988,-1.000001 -0.849996,-0.350001 -1.699991,-0.850001 -2.449988,-1.45 C 15.36893,21.538224 16.368925,10.138214 21.5189,6.4382107 c 0.05,-0.05 0.149999,0 0.199999,0.05 0,0 0,0.05 0,0.05 -0.849996,3.300003 -0.849996,6.8000063 0,10.1000093 0.599997,2.200002 1.99999,4.050003 3.899981,5.300004 0.799996,0.550001 1.749991,0.950001 2.749987,1.100001 h 0.249998 c 0,0 0.15,0 0.1,-0.15 -3.299984,-4.800004 -2.849986,-7.700006 -2.749987,-8.900007 0.15,-1.400001 0.449998,-2.800003 0.949996,-4.1500043 0.949995,-2.500002 1.849991,-3.050002 2.249989,-3.250003 h 0.149999 c 1.299994,14.0000123 5.899971,13.8500123 9.399954,18.0500163 v 0 l 1.799992,0.3 v 0 c 0.349998,-0.2 3.249984,-2.100002 3.799981,-2.500002 0.999995,-0.750001 1.749992,-1.850002 2.09999,-3.100003 -0.05,-0.75 -0.249999,-1.500001 -0.549997,-2.200002 -0.349999,-0.7 -0.699997,-1.400001 -1.099995,-2.100001 -0.749996,-1.150001 -2.799986,-4.300004 -2.349989,-4.750004 0.449998,-0.4500013 4.649978,0.95 4.899977,1.05 0.149999,0.100001 0.349998,0.200001 0.499997,0.300001 1.399993,1.150001 2.649987,2.500002 3.699982,3.950003 0.199999,0.4 0.399998,0.750001 0.499998,1.200001 0.149999,0.650001 0.299998,1.300001 0.349998,1.950002 -0.1,5.500004 0,8.800006 -0.299998,11.400008 z"
       id="path1"
       style="fill:#ffffff;stroke-width:0.5" />
  </g>
</svg>
