<?xml version="1.0" encoding="UTF-8" standalone="no"?>
<!-- Created with Inkscape (http://www.inkscape.org/) -->

<svg
   width="256"
   height="256"
   viewBox="0 0 64 64"
   version="1.1"
   id="svg1"
   inkscape:version="1.4 (86a8ad7, 2024-10-11)"
   sodipodi:docname="Icon.svg"
   xmlns:inkscape="http://www.inkscape.org/namespaces/inkscape"
   xmlns:sodipodi="http://sodipodi.sourceforge.net/DTD/sodipodi-0.dtd"
   xmlns="http://www.w3.org/2000/svg"
   xmlns:svg="http://www.w3.org/2000/svg">
  <sodipodi:namedview
     id="namedview1"
     pagecolor="#505050"
     bordercolor="#eeeeee"
     borderopacity="1"
     inkscape:showpageshadow="0"
     inkscape:pageopacity="0"
     inkscape:pagecheckerboard="0"
     inkscape:deskcolor="#505050"
     inkscape:document-units="px"
     showgrid="true"
     inkscape:zoom="1.0813762"
     inkscape:cx="112.8192"
     inkscape:cy="158.59421"
     inkscape:window-width="1920"
     inkscape:window-height="1001"
     inkscape:window-x="-9"
     inkscape:window-y="-9"
     inkscape:window-maximized="1"
     inkscape:current-layer="layer1">
    <inkscape:grid
       id="grid1"
       units="px"
       originx="0"
       originy="0"
       spacingx="2"
       spacingy="2"
       empcolor="#0099e5"
       empopacity="0.30196078"
       color="#0099e5"
       opacity="0.14901961"
       empspacing="4"
       enabled="true"
       visible="true"
       dotted="false" />
  </sodipodi:namedview>
  <defs
     id="defs1" />
  <g
     inkscape:label="Layer 1"
     inkscape:groupmode="layer"
     id="layer1">
    <g
       id="g3"
       transform="matrix(0.1125,0,0,0.11250006,-1.75,-1.4866597)"
       style="fill:#ffffff">
	<g
   id="g2"
   style="fill:#ffffff">
		<path
   class="st0"
   d="M 525.8,316.1 C 525.8,440.8 424.8,542 300.1,542 175.4,542 74.2,441 74.2,316.3 c 0,-14.9 1.4,-29.6 4.2,-43.7 44.3,76.4 127,127.7 221.6,127.7 94.6,0 177.3,-51.5 221.5,-127.8 2.9,14.1 4.3,28.7 4.3,43.6 z"
   id="path1"
   style="fill:#ffffff" />

	</g>

	<path
   class="st0"
   d="m 507.6,231.9 v 0 c -0.3,0.4 -0.8,1.2 -1.7,1.8 -0.4,0.3 -0.8,0.5 -1.2,0.7 -0.9,0.4 -1.9,0.8 -2.9,1.3 -4.3,2.1 -9.7,4.6 -16.3,3 -2.9,-0.7 -5.8,-1.4 -8.5,-1.9 -0.6,-0.1 -1.3,0 -3.2,1 -1.6,0.9 -3.2,0.9 -4.2,1 -0.2,0 -0.3,0 -0.5,0 -0.7,0.1 -1.2,0 -1.7,0 H 467 c -3.4,1.3 -7,2.8 -11.3,4.6 -1.5,0.7 -3,1.4 -4.6,2.1 -1.6,0.8 -3.3,1.6 -5,2.3 -1.3,0.6 -2.6,0.8 -3.6,1 -0.3,0.1 -0.6,0.1 -0.9,0.2 -0.9,0.2 -1.7,0.3 -2.5,0.4 -0.5,0.1 -1.3,0.2 -1.6,0.3 -0.1,0.1 -0.2,0.2 -0.3,0.2 -3.1,2.3 -6.6,3.6 -9.6,4.7 -1.5,0.6 -2.9,1.1 -4.2,1.7 l -1.8,0.9 c -1.9,0.9 -4,1.9 -6,2.8 -1.8,0.8 -3.6,0.6 -4.4,0.5 -2.4,-0.3 -4,0 -5.4,0.9 -1.8,1.2 -3.8,2.3 -6.3,2.6 -2.3,0.2 -4.7,1 -7.1,2.6 0.8,4.2 1.2,8.5 1.4,12.8 0.1,2 0.1,4.1 0.1,6.2 1.1,0.1 2.2,0.2 3.5,0.3 0.6,0 1.2,0.1 1.7,0.1 2.5,0.2 5.1,0 7.9,-0.2 1.5,-0.1 3,-0.2 4.5,-0.3 1.3,0 2.5,0 3.5,0.1 l 0.9,0.1 c 2.2,0.1 4.3,0.3 6.5,0.4 h 0.3 c 0.7,0 1.7,0.1 2.8,0.4 6.4,2.1 13.3,2.3 19.2,2.2 1.4,0 2.8,0 4.1,0.1 0.6,0 1.2,0 1.8,0.1 l 2.7,0.1 c 2.2,0.1 4.5,0.1 6.7,0.2 4.6,0.1 8.5,2.2 11.3,6.1 l 0.7,1 c 0.3,0.4 0.6,0.8 0.9,1.2 -7.9,8.9 -16.5,17.1 -25.6,24.7 -1.3,-0.4 -2.6,-0.8 -3.9,-1.4 -1.8,-0.8 -3.4,-1.7 -5,-2.5 -1.3,-0.7 -2.6,-1.4 -3.8,-2 -2,-0.9 -4.6,-1.4 -7.2,-1.9 -1.4,-0.3 -2.9,-0.5 -4.4,-0.9 l -0.4,-0.1 c -1.5,-0.4 -3.4,-0.8 -5.1,-1.9 v 0 c 0,0 -0.1,0 -0.2,0.1 -2.6,1 -6.7,2.1 -11.3,-0.2 -0.4,-0.2 -1.7,-0.2 -2.5,-0.3 h -0.2 c -4,-0.2 -8.2,-0.3 -13,-0.5 -1.2,4.2 -2.6,8.4 -4.3,12.3 -0.4,1 -0.9,2 -1.3,3 7,2.9 14.2,5.9 21.2,8.7 1.1,0.4 2.4,0.8 3.8,1.1 1,0.2 2,0.5 3.1,0.8 2.8,0.8 6,2 9,4 -10,6.2 -20.5,11.7 -31.4,16.3 -0.3,-0.2 -0.7,-0.3 -1,-0.5 -1.5,-0.9 -3.1,-1.7 -4.6,-2.6 -3.5,-2 -7.2,-4.1 -10.8,-5.9 -1,-0.5 -2,-1 -3,-1.5 -2.1,2.3 -4.4,4.4 -6.8,6.4 -0.2,0.2 -0.4,0.3 -0.6,0.5 -0.3,-0.2 -0.6,-0.4 -0.9,-0.7 -4.2,-2.9 -5.1,-7 -4.4,-11.7 0,-0.2 0,-0.3 0.1,-0.5 0.4,-3.1 0.7,-6.2 2.6,-8.9 0.5,-0.8 0.9,-1.8 0.9,-2.8 0.2,-4.1 2.2,-7.5 3.8,-11.2 0,-0.1 0.1,-0.3 0.2,-0.4 0.9,-2.4 1,-5.1 1.6,-7.6 0.3,-1 0.6,-2 1,-2.9 0.4,-1 0.8,-2 1,-3 0.4,-1.5 0.8,-3 0.8,-4.5 0.1,-5.1 -0.3,-10.3 0.2,-15.4 0.3,-3.7 -0.2,-7.1 -1.4,-10.6 -0.3,-0.9 -0.7,-1.9 -0.7,-2.8 -0.1,-8.6 -4,-15.4 -9.8,-21.5 -2.2,-2.3 -3.5,-5.3 -5.3,-7.9 -0.5,-0.7 -1.2,-1.4 -1.8,-2 -4.9,-4.4 -9.6,-9 -14.8,-13.1 -2.4,-1.9 -5.7,-2.7 -8.6,-4 -0.8,-0.3 -1.6,-0.5 -2.2,-1 -3.6,-3 -7.7,-4.1 -12.3,-3.7 -0.4,0 -0.9,0.1 -1.3,-0.1 -6.2,-2.7 -12.7,-1.8 -18.9,-0.9 -8.7,1.2 -17.4,3.1 -25.8,5.8 -10.3,3.4 -19.7,8.8 -27.2,17 -3.4,3.7 -7.2,7.2 -9.7,11.5 -2.5,4.2 -3.6,9.2 -5.2,14 -0.3,0.9 0.3,2 0.3,3.1 0,1.4 0.2,3.1 -0.4,4.2 -2.1,3.3 -2.3,6.8 -2.2,10.4 0.1,1.3 0.2,2.6 0.3,3.9 -0.1,0.7 -0.2,1.3 -0.3,2 -0.5,3.5 -1,6.8 -0.8,9.8 0.2,3 1.3,6.1 2.4,9.4 0.3,0.9 0.6,1.8 0.9,2.7 0.4,0.4 1,0.9 1.5,1.7 0.1,0.2 0.3,0.4 0.5,0.6 0.9,1.2 2.3,3.1 2.4,5.6 0.1,2 1,4 3,6.6 2,2.6 4.4,5.3 7.4,8.2 0.3,0.3 0.8,0.5 1,0.6 1.3,0.2 2.6,0.5 3.8,1 0.7,0.9 1.3,1.8 1.9,2.7 1.7,2.5 4.1,3.9 6.4,5.6 3.7,2.7 7.8,4.1 11.9,5 4.5,1.5 9.7,3.2 15,5.2 1.4,0.5 2.9,0.5 4.9,0.5 0.5,0 1.1,0 1.6,0 3.5,0.1 6.8,-0.9 10,-2.2 2.9,-0.3 5.9,-0.3 8.6,-1.5 4.3,-1.8 9,-3.5 11.4,-8 0.4,-0.2 0.7,-0.3 1.1,-0.5 l 1,-0.4 c 1.5,-1.9 3.3,-3.4 4.8,-4.7 1.5,-1.3 3,-2.5 3.7,-3.7 l 0.6,-0.9 c 2.1,-3.4 3.5,-5.8 3.3,-8.3 0.6,-1.4 0.9,-3 1,-4.8 0,-3.1 0.9,-6.2 1.6,-9.3 1.2,-6 1.3,-12.1 0.3,-18.1 -0.5,-2.7 -2.4,-5.1 -3.5,-7.7 -0.5,-1.2 -0.4,-2.7 -0.8,-3.9 -0.4,-1.2 -0.7,-2.7 -1.5,-3.6 -2.8,-2.9 -5.6,-6.1 -9,-8.2 -5,-3 -9.8,-6.5 -16.3,-6 -4.5,0.3 -9.1,-0.4 -13.6,0.1 -3.9,0.4 -7.7,1.7 -11.5,2.8 -0.9,0.2 -1.9,0.8 -2.5,1.5 -4.5,5.4 -7.9,11.1 -7.5,18.1 -0.5,0.7 -1.1,1.3 -1.6,2 -0.6,8.2 0.8,12.9 5,16.8 2.2,2.1 4.9,3.9 8.4,5.8 0.5,0.3 1.2,0.4 1.6,0.4 3.8,-0.4 6.9,-1.3 9.4,-2.7 2.7,-0.2 5.4,-0.9 8.2,-2.2 0.9,-0.5 1.9,-1.4 2.2,-2.3 1.2,-3.2 0,-6.7 -3,-8.3 -2.2,-1.2 -4.7,-2.3 -7.2,-2.8 -3.9,-0.8 -6,-4.9 -3.7,-8.2 2.2,-3.2 5.5,-5.1 9.1,-6.2 2.5,-0.7 4.9,-0.4 7,1.3 3,2.4 6.1,4.7 8.9,7.2 5.7,5.1 6.2,11.6 4.9,18.6 -0.3,1.7 -0.6,3.4 -0.7,5.1 -0.2,5.3 -3.1,8.7 -8.2,10 -3.5,0.8 -6.9,2 -10.2,3.3 -5.3,2.2 -10.6,1.3 -15.9,0 -2.5,-0.6 -5.1,-1.4 -7.7,-1.7 -6.7,-0.5 -11.2,-4.6 -15.2,-9.4 -1.2,-1.5 -3,-2.6 -4,-4.2 -1.5,-2.4 -2.7,-5.1 -3.9,-7.7 -1.7,-3.8 -2.4,-7.8 -1.7,-12 0.3,-1.8 -0.4,-3.8 -0.8,-5.7 -1,-4.8 -0.4,-9.1 2.8,-13.1 1.1,-1.3 1.2,-3.6 1.3,-5.5 0.1,-1.5 0.3,-2.7 1.6,-3.7 4.6,-3.7 9.1,-7.6 13.8,-11.1 1,-0.7 2,-1.4 3.1,-2 1.3,-0.5 2.7,-1 4,-1.6 0.9,-0.4 1.8,-0.7 2.7,-1.1 1.6,-0.3 3.3,-0.4 4.9,-0.7 2.8,-0.4 5.7,-0.5 8.5,-1.1 5,-0.9 9.5,0.9 14.1,2 2.4,0.6 4.8,1.2 7.2,1.7 0.2,0.1 0.4,0.2 0.7,0.3 1.6,0.8 3.1,1.5 4.6,2 7.5,2.6 12.5,8 17,12.7 0.4,0.4 0.8,0.8 1.1,1.2 2.1,3 3.5,6.4 5.6,9.4 5,7.1 5.2,15.5 6.6,23.5 0.6,3.5 1.2,7.1 1.4,10.7 0.1,2.8 -0.1,5.7 -0.5,8.5 -1,6.4 -2.1,12.8 -3.3,19.2 -1,5.2 -3.8,9.7 -6.8,14.1 -0.6,0.9 -1.1,1.8 -1.8,2.6 -1.2,1.7 -0.8,3.1 0.3,4.9 2.2,3.4 4.1,7 6.1,10.5 -4.6,1.9 -9.3,3.3 -14.2,4.4 -4,0.9 -8.2,1.6 -12.4,2.1 -1.1,0.1 -4.3,0.5 -8.7,0.9 -4.8,0.4 -11.2,0.9 -18.2,1.2 -1.3,0.1 -2.7,0.1 -4,0.1 -8.1,0.2 -16.6,0 -24.1,-1 0,0 -0.1,0 -0.1,0 -2.6,-0.4 -5.3,-0.9 -7.9,-1.5 -17.8,-3.6 -34.9,-9.2 -51.2,-16.8 2.1,-1.9 4.2,-3.8 6.3,-5.6 l 1.5,-1.3 c -0.2,-0.2 -0.3,-0.3 -0.5,-0.4 -2.8,-2.4 -4.7,-5.1 -5.7,-8.3 -3.5,0.9 -6.9,2.6 -10.4,4.4 -1.6,0.8 -3.3,1.6 -5,2.4 -0.7,0.3 -1.4,0.6 -2.1,0.9 -9.2,-5.1 -18,-10.9 -26.4,-17.2 2.2,-1 4.5,-2 6.7,-2.9 1.8,-0.7 3.4,-1.4 5.1,-2.2 0.3,-0.1 0.6,-0.3 1,-0.5 1.1,-0.6 2.5,-1.4 4.4,-1.7 4.4,-0.7 7.4,-1.5 9.8,-3.3 0.3,-0.2 0.5,-0.4 0.8,-0.6 0.2,-0.2 0.4,-0.3 0.6,-0.5 1,-0.7 2,-1.1 2.7,-1.4 l 0.3,-0.1 c 0.5,-0.2 1,-0.4 1.4,-0.6 0,-0.4 0,-0.9 0,-1.3 0,-0.1 -0.1,-0.6 -0.2,-0.9 -0.1,-0.3 -0.2,-0.7 -0.3,-1 -0.3,-1.1 -0.5,-2.2 -0.8,-3.2 -0.6,-2.6 -1.2,-5.1 -2,-7.4 -0.1,-0.4 -0.7,-1.1 -1.2,-1.8 -2.6,0 -5,0.1 -7.4,0.1 -0.5,0 -1,0.1 -1.6,0.1 -0.7,0.1 -1.5,0.1 -2.4,0.1 -4.9,0.1 -9.7,0.1 -14.6,0.2 h -1.5 c -0.6,0 -1.1,0 -1.7,0 -1.6,0.1 -3.4,0.1 -5.2,-0.1 -7.2,-0.9 -15.8,-1.9 -24.5,-3.3 -1.2,-0.2 -1.7,0 -2.4,0.5 -0.3,0.2 -0.6,0.4 -0.9,0.6 -7.3,-8.2 -14.1,-17.1 -20.3,-26.4 0.7,-0.8 1.6,-1.6 2.5,-2.3 2,-1.5 4.5,-2.6 7.2,-3.2 5.3,-1.3 10.8,0.8 14.1,5.2 0.6,0.8 1.3,1.3 3.2,1.6 0.5,0.1 1,0.1 1.5,0.2 3.2,0.3 6.8,0.7 10.3,2.4 1.7,0.8 3.8,1.3 5.7,1.3 2.4,0 4.9,-0.2 7.5,-0.5 1.3,-0.1 2.6,-0.3 3.9,-0.4 1.6,-0.1 3.1,0.2 4.3,0.9 1.7,1 3.3,0.8 7,-0.2 1.2,-0.3 2.5,-0.6 3.9,-0.9 0.6,-0.1 1.2,-0.2 1.7,-0.3 2.2,-0.4 4.6,-0.9 7.3,-0.7 1.4,0.1 2.7,0.2 4,0.3 0.5,0 1,0.1 1.6,0.1 0.4,-0.9 1,-1.6 1.8,-2.1 l 0.2,-0.1 c 0,0 0.3,-0.2 0.4,-0.3 0.4,-0.3 0.8,-0.8 0.7,-3.1 -1.8,-0.8 -3.7,-1.6 -5.6,-2.3 -1.2,-0.5 -2.4,-1 -3.6,-1.5 l -0.5,-0.2 c -1.3,-0.5 -2.9,-1.2 -4.4,-2.4 -2.1,-1.8 -4.2,-2.8 -6.5,-3.2 -2.1,-0.3 -4.5,-0.8 -6.7,-2.2 -5.3,-3.5 -10.5,-7.1 -15.9,-10.9 -1.4,-1 -2.6,-2 -3.9,-3 -2,-1.6 -3.9,-3.2 -5.8,-4.1 -8.9,-4.1 -18.2,-8 -27.1,-11.8 -3.4,-1.5 -6.8,-2.9 -10.2,-4.4 -3.4,-1.4 -5.6,-1.9 -7.7,-1.6 -3,0.4 -4.8,-0.7 -5.8,-1.7 -1.4,-1.5 -3,-3.3 -4.5,-5.2 -4,-5.3 -2.7,-10.8 -1.7,-14.9 l 0.1,-0.6 c 0.5,-2 1.5,-5 4.3,-7 1.5,-1.1 3.3,-1.8 5.7,-2.2 0.9,-0.2 2,-0.4 2.9,-0.7 6.8,-2.5 12.7,-0.8 17.1,4.9 0.3,0.4 0.5,0.6 0.7,0.8 2.6,2.1 3.8,4.9 3.6,7.9 2.1,0.9 4.1,1.8 6,2.7 1,0.5 2.1,1 3.1,1.4 2.8,1.3 5.6,2.6 8.4,3.8 6.5,3 13.2,6 19.8,9.1 1.9,0.9 3.9,2.1 6.1,3.7 0.9,0.6 1.7,1.3 2.4,1.9 1.9,1.6 3.1,2.5 4.5,2.6 2.1,0.1 4.2,1.2 5.6,2.9 0.3,0.4 1,0.6 2.6,0.9 l 0.7,0.2 c 0.5,0.1 0.9,0.2 1.4,0.3 2.5,0.5 5.3,1.2 7.7,3 4.2,3.1 8.7,6.2 13.8,7.7 1.4,-3.7 3.1,-7.2 4.9,-10.6 0.4,-0.8 0.9,-1.6 1.4,-2.3 0.1,-0.2 0.2,-0.3 0.3,-0.5 -3,-3.6 -6.4,-6.9 -10,-9.9 -1.4,-1.1 -2.8,-2.2 -4.4,-3.3 -2.3,-1.7 -4.7,-3.4 -7,-5.5 -4.2,-4 -8.4,-8.2 -12.4,-12.3 -2.5,-2.6 -5.2,-5.3 -7.8,-7.9 -0.4,-0.4 -0.8,-0.8 -1.2,-1.2 -0.4,-0.5 -1.1,-1.2 -1.4,-1.4 -3.2,0 -6.5,-1.6 -9.1,-4.4 -2.6,-2.8 -3.9,-6.2 -3.7,-9.3 v -0.6 c 0.4,-5.6 1,-12.5 7.2,-17.6 l 0.4,-0.3 c 0.5,-0.4 1,-0.9 1.5,-1.2 0.8,-0.6 3.1,-2.3 6.5,-2 2.8,0.2 5.7,0.5 8.6,1.5 3.2,1.1 5.4,4.4 5.9,7 0.4,2 0.4,3.9 0.5,5.6 0,1 0,2 0.1,2.8 0.1,0.6 0.1,0.9 0.2,1.1 l 1.1,1.3 c 2.6,3.1 5,6 7.8,8.3 8.7,7.5 14.9,13.8 20.2,20.3 1.1,1.4 2.7,2.6 4.4,4 l 0.2,0.2 c 1,0.8 2.1,1.5 3.3,2.3 0.7,0.5 1.4,0.9 2.1,1.4 1.1,0.8 2.2,1.5 3.3,2.3 0.1,0.1 0.2,0.1 0.3,0.2 1.9,-1.6 3.8,-3.2 5.7,-4.6 1.4,-1 2.8,-2.1 4.2,-3 -1.2,-2.5 -2.7,-4.9 -4.1,-7 -5.5,-8.6 -10,-17.7 -13.9,-26.4 -2.5,-5.4 -4.7,-11 -6.8,-16.3 -0.9,-2.2 -1.7,-4.3 -2.6,-6.4 -0.4,-1 -0.7,-2 -0.7,-3.2 -0.5,-6.4 -2.7,-12.5 -5.1,-18.9 -0.8,-2.1 -1.5,-4.2 -2.2,-6.3 -0.5,-1.4 -1.1,-2.8 -1.8,-4.3 -1.3,-2.9 -2.7,-6.1 -3.2,-9.9 -0.2,-0.2 -0.3,-0.3 -0.5,-0.5 -0.5,-0.6 -1.2,-1.2 -1.8,-1.9 -1.6,-1.5 -3.3,-3.2 -4.7,-5.5 -5.5,-9.2 -3.1,-16.1 -0.1,-20.2 0.1,-0.1 0.3,-0.5 0.4,-0.8 0.2,-0.3 0.3,-0.6 0.5,-0.9 l 0.5,-1 4.4,-3.3 0.8,-0.2 c 0.3,-0.1 0.6,-0.2 0.9,-0.2 0.5,-0.1 0.9,-0.3 1.2,-0.4 5,-1.9 13.1,-1.1 16.6,3 6.7,7.9 5.3,14.8 2.9,19.2 -0.2,0.5 -0.4,0.7 0.5,1.9 l 0.3,0.4 c 2.4,3.6 5,7.3 7.1,11.3 0.2,0.4 0.4,0.7 0.6,1.1 1.6,2.9 3.7,6.9 2.8,11.9 -0.5,3 0.1,6.2 2,9.5 4.3,7.6 7.1,15.4 8.6,23.6 0.4,1.9 1,3.7 1.8,5.3 1.6,3 3.3,6 5,9 0.8,1.4 1.7,2.9 2.5,4.3 0.6,1.1 1,2.2 1.2,3.3 0.5,4.4 2.8,8.4 5.1,12.7 0.5,1 1,1.9 1.6,2.8 0.6,1 1.1,2.1 1.6,3.1 4.2,-1.6 8.4,-2.9 12.7,-3.9 1.3,-0.3 2.6,-0.6 3.9,-0.8 0,-3 0.1,-6 0.5,-8.9 1.2,-12 0.9,-24 0.5,-33.2 -0.1,-2.5 -0.6,-4 -1.8,-5.4 -4.6,-5.3 -5,-14.7 -0.7,-20.5 1.5,-2 3.1,-4.1 5.1,-6.7 0.6,-0.8 1.3,-1.5 2.1,-2 0.6,-0.4 1.2,-0.8 1.8,-1 0.4,-0.1 0.7,-0.3 1,-0.4 2.7,-1.1 6.7,-2.8 11.3,-0.8 0.4,0 0.9,0 1.5,0.1 h 0.3 c 0.8,0.1 2.1,0.3 3.5,1.1 l 0.7,0.4 c 3.4,1.9 9,5.1 8.8,12.9 0,0.3 0,0.5 0,0.8 0.1,1.4 0.1,3.7 -1.3,6 -0.7,1.1 -1.5,2.2 -2.2,3.2 -0.6,0.8 -1.1,1.7 -1.7,2.5 0,0.1 -0.1,0.2 -0.1,0.3 -0.3,0.9 -0.9,2.7 -2.6,3.9 l -0.2,0.1 -0.2,0.1 c -0.1,0 -0.1,0.1 -0.2,0.1 -0.2,0.1 -0.2,0.2 -0.2,0.2 -0.1,0.4 0.1,2 0.3,2.9 l 0.1,0.3 c 0.4,2.3 0.8,4.8 1.1,7.3 0.3,2.4 0.6,5.5 0.7,8.5 0,2.1 -0.2,4.4 -0.6,7 -0.2,1.4 -0.5,2.8 -0.8,4.1 -0.4,1.7 -0.7,3.4 -0.9,5 -0.1,1.4 -0.1,3 -0.1,4.6 0,1.8 0,3.6 -0.1,5.5 0,0 0,0 0,0.1 2.6,0.1 5.3,0.4 7.9,0.7 2.8,0.3 5.7,0.8 8.5,1.3 0.5,-1.6 1.1,-3.1 1.7,-4.5 l 0.2,-0.6 c 0.4,-1 0.8,-1.8 1.3,-2.5 0.3,-0.5 0.7,-1.3 0.8,-1.6 1.6,-9.5 4.6,-17.6 9.2,-25 1,-1.6 1.7,-3.7 1.9,-5.6 0.8,-7.1 4.8,-12.2 8.3,-16.7 l 0.4,-0.6 c 2.3,-3 3.8,-6.2 4.5,-9.7 1.1,-5.8 3.1,-11.8 6.1,-18.1 -0.8,-2 -0.9,-4.8 2,-7.8 2.7,-2.8 4.3,-6.7 6,-10.8 l 0.5,-1.3 c 0,-0.1 0,-0.3 0,-0.4 0,-0.5 0,-1.1 0,-1.8 0,-0.4 0.1,-0.8 0.1,-1.3 0.1,-1.5 0.2,-3.1 0.6,-4.8 0.5,-2 1.1,-3.9 1.7,-5.7 0.4,-1.2 0.8,-2.4 1.1,-3.6 0.8,-2.8 2,-5.9 5,-8.1 0.6,-0.5 1.3,-0.8 2,-1.2 5,-2.2 9.8,-2.9 14.6,-2 5.3,1 7.4,5.1 8,6.5 0.5,1 1,2.1 1.5,3.1 0.4,0.8 0.7,1.6 1.1,2.4 2.7,5.7 2.6,10.8 -0.3,15.1 -1.8,2.8 -3.9,5.3 -5.9,7.8 l -1.2,1.5 c -0.4,0.5 -0.8,0.9 -1.3,1.2 -1.3,0.9 -2.7,1.4 -4.1,1.4 -0.2,0.3 -0.4,0.6 -0.6,0.9 -0.3,0.5 -0.6,0.9 -0.7,1.2 -0.3,0.8 -0.7,1.5 -1,2.3 -0.9,2 -1.7,3.8 -2.1,5.6 -0.3,1.3 -0.5,2.6 -0.7,4 -0.8,4.3 -1.6,9.2 -4.4,13.7 -1.4,2.3 -2.2,4 -2.2,5 0,4.7 -2.2,7.7 -4,10.2 l -0.3,0.4 c -0.1,0.2 -0.3,0.7 -0.2,0.9 0.2,2.2 0,5.5 -3,8.3 -3.6,3.3 -6,6.8 -7.4,10.7 -0.9,2.5 -2.1,5.4 -4.2,7.8 1.2,2.1 1.2,4.7 -0.1,7.1 -0.5,0.9 -1,1.7 -1.4,2.4 -0.4,0.6 -0.8,1.2 -1,1.7 -0.1,0.2 -0.2,0.5 -0.3,0.7 -0.2,0.4 -0.5,1 -0.6,1.4 0.9,7 -1.7,12.5 -3.8,16.1 -0.3,0.5 -0.5,1.1 -0.8,1.8 1.3,0.6 2.6,1.2 3.8,1.8 4.2,2.2 8.1,4.9 11.6,7.9 0.6,-0.6 1.2,-1.1 1.7,-1.7 4.8,-4.9 9.7,-10 14.8,-15.6 0.5,-0.6 1.1,-1.4 1.7,-2.2 1,-1.5 2.2,-3.2 3.9,-4.6 5.6,-4.8 11.4,-9.3 17.1,-13.7 l 1.9,-1.5 c 0.9,-0.7 1,-0.9 1,-1.1 l 0.2,-0.7 c 0.6,-2.2 1.5,-5.4 4.5,-7.7 0,0 0,-0.1 0,-0.1 0.7,-2.4 2.1,-4.3 4,-5.7 1,-0.7 2.1,-1.3 3.4,-1.7 0.5,-0.2 1,-0.3 1.5,-0.5 1.7,-0.6 3.4,-1.2 5.2,-1.5 6.5,-1.4 10.2,1.1 11.8,2.8 1.6,1.6 4,5.3 2.5,11.7 -0.6,2.9 -1.5,5.6 -2.3,8.3 L 430,171 c -1,3.3 -2.7,5.8 -5,7.5 -2.1,1.5 -4.6,2.3 -7.4,2.4 -0.8,0 -1.3,0.2 -1.9,0.7 -0.4,0.3 -0.7,0.6 -1.1,1 -1.3,1.7 -2.7,3.2 -4.2,4.9 -1.2,1.4 -2.5,2.8 -3.7,4.2 -2.1,2.4 -4.3,4.8 -6.4,7.2 0,0.1 -0.1,0.2 -0.1,0.2 -0.1,0.3 -0.3,0.8 -0.6,1.3 l -0.2,0.4 c -0.4,0.7 -0.9,1.7 -1.8,2.6 -4.7,4.9 -8.9,9.2 -12.7,13.1 l -0.4,0.4 c -2.2,2.3 -4.5,4.6 -7,6.8 -0.8,0.7 -1.7,1.5 -2.5,2.2 3,5 5.8,10.1 8.4,15.3 0.1,0.2 0.2,0.5 0.3,0.7 2.8,-1.1 5.6,-2.2 8.3,-3.3 2.6,-1.1 5.3,-2.2 8,-3.4 4.4,-1.9 9,-3.9 13.7,-5.6 4.5,-1.6 9.2,-2.9 13.7,-4.2 2.2,-0.6 4.5,-1.3 6.7,-1.9 1.3,-0.4 2.6,-0.8 3.8,-1.4 4.2,-2.2 10,-4.8 16.8,-5 3,-0.1 5.4,-0.7 7.6,-1.8 4.6,-2.5 8.3,-4.2 11.8,-5.5 2.1,-0.8 4.1,-1.2 6.1,-1.7 1.8,-0.4 3.4,-0.8 4.9,-1.3 6.5,-2.4 12.9,-1.6 19.5,2.5 l 0.8,0.5 4.8,6.6 0.2,1.1 c 0.7,2.1 2,8.8 -2.8,14.4 z"
   id="path2"
   style="fill:#ffffff" />

</g>
  </g>
</svg>
