<?xml version="1.0" encoding="UTF-8" standalone="no"?>
<!-- Created with Inkscape (http://www.inkscape.org/) -->

<svg
   width="256"
   height="256"
   viewBox="0 0 64 64"
   version="1.1"
   id="svg1"
   inkscape:version="1.4 (86a8ad7, 2024-10-11)"
   sodipodi:docname="Icon.svg"
   xmlns:inkscape="http://www.inkscape.org/namespaces/inkscape"
   xmlns:sodipodi="http://sodipodi.sourceforge.net/DTD/sodipodi-0.dtd"
   xmlns="http://www.w3.org/2000/svg"
   xmlns:svg="http://www.w3.org/2000/svg">
  <sodipodi:namedview
     id="namedview1"
     pagecolor="#505050"
     bordercolor="#eeeeee"
     borderopacity="1"
     inkscape:showpageshadow="0"
     inkscape:pageopacity="0"
     inkscape:pagecheckerboard="0"
     inkscape:deskcolor="#505050"
     inkscape:document-units="px"
     showgrid="true"
     inkscape:zoom="1.0813762"
     inkscape:cx="-51.785864"
     inkscape:cy="164.14269"
     inkscape:window-width="1920"
     inkscape:window-height="1001"
     inkscape:window-x="-9"
     inkscape:window-y="-9"
     inkscape:window-maximized="1"
     inkscape:current-layer="layer1">
    <inkscape:grid
       id="grid1"
       units="px"
       originx="0"
       originy="0"
       spacingx="2"
       spacingy="2"
       empcolor="#0099e5"
       empopacity="0.30196078"
       color="#0099e5"
       opacity="0.14901961"
       empspacing="4"
       enabled="true"
       visible="true"
       dotted="false" />
  </sodipodi:namedview>
  <defs
     id="defs1" />
  <g
     inkscape:label="Layer 1"
     inkscape:groupmode="layer"
     id="layer1">
    <g
       id="g2"
       transform="matrix(0.125,0,0,0.125,-0.14375,0.275)"
       style="fill:#ffffff">
	<path
   class="st0"
   d="m 196.3,18.5 39.5,92.6 c 15.4,5.2 30.5,5 46.1,0 l 34.2,-92.6 z m -32.6,16.6 4.6,12.5 c 8.3,22.7 21.6,45.9 29,67.7 7.4,21.8 9.1,40.4 -3.1,57.6 -13.7,19.3 -38.6,39 -60.6,62.4 -22,23.4 -41.7,51.7 -41.7,88.2 0,91 73.9,165.6 164.9,165.6 91,0 165.6,-74.6 165.6,-165.6 0,-36.4 -18.6,-65 -40.3,-88.7 -21.7,-23.8 -46.8,-43.6 -62.2,-62.3 -9.2,-11.2 -8.1,-34.1 -0.9,-58.9 7.2,-24.8 19.3,-50 25.9,-65.3 l 5.7,-13.1 H 330 l -33,89.2 c -4.6,22 -4.8,43.9 8.4,60 17.5,21.3 42.6,40.9 62.9,63.1 20.3,22.2 35.5,46.1 35.5,76.1 0,80.9 -66.1,146.9 -146.9,146.9 -80.9,0 -146.2,-66 -146.2,-146.9 0,-29.9 15.8,-53.3 36.5,-75.3 20.7,-22 46,-41.6 62.3,-64.4 16.1,-22.7 14,-48.6 6.3,-72.3 L 191.5,54.7 c -0.1,-0.3 -0.2,-0.5 -0.4,-0.8 v 0 l -8,-18.7 z M 257,237.4 c -29.5,0 -56.2,4.6 -74.8,11.5 -9.3,3.5 -16.4,7.6 -20.7,11.4 -3.9,3.5 -5.3,6.2 -5.5,8.4 h -0.3 c 0,15.3 7.8,30 20.9,41.9 -0.5,-0.2 -1,-0.4 -1.5,-0.6 -10.7,-4.8 -19.7,-10.4 -26.4,-17 -2.2,-2.2 -4.2,-4.5 -5.9,-7 -7.5,12.1 -12.4,25.6 -12.4,41.1 0,69.8 56.7,127.1 126.5,127.1 69.8,0 127.1,-57.4 127.1,-127.1 0,-15.7 -4.9,-29.5 -12.4,-41.9 -1.8,2.8 -4,5.4 -6.5,7.8 -6.7,6.6 -15.7,12.2 -26.4,17 -0.4,0.2 -0.9,0.4 -1.4,0.6 13.1,-11.9 20.8,-26.5 20.8,-41.8 h -0.4 c -0.2,-2.2 -1.5,-4.9 -5.5,-8.4 -4.3,-3.8 -11.5,-7.9 -20.7,-11.4 -18.3,-7.1 -45,-11.6 -74.5,-11.6 z"
   id="path1"
   style="fill:#ffffff" />

</g>
  </g>
</svg>
