<?xml version="1.0" encoding="UTF-8" standalone="no"?>
<!-- Created with Inkscape (http://www.inkscape.org/) -->

<svg
   width="256"
   height="256"
   viewBox="0 0 64 64"
   version="1.1"
   id="svg1"
   inkscape:version="1.4 (86a8ad7, 2024-10-11)"
   sodipodi:docname="Icon.svg"
   xmlns:inkscape="http://www.inkscape.org/namespaces/inkscape"
   xmlns:sodipodi="http://sodipodi.sourceforge.net/DTD/sodipodi-0.dtd"
   xmlns="http://www.w3.org/2000/svg"
   xmlns:svg="http://www.w3.org/2000/svg">
  <sodipodi:namedview
     id="namedview1"
     pagecolor="#505050"
     bordercolor="#eeeeee"
     borderopacity="1"
     inkscape:showpageshadow="0"
     inkscape:pageopacity="0"
     inkscape:pagecheckerboard="0"
     inkscape:deskcolor="#505050"
     inkscape:document-units="px"
     showgrid="true"
     inkscape:zoom="1.5292969"
     inkscape:cx="22.232439"
     inkscape:cy="80.102171"
     inkscape:window-width="1920"
     inkscape:window-height="1001"
     inkscape:window-x="-9"
     inkscape:window-y="-9"
     inkscape:window-maximized="1"
     inkscape:current-layer="g3">
    <inkscape:grid
       id="grid1"
       units="px"
       originx="0"
       originy="0"
       spacingx="2"
       spacingy="2"
       empcolor="#0099e5"
       empopacity="0.30196078"
       color="#0099e5"
       opacity="0.14901961"
       empspacing="4"
       enabled="true"
       visible="true"
       dotted="false" />
  </sodipodi:namedview>
  <defs
     id="defs1" />
  <g
     inkscape:label="Layer 1"
     inkscape:groupmode="layer"
     id="layer1">
    <g
       id="g3"
       transform="matrix(0.50000066,0,0,0.50000263,10.600702,18.471838)"
       style="fill:#ffffff">
	<path
   class="st0"
   d="m -0.0799772,74.199932 c 6,-6.9 11.9000002,-13.8 17.9000002,-20.6 -0.9,-0.9 -1.7,-1.7 -2.6,-2.6 -6.0000002,6.9 -11.9000002,13.8 -18.0000002,20.8 -0.1,-0.4 -0.3,-0.6 -0.3,-0.9 -0.3,-1.4 -0.7,-2.8 -1,-4.3 -0.1,-0.3 0,-0.7 0.1,-1 2.7,-6 5.3,-12 8,-18 0.3,-0.6 0.6,-0.9 1.3,-1 2,-0.3 3.4,-2.2 3.1,-4.2 -0.1,-0.5 -0.3,-1 -0.6,-1.5 -0.4,-0.5 -0.4,-0.9 0,-1.4 1,-1.3 2,-2.7 3.0000002,-4 0.3,-0.4 0.8,-0.6 1.2,-0.8 2.7,-0.6 5.5,-0.5 8.2,0.1 0.5,0.1 1,0.2 1.5,0.4 0.6,0.3 0.9,0.1 1.3,-0.3 3.2,-3.2 6.4,-6.4 9.6,-9.6 0.4,-0.4 0.7,-0.4 1.1,0 3.3,3.4 6.7,6.7 10,10.1 0.4,0.4 0.4,0.6 0,1 -0.9,0.9 -1.6,1.9 -2.5,2.8 -0.5,0.5 -1,1.1 -1.6,1.6 -2,1.9 -3.9,3.7 -5.9,5.6 -0.1,0.1 -0.2,0.5 -0.1,0.7 0.8,2.2 1,4.4 1,6.7 0,0.6 -0.1,1.1 -0.6,1.6 -1.4,1.3 -2.7,2.6 -4,3.9 -0.3,0.3 -0.6,0.3 -0.9,0.1 -1.2,-0.8 -2.4,-0.7 -3.6,0 -1.2,0.8 -1.9,1.9 -1.9,3.4 0,0.5 -0.1,0.7 -0.5,1 -3.8,2.4 -7.7,4.8 -11.5,7.2 -1.8000002,1.1 -3.5000002,2.2 -5.3000002,3.3 -0.3,0.2 -0.8,0.3 -1.2,0.3 -1.5,-0.1 -3,-0.2 -4.5,-0.4 -0.2,0.1 -0.3,0.1 -0.7,0 z"
   id="path1"
   style="fill:#ffffff" />

	<path
   class="st0"
   d="m 47.020023,39.699932 c 0.5,-0.4 0.9,-0.8 1.4,-1.2 0.3,-0.3 0.5,-0.6 0.7,-0.9 0.1,-0.1 0,-0.4 -0.2,-0.5 -1.7,-1.8 -3.5,-3.7 -5.2,-5.4 -6.9,-7 -13.9,-13.9 -20.8,-20.9 -1.9,-2.0000004 -4.1,-3.5000004 -6.4,-5.0000004 -2.2,-1.5 -4.4,-3 -6.6000002,-4.5 -0.3,-0.2 -0.5,-0.50000004 -0.7,-0.80000004 -2,-2.89999996 -3.9,-5.79999996 -5.9,-8.59999976 -0.3,-0.5 -0.3,-0.8 0.1,-1.2 1.7,-1.6999998 3.4,-3.3999998 5.1,-5.0999998 0.3,-0.3 0.6,-0.4 1,-0.1 3.1000002,2.2 6.3000002,4.3 9.4000002,6.3999998 0.2,0.2 0.4,0.5 0.5,0.7 2.4,3.3999998 4.7,6.89999976 7.1,10.2999998 0.4,0.5 0.9,1 1.4,1.5 2.9,2.9 5.8,5.9000004 8.8,8.8000004 5.7,5.7 11.5,11.4 17.2,17.1 0.5,0.5 1,0.8 1.6,1.3 0.4,-0.4 1.1,-1.1 1.7,-1.8 0.3,-0.3 0.5,-0.3 0.9,0 2.6,2.6 5.2,5.2 7.8,7.8 5.6,5.6 11.2,11.2 16.8,16.8 0.9,0.9 1.7,1.9 2.2,3.2 0.2,0.5 0.3,1.1 0.3,1.6 0,1.1 0.1,2.2 -0.2,3.3 -0.4,1.2 -1.1,2.3 -2.1,3.2 -0.9,0.8 -1.9,1.4 -3,1.7 -0.6,0.2 -1.4,0.4 -2,0.4 -2.1,-0.2 -4,-0.8 -5.5,-2.4 -3.8,-3.9 -7.7,-7.7 -11.5,-11.5 -4.5,-4.5 -9,-9 -13.4,-13.4 -0.2,-0.4 -0.3,-0.5 -0.5,-0.8 z m 9.1,-4.1 c 0.2,0.2 0.3,0.4 0.4,0.5 2,2 4,4.1 6,6.1 5.2,5.2 10.5,10.5 15.7,15.7 0.6,0.6 1.1,1.1 1.7,1.7 0.4,0.3 1,0.3 1.4,0 0.5,-0.4 0.7,-1 0.4,-1.5 -0.2,-0.2 -0.4,-0.4 -0.6,-0.7 -6.3,-6.3 -12.7,-12.7 -19,-19 -1.5,-1.5 -3,-3 -4.4,-4.5 -0.5,0.6 -1,1.1 -1.6,1.7 z m -4.5,4.3 c 0.3,0.2 0.6,0.4 0.8,0.6 5.4,5.4 10.9,10.9 16.3,16.3 2.3,2.3 4.5,4.5 6.8,6.8 0.3,0.3 0.7,0.7 1.2,0.4 1,-0.6 1.2,-1.3 0.2,-2.3 -6.1,-6.1 -12.3,-12.3 -18.5,-18.5 -1.5,-1.5 -3.1,-3 -4.7,-4.6 -0.3,-0.3 -0.5,-0.3 -0.7,0 -0.4,0.4 -0.8,0.8 -1.4,1.3 z"
   id="path2"
   style="fill:#ffffff" />

	<path
   class="st0"
   d="m 88.620023,-8.1000682 c 0.3,1.1 0.7,2.2999998 0.8,3.3999998 0.8,4.699999964609 0,9.1 -2.5,13.1 -3,4.7000004 -7.1,7.8000004 -12.7,8.8000004 -2.5,0.5 -5,0.4 -7.4,-0.1 -0.7,-0.1 -1.4,-0.4 -2.1,-0.6 -0.5,-0.2 -0.8,-0.1 -1.1,0.3 -3,3 -6,6 -9,9 -0.4,0.4 -0.6,0.4 -1,0 -3.3,-3.4 -6.7,-6.7 -10.1,-10 -0.4,-0.4 -0.4,-0.7 0,-1.1 3,-3 6,-6.0000004 9,-9.0000004 0.3,-0.3 0.4,-0.5 0.3,-1 -3.2,-9.4 1.1,-19.3999996 10.2,-23.4999996 3.3,-1.5 6.9,-2 10.5,-1.5 1.2,0.2 2.3,0.5 3.4,0.8 0.6,0.2 0.6,0.3 0.2,0.7 -2.2,2.2 -4.3,4.3 -6.5,6.5 -2,2 -3.9,3.9999998 -5.9,5.8999996 -0.4,0.4 -0.4,0.7 0,1 2.1,2.1 4.2,4.1 6.3,6.19999996 1.3,1.30000004 2.5,2.50000004 3.8,3.80000004 0.4,0.4 0.6,0.4 1,0 4.1,-4.10000004 8.2,-8.2 12.3,-12.3999998 0.2,-0.2 0.3,-0.3 0.5,-0.4 -0.2,0 -0.1,0 0,0.1 z"
   id="path3"
   style="fill:#ffffff" />

</g>
  </g>
</svg>
