<?xml version="1.0" encoding="UTF-8" standalone="no"?>
<!-- Created with Inkscape (http://www.inkscape.org/) -->

<svg
   width="512"
   height="512"
   viewBox="0 0 512 512"
   version="1.1"
   id="svg5"
   inkscape:version="1.4 (86a8ad7, 2024-10-11)"
   xml:space="preserve"
   sodipodi:docname="Bolt.svg"
   xmlns:inkscape="http://www.inkscape.org/namespaces/inkscape"
   xmlns:sodipodi="http://sodipodi.sourceforge.net/DTD/sodipodi-0.dtd"
   xmlns="http://www.w3.org/2000/svg"
   xmlns:svg="http://www.w3.org/2000/svg"><sodipodi:namedview
     id="namedview7"
     pagecolor="#505050"
     bordercolor="#ffffff"
     borderopacity="1"
     inkscape:showpageshadow="0"
     inkscape:pageopacity="0"
     inkscape:pagecheckerboard="1"
     inkscape:deskcolor="#505050"
     inkscape:document-units="px"
     showgrid="true"
     inkscape:lockguides="true"
     inkscape:zoom="1.6191406"
     inkscape:cx="196.70929"
     inkscape:cy="189.29795"
     inkscape:window-width="3840"
     inkscape:window-height="2054"
     inkscape:window-x="2869"
     inkscape:window-y="-11"
     inkscape:window-maximized="1"
     inkscape:current-layer="layer1"><inkscape:grid
       type="xygrid"
       id="grid234"
       empspacing="4"
       originx="0"
       originy="0"
       spacingy="1"
       spacingx="1"
       units="px" /></sodipodi:namedview><defs
     id="defs2" /><g
     inkscape:label="Layer 1"
     inkscape:groupmode="layer"
     id="layer1"><path
       class="cls-3"
       d="m 153.9175,111.95538 40.92728,188.04861 c 0.53665,3.05985 3.67886,4.91754 6.61851,3.9129 l 46.99059,-16.1892 c 3.16986,-1.07695 6.49433,1.16125 6.68901,4.50336 l 9.69423,176.48616 c 0.29964,5.61378 8.14316,6.58319 9.81762,1.26023 l 83.18531,-261.74166 c 1.20011,-3.73546 -2.12479,-7.35587 -5.94873,-6.47745 l -62.57186,14.69983 c -3.87711,0.88848 -7.21953,-2.83192 -5.92229,-6.59201 L 324.64171,93.14876 c 0.55522,-1.65682 33.4753,-82.765165 33.4753,-82.765165 C 357.15728,9.1258717 285.58206,3.990964 284,4 l -84,4 c -1.9004,-0.0091 -71.13983,-1.694597 -72,0 0,0 25.73243,102.88021 25.92631,103.94657"
       id="path4"
       style="fill:#ffffff;stroke-width:0.881289"
       sodipodi:nodetypes="ccccccccccccccccc" /></g></svg>
