<?xml version="1.0" encoding="UTF-8" standalone="no"?>
<!-- Created with Inkscape (http://www.inkscape.org/) -->

<svg
   width="512"
   height="512"
   viewBox="0 0 512 512"
   version="1.1"
   id="svg5"
   inkscape:version="1.4 (86a8ad7, 2024-10-11)"
   xml:space="preserve"
   sodipodi:docname="Attack.svg"
   xmlns:inkscape="http://www.inkscape.org/namespaces/inkscape"
   xmlns:sodipodi="http://sodipodi.sourceforge.net/DTD/sodipodi-0.dtd"
   xmlns="http://www.w3.org/2000/svg"
   xmlns:svg="http://www.w3.org/2000/svg"><sodipodi:namedview
     id="namedview7"
     pagecolor="#505050"
     bordercolor="#ffffff"
     borderopacity="1"
     inkscape:showpageshadow="0"
     inkscape:pageopacity="0"
     inkscape:pagecheckerboard="1"
     inkscape:deskcolor="#505050"
     inkscape:document-units="px"
     showgrid="true"
     inkscape:lockguides="true"
     inkscape:zoom="0.8095703"
     inkscape:cx="127.8456"
     inkscape:cy="451.47407"
     inkscape:window-width="3840"
     inkscape:window-height="2054"
     inkscape:window-x="2869"
     inkscape:window-y="-11"
     inkscape:window-maximized="1"
     inkscape:current-layer="layer1"><inkscape:grid
       type="xygrid"
       id="grid234"
       empspacing="4"
       originx="0"
       originy="0"
       spacingy="1"
       spacingx="1"
       units="px" /></sodipodi:namedview><defs
     id="defs2" /><g
     inkscape:label="Layer 1"
     inkscape:groupmode="layer"
     id="layer1"><path
       d="m 472.767,192.38882 -82.77771,37.77782 68.88883,108.88899 -111.66657,-38.88892 -11.66667,137.22237 -75.55549,-113.33346 9.99999,-18.88891 43.3333,33.88892 5,-69.44451 55.55551,1.66667 -28.88886,-50.55561 39.99997,-23.88891 -47.77775,-11.66668 -8.88888,-71.66674 -63.33328,31.11115 -39.99998,-25.00003 -3.33333,61.66673 -68.88883,7.22223 33.33331,41.66671 -17.77777,11.66668 -112.222136,-87.22231 133.888786,-5.55557 -4.99999,-97.222319 81.6666,58.333389 98.33326,-69.44451 6.11111,117.7779 z m -165.55542,34.44448 -156.66655,169.44462 26.66664,23.88891 -7.77777,13.33335 -101.11103,-91.66676 12.22221,-8.8889 26.66665,23.88891 L 261.1005,185.16659 314.43379,172.3888 Z M 99.98951,384.61124 123.87838,406.27793 82.7673,451.27798 q 3.33333,3.88888 6.11111,6.66667 L 80.54508,471.278 Q 56.656209,455.72242 39.434,434.05573 l 12.222213,-9.44445 q 3.333331,2.22222 7.222216,5.00001 z"
       id="path1"
       style="stroke-width:0.555556;fill:#ffffff" /></g></svg>
