<?xml version="1.0" encoding="UTF-8" standalone="no"?>
<!-- Created with Inkscape (http://www.inkscape.org/) -->

<svg
   width="256"
   height="256"
   viewBox="0 0 256 256"
   version="1.1"
   id="svg5"
   inkscape:version="1.2.1 (9c6d41e410, 2022-07-14)"
   sodipodi:docname="Attack.svg"
   xmlns:inkscape="http://www.inkscape.org/namespaces/inkscape"
   xmlns:sodipodi="http://sodipodi.sourceforge.net/DTD/sodipodi-0.dtd"
   xmlns="http://www.w3.org/2000/svg"
   xmlns:svg="http://www.w3.org/2000/svg">
  <sodipodi:namedview
     id="namedview7"
     pagecolor="#505050"
     bordercolor="#ffffff"
     borderopacity="1"
     inkscape:showpageshadow="0"
     inkscape:pageopacity="0"
     inkscape:pagecheckerboard="1"
     inkscape:deskcolor="#505050"
     inkscape:document-units="px"
     showgrid="true"
     inkscape:lockguides="true"
     inkscape:zoom="1.6191406"
     inkscape:cx="45.394451"
     inkscape:cy="145.13872"
     inkscape:window-width="1920"
     inkscape:window-height="1009"
     inkscape:window-x="-8"
     inkscape:window-y="-8"
     inkscape:window-maximized="1"
     inkscape:current-layer="layer1">
    <inkscape:grid
       type="xygrid"
       id="grid234"
       empspacing="4"
       originx="0"
       originy="0" />
  </sodipodi:namedview>
  <defs
     id="defs2">
    <clipPath
       clipPathUnits="userSpaceOnUse"
       id="clipPath198">
      <path
         d="M 0,300 H 300 V 0 H 0 Z"
         id="path196" />
    </clipPath>
  </defs>
  <g
     inkscape:label="Layer 1"
     inkscape:groupmode="layer"
     id="layer1">
    <g
       id="g188"
       transform="matrix(0.99999772,0,0,-0.99999912,79.891878,223.93782)"
       style="fill:#ffffff">
      <path
         d="m 0,0 -6.907,-4.933 -50.887,46.962 4.363,7.281 13.994,-12.914 87.349,94.649 29.862,6.833 -4.419,-30.314 -87.348,-94.65 z"
         style="fill:#ffffff;fill-opacity:1;fill-rule:nonzero;stroke:none"
         id="path190" />
    </g>
    <g
       id="g192"
       transform="matrix(0.99999772,0,0,-0.99999912,-21.999891,278.00027)"
       style="fill:#ffffff">
      <g
         id="g194"
         clip-path="url(#clipPath198)"
         style="fill:#ffffff">
        <g
           id="g200"
           transform="translate(72.1644,62.1807)"
           style="fill:#ffffff">
          <path
             d="m 0,0 -25.629,-27.772 c 0,0 -4.416,-0.636 -8.964,3.561 -4.548,4.196 -4.266,8.648 -4.266,8.648 L -13.23,12.21 Z"
             style="fill:#ffffff;fill-opacity:1;fill-rule:nonzero;stroke:none"
             id="path202" />
        </g>
        <g
           id="g204"
           transform="translate(96.7475,153.3145)"
           style="fill:#ffffff">
          <path
             d="m 0,0 10.053,6.239 -18.657,23.442 38.414,4.15 1.734,34.457 22.403,-14.066 35.487,17.186 4.746,-39.734 26.798,-6.716 -22.185,-13.186 15.945,-28.411 -30.957,0.945 -2.706,-38.642 -24.357,18.687 -5.471,-10.492 42.111,-63.102 6.44,76.617 62.587,-21.949 -38.566,61.081 46.132,21.026 -56.652,19.033 -3.414,65.747 L 54.943,73.555 9.382,106.114 11.979,51.79 -62.572,48.581 Z"
             style="fill:#ffffff;fill-opacity:1;fill-rule:nonzero;stroke:none"
             id="path206" />
        </g>
      </g>
    </g>
  </g>
</svg>
