<?xml version="1.0" encoding="UTF-8" standalone="no"?>
<!-- Created with Inkscape (http://www.inkscape.org/) -->

<svg
   width="256"
   height="256"
   viewBox="0 0 256 256"
   version="1.1"
   id="svg5"
   inkscape:version="1.2.1 (9c6d41e410, 2022-07-14)"
   sodipodi:docname="Flying.svg"
   xmlns:inkscape="http://www.inkscape.org/namespaces/inkscape"
   xmlns:sodipodi="http://sodipodi.sourceforge.net/DTD/sodipodi-0.dtd"
   xmlns="http://www.w3.org/2000/svg"
   xmlns:svg="http://www.w3.org/2000/svg">
  <sodipodi:namedview
     id="namedview7"
     pagecolor="#505050"
     bordercolor="#ffffff"
     borderopacity="1"
     inkscape:showpageshadow="0"
     inkscape:pageopacity="0"
     inkscape:pagecheckerboard="1"
     inkscape:deskcolor="#505050"
     inkscape:document-units="px"
     showgrid="true"
     inkscape:lockguides="true"
     inkscape:zoom="1.6191406"
     inkscape:cx="194.85645"
     inkscape:cy="73.495778"
     inkscape:window-width="1920"
     inkscape:window-height="1009"
     inkscape:window-x="-8"
     inkscape:window-y="-8"
     inkscape:window-maximized="1"
     inkscape:current-layer="layer1">
    <inkscape:grid
       type="xygrid"
       id="grid234"
       empspacing="4"
       originx="0"
       originy="0" />
  </sodipodi:namedview>
  <defs
     id="defs2">
    <clipPath
       clipPathUnits="userSpaceOnUse"
       id="clipPath590">
      <path
         d="M 0,300 H 300 V 0 H 0 Z"
         id="path588" />
    </clipPath>
  </defs>
  <g
     inkscape:label="Layer 1"
     inkscape:groupmode="layer"
     id="layer1">
    <g
       id="g584"
       transform="matrix(1.0000022,0,0,-0.99999968,-22.000539,278.00018)"
       style="fill:#ffffff">
      <g
         id="g586"
         clip-path="url(#clipPath590)"
         style="fill:#ffffff">
        <g
           id="g592"
           transform="translate(208.9043,155.4912)"
           style="fill:#ffffff">
          <path
             d="m 0,0 c 15.666,10.035 60.229,42.364 67.632,89.506 0.236,1.503 -1.558,2.471 -2.679,1.442 -10.631,-9.756 -46.44,-39.191 -96.998,-44.916 -0.769,-0.087 -1.37,-0.701 -1.427,-1.473 -1.477,-20.171 -4.421,-48.084 -17.82,-84.101 l -7.444,4.298 -7.721,-4.457 c -13.449,36.094 -16.4,64.058 -17.88,84.26 -0.057,0.772 -0.657,1.386 -1.427,1.473 -50.557,5.725 -86.367,35.16 -96.998,44.916 -1.121,1.029 -2.915,0.061 -2.678,-1.442 7.402,-47.142 51.965,-79.471 67.631,-89.506 1.428,-0.915 0.661,-3.135 -1.026,-2.958 -7.886,0.823 -22.231,3.521 -38.813,12.258 -1.258,0.662 -2.692,-0.492 -2.312,-1.863 8.188,-29.535 40.438,-45.5 52.447,-50.518 1.432,-0.599 1.268,-2.68 -0.241,-3.045 -6.207,-1.504 -17.415,-3.648 -27.271,-2.503 -1.448,0.169 -2.348,-1.481 -1.44,-2.62 8.387,-10.508 27.934,-15.995 42.29,-17.627 0.068,-0.008 0.377,-0.088 0.881,-0.226 l 5.496,-16.477 29.062,-16.778 29.06,16.778 6.042,16.703 c 14.357,1.632 33.904,7.119 42.29,17.627 0.908,1.139 0.008,2.789 -1.439,2.62 -9.858,-1.145 -21.065,0.999 -27.272,2.503 -1.508,0.365 -1.673,2.446 -0.241,3.045 12.01,5.018 44.26,20.983 52.447,50.518 C 42.531,8.808 41.098,9.962 39.84,9.3 23.258,0.563 8.912,-2.135 1.026,-2.958 -0.66,-3.135 -1.428,-0.915 0,0"
             style="fill:#ffffff;fill-opacity:1;fill-rule:nonzero;stroke:none"
             id="path594" />
        </g>
      </g>
    </g>
  </g>
</svg>
