<?xml version="1.0" encoding="UTF-8" standalone="no"?>
<!-- Created with Inkscape (http://www.inkscape.org/) -->

<svg
   width="512"
   height="512"
   viewBox="0 0 512 512"
   version="1.1"
   id="svg5"
   inkscape:version="1.4 (86a8ad7, 2024-10-11)"
   xml:space="preserve"
   sodipodi:docname="Flying.svg"
   xmlns:inkscape="http://www.inkscape.org/namespaces/inkscape"
   xmlns:sodipodi="http://sodipodi.sourceforge.net/DTD/sodipodi-0.dtd"
   xmlns="http://www.w3.org/2000/svg"
   xmlns:svg="http://www.w3.org/2000/svg"><sodipodi:namedview
     id="namedview7"
     pagecolor="#505050"
     bordercolor="#ffffff"
     borderopacity="1"
     inkscape:showpageshadow="0"
     inkscape:pageopacity="0"
     inkscape:pagecheckerboard="1"
     inkscape:deskcolor="#505050"
     inkscape:document-units="px"
     showgrid="true"
     inkscape:lockguides="true"
     inkscape:zoom="1.1449053"
     inkscape:cx="114.85666"
     inkscape:cy="158.5284"
     inkscape:window-width="3840"
     inkscape:window-height="2054"
     inkscape:window-x="2869"
     inkscape:window-y="-11"
     inkscape:window-maximized="1"
     inkscape:current-layer="layer1"><inkscape:grid
       type="xygrid"
       id="grid234"
       empspacing="4"
       originx="0"
       originy="0"
       spacingy="1"
       spacingx="1"
       units="px" /></sodipodi:namedview><defs
     id="defs2" /><g
     inkscape:label="Layer 1"
     inkscape:groupmode="layer"
     id="layer1"><path
       d="m 403.14303,316.55504 q 10.00001,22.77777 11.66668,56.66665 1.66667,33.88888 -0.55555,55.55554 -2.22223,21.66666 -3.33334,22.77777 -1.11111,-1.11111 -5.27779,-6.38889 -4.16667,-5.27778 -5.83334,-7.5 -1.66666,-2.22222 -6.38889,-7.22221 -4.72223,-5 -8.8889,-8.33333 -4.16667,-3.33334 -10.55557,-7.77778 -6.38889,-4.44445 -13.61113,-8.33333 -13.33335,-7.77778 -28.33337,-10.83333 -15.00001,-3.05555 -40.83337,-5.83333 -25.83337,-2.77778 -45.27784,-6.66667 -68.88897,-12.77778 -91.11122,-60.55553 11.66668,7.22221 31.94449,12.77776 20.2778,5.55556 43.88893,5.55556 23.61115,0 37.50005,-8.88889 -37.77782,-2.22222 -68.61119,-12.49999 Q 168.69831,308.77726 150.36495,294.88837 132.0316,280.9995 119.2538,264.33283 106.47601,247.66617 101.75378,233.49951 97.03156,219.33284 96.476,207.11063 q 15.00002,16.1111 47.77784,27.49999 32.77781,11.38888 59.44451,3.05555 Q 143.69828,227.11062 112.03157,182.11063 96.476,160.99953 96.476,125.99954 q 0,-34.99999 16.11113,-65.55554 4.44445,22.22222 20.2778,42.22221 15.83335,19.99999 38.33338,36.1111 22.50003,16.11111 49.16673,31.66666 26.66669,15.55555 54.4445,31.38888 27.77781,15.83333 52.50007,32.22221 24.72225,16.38889 45.27783,37.77777 20.55558,21.38888 30.55559,44.72221 z"
       id="path1"
       style="fill:#ffffff;stroke-width:0.555556" /></g></svg>
