<?xml version="1.0" encoding="UTF-8" standalone="no"?>
<!-- Created with Inkscape (http://www.inkscape.org/) -->

<svg
   width="512"
   height="512"
   viewBox="0 0 512 512"
   version="1.1"
   id="svg5"
   inkscape:version="1.4 (86a8ad7, 2024-10-11)"
   xml:space="preserve"
   sodipodi:docname="HealNegative.svg"
   xmlns:inkscape="http://www.inkscape.org/namespaces/inkscape"
   xmlns:sodipodi="http://sodipodi.sourceforge.net/DTD/sodipodi-0.dtd"
   xmlns="http://www.w3.org/2000/svg"
   xmlns:svg="http://www.w3.org/2000/svg"><sodipodi:namedview
     id="namedview7"
     pagecolor="#505050"
     bordercolor="#ffffff"
     borderopacity="1"
     inkscape:showpageshadow="0"
     inkscape:pageopacity="0"
     inkscape:pagecheckerboard="1"
     inkscape:deskcolor="#505050"
     inkscape:document-units="px"
     showgrid="true"
     inkscape:lockguides="true"
     inkscape:zoom="1.1449053"
     inkscape:cx="-149.79405"
     inkscape:cy="265.96086"
     inkscape:window-width="3840"
     inkscape:window-height="2054"
     inkscape:window-x="2869"
     inkscape:window-y="-11"
     inkscape:window-maximized="1"
     inkscape:current-layer="layer1"><inkscape:grid
       type="xygrid"
       id="grid234"
       empspacing="4"
       originx="0"
       originy="0"
       spacingy="1"
       spacingx="1"
       units="px" /></sodipodi:namedview><defs
     id="defs2" /><g
     inkscape:label="Layer 1"
     inkscape:groupmode="layer"
     id="layer1"><path
       d="m 319.33333,178.77778 q 17.77778,25 24.44445,34.16666 6.66666,9.16667 17.5,26.66667 10.83333,17.5 14.44444,27.5 3.61111,10 6.94445,24.16667 Q 386,305.44444 386,321 386,374.88889 347.94444,412.94444 309.88889,451 256,451 202.11111,451 164.05556,412.94444 126,374.88889 126,321 q 0,-15.55556 3.33333,-29.72222 3.33334,-14.16667 6.94445,-24.16667 3.61111,-10 14.44444,-27.5 10.83334,-17.5 17.22222,-26.66667 6.38889,-9.16666 24.72223,-34.16666 37.22222,-52.22222 60,-115 Q 253.22222,61 255.72222,61 q 2.5,0 3.61111,2.77778 22.22223,62.77778 60,115 z m 13.33334,166.11111 V 297.11111 H 178.77778 v 47.77778 z"
       id="path1"
       style="fill:#ffffff;stroke-width:0.555556" /></g></svg>
