<?xml version="1.0" encoding="UTF-8" standalone="no"?>
<!-- Created with Inkscape (http://www.inkscape.org/) -->

<svg
   width="512"
   height="512"
   viewBox="0 0 512 512"
   version="1.1"
   id="svg5"
   inkscape:version="1.4 (86a8ad7, 2024-10-11)"
   xml:space="preserve"
   sodipodi:docname="Loot.svg"
   xmlns:inkscape="http://www.inkscape.org/namespaces/inkscape"
   xmlns:sodipodi="http://sodipodi.sourceforge.net/DTD/sodipodi-0.dtd"
   xmlns="http://www.w3.org/2000/svg"
   xmlns:svg="http://www.w3.org/2000/svg"><sodipodi:namedview
     id="namedview7"
     pagecolor="#505050"
     bordercolor="#ffffff"
     borderopacity="1"
     inkscape:showpageshadow="0"
     inkscape:pageopacity="0"
     inkscape:pagecheckerboard="1"
     inkscape:deskcolor="#505050"
     inkscape:document-units="px"
     showgrid="true"
     inkscape:lockguides="true"
     inkscape:zoom="2.2898106"
     inkscape:cx="206.78566"
     inkscape:cy="274.91357"
     inkscape:window-width="3840"
     inkscape:window-height="2054"
     inkscape:window-x="2869"
     inkscape:window-y="-11"
     inkscape:window-maximized="1"
     inkscape:current-layer="layer1"><inkscape:grid
       type="xygrid"
       id="grid234"
       empspacing="4"
       originx="0"
       originy="0"
       spacingy="1"
       spacingx="1"
       units="px" /></sodipodi:namedview><defs
     id="defs2"><rect
       x="136"
       y="124"
       width="232"
       height="168"
       id="rect1" /></defs><g
     inkscape:label="Layer 1"
     inkscape:groupmode="layer"
     id="layer1"><path
       d="m 383.15771,416 c -34.24554,15.71931 -79.15776,24.14038 -127.43843,24.14038 -47.71923,0 -93.19285,-8.42107 -127.43843,-24.14038 -19.08766,-8.98242 -34.245537,-19.08771 -43.789392,-30.87718 v 2.24562 c 0,0.56139 0,1.12282 0,1.12282 0,43.22805 76.350792,78.5965 171.227822,78.5965 94.87707,0 171.78926,-35.36845 171.78926,-78.5965 v -3.36844 C 417.40325,396.91229 402.80681,407.01758 383.15771,416 Z m -127.43843,5.61402 c 94.87707,0 171.78926,-35.36837 171.78926,-78.59646 0,-30.31582 -38.17542,-56.70177 -94.31567,-69.61407 l -3.36841,70.17547 c 0,0 -25.82451,11.22807 -74.10518,11.22807 -48.28062,0 -74.10514,-11.22807 -74.10514,-11.22807 l -3.36844,-70.17547 c -55.57886,12.9123 -93.754242,39.29825 -93.754242,69.61407 0,43.22809 76.350792,78.59646 171.227822,78.59646 z M 210.24567,319.43858 c 0,0 15.15787,4.49123 45.47361,4.49123 30.87718,0 45.47362,-4.49123 45.47362,-4.49123 l 5.05262,-102.17548 h 64.56137 L 255.71928,44.91224 141.19311,217.2631 h 63.99993 z"
       id="text1"
       style="font-size:133.333px;font-family:'FH Basic';-inkscape-font-specification:'FH Basic';white-space:pre;fill:#ffffff;stroke-width:42.1053"
       aria-label="l" /></g></svg>
