<?xml version="1.0" encoding="UTF-8" standalone="no"?>
<!-- Created with Inkscape (http://www.inkscape.org/) -->

<svg
   width="512"
   height="512"
   viewBox="0 0 512 512"
   version="1.1"
   id="svg5"
   inkscape:version="1.4 (86a8ad7, 2024-10-11)"
   xml:space="preserve"
   sodipodi:docname="Move.svg"
   xmlns:inkscape="http://www.inkscape.org/namespaces/inkscape"
   xmlns:sodipodi="http://sodipodi.sourceforge.net/DTD/sodipodi-0.dtd"
   xmlns="http://www.w3.org/2000/svg"
   xmlns:svg="http://www.w3.org/2000/svg"><sodipodi:namedview
     id="namedview7"
     pagecolor="#505050"
     bordercolor="#ffffff"
     borderopacity="1"
     inkscape:showpageshadow="0"
     inkscape:pageopacity="0"
     inkscape:pagecheckerboard="1"
     inkscape:deskcolor="#505050"
     inkscape:document-units="px"
     showgrid="true"
     inkscape:lockguides="true"
     inkscape:zoom="0.57245265"
     inkscape:cx="395.66591"
     inkscape:cy="573.84659"
     inkscape:window-width="3840"
     inkscape:window-height="2054"
     inkscape:window-x="2869"
     inkscape:window-y="-11"
     inkscape:window-maximized="1"
     inkscape:current-layer="layer1"><inkscape:grid
       type="xygrid"
       id="grid234"
       empspacing="4"
       originx="0"
       originy="0"
       spacingy="1"
       spacingx="1"
       units="px" /></sodipodi:namedview><defs
     id="defs2" /><g
     inkscape:label="Layer 1"
     inkscape:groupmode="layer"
     id="layer1"><path
       d="m 450.6875,142.94451 q 1.66667,2.77777 -1.11111,5 -11.11111,7.77777 -30,26.66665 l -36.66667,-27.22221 q -2.77778,-2.22222 -6.66667,-2.22222 -5.55555,0 -8.88888,4.44444 -2.77778,3.88889 -2.22223,8.61111 0.55556,4.72222 4.44445,7.49999 l 34.44444,25.55554 q -15,16.66666 -23.88889,29.44443 l -31.11111,-22.77776 q -2.77778,-2.22222 -6.66666,-2.22222 -5.55556,0 -9.44445,4.44444 -2.77778,3.88889 -1.94444,8.33333 0.83333,4.44444 4.72222,7.77777 l 34.44444,25.55554 q -6.66666,28.88887 -0.55555,75.55551 0.55555,5.55556 -7.22222,49.99998 6.11111,3.33332 28.33333,11.1111 22.22222,7.77778 32.22222,17.77777 15.55556,15.55554 22.77778,49.44441 1.11111,3.88889 -2.77778,3.88889 H 306.24305 q -52.22222,-49.44441 -56.11111,-53.3333 -2.77777,-5.55556 -7.5,-26.38888 -4.72222,-20.83331 -15.83333,-28.61109 -6.66667,-5 -21.66667,-3.33333 -11.66666,-13.33333 -31.66666,-54.99997 -0.55556,-1.66667 0.55555,-3.88889 6.11111,-12.22221 13.88889,-21.66665 5,-6.66667 34.44445,-33.33332 29.44444,-26.66665 30,-27.2222 6.11111,-8.33333 22.77777,-43.61109 16.66667,-35.27776 18.33334,-40.83331 1.11111,-2.77778 3.88889,-41.666652 0,-3.33333 3.33333,-3.33333 8.88889,0.55556 19.16667,3.05556 10.27777,2.5 16.38888,4.72222 l 6.11112,2.22222 q 1.66666,-7.77778 3.33333,-12.77777 1.11111,-3.33333 3.88889,-1.66666 33.33333,14.44443 60.27778,35.55553 26.94444,21.111102 40.83333,44.444422 z M 84.02083,93.500088 q -1.66666,0 -1.66666,-2.22222 0,-2.22222 2.22222,-2.22222 l 193.33333,-2.77778 q -1.11111,16.111112 -1.66666,21.111102 -0.55556,1.66667 -1.11112,2.77778 z m 42.22223,66.666632 q -2.22223,-0.55555 -1.94445,-2.5 0.27778,-1.94444 1.94445,-1.94444 l 127.77777,-3.88889 q -6.11111,12.77777 -10,20.55555 z m 78.88888,54.99997 q -15,14.44444 -22.77777,21.66665 l -120,-16.66665 q -1.66667,-0.55556 -1.66667,-2.5 0,-1.94445 2.22222,-1.94445 z"
       id="path1"
       style="fill:#ffffff;stroke-width:0.555556" /></g></svg>
