<?xml version="1.0" encoding="UTF-8" standalone="no"?>
<!-- Created with Inkscape (http://www.inkscape.org/) -->

<svg
   width="256"
   height="256"
   viewBox="0 0 256 256"
   version="1.1"
   id="svg5"
   inkscape:version="1.2.1 (9c6d41e410, 2022-07-14)"
   sodipodi:docname="Range.svg"
   xmlns:inkscape="http://www.inkscape.org/namespaces/inkscape"
   xmlns:sodipodi="http://sodipodi.sourceforge.net/DTD/sodipodi-0.dtd"
   xmlns="http://www.w3.org/2000/svg"
   xmlns:svg="http://www.w3.org/2000/svg">
  <sodipodi:namedview
     id="namedview7"
     pagecolor="#505050"
     bordercolor="#ffffff"
     borderopacity="1"
     inkscape:showpageshadow="0"
     inkscape:pageopacity="0"
     inkscape:pagecheckerboard="1"
     inkscape:deskcolor="#505050"
     inkscape:document-units="px"
     showgrid="true"
     inkscape:lockguides="true"
     inkscape:zoom="3.2382812"
     inkscape:cx="90.325694"
     inkscape:cy="92.641737"
     inkscape:window-width="1920"
     inkscape:window-height="1009"
     inkscape:window-x="-8"
     inkscape:window-y="-8"
     inkscape:window-maximized="1"
     inkscape:current-layer="layer1">
    <inkscape:grid
       type="xygrid"
       id="grid234"
       empspacing="4"
       originx="0"
       originy="0" />
  </sodipodi:namedview>
  <defs
     id="defs2">
    <clipPath
       clipPathUnits="userSpaceOnUse"
       id="clipPath266">
      <path
         d="M 0,300 H 300 V 0 H 0 Z"
         id="path264" />
    </clipPath>
  </defs>
  <g
     inkscape:label="Layer 1"
     inkscape:groupmode="layer"
     id="layer1">
    <g
       id="g260"
       transform="matrix(1,0,0,-1.0000007,-20.0753,274.3368)"
       style="fill:#ffffff">
      <g
         id="g262"
         clip-path="url(#clipPath266)"
         style="fill:#ffffff">
        <g
           id="g268"
           transform="translate(83.5189,108.5928)"
           style="fill:#ffffff">
          <path
             d="m 0,0 -16.316,129.236 c 0.024,-0.02 0.046,-0.036 0.071,-0.055 10.503,-8.434 26.666,-6.715 42.221,-15.298 13.848,-7.645 27.632,-19.576 54.168,-56.893 26.536,-37.317 33.279,-54.255 35.954,-69.845 3,-17.511 -3.931,-32.214 0.587,-44.904 0.01,-0.029 0.018,-0.055 0.028,-0.085 z m 127.398,-49.345 c -0.273,13.057 6.858,25.019 3.338,46.368 -3.52,21.35 -22.37,48.231 -37.39,69.354 -15.021,21.123 -34.222,47.754 -53.233,58.089 -19.009,10.335 -32.65,7.527 -44.893,12.072 -12.243,4.546 -18.267,17.489 -22.491,14.485 -2.374,-1.687 -1.914,-5.717 0.812,-10.415 L -8.282,-3.381 -5.914,-6.712 124.124,-71.158 c 3.543,-4.117 7.199,-5.875 9.571,-4.188 4.225,3.004 -6.023,12.945 -6.297,26.001"
             style="fill:#ffffff;fill-opacity:1;fill-rule:nonzero;stroke:none"
             id="path270" />
        </g>
        <g
           id="g272"
           transform="translate(111.7698,118.2012)"
           style="fill:#ffffff">
          <path
             d="m 0,0 3.535,-15.243 -35.718,-24.883 -5.648,24.342 -21.138,13.327 35.718,24.884 13.238,-8.344 96.054,68.182 -13.921,8.552 59.46,13.228 -32.018,-51.819 -3.507,15.957 z"
             style="fill:#ffffff;fill-opacity:1;fill-rule:nonzero;stroke:none"
             id="path274" />
        </g>
      </g>
    </g>
  </g>
</svg>
