<?xml version="1.0" encoding="UTF-8" standalone="no"?>
<!-- Created with Inkscape (http://www.inkscape.org/) -->

<svg
   width="512"
   height="512"
   viewBox="0 0 512 512"
   version="1.1"
   id="svg5"
   inkscape:version="1.4 (86a8ad7, 2024-10-11)"
   xml:space="preserve"
   sodipodi:docname="Retaliate.svg"
   xmlns:inkscape="http://www.inkscape.org/namespaces/inkscape"
   xmlns:sodipodi="http://sodipodi.sourceforge.net/DTD/sodipodi-0.dtd"
   xmlns="http://www.w3.org/2000/svg"
   xmlns:svg="http://www.w3.org/2000/svg"><sodipodi:namedview
     id="namedview7"
     pagecolor="#505050"
     bordercolor="#ffffff"
     borderopacity="1"
     inkscape:showpageshadow="0"
     inkscape:pageopacity="0"
     inkscape:pagecheckerboard="1"
     inkscape:deskcolor="#505050"
     inkscape:document-units="px"
     showgrid="true"
     inkscape:lockguides="true"
     inkscape:zoom="1.6191406"
     inkscape:cx="142.97708"
     inkscape:cy="456.10616"
     inkscape:window-width="3840"
     inkscape:window-height="2054"
     inkscape:window-x="2869"
     inkscape:window-y="-11"
     inkscape:window-maximized="1"
     inkscape:current-layer="layer1"><inkscape:grid
       type="xygrid"
       id="grid234"
       empspacing="4"
       originx="0"
       originy="0"
       spacingy="1"
       spacingx="1"
       units="px" /></sodipodi:namedview><defs
     id="defs2"><rect
       x="188"
       y="140"
       width="104"
       height="116"
       id="rect1" /></defs><g
     inkscape:label="Layer 1"
     inkscape:groupmode="layer"
     id="layer1"><path
       d="m 240.50878,300.93997 c 8.67696,-35.9474 -37.80681,-83.67069 -37.80681,-83.67069 l 7.4374,-9.29674 c 0,0 25.41114,1.85934 56.40034,-13.63519 17.97374,-9.29675 31.609,-61.35851 24.17159,-71.89485 -7.43741,-10.53629 -26.03093,-3.09889 -50.20252,3.09894 -24.17159,6.19781 -60.73881,6.19781 -76.23344,13.63522 -15.49458,7.4374 -88.629094,91.10809 -88.629094,101.02456 -0.619792,4.33851 48.962934,94.20699 48.962934,94.20699 0,0 18.59353,27.89027 28.51006,58.87937 57.63993,-15.49457 78.09279,-54.54086 87.38954,-92.34761 z m 11.15609,-81.81134 c -3.71869,1.85937 -6.81761,6.19785 -6.81761,10.53633 27.27051,30.98913 32.22878,76.23328 -4.33848,132.01372 -32.22875,49.58261 -83.05106,50.20239 -83.05106,50.20239 L 169.23363,472 H 274.5969 l 9.29679,-53.30131 c 0.61976,-4.33851 6.19782,-4.95827 7.4374,-1.23959 4.33848,9.91654 9.91651,27.27049 11.15609,54.5409 h 71.27518 c 0,0 -12.39571,-71.89477 -8.05723,-102.88394 2.47916,-13.63523 20.45287,-34.08806 31.60902,-52.06173 9.91651,-16.11436 9.91651,-35.94743 0,-62.59809 -73.13452,-5.57803 -145.64928,-35.32761 -145.64928,-35.32761 z m -97.30604,-99.16526 c 8.67695,-4.33848 34.08809,-7.43737 34.08809,-7.43737 l -3.09889,-60.118924 c 0,0 -15.4946,-11.775881 -28.51007,-7.437404 -17.97376,5.578061 -59.499262,45.24415 -59.499262,45.24415 0,0 -2.479134,37.186948 12.395672,74.373908 14.87481,-14.87474 30.9892,-37.80671 44.62446,-44.62436 z M 299.38825,64.182957 c 0,0 -20.45287,-24.791313 -34.08809,-24.171522 -13.63529,0 -48.34317,16.734118 -48.34317,16.734118 l -0.6198,51.441967 c 0,0 68.79605,-11.156087 76.23345,-12.395637 4.33848,-12.395674 6.81761,-31.608926 6.81761,-31.608926 z m 44.62446,151.226983 c 3.09893,-7.4374 34.08813,-107.84218 32.84854,-120.237849 -1.85934,-12.395673 -37.80681,-21.692388 -52.68162,-14.874808 0,0 -29.12986,86.769577 -31.60899,121.477437 -1.23955,11.77588 48.34314,21.07263 51.44207,13.63522 z m 78.71258,-83.0509 c -6.81764,-3.71868 -22.93203,-4.95827 -32.22882,-1.23955 0,0 -32.84854,89.86851 -27.89027,94.82675 9.29679,10.53633 42.14533,16.11435 50.82231,-0.61976 9.29678,-16.73415 22.93201,-55.16069 22.93201,-64.45743 0,-8.67696 -7.43741,-25.41108 -13.63523,-28.51001 z"
       id="text1"
       style="font-family:'FH Basic';-inkscape-font-specification:'FH Basic';white-space:pre;fill:#ffffff;stroke-width:516.486"
       aria-label="r" /></g></svg>
