<?xml version="1.0" encoding="UTF-8" standalone="no"?>
<!-- Created with Inkscape (http://www.inkscape.org/) -->

<svg
   width="512"
   height="512"
   viewBox="0 0 512 512"
   version="1.1"
   id="svg5"
   inkscape:version="1.4 (86a8ad7, 2024-10-11)"
   xml:space="preserve"
   sodipodi:docname="Retaliate.svg"
   xmlns:inkscape="http://www.inkscape.org/namespaces/inkscape"
   xmlns:sodipodi="http://sodipodi.sourceforge.net/DTD/sodipodi-0.dtd"
   xmlns="http://www.w3.org/2000/svg"
   xmlns:svg="http://www.w3.org/2000/svg"><sodipodi:namedview
     id="namedview7"
     pagecolor="#505050"
     bordercolor="#ffffff"
     borderopacity="1"
     inkscape:showpageshadow="0"
     inkscape:pageopacity="0"
     inkscape:pagecheckerboard="1"
     inkscape:deskcolor="#505050"
     inkscape:document-units="px"
     showgrid="true"
     inkscape:lockguides="true"
     inkscape:zoom="1.6191406"
     inkscape:cx="142.97708"
     inkscape:cy="456.10616"
     inkscape:window-width="3840"
     inkscape:window-height="2054"
     inkscape:window-x="2869"
     inkscape:window-y="-11"
     inkscape:window-maximized="1"
     inkscape:current-layer="layer1"><inkscape:grid
       type="xygrid"
       id="grid234"
       empspacing="4"
       originx="0"
       originy="0"
       spacingy="1"
       spacingx="1"
       units="px" /></sodipodi:namedview><defs
     id="defs2"><rect
       x="188"
       y="140"
       width="104"
       height="116"
       id="rect1" /></defs><g
     inkscape:label="Layer 1"
     inkscape:groupmode="layer"
     id="layer1"><path
       d="m 242.31924,295.68801 c 7.66291,-31.74637 -33.38848,-73.89242 -33.38848,-73.89242 l 6.56822,-8.21027 c 0,0 22.44144,1.64204 49.80905,-12.0417 15.87323,-8.21028 27.91499,-54.18779 21.34676,-63.49279 -6.56823,-9.30495 -22.9888,-2.73673 -44.33555,2.73678 -21.34676,5.4735 -53.64051,5.4735 -67.32435,12.04173 -13.68379,6.56822 -78.271359,80.46065 -78.271359,89.21822 -0.54736,3.83149 43.240829,83.19739 43.240829,83.19739 0,0 16.42058,24.63085 25.1782,51.99838 50.90378,-13.68378 68.9664,-48.16689 77.17668,-81.55532 z m 9.85232,-72.25037 c -3.2841,1.64207 -6.02087,5.47353 -6.02087,9.30499 24.08352,27.36756 28.46234,67.3242 -3.83145,116.5858 -28.46231,43.78809 -73.34522,44.33544 -73.34522,44.33544 l 10.39971,53.09307 h 93.04988 l 8.21031,-47.0722 c 0.54734,-3.83148 5.47351,-4.37882 6.56822,-1.09472 3.83146,8.75763 8.75761,24.08349 9.85233,48.16692 H 360 c 0,0 -10.94707,-63.49271 -7.11561,-90.8603 2.18943,-12.04174 18.06262,-30.10433 27.915,-45.97749 8.7576,-14.23114 8.7576,-31.74639 0,-55.2825 -64.58758,-4.92614 -128.62783,-31.19901 -128.62783,-31.19901 z m -85.93427,-87.57621 c 7.66291,-3.83146 30.10435,-6.56819 30.10435,-6.56819 L 193.6049,76.200172 c 0,0 -13.6838,-10.399681 -25.17821,-6.568225 -15.87324,4.926176 -52.54582,39.956643 -52.54582,39.956643 0,0 -2.18941,32.84106 10.94704,65.68213 13.13645,-13.13639 27.36762,-33.38839 39.40938,-39.40929 z M 294.3177,86.599852 c 0,0 -18.06263,-21.894051 -30.10435,-21.346692 -12.04179,0 -42.6935,14.778468 -42.6935,14.778468 l -0.54737,45.430152 c 0,0 60.75613,-9.85232 67.32435,-10.94701 3.83146,-10.94704 6.02087,-27.914918 6.02087,-27.914918 z m 39.40937,133.553688 c 2.73677,-6.56822 30.10439,-95.23909 29.00967,-106.18613 -1.64205,-10.94704 -33.38848,-19.157286 -46.52493,-13.13645 0,0 -25.72557,76.62916 -27.91498,107.28085 -1.09469,10.39968 42.69347,18.60996 45.43024,12.04173 z m 69.51376,-73.34507 c -6.02089,-3.2841 -20.25206,-4.37882 -28.46237,-1.09469 0,0 -29.00966,79.36593 -24.63084,83.74472 8.21031,9.30499 37.21997,14.23113 44.8829,-0.54733 8.21031,-14.77849 20.25204,-48.71428 20.25204,-56.92454 0,-7.66292 -6.56823,-22.44139 -12.04173,-25.17816 z"
       id="text1"
       style="font-family:'FH Basic';-inkscape-font-specification:'FH Basic';white-space:pre;fill:#ffffff;stroke-width:456.126"
       aria-label="r" /></g></svg>
