<?xml version="1.0" encoding="UTF-8" standalone="no"?>
<!-- Created with Inkscape (http://www.inkscape.org/) -->

<svg
   width="256"
   height="256"
   viewBox="0 0 256 256"
   version="1.1"
   id="svg5"
   inkscape:version="1.2.1 (9c6d41e410, 2022-07-14)"
   sodipodi:docname="Shield.svg"
   xmlns:inkscape="http://www.inkscape.org/namespaces/inkscape"
   xmlns:sodipodi="http://sodipodi.sourceforge.net/DTD/sodipodi-0.dtd"
   xmlns="http://www.w3.org/2000/svg"
   xmlns:svg="http://www.w3.org/2000/svg">
  <sodipodi:namedview
     id="namedview7"
     pagecolor="#505050"
     bordercolor="#ffffff"
     borderopacity="1"
     inkscape:showpageshadow="0"
     inkscape:pageopacity="0"
     inkscape:pagecheckerboard="1"
     inkscape:deskcolor="#505050"
     inkscape:document-units="px"
     showgrid="true"
     inkscape:lockguides="true"
     inkscape:zoom="1.6191406"
     inkscape:cx="123.21351"
     inkscape:cy="240.86852"
     inkscape:window-width="1920"
     inkscape:window-height="1009"
     inkscape:window-x="-8"
     inkscape:window-y="-8"
     inkscape:window-maximized="1"
     inkscape:current-layer="layer1">
    <inkscape:grid
       type="xygrid"
       id="grid234"
       empspacing="4"
       originx="0"
       originy="0" />
  </sodipodi:namedview>
  <defs
     id="defs2">
    <clipPath
       clipPathUnits="userSpaceOnUse"
       id="clipPath358">
      <path
         d="M 0,300 H 300 V 0 H 0 Z"
         id="path356" />
    </clipPath>
  </defs>
  <g
     inkscape:label="Layer 1"
     inkscape:groupmode="layer"
     id="layer1">
    <g
       id="g352"
       transform="matrix(1.0000003,0,0,-1,-22.000124,277.9999)"
       style="fill:#ffffff">
      <g
         id="g354"
         clip-path="url(#clipPath358)"
         style="fill:#ffffff">
        <g
           id="g360"
           transform="translate(260.2741,241.6924)"
           style="fill:#ffffff">
          <path
             d="m 0,0 c 0.49,1.955 -0.669,3.942 -2.609,4.487 -27.946,7.849 -88.191,9.827 -107.665,19.404 -19.474,-9.577 -79.719,-11.555 -107.665,-19.404 -1.94,-0.545 -3.099,-2.532 -2.609,-4.487 14.509,-57.853 -13.349,-87.76 -6.732,-129.802 7.503,-47.677 92.543,-55.038 117.006,-77.474 24.462,22.436 109.503,29.797 117.006,77.474 C 13.349,-87.76 -14.51,-57.853 0,0"
             style="fill:#ffffff;fill-opacity:1;fill-rule:nonzero;stroke:none"
             id="path362" />
        </g>
      </g>
    </g>
  </g>
</svg>
