<?xml version="1.0" encoding="UTF-8" standalone="no"?>
<!-- Created with Inkscape (http://www.inkscape.org/) -->

<svg
   width="256"
   height="256"
   viewBox="0 0 256 256"
   version="1.1"
   id="svg5"
   inkscape:version="1.4 (86a8ad7, 2024-10-11)"
   xml:space="preserve"
   sodipodi:docname="Targets.svg"
   xmlns:inkscape="http://www.inkscape.org/namespaces/inkscape"
   xmlns:sodipodi="http://sodipodi.sourceforge.net/DTD/sodipodi-0.dtd"
   xmlns="http://www.w3.org/2000/svg"
   xmlns:svg="http://www.w3.org/2000/svg"><sodipodi:namedview
     id="namedview7"
     pagecolor="#505050"
     bordercolor="#ffffff"
     borderopacity="1"
     inkscape:showpageshadow="0"
     inkscape:pageopacity="0"
     inkscape:pagecheckerboard="1"
     inkscape:deskcolor="#505050"
     inkscape:document-units="px"
     showgrid="true"
     inkscape:lockguides="true"
     inkscape:zoom="4.5796212"
     inkscape:cx="80.46517"
     inkscape:cy="156.23563"
     inkscape:window-width="3840"
     inkscape:window-height="2054"
     inkscape:window-x="2869"
     inkscape:window-y="-11"
     inkscape:window-maximized="1"
     inkscape:current-layer="layer1"><inkscape:grid
       type="xygrid"
       id="grid234"
       empspacing="4"
       originx="0"
       originy="0"
       spacingy="1"
       spacingx="1"
       units="px" /></sodipodi:namedview><defs
     id="defs2"><clipPath
       clipPathUnits="userSpaceOnUse"
       id="clipPath118"><path
         d="M 0,300 H 300 V 0 H 0 Z"
         transform="translate(-149.9997,-62.933604)"
         id="path118" /></clipPath><clipPath
       clipPathUnits="userSpaceOnUse"
       id="clipPath120"><path
         d="M 0,300 H 300 V 0 H 0 Z"
         transform="translate(-149.9997,-109.29981)"
         id="path120" /></clipPath></defs><g
     inkscape:label="Layer 1"
     inkscape:groupmode="layer"
     id="layer1"><path
       id="path117"
       d="m 0,0 c -48.085,0 -87.066,38.981 -87.066,87.066 0,48.085 38.981,87.067 87.066,87.067 48.086,0 87.066,-38.982 87.066,-87.067 C 87.066,38.981 48.086,0 0,0 m 0,202.755 c -63.893,0 -115.688,-51.796 -115.688,-115.689 0,-63.892 51.795,-115.688 115.688,-115.688 63.894,0 115.688,51.796 115.688,115.688 0,63.893 -51.794,115.689 -115.688,115.689"
       style="fill:#ffffff;fill-opacity:1;fill-rule:nonzero;stroke:none"
       transform="matrix(0.88888649,0,0,-0.88888985,127.9995,205.39286)"
       clip-path="url(#clipPath118)" /><path
       id="path119"
       d="m 0,0 c -22.478,0 -40.699,18.223 -40.699,40.7 0,22.478 18.221,40.7 40.699,40.7 22.479,0 40.7,-18.222 40.7,-40.7 C 40.7,18.223 22.479,0 0,0 m 0,113.636 c -40.281,0 -72.936,-32.655 -72.936,-72.936 0,-40.281 32.655,-72.935 72.936,-72.935 40.281,0 72.936,32.654 72.936,72.935 0,40.281 -32.655,72.936 -72.936,72.936"
       style="fill:#ffffff;fill-opacity:1;fill-rule:nonzero;stroke:none"
       transform="matrix(0.88888649,0,0,-0.88888985,127.9995,164.17841)"
       clip-path="url(#clipPath120)" /></g></svg>
