<?xml version="1.0" encoding="UTF-8" standalone="no"?>
<!-- Created with Inkscape (http://www.inkscape.org/) -->

<svg
   width="512"
   height="512"
   viewBox="0 0 512 512"
   version="1.1"
   id="svg5"
   inkscape:version="1.4 (86a8ad7, 2024-10-11)"
   xml:space="preserve"
   sodipodi:docname="Targets.svg"
   xmlns:inkscape="http://www.inkscape.org/namespaces/inkscape"
   xmlns:sodipodi="http://sodipodi.sourceforge.net/DTD/sodipodi-0.dtd"
   xmlns="http://www.w3.org/2000/svg"
   xmlns:svg="http://www.w3.org/2000/svg"><sodipodi:namedview
     id="namedview7"
     pagecolor="#505050"
     bordercolor="#ffffff"
     borderopacity="1"
     inkscape:showpageshadow="0"
     inkscape:pageopacity="0"
     inkscape:pagecheckerboard="1"
     inkscape:deskcolor="#505050"
     inkscape:document-units="px"
     showgrid="true"
     inkscape:lockguides="true"
     inkscape:zoom="2.2898106"
     inkscape:cx="108.08754"
     inkscape:cy="276.22372"
     inkscape:window-width="3840"
     inkscape:window-height="2054"
     inkscape:window-x="2869"
     inkscape:window-y="-11"
     inkscape:window-maximized="1"
     inkscape:current-layer="layer1"><inkscape:grid
       type="xygrid"
       id="grid234"
       empspacing="4"
       originx="0"
       originy="0"
       spacingy="1"
       spacingx="1"
       units="px" /></sodipodi:namedview><defs
     id="defs2" /><g
     inkscape:label="Layer 1"
     inkscape:groupmode="layer"
     id="layer1"><path
       d="M 158.49994,88.22212 Q 203.22219,62.111 256,62.111 q 52.77781,0 97.50005,26.11112 44.72225,26.11113 70.5556,70.5556 Q 449.889,203.22219 449.889,256 q 0,52.77781 -25.83335,97.50006 -25.83335,44.72224 -70.5556,70.55559 Q 308.77781,449.889 256,449.889 q -52.77781,0 -97.50006,-25.83335 Q 113.7777,398.2223 87.94434,353.50006 62.111,308.77781 62.111,256 q 0,-52.77781 25.83334,-97.22228 25.83336,-44.44447 70.5556,-70.5556 z m -5.83333,271.11127 q 42.7778,42.7778 103.33339,42.7778 60.55559,0 103.33339,-42.7778 42.7778,-42.7778 42.7778,-103.33339 0,-60.55559 -42.7778,-103.05562 Q 316.55559,110.44436 256,110.44436 q -60.55559,0 -103.33339,42.50002 -42.7778,42.50003 -42.7778,103.05562 0,60.55559 42.7778,103.33339 z M 182.11107,182.11107 Q 212.66664,151.55549 256,151.55549 q 43.33336,0 73.88893,30.55558 30.55557,30.55557 30.55557,73.88893 0,43.33336 -30.55557,73.88893 Q 299.33336,360.4445 256,360.4445 q -43.33336,0 -73.88893,-30.55557 Q 151.55549,299.33336 151.55549,256 q 0,-43.33336 30.55558,-73.88893 z m 32.77779,115.27784 Q 232.1111,314.33337 256,314.33337 q 23.8889,0 41.11113,-16.94446 17.22223,-16.94445 17.22223,-41.11113 0,-24.16668 -17.22223,-41.38892 Q 279.8889,197.66663 256,197.66663 q -23.8889,0 -41.11114,17.22223 -17.22223,17.22224 -17.22223,41.38892 0,24.16668 17.22223,41.11113 z"
       id="path1"
       style="fill:#ffffff;stroke-width:0.555556" /></g></svg>
